<?xml version="1.0" encoding="UTF-8" standalone="no"?>
<!-- Generator: Adobe Illustrator 28.0.0, SVG Export Plug-In . SVG Version: 6.00 Build 0)  -->

<svg
   version="1.1"
   x="0px"
   y="0px"
   viewBox="0 0 226.77166 226.77166"
   xml:space="preserve"
   id="svg41"
   sodipodi:docname="6x6-chaos-front.svg"
   width="60mm"
   height="60mm"
   inkscape:version="1.3.2 (091e20e, 2023-11-25, custom)"
   xmlns:inkscape="http://www.inkscape.org/namespaces/inkscape"
   xmlns:sodipodi="http://sodipodi.sourceforge.net/DTD/sodipodi-0.dtd"
   xmlns="http://www.w3.org/2000/svg"
   xmlns:svg="http://www.w3.org/2000/svg"><defs
   id="defs41" /><sodipodi:namedview
   id="namedview41"
   pagecolor="#ffffff"
   bordercolor="#000000"
   borderopacity="0.25"
   inkscape:showpageshadow="2"
   inkscape:pageopacity="0.0"
   inkscape:pagecheckerboard="0"
   inkscape:deskcolor="#d1d1d1"
   inkscape:zoom="2.413588"
   inkscape:cx="180.2296"
   inkscape:cy="138.59035"
   inkscape:window-width="1920"
   inkscape:window-height="1137"
   inkscape:window-x="1912"
   inkscape:window-y="-8"
   inkscape:window-maximized="1"
   inkscape:current-layer="svg41"
   inkscape:document-units="mm" />
<style
   type="text/css"
   id="style1">
	.st0{fill:#1D1D1B;}
</style>

<g
   id="g42"
   transform="matrix(1.3333234,0,0,1.3333235,-0.01059358,2.1026043e-4)"><g
     id="Layer_1">
	<path
   d="m 148.67577,70.841522 c -8.48609,-2.684402 -19.22623,0.978325 -26.99015,9.801239 l -0.046,-0.974663 -0.0144,-0.367721 c 4.54474,-4.898003 10.20467,-8.306999 16.03229,-9.638794 4.3812,-1.000984 8.60913,-0.767487 12.30057,0.63179"
   id="path1" />
	<path
   d="m 96.161301,116.38535 c -1.528435,-6.41275 -1.484619,-13.56767 0.134918,-20.762814 1.749359,-7.771592 5.324351,-15.464363 10.338801,-22.246476 9.6246,-13.017807 23.59621,-21.455844 37.37374,-22.571895 l -0.5856,0.664776 -0.33367,0.370632 C 129.9045,53.250416 116.62713,61.450634 107.39474,73.937851 97.470093,87.36113 93.700874,103.49117 97.312004,117.08554 l -0.805214,-0.48341 -0.345489,-0.21678"
   id="path2" />
	<path
   d="m 114.56443,152.80905 0.82095,-0.54687 1.21212,-0.80733 c -5.80893,-1.05469 -11.08484,-3.31247 -15.68098,-6.7106 -10.031381,-7.4168 -15.732347,-19.45897 -16.052537,-33.90795 -0.322189,-14.532009 4.82975,-29.743168 14.506485,-42.831257 4.957412,-6.705074 10.767042,-12.422646 17.288202,-17.017517 0.004,-0.0031 0.009,-0.0062 0.0132,-0.0093 l 0.26351,-1.204937 0.27665,-1.265347 c -7.30561,4.872662 -13.77707,11.085907 -19.234592,18.467187 -9.903725,13.395202 -15.175934,28.985755 -14.845444,43.899641 0.161323,7.27884 1.650162,14.00421 4.424827,19.98907 2.882172,6.21663 7.03064,11.35535 12.329911,15.27344 4.351738,3.21745 9.282158,5.45758 14.677688,6.67178"
   id="path3" />
	<path
   d="m 83.203102,146.64822 c -7.788734,-10.36659 -11.472588,-24.33926 -10.384979,-39.47226 0.554718,-7.716991 2.309761,-15.520572 5.216225,-23.193889 3.006431,-7.936997 7.175041,-15.537804 12.390197,-22.591354 1.196633,-1.618786 2.456475,-3.217041 3.744461,-4.750401 l 0.0504,0.655293 0.04975,0.702331 c -1.058472,1.286751 -2.093583,2.613464 -3.084893,3.954495 -20.591324,27.850406 -23.387672,63.547535 -6.648781,84.879655 l -0.790466,-0.107 -0.541916,-0.0769"
   id="path4" />
	<path
   d="M 128.42371,20.089413 C 111.01561,26.685842 94.997139,39.127358 82.738152,55.707893 77.000267,63.46872 72.334297,71.81218 68.869888,80.506508 l -0.369049,-0.908005 -0.139022,-0.357307 c 3.453956,-8.439972 8.032096,-16.541657 13.616615,-24.095097 7.08123,-9.577617 15.403854,-17.795658 24.736408,-24.425672 7.1194,-5.057816 14.58761,-9.028687 22.27372,-11.848843"
   id="path5" />
	<path
   d="m 56.316307,156.75601 c -3.67371,-7.11336 -6.21606,-15.02151 -7.56253,-23.53012 -1.411942,-8.92302 -1.482224,-18.33031 -0.208847,-27.96076 2.641334,-19.976464 10.867374,-39.773232 23.78891,-57.24986 1.606941,-2.173656 3.29663,-4.321712 5.022148,-6.384411 l 0.111847,1.546082 0.03545,0.499691 c -1.380882,1.688782 -2.732544,3.426521 -4.029869,5.181251 C 47.897629,83.449882 41.778198,127.05817 58.246117,157.37128 l -1.658257,-0.52411 -0.271553,-0.0912"
   id="path6" />
	<path
   d="m 25.635191,93.373451 c 2.365808,-9.894493 5.793817,-19.737724 10.20043,-29.28527 4.807766,-10.416768 10.784328,-20.484818 17.763443,-29.924412 4.129551,-5.585167 8.61113,-10.946034 13.320003,-15.933577 l 0.01827,2.054533 -0.0022,0.46632 C 62.727421,25.306518 58.715435,30.157829 54.992088,35.193699 41.393417,53.586216 31.686077,74.439209 26.919222,95.498123 l -1.093249,-1.810257 -0.190782,-0.314415"
   id="path7" />
	<path
   d="m 30.348606,48.633762 c 4.082493,-7.396907 8.700081,-14.58953 13.785645,-21.467947 l 0.149005,1.119536 0.03002,0.231781 c -5.072437,6.932865 -9.622001,14.107689 -13.627249,21.449444"
   id="path8" />
	<path
   d="m 16.060102,46.302406 c 4.968432,-9.387272 10.73502,-18.538416 17.14926,-27.213916 1.749817,-2.366818 3.569912,-4.727177 5.409847,-7.01564 l 0.103463,1.103552 0.01881,0.255921 c -1.622505,2.037118 -3.225048,4.12496 -4.772396,6.217961 C 27.385977,28.55415 21.488308,37.960983 16.44002,47.609421 l -0.30699,-1.044686 -0.07292,-0.262329"
   id="path9" />
	<path
   d="m 152.03723,104.90947 c -0.29787,0.45348 -0.61006,0.90125 -0.93632,1.34253 -3.54807,4.79899 -8.33646,8.24265 -13.48302,9.69657 -1.75227,0.49505 -3.4758,0.74004 -5.13472,0.74004 -3.25542,1.5e-4 -6.26338,-0.94273 -8.76108,-2.78943 -7.74529,-5.7265 -8.06563,-18.474719 -0.71419,-28.417819 3.81443,-5.159324 9.17752,-8.805442 14.71379,-10.00354 l -0.52467,0.784424 -0.26047,0.379677 c -4.96315,1.350342 -9.71674,4.731979 -13.16893,9.401077 -7.04171,9.52433 -6.8101,21.679691 0.51612,27.096461 3.53038,2.61011 8.17466,3.28494 13.07716,1.89991 4.94618,-1.39733 9.55602,-4.71765 12.98029,-9.34901 0.48018,-0.64946 0.92877,-1.31325 1.34489,-1.98875"
   id="path10" />
	<path
   d="m 153.32434,65.987541 c -5.28329,-2.256382 -11.56084,-2.383728 -17.96901,-0.317329 -7.48292,2.41288 -14.46081,7.605575 -19.64812,14.621605 -0.99486,1.345657 -1.91944,2.753677 -2.74837,4.18499 l -0.23874,-0.956414 -0.0828,-0.352638 c 0.71395,-1.173576 1.48863,-2.326553 2.31018,-3.437729 5.30373,-7.173508 12.44848,-12.486084 20.11795,-14.959099 7.02717,-2.265964 13.91834,-1.974208 19.6084,0.794075"
   id="path11" />
	<path
   d="m 128.5015,140.20326 c 6.39305,-0.25563 12.94747,-2.17289 19.13122,-5.50657 l -0.31287,1.23289 c -6.41632,3.32468 -13.20442,5.15952 -19.80008,5.2449 l 0.74566,-0.74285 0.23607,-0.22837"
   id="path12" />
	<path
   d="m 115.3996,164.08583 c 12.85499,1.5118 27.00195,-1.82361 40.02212,-9.29314 l -0.3548,1.30149 c -5.07023,2.84099 -10.3112,5.06428 -15.66738,6.64189 -6.01717,1.77211 -11.94928,2.66179 -17.71608,2.66179 -2.49585,0 -4.96048,-0.16657 -7.38788,-0.50044 l 0.83771,-0.62018 0.26631,-0.19141"
   id="path13" />
	<path
   d="m 151.91154,27.716335 c -14.43669,0.128849 -29.99113,5.847443 -43.81598,16.848904 l 0.10441,-0.810715 c -0.002,0.01204 0.0709,-0.529739 0.0709,-0.529739 5.64241,-4.39114 11.66275,-7.990398 17.90831,-10.70533 6.46115,-2.808502 13.02996,-4.613913 19.52433,-5.36602 2.45276,-0.284065 4.8681,-0.416323 7.23801,-0.398741"
   id="path14" />
	<path
   d="m 151.95267,120.21783 c 1.00029,-0.83295 1.97136,-1.71672 2.90793,-2.65091 l -0.16536,-1.86457 c -0.87311,0.91913 -1.77631,1.78767 -2.70346,2.60592 l 3e-5,-5.3e-4 c -6.73801,5.94589 -14.75705,9.18557 -22.18966,9.18534 -4.76316,0 -9.28595,-1.33074 -13.07532,-4.13248 -7.09795,-5.24788 -10.29435,-14.90738 -8.51608,-25.465161 l -0.0656,-0.116562 -1.03862,-1.664215 c -1.19202,5.643458 -1.05407,11.218168 0.39924,16.121588 1.50698,5.08489 4.40422,9.32563 8.37844,12.26393 3.96331,2.93031 8.73693,4.42636 13.90303,4.42621 2.63363,-1.5e-4 5.3697,-0.38893 8.15129,-1.17479 4.62448,-1.30649 9.06611,-3.62625 13.07278,-6.77366 h 0.004 c 0.0246,-0.0194 0.0486,-0.0399 0.0732,-0.0594 0.29034,-0.22918 0.57883,-0.46191 0.86449,-0.69974 z"
   id="path15" />
	<path
   d="m 23.548931,146.38347 c -1.661207,-9.24616 -2.188732,-18.96971 -1.569408,-28.94341 l 1.632099,1.85661 c -0.477774,9.83062 0.17988,19.3957 1.959682,28.46963"
   id="path16" />
	<g
   id="Réteg_9_másolat_00000114756325506769906070000009918022602752317574_">
		<path
   class="st0"
   d="M 169.86179,0.2493692 V 169.82937 H 0.2817817 V 0.2493692 H 169.86179 m 0.25,-0.25 H 0.0317817 V 170.07937 H 170.11178 V -6.308e-4 Z"
   id="path17" />
	</g>
</g><g
     id="Layer_2">
	<g
   id="g41">
		<path
   d="m 26.34375,6.4018555 c 0,-0.7797852 -0.246094,-2.0991211 -2.033203,-2.0991211 h -1.774902 v 4.1977539 h 1.774902 c 1.787109,0 2.033203,-1.3251953 2.033203,-2.0986328 z m -3.100586,-1.475586 h 1.067383 c 0.965332,0 1.313477,0.7675781 1.313477,1.4755859 0,0.6713867 -0.341797,1.4272461 -1.313477,1.4272461 h -1.067383 z"
   id="path18" />
		<path
   d="m 29.026367,4.8544922 c 0.647461,0 1.097168,0.3237305 1.277344,0.8154297 H 31.06543 C 30.939453,4.8305664 30.105957,4.230957 29.020508,4.230957 c -1.289551,0 -2.134766,0.7915039 -2.134766,2.1464844 0,1.3852539 0.827149,2.1889648 2.134766,2.1889648 1.097168,0 1.895019,-0.5756836 2.044922,-1.4453125 h -0.761719 c -0.173828,0.4858398 -0.635742,0.8217773 -1.277344,0.8217773 -0.953613,0 -1.433105,-0.605957 -1.433105,-1.5654297 0,-0.9472655 0.479492,-1.5229491 1.433105,-1.5229491 z"
   id="path19" />
		<rect
   x="33.395508"
   y="4.3027344"
   width="0.70751947"
   height="4.1977539"
   id="rect19" />
		<polygon
   points="37.744141,8.5004883 38.757324,8.5004883 38.757324,4.3027344 38.049805,4.3027344 38.049805,7.6728516 37.96582,7.6728516 35.975098,4.3027344 34.955566,4.3027344 34.955566,8.5004883 35.663086,8.5004883 35.663086,5.1303711 35.74707,5.1303711 "
   id="polygon19" />
		<path
   d="m 63.060059,6.5253906 c 0,0.8813477 -0.335938,1.3549805 -1.163086,1.3549805 -0.827637,0 -1.163575,-0.4736328 -1.163575,-1.3549805 v -2.296875 h -0.707519 v 2.296875 c 0,1.097168 0.371582,1.9726562 1.871094,1.9726562 1.499023,0 1.870605,-0.8754883 1.870605,-1.9726562 v -2.296875 h -0.707519 z"
   id="path20" />
		<path
   d="m 66.46875,5.9555664 c -0.75,-0.1196289 -1.145508,-0.3295898 -1.145508,-0.659668 0,-0.2817383 0.299805,-0.5214844 1.001465,-0.5214844 0.971191,0 1.175293,0.4375 1.199219,0.7734375 h 0.725586 c -0.04199,-0.5756836 -0.293946,-1.3911133 -1.858887,-1.3911133 -1.229492,0 -1.787109,0.5097656 -1.787109,1.1391602 0,0.8574219 0.911621,1.1274414 1.745117,1.265625 0.695801,0.1137695 1.337402,0.2397461 1.337402,0.7255859 0,0.5214844 -0.677734,0.5932617 -1.145508,0.5932617 -0.725586,0 -1.313476,-0.1855469 -1.355469,-0.7851562 H 64.46582 c 0.02979,1.0493164 0.947266,1.3969727 2.134766,1.3969727 1.259277,0 1.804687,-0.4858398 1.804687,-1.2050781 0,-0.9594727 -0.959472,-1.1757813 -1.936523,-1.331543 z"
   id="path21" />
		<path
   d="m 72.144531,6.2792969 c 0.371582,-0.2036133 0.497559,-0.5395508 0.497559,-0.9233398 0,-0.7495117 -0.527832,-1.1274414 -1.451172,-1.1274414 h -2.086914 v 4.1977539 h 2.488769 c 0.539551,0 1.235352,-0.3178711 1.235352,-1.1513672 0,-0.4975586 -0.204102,-0.8334962 -0.683594,-0.9956055 z M 69.811523,4.8520508 h 1.139649 c 0.413574,0 0.977051,0 0.977051,0.5878906 0,0.59375 -0.539551,0.6054688 -0.935059,0.6054688 h -1.181641 z m 1.343262,2.9506836 h -1.343261 v -1.241211 h 1.469238 c 0.401855,0 0.833496,0.047852 0.833496,0.6113281 0,0.6118165 -0.551758,0.6298829 -0.959473,0.6298829 z"
   id="path22" />
		<path
   d="m 79.289551,7.046875 h -0.761719 c -0.173828,0.4858398 -0.635742,0.8217773 -1.277344,0.8217773 -0.953613,0 -1.433105,-0.605957 -1.433105,-1.5654297 0,-0.9472656 0.479492,-1.5229492 1.433105,-1.5229492 0.647461,0 1.097168,0.3237305 1.277344,0.8154297 h 0.761719 C 79.163574,4.7563476 78.330078,4.1567383 77.244629,4.1567383 c -1.289551,0 -2.134766,0.7915039 -2.134766,2.1464844 0,1.3852539 0.827149,2.1889648 2.134766,2.1889648 1.097168,0 1.895019,-0.5756836 2.044922,-1.4453125 z"
   id="path23" />
		<polygon
   points="94.878906,7.8823242 93.9375,4.3144531 92.683594,4.3144531 92.683594,8.512207 93.391602,8.512207 93.391602,5.0219727 93.493164,5.0219727 94.405273,8.512207 95.459961,8.512207 96.414062,5.0219727 96.509766,5.0219727 96.509766,8.512207 97.217773,8.512207 97.217773,4.3144531 95.969727,4.3144531 94.992188,7.8823242 "
   id="polygon23" />
		<rect
   x="98.072266"
   y="4.3144531"
   width="0.70703119"
   height="4.1977539"
   id="rect23" />
		<path
   d="M 101.40625,4.3144531 H 99.631836 V 8.512207 h 1.774414 c 1.78711,0 2.0332,-1.3251953 2.0332,-2.0986328 0,-0.7797851 -0.24609,-2.0991211 -2.0332,-2.0991211 z m 0,3.5263672 h -1.06738 v -2.902832 h 1.06738 c 0.96582,0 1.31348,0.7675781 1.31348,1.4755859 0,0.6713867 -0.3418,1.4272461 -1.31348,1.4272461 z"
   id="path24" />
		<rect
   x="104.1377"
   y="4.3144531"
   width="0.70800781"
   height="4.1977539"
   id="rect24" />
		<path
   d="m 109.36914,4.2426758 c -1.31348,0 -2.19531,0.8754883 -2.19531,2.1645508 0,1.3193359 0.86328,2.1708984 2.19531,2.1708984 1.30664,0 2.17676,-0.8696289 2.17676,-2.1708984 0,-1.3071289 -0.87598,-2.1645508 -2.17676,-2.1645508 z m 0.006,3.7177734 c -0.91797,0 -1.47559,-0.6655273 -1.47559,-1.5532227 0,-0.8754883 0.55762,-1.5532227 1.47559,-1.5532227 0.91113,0 1.45117,0.684082 1.45117,1.5532227 0,0.8754883 -0.55762,1.5532227 -1.45117,1.5532227 z"
   id="path25" />
		<path
   d="m 115.27734,6.6113281 c 0,0.8813477 -0.33593,1.3549805 -1.16308,1.3549805 -0.82715,0 -1.16309,-0.4736328 -1.16309,-1.3549805 v -2.296875 h -0.70801 v 2.296875 c 0,1.097168 0.37207,1.9726562 1.8711,1.9726562 1.49902,0 1.87109,-0.8754883 1.87109,-1.9726562 v -2.296875 h -0.70801 z"
   id="path26" />
		<polygon
   points="116.53418,4.9321289 118.20703,4.9321289 118.20703,8.512207 118.91406,8.512207 118.91406,4.9321289 120.58789,4.9321289 120.58789,4.3144531 116.53418,4.3144531 "
   id="polygon26" />
		<polygon
   points="135.05469,8.5009766 136.11035,8.5009766 137.06348,5.0107422 137.15918,5.0107422 137.15918,8.5009766 137.86719,8.5009766 137.86719,4.3032227 136.62012,4.3032227 135.64258,7.8710938 135.52832,7.8710938 134.58691,4.3032227 133.33398,4.3032227 133.33398,8.5009766 134.04102,8.5009766 134.04102,5.0107422 134.14355,5.0107422 "
   id="polygon27" />
		<rect
   x="138.72168"
   y="4.3032227"
   width="0.70800781"
   height="4.1977539"
   id="rect27" />
		<path
   d="m 144.08887,6.4023438 c 0,-0.7797852 -0.24512,-2.0991211 -2.03223,-2.0991211 h -1.77539 v 4.1977539 h 1.77539 c 1.78711,0 2.03223,-1.3251954 2.03223,-2.0986328 z m -3.09961,-1.475586 h 1.06738 c 0.96484,0 1.31348,0.7675781 1.31348,1.4755859 0,0.6713867 -0.3418,1.4272461 -1.31348,1.4272461 h -1.06738 z"
   id="path27" />
		<rect
   x="144.78809"
   y="4.3032227"
   width="0.70703119"
   height="4.1977539"
   id="rect28" />
		<rect
   x="147.97949"
   y="4.3032227"
   width="0.70800412"
   height="4.1977539"
   id="rect29" />
		<polygon
   points="150.33105,5.1308594 152.32812,8.5009766 153.34082,8.5009766 153.34082,4.3032227 152.63379,4.3032227 152.63379,7.6733398 152.5498,7.6733398 150.55859,4.3032227 149.53906,4.3032227 149.53906,8.5009766 150.24707,8.5009766 150.24707,5.1308594 "
   id="polygon29" />
		<polygon
   points="126.99902,95.650391 129.08789,98.477539 130.42871,98.477539 127.67383,94.90332 130.14941,92.175781 128.73633,92.175781 125.63086,95.704102 125.63086,92.175781 124.56836,92.175781 124.56836,98.477539 125.63086,98.477539 125.63086,97.163086 "
   id="polygon30" />
		<polygon
   points="135.51367,98.477539 137.03516,98.477539 137.03516,92.175781 135.97266,92.175781 135.97266,97.235352 135.84668,97.235352 132.85742,92.175781 131.32715,92.175781 131.32715,98.477539 132.38965,98.477539 132.38965,93.417969 132.51562,93.417969 "
   id="polygon31" />
		<path
   d="m 141.37207,92.067383 c -1.97168,0 -3.29492,1.314453 -3.29492,3.25 0,1.980469 1.2959,3.258789 3.29492,3.258789 1.96191,0 3.26758,-1.305664 3.26758,-3.258789 0,-1.962891 -1.31445,-3.25 -3.26758,-3.25 z m 0.009,5.582031 c -1.37793,0 -2.21484,-1 -2.21484,-2.332031 0,-1.314453 0.83691,-2.332031 2.21484,-2.332031 1.36816,0 2.17871,1.026367 2.17871,2.332031 0,1.314453 -0.83691,2.332031 -2.17871,2.332031 z"
   id="path31" />
		<polygon
   points="144.81738,93.102539 147.3291,93.102539 147.3291,98.477539 148.3916,98.477539 148.3916,93.102539 150.90332,93.102539 150.90332,92.175781 144.81738,92.175781 "
   id="polygon32" />
		<path
   d="m 17.655273,161.56543 -1.625488,4.19824 h 0.761719 l 0.32373,-0.85156 h 2.188965 l 0.317871,0.85156 h 0.761719 l -1.619141,-4.19824 z m -0.306152,2.72266 0.791504,-2.09864 h 0.138184 l 0.785644,2.09864 z"
   id="path32" />
		<polygon
   points="20.907715,165.76367 21.633301,165.76367 23.084473,161.43359 22.353027,161.43359 "
   id="polygon33" />
		<path
   d="m 25.665039,161.49414 c -1.067383,0 -1.774902,0.78516 -1.774902,2.16406 0,1.28321 0.689453,2.17676 1.774902,2.17676 1.067383,0 1.774902,-0.89355 1.774902,-2.17676 0,-1.3789 -0.707519,-2.16406 -1.774902,-2.16406 z m -1.055664,2.16406 c 0,-1.01269 0.335937,-1.53515 1.055664,-1.53515 0.07959,0 0.138001,0.0312 0.208496,0.0446 l -0.910156,2.72736 c -0.236572,-0.27179 -0.354004,-0.703 -0.354004,-1.23682 z m 1.055664,1.54785 c -0.0686,0 -0.130554,-0.0109 -0.192261,-0.022 l 0.915345,-2.73083 c 0.21466,0.25665 0.332092,0.65149 0.332092,1.20501 0,0.89942 -0.347656,1.54785 -1.055176,1.54785 z"
   id="path33" />
		<polygon
   points="28.245605,165.76367 28.971191,165.76367 30.422363,161.43359 29.690918,161.43359 "
   id="polygon34" />
		<path
   d="m 34.31543,163.61621 c 0.37207,-0.20312 0.498047,-0.53906 0.498047,-0.92285 0,-0.75 -0.527832,-1.12793 -1.451172,-1.12793 h -2.086914 v 4.19824 h 2.488769 c 0.539551,0 1.235352,-0.31836 1.235352,-1.15137 0,-0.49804 -0.204102,-0.83398 -0.684082,-0.99609 z m -2.33252,-1.42676 h 1.139649 c 0.413574,0 0.97705,0 0.97705,0.58789 0,0.59375 -0.53955,0.60547 -0.935547,0.60547 H 31.98291 Z m 1.343262,2.9502 H 31.98291 v -1.24121 h 1.469238 c 0.401856,0 0.833497,0.0479 0.833497,0.61133 -1e-6,0.6123 -0.551758,0.62988 -0.959473,0.62988 z"
   id="path34" />
		<polygon
   points="42.419922,165.78223 43.475098,165.78223 44.428711,162.29199 44.524414,162.29199 44.524414,165.78223 45.232422,165.78223 45.232422,161.58496 43.984863,161.58496 43.007324,165.15234 42.893555,165.15234 41.952148,161.58496 40.698731,161.58496 40.698731,165.78223 41.40625,165.78223 41.40625,162.29199 41.508301,162.29199 "
   id="polygon35" />
		<path
   d="m 48.125977,161.5127 c -1.313477,0 -2.194825,0.87597 -2.194825,2.16503 0,1.31934 0.863282,2.1709 2.194825,2.1709 1.307129,0 2.176757,-0.87011 2.176757,-2.1709 0,-1.30761 -0.875488,-2.16503 -2.176757,-2.16503 z m 0.0059,3.71777 c -0.917481,0 -1.475098,-0.66504 -1.475098,-1.55274 0,-0.87597 0.557617,-1.55371 1.475098,-1.55371 0.911621,0 1.451172,0.68457 1.451172,1.55371 0,0.875 -0.557617,1.55274 -1.451172,1.55274 z"
   id="path35" />
		<path
   d="m 52.775391,161.58496 h -1.774903 v 4.19727 h 1.774903 c 1.787109,0 2.033203,-1.3252 2.033203,-2.09864 0,-0.77929 -0.246094,-2.09863 -2.033203,-2.09863 z m 0,3.52637 h -1.067383 v -2.90332 h 1.067383 c 0.965332,0 1.313476,0.76758 1.313476,1.47558 0,0.67188 -0.341797,1.42774 -1.313476,1.42774 z"
   id="path36" />
		<polygon
   points="55.506348,165.78223 58.888672,165.78223 58.888672,165.15234 56.213867,165.15234 56.213867,163.96582 58.708496,163.96582 58.708496,163.34766 56.213867,163.34766 56.213867,162.20215 58.864258,162.20215 58.864258,161.58496 55.506348,161.58496 "
   id="polygon36" />
		<path
   d="m 71.886719,163.85645 c 0,0.88183 -0.335938,1.35546 -1.163086,1.35546 -0.827637,0 -1.163574,-0.47363 -1.163574,-1.35546 v -2.29688 h -0.70752 v 2.29688 c 0,1.09765 0.371582,1.97265 1.871094,1.97265 1.499023,0 1.870605,-0.875 1.870605,-1.97265 v -2.29688 h -0.707519 z"
   id="path37" />
		<path
   d="m 75.29541,163.28711 c -0.75,-0.12012 -1.145508,-0.33008 -1.145508,-0.66016 0,-0.28125 0.299805,-0.52148 1.001465,-0.52148 0.971192,0 1.175293,0.4375 1.199219,0.77344 h 0.725586 c -0.04199,-0.5752 -0.293945,-1.39063 -1.858887,-1.39063 -1.229492,0 -1.787109,0.50977 -1.787109,1.13867 0,0.85743 0.911621,1.12793 1.745117,1.26563 0.695801,0.11426 1.337402,0.24023 1.337402,0.72558 0,0.52149 -0.677734,0.59375 -1.145508,0.59375 -0.725585,0 -1.313476,-0.18554 -1.355468,-0.78515 H 73.29248 c 0.02979,1.04883 0.947266,1.39648 2.134766,1.39648 1.259277,0 1.804687,-0.48535 1.804687,-1.20508 10e-7,-0.95898 -0.959472,-1.17578 -1.936523,-1.33105 z"
   id="path38" />
		<path
   d="m 80.971191,163.61035 c 0.371582,-0.20312 0.497559,-0.53906 0.497559,-0.92285 0,-0.75 -0.527832,-1.12793 -1.451172,-1.12793 h -2.086914 v 4.19824 h 2.488769 c 0.539551,0 1.235352,-0.31836 1.235352,-1.15136 0,-0.49805 -0.204101,-0.83399 -0.683594,-0.9961 z m -2.333007,-1.42676 h 1.139648 c 0.413574,0 0.977051,0 0.977051,0.58789 0,0.59375 -0.539551,0.60547 -0.935059,0.60547 h -1.18164 z m 1.343261,2.9502 h -1.343261 v -1.24121 h 1.469238 c 0.401855,0 0.833496,0.0478 0.833496,0.61133 0,0.6123 -0.551758,0.62988 -0.959473,0.62988 z"
   id="path39" />
		<polygon
   points="87.366211,165.75781 88.074219,165.75781 88.074219,161.55957 87.366211,161.55957 87.366211,163.34668 84.799805,163.34668 84.799805,161.55957 84.092285,161.55957 84.092285,165.75781 84.799805,165.75781 84.799805,163.96484 87.366211,163.96484 "
   id="polygon39" />
		<path
   d="m 90.967773,161.48828 c -1.313476,0 -2.195312,0.875 -2.195312,2.16406 0,1.31934 0.863281,2.1709 2.195312,2.1709 1.306641,0 2.176758,-0.86914 2.176758,-2.1709 0,-1.30664 -0.875976,-2.16406 -2.176758,-2.16406 z m 0.0059,3.71777 c -0.917969,0 -1.475586,-0.66601 -1.475586,-1.55371 0,-0.875 0.557617,-1.55273 1.475586,-1.55273 0.911133,0 1.451172,0.68359 1.451172,1.55273 0,0.87598 -0.557618,1.55371 -1.451172,1.55371 z"
   id="path40" />
		<path
   d="m 95.689453,163.28711 c -0.75,-0.12012 -1.145508,-0.33008 -1.145508,-0.66016 0,-0.28125 0.299805,-0.52148 1.001953,-0.52148 0.970703,0 1.174805,0.4375 1.199219,0.77344 h 0.725586 c -0.04199,-0.5752 -0.293945,-1.39063 -1.859375,-1.39063 -1.229492,0 -1.787109,0.50977 -1.787109,1.13867 0,0.85743 0.912109,1.12793 1.745117,1.26563 0.696289,0.11426 1.33789,0.24023 1.33789,0.72558 0,0.52149 -0.677734,0.59375 -1.145507,0.59375 -0.725586,0 -1.313477,-0.18554 -1.355469,-0.78515 h -0.719727 c 0.03027,1.04883 0.947266,1.39648 2.134766,1.39648 1.259765,0 1.804687,-0.48535 1.804687,-1.20508 1e-6,-0.95898 -0.958984,-1.17578 -1.936523,-1.33105 z"
   id="path41" />
		<polygon
   points="97.869141,162.17773 99.541992,162.17773 99.541992,165.75781 100.24902,165.75781 100.24902,162.17773 101.92285,162.17773 101.92285,161.55957 97.869141,161.55957 "
   id="polygon41" />
	</g>
</g></g>
</svg>
