<svg xmlns="http://www.w3.org/2000/svg" viewBox="0 0 68.58 26.93"><defs><style>.cls-1{fill:#1d1d1b;}.cls-2,.cls-3{fill:#010101;}.cls-3{fill-rule:evenodd;}</style></defs><g id="Réteg_3" data-name="Réteg 3"><path class="cls-1" d="M90.87,138v2H90.6v-2Z" transform="translate(-50.87 -116.72)"/><path class="cls-1" d="M91.34,139c0-.15,0-.27,0-.39h.23l0,.24h0a.56.56,0,0,1,.49-.28c.2,0,.51.12.51.62V140h-.26v-.84c0-.23-.09-.43-.34-.43a.39.39,0,0,0-.36.27.53.53,0,0,0,0,.13V140h-.27Z" transform="translate(-50.87 -116.72)"/><path class="cls-1" d="M93.31,138.14v.42h.38v.2h-.38v.78c0,.18,0,.29.2.29l.15,0,0,.2a.78.78,0,0,1-.24,0,.36.36,0,0,1-.28-.11.52.52,0,0,1-.11-.38v-.79h-.22v-.2h.22v-.35Z" transform="translate(-50.87 -116.72)"/><path class="cls-1" d="M94.12,139.33a.46.46,0,0,0,.5.51.86.86,0,0,0,.4-.08l0,.19a1,1,0,0,1-.48.09.67.67,0,0,1-.72-.73.71.71,0,0,1,.69-.79.62.62,0,0,1,.6.69s0,.1,0,.12Zm.77-.19a.38.38,0,0,0-.36-.43.44.44,0,0,0-.41.43Z" transform="translate(-50.87 -116.72)"/><path class="cls-1" d="M96.51,140a.93.93,0,0,1-.42.08.68.68,0,0,1-.72-.74.73.73,0,0,1,.78-.77,1.1,1.1,0,0,1,.37.07l-.06.21a.62.62,0,0,0-.31-.07.51.51,0,0,0-.52.55.5.5,0,0,0,.51.54.76.76,0,0,0,.32-.07Z" transform="translate(-50.87 -116.72)"/><path class="cls-1" d="M96.82,137.88h.26v.91h0a.44.44,0,0,1,.19-.19.48.48,0,0,1,.27-.08c.19,0,.5.12.5.63V140h-.26v-.83c0-.24-.09-.44-.34-.44a.38.38,0,0,0-.35.27.25.25,0,0,0,0,.13V140h-.26Z" transform="translate(-50.87 -116.72)"/><path class="cls-1" d="M99.09,139.69a.87.87,0,0,0,.47.14c.27,0,.42-.15.42-.35s-.11-.3-.38-.4-.53-.29-.53-.58a.58.58,0,0,1,.65-.55.93.93,0,0,1,.45.1l-.07.22a.77.77,0,0,0-.39-.1c-.27,0-.38.17-.38.3s.12.29.4.39.52.3.52.6-.23.58-.71.58a1,1,0,0,1-.52-.13Z" transform="translate(-50.87 -116.72)"/><path class="cls-1" d="M100.91,138.14v.42h.37v.2h-.37v.78c0,.18,0,.29.19.29l.16,0v.2a.7.7,0,0,1-.24,0,.36.36,0,0,1-.28-.11.52.52,0,0,1-.1-.38v-.79h-.23v-.2h.23v-.35Z" transform="translate(-50.87 -116.72)"/><path class="cls-1" d="M102.8,139.62c0,.15,0,.28,0,.39h-.23l0-.23h0a.56.56,0,0,1-.48.27c-.23,0-.5-.13-.5-.64v-.85h.26v.8c0,.28.09.47.33.47a.39.39,0,0,0,.35-.24.59.59,0,0,0,0-.14v-.89h.27Z" transform="translate(-50.87 -116.72)"/><path class="cls-1" d="M104.49,137.88v1.76c0,.13,0,.27,0,.37h-.24v-.25h0a.55.55,0,0,1-.5.29.66.66,0,0,1-.62-.74.7.7,0,0,1,.65-.79.49.49,0,0,1,.44.23h0v-.87Zm-.27,1.27a.41.41,0,0,0,0-.11.39.39,0,0,0-.38-.31c-.27,0-.43.24-.43.56s.14.54.43.54a.38.38,0,0,0,.38-.31.49.49,0,0,0,0-.12Z" transform="translate(-50.87 -116.72)"/><path class="cls-1" d="M105.22,138.15a.16.16,0,0,1-.17.16.16.16,0,0,1-.16-.16.17.17,0,0,1,.17-.17A.16.16,0,0,1,105.22,138.15Zm-.29,1.86v-1.45h.26V140Z" transform="translate(-50.87 -116.72)"/><path class="cls-1" d="M106.94,139.27a.71.71,0,0,1-.72.78.7.7,0,0,1-.7-.75.72.72,0,0,1,.72-.78A.69.69,0,0,1,106.94,139.27Zm-1.15,0c0,.32.18.56.44.56s.44-.24.44-.57-.12-.56-.43-.56S105.79,139,105.79,139.29Z" transform="translate(-50.87 -116.72)"/><path class="cls-1" d="M107.92,138h.26v1.8h.87V140h-1.13Z" transform="translate(-50.87 -116.72)"/><path class="cls-1" d="M109.63,138.14v.42H110v.2h-.38v.78c0,.18.05.29.2.29l.16,0v.2a.7.7,0,0,1-.24,0,.36.36,0,0,1-.28-.11.52.52,0,0,1-.1-.38v-.79h-.23v-.2h.23v-.35Z" transform="translate(-50.87 -116.72)"/><path class="cls-1" d="M111.55,137.88v1.76c0,.13,0,.27,0,.37h-.24v-.25h0a.54.54,0,0,1-.49.29.67.67,0,0,1-.63-.74.7.7,0,0,1,.66-.79.49.49,0,0,1,.44.23h0v-.87Zm-.27,1.27a.41.41,0,0,0,0-.11.39.39,0,0,0-.38-.31c-.28,0-.44.24-.44.56s.15.54.43.54a.39.39,0,0,0,.39-.31.49.49,0,0,0,0-.12Z" transform="translate(-50.87 -116.72)"/><path class="cls-1" d="M111.89,139.86a.18.18,0,0,1,.18-.19.18.18,0,0,1,.18.19.18.18,0,1,1-.36,0Z" transform="translate(-50.87 -116.72)"/><path class="cls-1" d="M92.31,142.72c0-.28,0-.62,0-.87h0c-.07.24-.15.49-.25.77l-.36,1h-.2l-.33-1c-.09-.29-.17-.55-.23-.79h0c0,.25,0,.59,0,.89l0,.87h-.25l.14-2H91l.35,1c.08.25.15.47.2.68h0a6.6,6.6,0,0,1,.22-.68l.36-1h.33l.13,2h-.26Z" transform="translate(-50.87 -116.72)"/><path class="cls-1" d="M93.83,143.61l0-.18h0a.56.56,0,0,1-.45.22.41.41,0,0,1-.44-.42c0-.35.31-.55.87-.54v0a.3.3,0,0,0-.33-.34.67.67,0,0,0-.37.11l-.07-.18a1,1,0,0,1,.48-.13c.45,0,.56.31.56.6v.54a1.89,1.89,0,0,0,0,.35Zm0-.74c-.29,0-.62,0-.62.33a.24.24,0,0,0,.25.25.38.38,0,0,0,.36-.24s0-.06,0-.09Z" transform="translate(-50.87 -116.72)"/><path class="cls-1" d="M95.73,141.48v1.76c0,.13,0,.27,0,.37H95.5v-.25h0a.54.54,0,0,1-.49.29.66.66,0,0,1-.62-.74.69.69,0,0,1,.65-.79.49.49,0,0,1,.44.23h0v-.87Zm-.27,1.27a.41.41,0,0,0,0-.11.39.39,0,0,0-.38-.31c-.28,0-.44.24-.44.56s.15.54.43.54a.4.4,0,0,0,.39-.31.49.49,0,0,0,0-.12Z" transform="translate(-50.87 -116.72)"/><path class="cls-1" d="M96.31,142.93a.47.47,0,0,0,.5.51.83.83,0,0,0,.4-.08l.05.19a1.29,1.29,0,0,1-.49.09.67.67,0,0,1-.71-.73.71.71,0,0,1,.68-.79.62.62,0,0,1,.6.69c0,.05,0,.1,0,.12Zm.78-.19a.38.38,0,0,0-.37-.43.44.44,0,0,0-.41.43Z" transform="translate(-50.87 -116.72)"/><path class="cls-1" d="M98.6,141.75a.16.16,0,0,1-.17.16.15.15,0,0,1-.16-.16.17.17,0,0,1,.16-.17A.17.17,0,0,1,98.6,141.75Zm-.3,1.86v-1.45h.27v1.45Z" transform="translate(-50.87 -116.72)"/><path class="cls-1" d="M99,142.55c0-.15,0-.27,0-.39h.24v.24h0a.53.53,0,0,1,.48-.28c.2,0,.51.12.51.62v.87H100v-.84c0-.23-.09-.43-.34-.43a.38.38,0,0,0-.35.27.27.27,0,0,0,0,.13v.87H99Z" transform="translate(-50.87 -116.72)"/><path class="cls-1" d="M102.36,142.66h-.78v.73h.87v.22h-1.14v-2h1.1v.22h-.83v.64h.78Z" transform="translate(-50.87 -116.72)"/><path class="cls-1" d="M103.05,141.59v1.2c0,.45.2.64.47.64s.5-.2.5-.64v-1.2h.26v1.18c0,.62-.33.88-.77.88s-.72-.24-.72-.87v-1.19Z" transform="translate(-50.87 -116.72)"/></g><g id="Réteg_4" data-name="Réteg 4"><g id="b"><g id="c"><path class="cls-2" d="M52,120.72a.53.53,0,0,1,.38.51v1.07l1.16-1.45a.55.55,0,0,1,.59-.17.54.54,0,0,1,.35.51v.08l1.08-2.69a.54.54,0,0,1,1,.2v5.12l1.07-2.69a.54.54,0,0,1,1,.2v.87l1.13-1.43a.55.55,0,0,1,.59-.17.53.53,0,0,1,.36.5v.94l.63-.94V117.9a.94.94,0,0,0-.94-.93H51.81a.94.94,0,0,0-.94.93v3.8l.51-.77A.55.55,0,0,1,52,120.72Z" transform="translate(-50.87 -116.72)"/><path class="cls-2" d="M60.28,123.74a.53.53,0,0,1-.38-.51v-1.08l-1.14,1.44a.53.53,0,0,1-1-.33v-.08l-1.08,2.69a.52.52,0,0,1-.49.33h-.1a.52.52,0,0,1-.43-.52v-5.12l-1.08,2.69a.54.54,0,0,1-1-.2v-.89l-1.15,1.45a.56.56,0,0,1-.6.17.54.54,0,0,1-.35-.51v-.91l-.62.92v3.28a1,1,0,0,0,.94.94h8.64a.94.94,0,0,0,.94-.94v-3.8l-.51.77a.53.53,0,0,1-.6.22Z" transform="translate(-50.87 -116.72)"/><path class="cls-2" d="M63.45,118a.6.6,0,0,1-.2-.47.62.62,0,0,1,.2-.48.77.77,0,0,1,.55-.19.73.73,0,0,1,.54.19.63.63,0,0,1,.21.48.61.61,0,0,1-.21.47.79.79,0,0,1-.54.19A.83.83,0,0,1,63.45,118Zm1.19.53v3.69H63.35v-3.69Z" transform="translate(-50.87 -116.72)"/><path class="cls-2" d="M68.8,119a1.66,1.66,0,0,1,.38,1.15v2.15H67.89v-2a.72.72,0,0,0-.17-.5.56.56,0,0,0-.44-.18.6.6,0,0,0-.45.18.72.72,0,0,0-.17.5v2H65.38v-3.69h1.28v.52a1.37,1.37,0,0,1,.46-.4,1.47,1.47,0,0,1,.67-.16,1.3,1.3,0,0,1,1,.43Z" transform="translate(-50.87 -116.72)"/><path class="cls-2" d="M72.06,121.16v1.1H71.5a1.24,1.24,0,0,1-1.41-1.4v-1.22h-.45v-1.07h.45v-.9h1.29v.9h.67v1.07h-.67v1.24a.29.29,0,0,0,.07.21.33.33,0,0,0,.24.07Z" transform="translate(-50.87 -116.72)"/><path class="cls-2" d="M76.16,120.67H73.72a.66.66,0,0,0,.17.45.48.48,0,0,0,.37.15.47.47,0,0,0,.46-.29H76.1a1.66,1.66,0,0,1-.33.68,1.74,1.74,0,0,1-.63.47,1.85,1.85,0,0,1-.82.17,1.91,1.91,0,0,1-1-.23,1.61,1.61,0,0,1-.67-.65,2,2,0,0,1-.24-1,2,2,0,0,1,.24-1,1.68,1.68,0,0,1,.66-.66,2.06,2.06,0,0,1,1-.23,2,2,0,0,1,1,.23,1.57,1.57,0,0,1,.66.64,1.92,1.92,0,0,1,.24,1c0,.1,0,.2,0,.3Zm-1.3-.62a.44.44,0,0,0-.16-.37.56.56,0,0,0-.39-.14.56.56,0,0,0-.39.13.66.66,0,0,0-.2.38Z" transform="translate(-50.87 -116.72)"/><path class="cls-2" d="M76.73,119.41a1.68,1.68,0,0,1,.66-.66,2,2,0,0,1,1-.23,1.8,1.8,0,0,1,1.18.39,1.73,1.73,0,0,1,.62,1.07H78.79a.46.46,0,0,0-.46-.36.44.44,0,0,0-.38.2,1,1,0,0,0-.14.59A1,1,0,0,0,78,121a.42.42,0,0,0,.38.2.45.45,0,0,0,.46-.36h1.37a1.76,1.76,0,0,1-.62,1.07,1.8,1.8,0,0,1-1.18.39,2,2,0,0,1-1-.23,1.61,1.61,0,0,1-.66-.66,2,2,0,0,1-.24-1,2,2,0,0,1,.24-1Z" transform="translate(-50.87 -116.72)"/><path class="cls-2" d="M84.12,119a1.66,1.66,0,0,1,.37,1.15v2.15H83.2v-2a.72.72,0,0,0-.16-.5.57.57,0,0,0-.44-.18.57.57,0,0,0-.45.18.72.72,0,0,0-.17.5v2H80.69v-4.87H82v1.7a1.28,1.28,0,0,1,.46-.4,1.48,1.48,0,0,1,.68-.16,1.28,1.28,0,0,1,1,.43Z" transform="translate(-50.87 -116.72)"/><path class="cls-2" d="M64,127.43a1.21,1.21,0,0,1-.52-.39,1,1,0,0,1-.21-.58h.62a.62.62,0,0,0,.25.44,1,1,0,0,0,.6.17.87.87,0,0,0,.54-.15.47.47,0,0,0,.19-.39.38.38,0,0,0-.21-.35,3,3,0,0,0-.65-.22,4.07,4.07,0,0,1-.65-.22,1.16,1.16,0,0,1-.44-.32.84.84,0,0,1-.18-.56.87.87,0,0,1,.17-.51A1.12,1.12,0,0,1,64,124a1.75,1.75,0,0,1,.7-.14,1.42,1.42,0,0,1,1,.31,1.07,1.07,0,0,1,.4.82h-.6a.62.62,0,0,0-.23-.45.86.86,0,0,0-.55-.17.82.82,0,0,0-.52.14.44.44,0,0,0-.19.36.38.38,0,0,0,.12.29.65.65,0,0,0,.29.18,3.78,3.78,0,0,0,.48.16,4.6,4.6,0,0,1,.63.21,1.12,1.12,0,0,1,.42.3.91.91,0,0,1,.18.53.94.94,0,0,1-.17.54,1.14,1.14,0,0,1-.46.37,1.67,1.67,0,0,1-.69.13,2,2,0,0,1-.74-.14Z" transform="translate(-50.87 -116.72)"/><path class="cls-2" d="M67.65,124.4v2.13a.53.53,0,0,0,.11.37.59.59,0,0,0,.39.11h.44v.5h-.54a1.05,1.05,0,0,1-.75-.23,1,1,0,0,1-.25-.75V124.4h-.46v-.49h.46V123h.6v.91h.94v.49Z" transform="translate(-50.87 -116.72)"/><path class="cls-2" d="M72.51,123.91v3.6h-.6V127a1.06,1.06,0,0,1-.48.43,1.38,1.38,0,0,1-.67.16,1.61,1.61,0,0,1-.76-.18,1.26,1.26,0,0,1-.53-.52,1.7,1.7,0,0,1-.19-.85v-2.11h.59v2a1.14,1.14,0,0,0,.27.82,1.09,1.09,0,0,0,1.49,0,1.17,1.17,0,0,0,.28-.86v-2Z" transform="translate(-50.87 -116.72)"/><path class="cls-2" d="M73.52,124.73a1.62,1.62,0,0,1,.62-.65,1.71,1.71,0,0,1,.87-.23,1.66,1.66,0,0,1,.79.2,1.43,1.43,0,0,1,.55.51v-1.91H77v4.86h-.6v-.67a1.49,1.49,0,0,1-.53.53,1.62,1.62,0,0,1-.81.2,1.74,1.74,0,0,1-.87-.23,1.67,1.67,0,0,1-.62-.67,2,2,0,0,1-.22-1,2,2,0,0,1,.22-1Zm2.66.27a1.11,1.11,0,0,0-.44-.47,1.3,1.3,0,0,0-.62-.16,1.18,1.18,0,0,0-.61.16,1.15,1.15,0,0,0-.44.46,1.46,1.46,0,0,0-.16.71,1.5,1.5,0,0,0,.16.72,1.25,1.25,0,0,0,.44.47,1.26,1.26,0,0,0,1.23,0,1.17,1.17,0,0,0,.44-.47,1.46,1.46,0,0,0,.17-.71,1.43,1.43,0,0,0-.17-.71Z" transform="translate(-50.87 -116.72)"/><path class="cls-2" d="M78,123.21a.44.44,0,0,1,0-.58.4.4,0,0,1,.29-.12.35.35,0,0,1,.28.12.41.41,0,0,1,0,.58.36.36,0,0,1-.28.12A.4.4,0,0,1,78,123.21Zm.58.7v3.6H78v-3.6Z" transform="translate(-50.87 -116.72)"/><path class="cls-2" d="M80.24,127.34a1.63,1.63,0,0,1-.65-.65,2.06,2.06,0,0,1-.23-1,1.92,1.92,0,0,1,.24-1,1.69,1.69,0,0,1,.65-.65,2,2,0,0,1,1.86,0,1.69,1.69,0,0,1,.65.65,1.92,1.92,0,0,1,.24,1,1.86,1.86,0,0,1-.25,1,1.65,1.65,0,0,1-.66.65,1.85,1.85,0,0,1-.94.23,1.74,1.74,0,0,1-.91-.23Zm1.52-.44a1.11,1.11,0,0,0,.45-.46,1.39,1.39,0,0,0,.18-.73,1.53,1.53,0,0,0-.17-.74,1.18,1.18,0,0,0-1-.6,1.24,1.24,0,0,0-.6.15,1.12,1.12,0,0,0-.44.45,1.79,1.79,0,0,0,0,1.48,1.1,1.1,0,0,0,.43.45,1.2,1.2,0,0,0,.59.15,1.28,1.28,0,0,0,.61-.15Z" transform="translate(-50.87 -116.72)"/></g></g></g><g id="Réteg_5" data-name="Réteg 5"><path class="cls-3" d="M113.62,123.74l-.34,0a3.42,3.42,0,1,1,0-6.83h.34v1l-.34,0a2.39,2.39,0,0,0,0,4.78h.34Z" transform="translate(-50.87 -116.72)"/><path class="cls-3" d="M119.42,123.74l-.34,0a3.42,3.42,0,0,1,0-6.83h.34v1l-.34,0a2.39,2.39,0,0,0-2.33,1.88h2v1h-2a2.39,2.39,0,0,0,2.33,1.88h.34Z" transform="translate(-50.87 -116.72)"/></g><g id="Réteg_6" data-name="Réteg 6"><path class="cls-2" d="M113.3,129.91l-1.91-1.12,1-1.73A1.17,1.17,0,0,1,114,127l.48.81Z" transform="translate(-50.87 -116.72)"/><path class="cls-2" d="M111.75,132.56h-1a1.15,1.15,0,0,1-.66-1.58l.45-.75-.7-.4H112l1.11,1.91-.69-.38Z" transform="translate(-50.87 -116.72)"/><path class="cls-2" d="M114.38,132.83v2.24h-2.44c-.15,0-.25-.13-.33-.25-1.15-2-1.14-2-1.19-2.09a.44.44,0,0,0,.33.1Z" transform="translate(-50.87 -116.72)"/><path class="cls-2" d="M118.61,132.83a.57.57,0,0,0,.36-.13l-1.23,2.17a.34.34,0,0,1-.31.2h-1.36v.8L115,134l1.11-1.91v.77Z" transform="translate(-50.87 -116.72)"/><path class="cls-2" d="M116.42,130.47l1.92-1.1,1,1.71a1.08,1.08,0,0,1-.68,1.47h-1Z" transform="translate(-50.87 -116.72)"/><path class="cls-2" d="M114.3,126.81a.64.64,0,0,0-.38-.26h2.58a.37.37,0,0,1,.34.17l.66,1.17.67-.38-1.08,1.89h-2.17l.65-.4Z" transform="translate(-50.87 -116.72)"/></g><g id="Réteg_7" data-name="Réteg 7"><path class="cls-2" d="M97.79,118.21H96.71v.17h1.08Zm-3.07.52a.88.88,0,0,0-.37.34h.37Zm5.58,1.61-.41.41,0,.21h.49v-.62Zm-3.66,3.3-2.09-2.21.35,4Zm.42,0,2,2.11.41-4.45h0v-.08ZM94.51,121l2.34,2.47L98.24,122h-2v-.74h2.26v.43l.89-.91V120h.16l0-.56H94.38Zm5.65,6.39a.88.88,0,0,1,0,.17,1.07,1.07,0,0,1-1.07,1.07,1,1,0,0,1-.93-.57h-2.6v.55H94.9V128a.19.19,0,0,1-.16-.17l-.15-1.69L91,129.84l-.21-.21,3.8-3.87L94.15,121l-3.62-3.81v-.42l3.58,3.76-.1-1.09h-.44v-.37H94a.11.11,0,0,1,0-.07,1.34,1.34,0,0,1,.73-.67v-.24h.63v0a6.85,6.85,0,0,1,1-.13v-.15h1.81v.91H96.35v-.39a6.9,6.9,0,0,0-1,.15v.56h4.28c-.17-.4-.82-.58-1.47-.67V118a2.65,2.65,0,0,1,1.66.66.48.48,0,0,1,.39-.19.49.49,0,1,1,0,1,.38.38,0,0,1-.19,0L100,120h.25l3.23-3.29v.42L100.62,120h.06v1.29h-.84l-.45,4.8,3.32,3.49-.22.21Zm-2.11.17a1.06,1.06,0,0,1,.94-1l0-.33-2.17-2.29-1.92,2,.16,1.84h3S98.05,127.57,98.05,127.52Zm.51,0a.56.56,0,1,0,.55-.55A.56.56,0,0,0,98.56,127.52Zm.2,0a.36.36,0,0,1,.71,0,.36.36,0,1,1-.71,0Zm-7.19,4.93h10.68v2.6H91.57Z" transform="translate(-50.87 -116.72)"/></g></svg>