<svg xmlns="http://www.w3.org/2000/svg" viewBox="0 0 132.63 162.53"><defs><style>.cls-1,.cls-2{fill:#1d1d1b;}.cls-1{stroke:#1d1d1b;stroke-miterlimit:10;stroke-width:0.5px;}</style></defs><g id="Réteg_6" data-name="Réteg 6"><path class="cls-1" d="M130.39,80.47" transform="translate(-20.19 -4.28)"/><path class="cls-1" d="M130.39,76.54" transform="translate(-20.19 -4.28)"/><path class="cls-1" d="M130.39,73.7" transform="translate(-20.19 -4.28)"/><path class="cls-1" d="M130.39,70.87" transform="translate(-20.19 -4.28)"/><path class="cls-1" d="M130.39,68" transform="translate(-20.19 -4.28)"/><rect class="cls-2" x="124.12" y="7.06" width="0.5" height="72.01"/><rect class="cls-2" x="121.29" y="7.06" width="0.5" height="72.01"/><path class="cls-1" d="M130.39,118.5" transform="translate(-20.19 -4.28)"/><path class="cls-1" d="M115.75,85.46" transform="translate(-20.19 -4.28)"/><path class="cls-1" d="M113.75,85.46" transform="translate(-20.19 -4.28)"/><path class="cls-1" d="M105.73,85.46" transform="translate(-20.19 -4.28)"/><path class="cls-2" d="M24.34,158.74h-.5v-23a3.09,3.09,0,0,1,.88-2.15l11.89-12.15a3.1,3.1,0,0,1,2.2-.92H67.54a2.6,2.6,0,0,0,1.83-.76l1.9-1.9A2.57,2.57,0,0,0,72,116V105a3.14,3.14,0,0,1,.9-2.19L83.84,91.85A3.09,3.09,0,0,1,86,91h31.73v.5H86a2.59,2.59,0,0,0-1.83.75L73.28,103.12a2.59,2.59,0,0,0-.75,1.83V116a3,3,0,0,1-.91,2.18l-1.89,1.9a3.1,3.1,0,0,1-2.19.91H38.81a2.59,2.59,0,0,0-1.84.77L25.08,133.94a2.57,2.57,0,0,0-.74,1.8Z" transform="translate(-20.19 -4.28)"/><path class="cls-2" d="M86.71,158.74h-.5v-50.6a3.09,3.09,0,0,1,3.08-3.09h28.46v.5H89.29a2.59,2.59,0,0,0-2.58,2.59Z" transform="translate(-20.19 -4.28)"/><path class="cls-1" d="M128.93,126.2" transform="translate(-20.19 -4.28)"/><path class="cls-1" d="M143,117" transform="translate(-20.19 -4.28)"/><path class="cls-1" d="M83.22,107.2" transform="translate(-20.19 -4.28)"/><path class="cls-1" d="M83.22,109.41" transform="translate(-20.19 -4.28)"/><path class="cls-1" d="M83.22,106.57" transform="translate(-20.19 -4.28)"/><path class="cls-2" d="M139.15,83.35h-.5V46.61a2.57,2.57,0,0,0-.76-1.83l-9.31-9.3a2.53,2.53,0,0,0-1.82-.76H115.43a3.11,3.11,0,0,1-2.18-.9l-4.88-4.88a3.11,3.11,0,0,1-.9-2.18V11.34h.5V26.76a2.62,2.62,0,0,0,.75,1.83l4.88,4.87a2.61,2.61,0,0,0,1.83.76h11.33a3.07,3.07,0,0,1,2.18.9l9.31,9.31a3.05,3.05,0,0,1,.9,2.18Z" transform="translate(-20.19 -4.28)"/><path class="cls-2" d="M136.31,83.35h-.5V46.86a2.6,2.6,0,0,0-.75-1.83l-6.73-6.72a2.53,2.53,0,0,0-1.82-.76H115.18a3.05,3.05,0,0,1-2.18-.9l-7.46-7.46a3,3,0,0,1-.91-2.18V11.34h.5V27a2.53,2.53,0,0,0,.76,1.82l7.46,7.47a2.56,2.56,0,0,0,1.83.75h11.33a3.07,3.07,0,0,1,2.18.9l6.72,6.73a3.05,3.05,0,0,1,.9,2.18Z" transform="translate(-20.19 -4.28)"/><path class="cls-2" d="M117.75,88.54h-9.61a3.05,3.05,0,0,1-2.18-.9l-9.78-9.77a3.09,3.09,0,0,1-.9-2.18V62.39a2.57,2.57,0,0,0-.76-1.83l-1.91-1.91a2.56,2.56,0,0,0-1.82-.75H37.21A3.06,3.06,0,0,1,35,57l-5.31-5.31a3.11,3.11,0,0,1-.9-2.18V11.33h.5V49.5a2.61,2.61,0,0,0,.76,1.83l5.31,5.31a2.57,2.57,0,0,0,1.83.76H90.79a3.09,3.09,0,0,1,2.18.9l1.91,1.91a3.05,3.05,0,0,1,.9,2.18v13.3a2.56,2.56,0,0,0,.75,1.82l9.78,9.78a2.56,2.56,0,0,0,1.83.75h9.61Z" transform="translate(-20.19 -4.28)"/><path class="cls-2" d="M133.48,83.35H133V46.44a2.57,2.57,0,0,0-.76-1.83l-1.45-1.45A2.57,2.57,0,0,0,129,42.4H82.18A3.07,3.07,0,0,1,80,41.5L71.52,33a3.07,3.07,0,0,1-.9-2.18V11.33h.5V30.84a2.52,2.52,0,0,0,.75,1.82l8.48,8.49a2.56,2.56,0,0,0,1.83.75H129a3,3,0,0,1,2.17.91l1.46,1.45a3.05,3.05,0,0,1,.9,2.18Z" transform="translate(-20.19 -4.28)"/><path class="cls-2" d="M130.64,83.35h-.5V47.82a2.59,2.59,0,0,0-2.58-2.58H81.93a3,3,0,0,1-2.18-.91L68.69,33.27a3,3,0,0,1-.91-2.18V11.33h.5V31.09A2.57,2.57,0,0,0,69,32.92L80.1,44a2.57,2.57,0,0,0,1.83.76h45.63a3.08,3.08,0,0,1,3.08,3.08Z" transform="translate(-20.19 -4.28)"/><path class="cls-2" d="M83.87,158.74h-.5V106.23a3.08,3.08,0,0,1,.91-2.18l.92-.93a3.09,3.09,0,0,1,2.18-.9h30.37v.5H87.38a2.56,2.56,0,0,0-1.82.75l-.93.93a2.61,2.61,0,0,0-.76,1.83Z" transform="translate(-20.19 -4.28)"/><path class="cls-2" d="M51.27,158.74h-.5V134.69a3.07,3.07,0,0,1,.9-2.18l2.6-2.59a3,3,0,0,1,2.17-.9H68.29a2.57,2.57,0,0,0,1.83-.76l9.65-9.65a2.57,2.57,0,0,0,.76-1.83V105.7a3,3,0,0,1,.91-2.19l3.17-3.16a3.09,3.09,0,0,1,2.18-.9h31v.5h-31a2.58,2.58,0,0,0-1.82.75l-3.18,3.16A2.58,2.58,0,0,0,81,105.7v11.08a3.11,3.11,0,0,1-.9,2.18l-9.66,9.66a3.11,3.11,0,0,1-2.18.9H56.44a2.56,2.56,0,0,0-1.82.75l-2.6,2.6a2.56,2.56,0,0,0-.75,1.82Z" transform="translate(-20.19 -4.28)"/><path class="cls-2" d="M48.44,158.74h-.5v-24.3a3.07,3.07,0,0,1,.9-2.18L54,127.09a3.09,3.09,0,0,1,2.18-.9H68a2.61,2.61,0,0,0,1.83-.76l7.07-7.07a2.57,2.57,0,0,0,.76-1.83V105.44a3.13,3.13,0,0,1,.9-2.18l5.74-5.74a3.09,3.09,0,0,1,2.18-.9h31.24v.5H86.52a2.52,2.52,0,0,0-1.82.75L79,103.62a2.58,2.58,0,0,0-.75,1.82v11.09a3,3,0,0,1-.91,2.18l-7.07,7.07a3.08,3.08,0,0,1-2.18.91H56.19a2.52,2.52,0,0,0-1.82.75l-5.18,5.17a2.6,2.6,0,0,0-.75,1.83Z" transform="translate(-20.19 -4.28)"/><path class="cls-2" d="M138.65,125.15a2.61,2.61,0,0,1-.76,1.83l-1.17,1.18a3,3,0,0,0-.91,2.18v30.93a1.73,1.73,0,0,0-2.33,0V130.09a2.6,2.6,0,0,1,.75-1.83l1.18-1.18a3.11,3.11,0,0,0,.9-2.18v-17h-.5v17a2.6,2.6,0,0,1-.75,1.83l-1.18,1.18a3.05,3.05,0,0,0-.9,2.18V162a1.75,1.75,0,0,0-.13.65,1.8,1.8,0,0,0,3.59,0,1.75,1.75,0,0,0-.13-.65V130.34a2.56,2.56,0,0,1,.76-1.83l1.17-1.18a3.08,3.08,0,0,0,.91-2.18V107.88h-.5Zm-4,38.76a1.3,1.3,0,1,1,1.3-1.29A1.29,1.29,0,0,1,134.64,163.91Z" transform="translate(-20.19 -4.28)"/><path class="cls-2" d="M133.48,107.88H133v16.77a2.56,2.56,0,0,1-.76,1.83l-9.68,9.68a3.07,3.07,0,0,0-.9,2.18v22.93a1.74,1.74,0,0,0-1.17-.45,1.71,1.71,0,0,0-1.16.45V138.09a2.62,2.62,0,0,1,.75-1.83l9.68-9.67a3.09,3.09,0,0,0,.9-2.19V107.88h-.5V124.4a2.53,2.53,0,0,1-.75,1.83l-9.68,9.68a3.07,3.07,0,0,0-.9,2.18V162a1.75,1.75,0,0,0-.13.65,1.8,1.8,0,0,0,3.59,0,1.75,1.75,0,0,0-.13-.65V138.34a2.57,2.57,0,0,1,.76-1.83l9.68-9.68a3.05,3.05,0,0,0,.9-2.18Zm-13,56a1.3,1.3,0,1,1,1.3-1.29A1.29,1.29,0,0,1,120.47,163.91Z" transform="translate(-20.19 -4.28)"/><path class="cls-2" d="M150.49,162V125.2a3.06,3.06,0,0,0-.91-2.18l-4-4a2.6,2.6,0,0,1-.75-1.83v-9.3h-.5v9.3a3.07,3.07,0,0,0,.9,2.18l4,4a2.61,2.61,0,0,1,.76,1.83v36.07a1.76,1.76,0,0,0-1.17-.45,1.74,1.74,0,0,0-1.17.45V125.45a3.14,3.14,0,0,0-.9-2.19l-4-4a2.57,2.57,0,0,1-.76-1.83v-9.55h-.5v9.55a3,3,0,0,0,.91,2.18l4,4a2.57,2.57,0,0,1,.76,1.83V162a1.75,1.75,0,0,0-.12.65,1.79,1.79,0,0,0,3.58,0A2,2,0,0,0,150.49,162Zm-1.67,1.94a1.3,1.3,0,1,1,1.29-1.29A1.29,1.29,0,0,1,148.82,163.91Z" transform="translate(-20.19 -4.28)"/><path class="cls-1" d="M39.9,100.81" transform="translate(-20.19 -4.28)"/><path class="cls-2" d="M27.18,158.74h-.5v-23a3.05,3.05,0,0,1,.9-2.18l9.28-9.29a3.09,3.09,0,0,1,2.18-.9H67.79a2.6,2.6,0,0,0,1.83-.75l4.49-4.49a2.6,2.6,0,0,0,.75-1.82v-11.1a3,3,0,0,1,.9-2.17l8.34-8.34a3.05,3.05,0,0,1,2.18-.9h31.48v.5H86.28a2.57,2.57,0,0,0-1.83.76l-8.33,8.33a2.53,2.53,0,0,0-.76,1.82v11.1a3,3,0,0,1-.9,2.17L70,123a3.05,3.05,0,0,1-2.18.9H39a2.55,2.55,0,0,0-1.82.76l-9.28,9.28a2.57,2.57,0,0,0-.76,1.83Z" transform="translate(-20.19 -4.28)"/><path class="cls-2" d="M117.76,85.75h-9.34a3.13,3.13,0,0,1-2.18-.9L99,77.62a3.06,3.06,0,0,1-.91-2.18V62.14a2.6,2.6,0,0,0-.75-1.83l-4.5-4.49A2.53,2.53,0,0,0,91,55.06H37.45a3,3,0,0,1-2.17-.9l-2.74-2.73a3.05,3.05,0,0,1-.9-2.18V11.33h.5V49.25a2.53,2.53,0,0,0,.76,1.82l2.73,2.74a2.58,2.58,0,0,0,1.82.75H91a3.06,3.06,0,0,1,2.18.91L97.71,60a3.05,3.05,0,0,1,.9,2.18v13.3a2.53,2.53,0,0,0,.76,1.82l7.23,7.23a2.59,2.59,0,0,0,1.82.76h9.34Z" transform="translate(-20.19 -4.28)"/><path class="cls-1" d="M119.9,85.5" transform="translate(-20.19 -4.28)"/></g><g id="Réteg_9" data-name="Réteg 9"><path class="cls-2" d="M25.28,4.58a1.86,1.86,0,0,1,.78.74,2.2,2.2,0,0,1,.27,1.11,2.16,2.16,0,0,1-.27,1.1,1.81,1.81,0,0,1-.78.72,2.51,2.51,0,0,1-1.16.25H22.75V4.33h1.37A2.64,2.64,0,0,1,25.28,4.58Zm0,3a1.54,1.54,0,0,0,.39-1.12,1.57,1.57,0,0,0-.39-1.13,1.46,1.46,0,0,0-1.12-.41h-.68V7.94h.68A1.53,1.53,0,0,0,25.24,7.55Z" transform="translate(-20.19 -4.28)"/><path class="cls-2" d="M27.06,5.31a2,2,0,0,1,.78-.76,2.15,2.15,0,0,1,1.07-.27,2.22,2.22,0,0,1,1.18.32,1.89,1.89,0,0,1,.76.93H30A1.05,1.05,0,0,0,29.58,5a1.35,1.35,0,0,0-.67-.16,1.5,1.5,0,0,0-.74.18,1.4,1.4,0,0,0-.51.54,1.73,1.73,0,0,0-.18.81,1.79,1.79,0,0,0,.18.81,1.37,1.37,0,0,0,.51.53,1.41,1.41,0,0,0,.74.19,1.35,1.35,0,0,0,.67-.16A1.05,1.05,0,0,0,30,7.29h.83a1.82,1.82,0,0,1-.76.92,2.14,2.14,0,0,1-1.18.33,2.23,2.23,0,0,1-1.08-.28,2,2,0,0,1-.77-.76,2.11,2.11,0,0,1-.28-1.09A2.12,2.12,0,0,1,27.06,5.31Z" transform="translate(-20.19 -4.28)"/><path class="cls-2" d="M33.89,4.33V8.5h-.68V4.33Z" transform="translate(-20.19 -4.28)"/><path class="cls-2" d="M38.22,8.5h-.69L35.47,5.39V8.5h-.68V4.32h.68l2.06,3.11V4.32h.69Z" transform="translate(-20.19 -4.28)"/><path class="cls-2" d="M61.71,4.33V7A.93.93,0,0,0,62,7.7a1.13,1.13,0,0,0,1.39,0A.93.93,0,0,0,63.6,7V4.33h.69V7a1.58,1.58,0,0,1-.23.86,1.32,1.32,0,0,1-.59.53,2,2,0,0,1-.82.17,2,2,0,0,1-.82-.17,1.37,1.37,0,0,1-.59-.53A1.66,1.66,0,0,1,61,7V4.33Z" transform="translate(-20.19 -4.28)"/><path class="cls-2" d="M65.79,8.4A1.31,1.31,0,0,1,65.26,8a1.12,1.12,0,0,1-.19-.63h.73a.65.65,0,0,0,.22.44.72.72,0,0,0,.53.18.79.79,0,0,0,.55-.18.56.56,0,0,0,.2-.44A.45.45,0,0,0,67.17,7a.79.79,0,0,0-.3-.2,4.58,4.58,0,0,0-.51-.16,3.89,3.89,0,0,1-.66-.22,1.12,1.12,0,0,1-.44-.34,1,1,0,0,1-.18-.63,1.11,1.11,0,0,1,.18-.63,1.16,1.16,0,0,1,.51-.41,1.73,1.73,0,0,1,.75-.14,1.58,1.58,0,0,1,1,.3,1.12,1.12,0,0,1,.43.83h-.76A.55.55,0,0,0,67,5a.81.81,0,0,0-.52-.16A.73.73,0,0,0,66,5a.5.5,0,0,0-.19.43.41.41,0,0,0,.12.31.69.69,0,0,0,.29.2,5.05,5.05,0,0,0,.5.16,5.27,5.27,0,0,1,.67.22,1.17,1.17,0,0,1,.44.36.93.93,0,0,1,.19.63,1.19,1.19,0,0,1-.17.6,1.22,1.22,0,0,1-.5.45,1.71,1.71,0,0,1-.77.17A2.06,2.06,0,0,1,65.79,8.4Z" transform="translate(-20.19 -4.28)"/><path class="cls-2" d="M71.6,6.71a1.09,1.09,0,0,1,.23.67,1,1,0,0,1-.16.57,1.13,1.13,0,0,1-.48.4,1.67,1.67,0,0,1-.73.15H68.8V4.33h1.59a1.83,1.83,0,0,1,.73.14,1.12,1.12,0,0,1,.46.39,1,1,0,0,1,.16.54.92.92,0,0,1-.2.6,1.13,1.13,0,0,1-.51.36A1,1,0,0,1,71.6,6.71Zm-2.12-.63h.85a.81.81,0,0,0,.52-.15A.52.52,0,0,0,71,5.49a.52.52,0,0,0-.19-.44.75.75,0,0,0-.52-.16h-.85ZM71,7.77a.57.57,0,0,0,.2-.46.61.61,0,0,0-.21-.49.84.84,0,0,0-.56-.18h-.9v1.3h.92A.77.77,0,0,0,71,7.77Z" transform="translate(-20.19 -4.28)"/><path class="cls-2" d="M74.19,5.31A2,2,0,0,1,75,4.55,2.15,2.15,0,0,1,76,4.28a2.22,2.22,0,0,1,1.18.32,1.89,1.89,0,0,1,.76.93h-.83A1,1,0,0,0,76.7,5,1.29,1.29,0,0,0,76,4.88a1.5,1.5,0,0,0-.74.18,1.33,1.33,0,0,0-.51.54,1.73,1.73,0,0,0-.18.81,1.79,1.79,0,0,0,.18.81,1.3,1.3,0,0,0,.51.53,1.41,1.41,0,0,0,.74.19,1.29,1.29,0,0,0,.66-.16,1,1,0,0,0,.45-.49H78a1.82,1.82,0,0,1-.76.92A2.14,2.14,0,0,1,76,8.54,2.23,2.23,0,0,1,75,8.26a2,2,0,0,1-.77-.76,2.11,2.11,0,0,1-.28-1.09A2.12,2.12,0,0,1,74.19,5.31Z" transform="translate(-20.19 -4.28)"/><path class="cls-2" d="M97.93,4.33V8.5h-.68V5.64L96,8.5H95.5L94.23,5.64V8.5h-.69V4.33h.74L95.74,7.6,97.2,4.33Z" transform="translate(-20.19 -4.28)"/><path class="cls-2" d="M99.52,4.33V8.5h-.69V4.33Z" transform="translate(-20.19 -4.28)"/><path class="cls-2" d="M103,4.58a1.83,1.83,0,0,1,.77.74A2.2,2.2,0,0,1,104,6.43a2.16,2.16,0,0,1-.27,1.1,1.79,1.79,0,0,1-.77.72,2.58,2.58,0,0,1-1.17.25h-1.36V4.33h1.36A2.72,2.72,0,0,1,103,4.58Zm0,3a1.54,1.54,0,0,0,.39-1.12,1.57,1.57,0,0,0-.39-1.13,1.44,1.44,0,0,0-1.12-.41h-.68V7.94h.68A1.51,1.51,0,0,0,102.9,7.55Z" transform="translate(-20.19 -4.28)"/><path class="cls-2" d="M105.36,4.33V8.5h-.69V4.33Z" transform="translate(-20.19 -4.28)"/><path class="cls-2" d="M108.65,8.27a2,2,0,0,1-.78-.76,2.17,2.17,0,0,1-.28-1.1,2.12,2.12,0,0,1,.28-1.1,2,2,0,0,1,.78-.76,2.26,2.26,0,0,1,2.14,0,2,2,0,0,1,.78.76,2.22,2.22,0,0,1,.28,1.1,2.28,2.28,0,0,1-.28,1.1,2,2,0,0,1-.78.76,2.26,2.26,0,0,1-2.14,0Zm1.81-.51a1.37,1.37,0,0,0,.5-.54,1.79,1.79,0,0,0,.19-.81A1.73,1.73,0,0,0,111,5.6a1.31,1.31,0,0,0-.5-.54,1.53,1.53,0,0,0-.74-.18,1.5,1.5,0,0,0-.74.18,1.27,1.27,0,0,0-.51.54,1.73,1.73,0,0,0-.18.81,1.79,1.79,0,0,0,.18.81,1.33,1.33,0,0,0,.51.54,1.51,1.51,0,0,0,.74.19A1.54,1.54,0,0,0,110.46,7.76Z" transform="translate(-20.19 -4.28)"/><path class="cls-2" d="M113.2,4.33V7a.85.85,0,0,0,.94,1,1,1,0,0,0,.7-.24,1,1,0,0,0,.25-.71V4.33h.68V7a1.57,1.57,0,0,1-.22.86,1.43,1.43,0,0,1-.59.53,2.05,2.05,0,0,1-.83.17,2,2,0,0,1-.82-.17,1.35,1.35,0,0,1-.58-.53,1.57,1.57,0,0,1-.22-.86V4.33Z" transform="translate(-20.19 -4.28)"/><path class="cls-2" d="M119.35,4.33v.56h-1.11V8.5h-.68V4.89h-1.12V4.33Z" transform="translate(-20.19 -4.28)"/><path class="cls-2" d="M137.93,4.33V8.5h-.69V5.64L136,8.5h-.47l-1.28-2.86V8.5h-.68V4.33h.73l1.47,3.27,1.46-3.27Z" transform="translate(-20.19 -4.28)"/><path class="cls-2" d="M139.51,4.33V8.5h-.68V4.33Z" transform="translate(-20.19 -4.28)"/><path class="cls-2" d="M142.94,4.58a1.83,1.83,0,0,1,.77.74A2.11,2.11,0,0,1,144,6.43a2.07,2.07,0,0,1-.28,1.1,1.79,1.79,0,0,1-.77.72,2.52,2.52,0,0,1-1.17.25h-1.36V4.33h1.36A2.66,2.66,0,0,1,142.94,4.58Zm0,3a1.54,1.54,0,0,0,.39-1.12,1.57,1.57,0,0,0-.39-1.13,1.47,1.47,0,0,0-1.13-.41h-.67V7.94h.67A1.54,1.54,0,0,0,142.9,7.55Z" transform="translate(-20.19 -4.28)"/><path class="cls-2" d="M145.35,4.33V8.5h-.68V4.33Z" transform="translate(-20.19 -4.28)"/><path class="cls-2" d="M148.49,4.33V8.5h-.68V4.33Z" transform="translate(-20.19 -4.28)"/><path class="cls-2" d="M152.82,8.5h-.68l-2.06-3.11V8.5h-.69V4.32h.69l2.06,3.11V4.32h.68Z" transform="translate(-20.19 -4.28)"/><path class="cls-2" d="M23,164.9H21.21l-.3.86h-.72l1.5-4.18h.79L24,165.76h-.72Zm-.19-.55-.68-1.94-.68,1.94Z" transform="translate(-20.19 -4.28)"/><path class="cls-2" d="M26.84,160.09l-1.63,6.72h-.67l1.62-6.72Z" transform="translate(-20.19 -4.28)"/><path class="cls-2" d="M30.51,164a1.06,1.06,0,0,1,.23.66,1,1,0,0,1-.16.58,1.13,1.13,0,0,1-.48.4,1.67,1.67,0,0,1-.73.15H27.71v-4.17h1.58a1.69,1.69,0,0,1,.74.14,1.18,1.18,0,0,1,.46.39,1,1,0,0,1,.16.54.92.92,0,0,1-.2.6,1.09,1.09,0,0,1-.51.35A.94.94,0,0,1,30.51,164Zm-2.12-.63h.84a.78.78,0,0,0,.53-.16.51.51,0,0,0,.19-.44.55.55,0,0,0-.19-.44.84.84,0,0,0-.53-.16h-.84ZM29.86,165a.59.59,0,0,0,.2-.47.6.6,0,0,0-.21-.48.84.84,0,0,0-.56-.18h-.9v1.3h.92A.84.84,0,0,0,29.86,165Z" transform="translate(-20.19 -4.28)"/><path class="cls-2" d="M45.77,161.59v4.17h-.69V162.9l-1.27,2.86h-.47l-1.28-2.86v2.86h-.68v-4.17h.73l1.47,3.27L45,161.59Z" transform="translate(-20.19 -4.28)"/><path class="cls-2" d="M47.5,165.52a2,2,0,0,1-.78-.76,2.12,2.12,0,0,1-.28-1.1,2.14,2.14,0,0,1,.28-1.1,2.11,2.11,0,0,1,.78-.76,2.15,2.15,0,0,1,1.07-.27,2.22,2.22,0,0,1,1.08.27,2.07,2.07,0,0,1,1.05,1.86,2.12,2.12,0,0,1-.28,1.1,2,2,0,0,1-.77.76,2.12,2.12,0,0,1-1.08.28A2.06,2.06,0,0,1,47.5,165.52Zm1.81-.51a1.25,1.25,0,0,0,.5-.54,1.82,1.82,0,0,0,0-1.62,1.28,1.28,0,0,0-.5-.53,1.54,1.54,0,0,0-1.48,0,1.37,1.37,0,0,0-.51.53,1.91,1.91,0,0,0,0,1.62,1.33,1.33,0,0,0,.51.54,1.54,1.54,0,0,0,1.48,0Z" transform="translate(-20.19 -4.28)"/><path class="cls-2" d="M53.9,161.84a1.81,1.81,0,0,1,.77.73,2.14,2.14,0,0,1,.28,1.12,2.07,2.07,0,0,1-.28,1.1,1.85,1.85,0,0,1-.77.72,2.66,2.66,0,0,1-1.17.25H51.37v-4.17h1.36A2.52,2.52,0,0,1,53.9,161.84Zm0,3a1.5,1.5,0,0,0,.39-1.11,1.58,1.58,0,0,0-.39-1.14,1.5,1.5,0,0,0-1.13-.41h-.67v3.06h.67A1.5,1.5,0,0,0,53.86,164.8Z" transform="translate(-20.19 -4.28)"/><path class="cls-2" d="M56.31,162.14v1.22h1.44v.56H56.31v1.28h1.62v.56h-2.3v-4.18h2.3v.56Z" transform="translate(-20.19 -4.28)"/><path class="cls-2" d="M71.62,161.59v2.65a1,1,0,0,0,.25.72,1.13,1.13,0,0,0,1.39,0,.94.94,0,0,0,.25-.72v-2.65h.69v2.64a1.61,1.61,0,0,1-.23.87,1.3,1.3,0,0,1-.59.52,2,2,0,0,1-1.64,0,1.35,1.35,0,0,1-.59-.52,1.7,1.7,0,0,1-.21-.87v-2.64Z" transform="translate(-20.19 -4.28)"/><path class="cls-2" d="M75.7,165.65a1.31,1.31,0,0,1-.53-.42,1.12,1.12,0,0,1-.19-.63h.73a.69.69,0,0,0,.22.45.77.77,0,0,0,.53.17.79.79,0,0,0,.55-.17.56.56,0,0,0,.2-.44.49.49,0,0,0-.12-.34,1,1,0,0,0-.31-.21,5,5,0,0,0-.51-.15,5.05,5.05,0,0,1-.66-.22,1.06,1.06,0,0,1-.44-.35,1,1,0,0,1-.18-.62,1.08,1.08,0,0,1,.69-1,1.73,1.73,0,0,1,.75-.15,1.58,1.58,0,0,1,1,.3,1.14,1.14,0,0,1,.43.84h-.76a.51.51,0,0,0-.21-.39.79.79,0,0,0-.52-.17.73.73,0,0,0-.48.15.52.52,0,0,0-.19.44.43.43,0,0,0,.12.31.88.88,0,0,0,.29.2c.12,0,.29.1.5.15a5.11,5.11,0,0,1,.67.23,1.17,1.17,0,0,1,.45.35,1,1,0,0,1,.18.63,1.13,1.13,0,0,1-.17.6,1.31,1.31,0,0,1-.5.46,1.71,1.71,0,0,1-.77.17A1.87,1.87,0,0,1,75.7,165.65Z" transform="translate(-20.19 -4.28)"/><path class="cls-2" d="M81.51,164a1,1,0,0,1,.23.66,1,1,0,0,1-.16.58,1.13,1.13,0,0,1-.48.4,1.66,1.66,0,0,1-.72.15H78.71v-4.17H80.3a1.64,1.64,0,0,1,.73.14,1.12,1.12,0,0,1,.46.39.93.93,0,0,1,.16.54,1,1,0,0,1-.19.6,1.07,1.07,0,0,1-.52.35A.94.94,0,0,1,81.51,164Zm-2.12-.63h.85a.75.75,0,0,0,.52-.16.51.51,0,0,0,.19-.44.55.55,0,0,0-.19-.44.81.81,0,0,0-.52-.16h-.85ZM80.86,165a.59.59,0,0,0,.2-.47.6.6,0,0,0-.21-.48.84.84,0,0,0-.56-.18h-.9v1.3h.92A.82.82,0,0,0,80.86,165Z" transform="translate(-20.19 -4.28)"/><path class="cls-2" d="M87.38,161.59v4.17h-.69v-1.83h-2v1.83h-.68v-4.17h.68v1.78h2v-1.78Z" transform="translate(-20.19 -4.28)"/><path class="cls-2" d="M89.11,165.52a2,2,0,0,1-.78-.76,2.22,2.22,0,0,1-.28-1.1,2.25,2.25,0,0,1,.28-1.1,2.11,2.11,0,0,1,1.85-1,2.22,2.22,0,0,1,1.08.27,2.07,2.07,0,0,1,1,1.86,2.12,2.12,0,0,1-.28,1.1,2,2,0,0,1-.77.76,2.12,2.12,0,0,1-1.08.28A2.09,2.09,0,0,1,89.11,165.52Zm1.81-.51a1.25,1.25,0,0,0,.5-.54,1.82,1.82,0,0,0,0-1.62,1.28,1.28,0,0,0-.5-.53,1.54,1.54,0,0,0-1.48,0,1.28,1.28,0,0,0-.5.53,1.82,1.82,0,0,0,0,1.62,1.25,1.25,0,0,0,.5.54,1.54,1.54,0,0,0,1.48,0Z" transform="translate(-20.19 -4.28)"/><path class="cls-2" d="M93.6,165.65a1.31,1.31,0,0,1-.53-.42,1,1,0,0,1-.19-.63h.73a.69.69,0,0,0,.22.45.77.77,0,0,0,.53.17.79.79,0,0,0,.55-.17.56.56,0,0,0,.2-.44.45.45,0,0,0-.13-.34.81.81,0,0,0-.3-.21c-.13,0-.29-.1-.51-.15a5.05,5.05,0,0,1-.66-.22,1.06,1.06,0,0,1-.44-.35,1,1,0,0,1-.18-.62,1.08,1.08,0,0,1,.69-1,1.73,1.73,0,0,1,.75-.15,1.58,1.58,0,0,1,1,.3,1.14,1.14,0,0,1,.43.84H95a.51.51,0,0,0-.21-.39.82.82,0,0,0-.53-.17.76.76,0,0,0-.48.15.54.54,0,0,0-.18.44.43.43,0,0,0,.12.31.79.79,0,0,0,.29.2c.12,0,.29.1.49.15a4.82,4.82,0,0,1,.68.23,1.14,1.14,0,0,1,.44.35,1,1,0,0,1,.19.63,1.06,1.06,0,0,1-.18.6,1.28,1.28,0,0,1-.49.46,1.71,1.71,0,0,1-.77.17A1.84,1.84,0,0,1,93.6,165.65Z" transform="translate(-20.19 -4.28)"/><path class="cls-2" d="M99.3,161.59v.55H98.19v3.62h-.68v-3.62H96.39v-.55Z" transform="translate(-20.19 -4.28)"/><path class="cls-2" d="M126.59,98.71l-2.42-2.8v2.8h-1V92.46h1v2.85l2.43-2.85h1.28l-2.71,3.13,2.76,3.12Z" transform="translate(-20.19 -4.28)"/><path class="cls-2" d="M134,98.71h-1L129.87,94v4.67h-1V92.45h1L133,97.11V92.45h1Z" transform="translate(-20.19 -4.28)"/><path class="cls-2" d="M136.58,98.37a3.15,3.15,0,0,1-1.17-1.15,3.45,3.45,0,0,1,0-3.3,3.21,3.21,0,0,1,2.77-1.54,3.2,3.2,0,0,1,1.62.41A3,3,0,0,1,141,93.92a3.38,3.38,0,0,1,0,3.3,3,3,0,0,1-1.15,1.15,3.3,3.3,0,0,1-1.62.41A3.23,3.23,0,0,1,136.58,98.37Zm2.71-.77a2,2,0,0,0,.76-.81,2.64,2.64,0,0,0,.27-1.22,2.6,2.6,0,0,0-.27-1.21,1.9,1.9,0,0,0-.76-.8,2.16,2.16,0,0,0-1.11-.28,2.18,2.18,0,0,0-1.11.28,2,2,0,0,0-.76.8,2.6,2.6,0,0,0-.27,1.21,2.64,2.64,0,0,0,.27,1.22,2.05,2.05,0,0,0,.76.81,2.18,2.18,0,0,0,1.11.28A2.16,2.16,0,0,0,139.29,97.6Z" transform="translate(-20.19 -4.28)"/><path class="cls-2" d="M146.42,92.46v.83h-1.66v5.42h-1V93.29h-1.67v-.83Z" transform="translate(-20.19 -4.28)"/></g></svg>