<?xml version="1.0" encoding="UTF-8"?>
<svg xmlns="http://www.w3.org/2000/svg" viewBox="0 0 854.48 1060.96">
  <defs>
    <style>
      .cls-1 {
        fill: #010101;
      }

      .cls-1, .cls-2, .cls-3 {
        stroke-width: 0px;
      }

      .cls-3 {
        fill: #231f20;
      }
    </style>
  </defs>
  <g id="Layer_1" data-name="Layer 1">
    <path class="cls-2" d="m603.52,947.59H251.02v-352.5h352.5v352.5Zm-351.5-1h350.5v-350.5H252.02v350.5Z"/>
    <path class="cls-2" d="m604.66,483.24H250.02l.35-.75c.31-.67.48-1.42.48-2.15,0-1.3-.47-2.51-1.32-3.41-.82-.88-1.91-1.37-3.06-1.39-1.17-.02-2.24.43-3.08,1.26l-.9.9v-112.11h.53c.08,0,.13,0,.18,0,2.76-.11,4.96-2.4,4.96-5.1v-138.95c0-2.7-2.2-4.99-4.91-5.1-.1-.01-.15-.01-.21,0h-.53l-.02-.53v-109.41h369.56v109.94h-.53c-.09,0-.15,0-.22,0-2.73.12-4.92,2.41-4.92,5.1v138.95c0,2.7,2.19,4.98,4.88,5.1.11.01.17,0,.24,0h.53l.02.53v111.38l-.89-.82c-1.74-1.61-4.38-1.5-6.01.25-.85.9-1.32,2.11-1.32,3.41,0,.73.17,1.47.48,2.15l.35.75Zm-353.04-1.06h351.44c-.19-.6-.29-1.22-.29-1.84,0-1.57.57-3.03,1.6-4.13,1.77-1.9,4.51-2.24,6.62-.97v-108.61c-3.18-.23-5.67-2.9-5.67-6.14v-138.95c0-3.23,2.47-5.89,5.67-6.15v-107.85H243.55v107.85c3.13.24,5.67,2.95,5.67,6.14v138.95c0,3.18-2.52,5.88-5.67,6.14v108.7c.88-.57,1.87-.86,2.94-.84,1.44.03,2.8.64,3.81,1.72,1.03,1.1,1.6,2.57,1.6,4.13,0,.62-.1,1.24-.29,1.84Z"/>
    <path class="cls-2" d="m610.6,1060.96H243.94v-107.32l7.38-7.06h351.9l7.38,7.06v107.32Zm-365.66-1h364.66v-105.9l-6.78-6.49H251.72l-6.78,6.49v105.9Z"/>
    <path class="cls-2" d="m603.2,107.5H251.33l-7.38-6.63V0h366.62v100.87l-7.38,6.63Zm-351.5-.97h351.13l6.78-6.09V.97H244.92v99.47l6.78,6.09Z"/>
    <path class="cls-2" d="m236.57,482.71h-109.69V106.26h109.69l7.21,7.57v102.64l-.57-.07c-.06,0-.11,0-.17,0-2.87,0-5.18,2.3-5.18,5.13v138.95c0,2.83,2.31,5.13,5.14,5.13.1,0,.15,0,.2,0l.58-.07v109.61l-7.21,7.57Zm-108.67-1.02h108.23l6.63-6.97v-108.1c-3.31-.15-5.92-2.85-5.92-6.14v-138.95c0-3.31,2.63-6.02,5.92-6.15v-101.14l-6.63-6.97h-108.23v374.41Z"/>
    <path class="cls-2" d="m727.63,483.09h-109.69l-7.21-7.57v-109.98l.57.06c.07,0,.13,0,.2,0,2.87,0,5.18-2.3,5.18-5.13v-138.95c0-2.83-2.31-5.13-5.14-5.13-.12,0-.17,0-.25,0l-.56.06v-102.26l.42-.44,6.79-7.14h109.69v376.46Zm-109.25-1.02h108.23V107.65h-108.23l-6.63,6.97v100.77c3.32.13,5.95,2.84,5.95,6.15v138.95c0,3.32-2.65,6.04-5.95,6.15v108.48l.14.14,6.49,6.82Z"/>
    <path class="cls-2" d="m734.69,483.08h-6.34c-.87,0-1.58-.71-1.58-1.58V108.23c0-.87.71-1.58,1.58-1.58h6.34c.87,0,1.58.71,1.58,1.58v373.26c0,.87-.71,1.58-1.58,1.58Zm-6.34-375.43c-.32,0-.58.26-.58.58v373.26c0,.32.26.58.58.58h6.34c.32,0,.58-.26.58-.58V108.23c0-.32-.26-.58-.58-.58h-6.34Z"/>
    <path class="cls-2" d="m849.65,483.08h-114.39V106.65h114.39v113.51l4.83,3.98v140.3l-4.83,4.23v114.41Zm-113.39-1h112.39v-113.86l4.83-4.23v-139.37l-4.83-3.98v-112.99h-112.39v374.43Z"/>
    <path class="cls-2" d="m126.14,483.08h-6.34c-.87,0-1.58-.71-1.58-1.58V108.23c0-.87.71-1.58,1.58-1.58h6.34c.87,0,1.58.71,1.58,1.58v373.26c0,.87-.71,1.58-1.58,1.58Zm-6.34-375.43c-.32,0-.58.26-.58.58v373.26c0,.32.26.58.58.58h6.34c.32,0,.58-.26.58-.58V108.23c0-.32-.26-.58-.58-.58h-6.34Z"/>
    <path class="cls-2" d="m119.22,483.08H4.83v-113.51l-4.83-3.98v-140.3l4.83-4.23v-114.41h114.39v376.43Zm-113.39-1h112.39V107.65H5.83v113.86l-4.83,4.23v139.38l4.83,3.98v112.99Z"/>
    <path class="cls-2" d="m603.22,596.09H251.32l-7.38-7.05v-100.27l7.38-7.06h351.9l7.38,7.06v100.27l-7.38,7.05Zm-351.5-1h351.1l6.78-6.48v-99.41l-6.78-6.48H251.72l-6.78,6.48v99.41l6.78,6.48Z"/>
    <path class="cls-2" d="m611.19,1060.95h-1.58v-107.59h108.68v.48c0,59.06-48.05,107.11-107.11,107.11Zm-.61-.97h.61c58.37,0,105.88-47.35,106.14-105.66h-106.75v105.66Z"/>
    <path class="cls-2" d="m244.92,1060.95h-1.58c-59.06,0-107.11-48.05-107.11-107.11v-.48h108.68v107.59Zm-107.72-106.62c.26,58.3,47.77,105.66,106.14,105.66h.61v-105.66h-106.75Z"/>
    <path class="cls-2" d="m602.53,948.07v-353.46l97.21,72.91c10.74,8.06,17.16,20.89,17.16,34.32v139.01c0,13.43-6.42,26.26-17.16,34.32l-97.21,72.9Zm.98-351.5v349.54l95.64-71.73c10.5-7.87,16.77-20.41,16.77-33.53v-139.01c0-13.12-6.27-25.66-16.77-33.53l-95.64-71.73Z"/>
    <path class="cls-2" d="m252.01,948.07l-97.21-72.9c-10.74-8.06-17.16-20.89-17.16-34.32v-139.01c0-13.43,6.41-26.26,17.16-34.32l97.21-72.91v353.46Zm-.98-351.5l-95.64,71.73c-10.5,7.87-16.77,20.41-16.77,33.53v139.01c0,13.12,6.27,25.66,16.77,33.53l95.64,71.73v-349.54Z"/>
    <path class="cls-2" d="m244.92,589.21H56.87v-84.71c0-6.41,5.01-11.78,11.4-12.23l53.8-3.79v-6.75h116.2l-23.47,23.48c-.85.84-1.31,1.97-1.31,3.18s.46,2.35,1.31,3.18c.85.85,1.98,1.32,3.19,1.32s2.34-.47,3.19-1.32l23.73-23.73v101.36Zm-187.09-.95h186.14v-98.12l-22.11,22.11c-1.03,1.03-2.4,1.59-3.86,1.59s-2.83-.57-3.86-1.59c-1.02-1.01-1.59-2.38-1.59-3.86s.56-2.84,1.59-3.86l21.85-21.86h-112.96v6.69l-54.68,3.85c-5.9.42-10.52,5.38-10.52,11.29v83.75Z"/>
    <path class="cls-2" d="m217.99,513.84c-1.46,0-2.83-.57-3.86-1.59-1.02-1.01-1.59-2.38-1.59-3.86s.56-2.84,1.59-3.86l28.4-28.41c.06-.06.12-.11.18-.16,2.14-1.98,5.46-1.92,7.54.16,1.03,1.03,1.6,2.4,1.6,3.87,0,.83-.2,1.67-.58,2.43-.26.52-.6,1-1.02,1.42l-28.4,28.4c-1.03,1.03-2.4,1.59-3.86,1.59Zm28.41-38.37c-1.09,0-2.19.4-3.06,1.21-.07.06-.1.08-.14.12l-28.4,28.41c-.85.84-1.31,1.97-1.31,3.18s.46,2.35,1.31,3.18c.85.85,1.98,1.32,3.19,1.32s2.34-.47,3.19-1.32l28.4-28.4c.34-.34.63-.74.84-1.17.32-.63.48-1.33.48-2.01,0-1.21-.47-2.34-1.32-3.19s-2.03-1.32-3.18-1.32Z"/>
    <path class="cls-2" d="m732.05,107.49h-116.2l23.47-23.48c.85-.84,1.31-1.97,1.31-3.18s-.46-2.35-1.31-3.18c-1.76-1.76-4.62-1.76-6.38,0l-23.73,23.73V0h188.04v84.71c0,6.4-5.01,11.78-11.4,12.23l-53.8,3.79v6.75Zm-113.91-.95h112.96v-6.69l54.68-3.85c5.9-.42,10.52-5.38,10.52-11.29V.96h-186.14v98.12l22.11-22.11c2.13-2.13,5.59-2.13,7.72,0,1.02,1.01,1.59,2.38,1.59,3.86s-.57,2.84-1.59,3.86l-21.85,21.86Z"/>
    <path class="cls-2" d="m607.73,114.7c-1.39,0-2.79-.54-3.86-1.61-1.03-1.03-1.6-2.4-1.6-3.87,0-.83.2-1.67.58-2.43.25-.52.6-1,1.02-1.42l28.4-28.4c2.13-2.13,5.59-2.13,7.72,0,1.02,1.01,1.59,2.38,1.59,3.86s-.57,2.84-1.59,3.86l-28.4,28.41c-.06.06-.13.12-.19.17-1.03.96-2.35,1.44-3.67,1.44Zm28.4-38.38c-1.15,0-2.31.44-3.19,1.32l-28.4,28.4c-.35.35-.63.74-.84,1.17-.32.63-.48,1.33-.48,2.01,0,1.21.47,2.34,1.32,3.19,1.72,1.72,4.46,1.77,6.24.12.07-.05.1-.08.14-.12l28.4-28.41c.85-.84,1.31-1.97,1.31-3.18s-.46-2.35-1.31-3.18c-.88-.88-2.04-1.32-3.19-1.32Z"/>
    <path class="cls-2" d="m797.81,589.21h-188.04v-101.36l23.73,23.73c.85.85,1.98,1.32,3.19,1.32s2.34-.47,3.19-1.32c.85-.84,1.31-1.97,1.31-3.18s-.46-2.35-1.31-3.18l-23.47-23.48h116.2v6.75l53.8,3.79c6.39.46,11.4,5.83,11.4,12.23v84.71Zm-187.09-.95h186.14v-83.75c0-5.91-4.62-10.87-10.52-11.29l-54.68-3.85v-6.69h-112.96l21.85,21.86c1.02,1.01,1.59,2.38,1.59,3.86s-.57,2.84-1.59,3.86c-1.03,1.03-2.4,1.59-3.86,1.59s-2.83-.57-3.86-1.59l-22.11-22.11v98.12Z"/>
    <path class="cls-2" d="m636.68,513.84c-1.46,0-2.83-.57-3.86-1.59l-28.4-28.4c-.42-.42-.76-.9-1.02-1.43-.38-.75-.58-1.6-.58-2.43,0-1.46.57-2.83,1.6-3.87,2.01-2.01,5.26-2.13,7.41-.28.1.08.21.18.32.28l28.4,28.41c1.02,1.01,1.59,2.38,1.59,3.86s-.57,2.84-1.59,3.86c-1.03,1.03-2.4,1.59-3.86,1.59Zm-28.4-38.36c-1.16,0-2.31.44-3.19,1.31-.85.85-1.32,1.99-1.32,3.19,0,.69.17,1.38.48,2.01.21.44.5.83.84,1.18l28.4,28.4c.85.85,1.98,1.32,3.19,1.32s2.34-.47,3.19-1.32c.85-.84,1.31-1.97,1.31-3.18s-.46-2.35-1.31-3.18l-28.4-28.41c-.08-.08-.16-.16-.25-.22-.85-.73-1.9-1.09-2.94-1.09Z"/>
    <path class="cls-2" d="m238.09,107.49h-116.2v-6.75l-53.8-3.79c-6.39-.46-11.4-5.83-11.4-12.23V0h188.04v101.36l-23.73-23.73c-1.76-1.76-4.62-1.76-6.38,0-.85.84-1.31,1.97-1.31,3.18s.46,2.35,1.31,3.18l23.47,23.48Zm-115.25-.95h112.96l-21.85-21.86c-1.02-1.01-1.59-2.38-1.59-3.86s.56-2.84,1.59-3.86c2.13-2.13,5.59-2.13,7.72,0l22.11,22.11V.96H57.64v83.75c0,5.91,4.62,10.87,10.52,11.29l54.68,3.85v6.69Z"/>
    <path class="cls-2" d="m246.21,114.68c-1.26,0-2.53-.43-3.54-1.31-.1-.08-.21-.18-.31-.28l-28.4-28.41c-1.02-1.01-1.59-2.38-1.59-3.86s.56-2.84,1.59-3.86c2.13-2.13,5.59-2.13,7.72,0l28.4,28.4c.42.42.76.9,1.02,1.43.38.76.58,1.6.58,2.43,0,1.46-.57,2.83-1.6,3.87-1.06,1.06-2.46,1.59-3.86,1.59Zm-28.4-38.36c-1.15,0-2.31.44-3.19,1.32-.85.84-1.31,1.97-1.31,3.18s.46,2.35,1.31,3.18l28.4,28.41c.08.08.16.16.25.22,1.78,1.54,4.47,1.43,6.13-.22.85-.85,1.32-1.99,1.32-3.19,0-.69-.17-1.38-.48-2.01-.21-.44-.5-.83-.84-1.18l-28.4-28.4c-.88-.88-2.03-1.32-3.19-1.32Z"/>
    <path class="cls-2" d="m611.54,366.66c-.15,0-.25,0-.36-.01-3.27-.14-5.87-2.85-5.87-6.16v-138.95c0-3.31,2.59-6.02,5.9-6.17.08,0,.17-.01.28-.01,3.45,0,6.23,2.77,6.23,6.18v138.95c0,3.41-2.78,6.18-6.19,6.18Zm-.06-150.23c-.07,0-.13,0-.18,0-2.72.12-4.91,2.4-4.91,5.1v138.95c0,2.69,2.19,4.98,4.88,5.09.11.01.17.01.24,0,2.86,0,5.15-2.29,5.15-5.1v-138.95c0-2.81-2.29-5.1-5.11-5.1h-.06Z"/>
    <path class="cls-2" d="m243.04,366.66c-3.45,0-6.23-2.77-6.23-6.18v-138.95c0-3.41,2.78-6.18,6.19-6.18.14,0,.23,0,.34.01,3.23.13,5.89,2.89,5.89,6.16v138.95c0,3.27-2.66,6.04-5.94,6.17-.06,0-.15.01-.25.01Zm.03-150.23h-.03c-2.86,0-5.15,2.29-5.15,5.1v138.95c0,2.81,2.29,5.1,5.11,5.1.1,0,.15,0,.2,0,2.75-.11,4.95-2.4,4.95-5.1v-138.95c0-2.7-2.2-4.99-4.91-5.09-.08,0-.13,0-.18,0Z"/>
    <path class="cls-2" d="m465.14,784.84v-6.36h1.07v3.57l3.13-3.57h1.43l-2.5,2.76h0l2.78,3.61h-1.4l-2.11-2.89h0l-1.37,1.52v1.32l-1.03.05Z"/>
    <path class="cls-2" d="m471.95,784.84v-6.36h1.55l3.03,5.11h.12v-5.11h1.09v6.36h-1.54l-3.03-5.11h-.13v5.11h-1.09Z"/>
    <path class="cls-2" d="m482.07,784.94c-.61.02-1.21-.12-1.75-.4-.5-.27-.91-.68-1.17-1.18-.55-1.08-.55-2.36,0-3.44.28-.49.68-.89,1.17-1.16.54-.28,1.13-.42,1.74-.41.6-.01,1.2.13,1.73.41.49.26.9.66,1.16,1.15.28.53.42,1.12.41,1.72.01.6-.13,1.19-.4,1.73-.26.5-.67.92-1.16,1.19-.53.28-1.13.42-1.73.4Zm0-.94c.41,0,.81-.1,1.16-.3.33-.2.6-.5.77-.85.19-.37.28-.79.27-1.2,0-.42-.09-.83-.26-1.2-.17-.35-.44-.64-.77-.84-.35-.21-.75-.31-1.16-.29-.42-.01-.83.1-1.18.31-.33.2-.6.49-.78.84-.18.37-.28.79-.27,1.2,0,.42.09.84.27,1.21.17.35.44.64.78.84.36.2.77.3,1.18.28h-.01Z"/>
    <path class="cls-2" d="m488.07,784.84v-5.42h-2.54v-.94h6.15v.94h-2.55v5.42h-1.07Z"/>
    <path class="cls-2" d="m489.47,756.93c-8.57-2.71-19.42.99-27.26,9.9l-.05-.98v-.37c4.58-4.95,10.29-8.39,16.18-9.73,4.42-1.01,8.69-.78,12.42.64"/>
    <path class="cls-2" d="m436.44,802.93c-1.54-6.48-1.5-13.7.14-20.97,1.77-7.85,5.38-15.62,10.44-22.47,9.72-13.15,23.83-21.67,37.74-22.8l-.59.67-.34.37c-13.32,1.42-26.72,9.71-36.05,22.32-10.02,13.56-13.83,29.85-10.18,43.58l-.81-.49-.35-.22"/>
    <path class="cls-2" d="m455.02,839.71l.83-.55,1.22-.82c-5.87-1.07-11.19-3.35-15.84-6.78-10.13-7.49-15.89-19.65-16.21-34.24-.33-14.68,4.88-30.04,14.65-43.26,5.01-6.77,10.87-12.55,17.46-17.19,0,0,0,0,.01,0l.27-1.22.28-1.28c-7.38,4.92-13.91,11.2-19.43,18.65-10,13.53-15.33,29.27-14.99,44.33.16,7.35,1.67,14.14,4.47,20.19,2.91,6.28,7.1,11.47,12.45,15.42,4.39,3.25,9.37,5.51,14.82,6.74"/>
    <path class="cls-2" d="m423.35,833.49c-7.87-10.47-11.59-24.58-10.49-39.86.56-7.79,2.33-15.67,5.27-23.42,3.04-8.02,7.25-15.69,12.51-22.82,1.21-1.63,2.48-3.25,3.78-4.8l.05.66.05.71c-1.07,1.3-2.11,2.64-3.12,3.99-20.8,28.13-23.62,64.18-6.71,85.72l-.8-.11-.55-.08"/>
    <path class="cls-2" d="m469.02,705.68c-17.58,6.66-33.76,19.23-46.14,35.97-5.79,7.84-10.51,16.26-14.01,25.04l-.37-.92-.14-.36c3.49-8.52,8.11-16.71,13.75-24.33,7.15-9.67,15.56-17.97,24.98-24.67,7.19-5.11,14.73-9.12,22.49-11.97"/>
    <path class="cls-2" d="m396.2,843.7c-3.71-7.18-6.28-15.17-7.64-23.76-1.43-9.01-1.5-18.51-.21-28.24,2.67-20.17,10.98-40.17,24.02-57.82,1.62-2.2,3.33-4.36,5.07-6.45l.11,1.56.04.5c-1.39,1.71-2.76,3.46-4.07,5.23-25.83,34.93-32.01,78.98-15.38,109.59l-1.67-.53-.27-.09"/>
    <path class="cls-2" d="m365.21,779.69c2.39-9.99,5.85-19.93,10.3-29.58,4.86-10.52,10.89-20.69,17.94-30.22,4.17-5.64,8.7-11.05,13.45-16.09l.02,2.07v.47c-4.25,4.6-8.3,9.5-12.06,14.59-13.73,18.57-23.54,39.63-28.35,60.9l-1.1-1.83-.19-.32"/>
    <path class="cls-2" d="m369.97,734.5c4.12-7.47,8.79-14.73,13.92-21.68l.15,1.13.03.23c-5.12,7-9.72,14.25-13.76,21.66"/>
    <path class="cls-2" d="m355.54,732.15c5.02-9.48,10.84-18.72,17.32-27.48,1.77-2.39,3.61-4.77,5.46-7.09l.1,1.11.02.26c-1.64,2.06-3.26,4.17-4.82,6.28-6.65,8.99-12.6,18.49-17.7,28.24l-.31-1.06-.07-.26"/>
    <path class="cls-2" d="m492.87,791.34c-.3.46-.62.91-.95,1.36-3.58,4.85-8.42,8.32-13.62,9.79-1.77.5-3.51.75-5.19.75-3.29,0-6.33-.95-8.85-2.82-7.82-5.78-8.15-18.66-.72-28.7,3.85-5.21,9.27-8.89,14.86-10.1l-.53.79-.26.38c-5.01,1.36-9.81,4.78-13.3,9.49-7.11,9.62-6.88,21.89.52,27.37,3.57,2.64,8.26,3.32,13.21,1.92,5-1.41,9.65-4.76,13.11-9.44.48-.66.94-1.33,1.36-2.01"/>
    <path class="cls-2" d="m494.17,752.03c-5.34-2.28-11.68-2.41-18.15-.32-7.56,2.44-14.6,7.68-19.84,14.77-1,1.36-1.94,2.78-2.78,4.23l-.24-.97-.08-.36c.72-1.19,1.5-2.35,2.33-3.47,5.36-7.24,12.57-12.61,20.32-15.11,7.1-2.29,14.06-1.99,19.8.8"/>
    <path class="cls-2" d="m469.1,826.98c6.46-.26,13.08-2.19,19.32-5.56l-.32,1.25c-6.48,3.36-13.34,5.21-20,5.3l.75-.75.24-.23"/>
    <path class="cls-2" d="m455.87,851.1c12.98,1.53,27.27-1.84,40.42-9.39l-.36,1.31c-5.12,2.87-10.41,5.11-15.82,6.71-6.08,1.79-12.07,2.69-17.89,2.69-2.52,0-5.01-.17-7.46-.51l.85-.63.27-.19"/>
    <path class="cls-2" d="m492.74,713.38c-14.58.13-30.29,5.91-44.25,17.02l.11-.82s.07-.53.07-.53c5.7-4.43,11.78-8.07,18.09-10.81,6.53-2.84,13.16-4.66,19.72-5.42,2.48-.29,4.92-.42,7.31-.4"/>
    <path class="cls-2" d="m492.78,806.8c1.01-.84,1.99-1.73,2.94-2.68l-.17-1.88c-.88.93-1.79,1.81-2.73,2.63h0c-6.8,6-14.9,9.28-22.41,9.28-4.81,0-9.38-1.34-13.2-4.17-7.17-5.3-10.4-15.06-8.6-25.72l-.07-.12-1.05-1.68c-1.2,5.7-1.06,11.33.4,16.28,1.52,5.14,4.45,9.42,8.46,12.39,4,2.96,8.82,4.47,14.04,4.47,2.66,0,5.42-.39,8.23-1.19,4.67-1.32,9.16-3.66,13.2-6.84h0s.05-.04.07-.06c.29-.23.58-.47.87-.71h0Z"/>
    <path class="cls-2" d="m363.11,833.22c-1.68-9.34-2.21-19.16-1.58-29.23l1.65,1.88c-.48,9.93.18,19.59,1.98,28.75"/>
    <path class="cls-2" d="m457.84,694.82v1.69c-10.83,5.52-20.93,12.86-30.04,21.84h-.01s-.51-1.59-.51-1.59h0c9.29-9.05,19.56-16.43,30.56-21.94Z"/>
    <g>
      <path class="cls-3" d="m567.07,980.2v-5.67l8.29-6.23-3.85-3.53h-4.44v-4.47h20.57v4.47h-9.93l9.93,8.61v6.14l-9.11-8.35-11.46,9.02Z"/>
      <path class="cls-3" d="m567.1,983.64h20.57v6.44l-14.75,9.02v.53h14.75v4.47h-20.57v-6.44l14.75-9.02v-.53h-14.75v-4.47Z"/>
      <path class="cls-3" d="m577.42,1008c6.82,0,10.67,4.73,10.67,10.82s-3.88,10.87-10.67,10.87-10.7-4.7-10.7-10.87,3.7-10.82,10.7-10.82Zm0,17.08c4.03,0,6.55-2.56,6.55-6.26s-2.44-6.26-6.55-6.26-6.55,2.59-6.55,6.26,2.53,6.26,6.55,6.26Z"/>
      <path class="cls-3" d="m567.1,1039.12h16.49v-7.79h4.08v20.01h-4.08v-7.76h-16.49v-4.47Z"/>
    </g>
    <g>
      <polygon class="cls-1" points="649.93 329.82 661.29 329.82 661.29 322.57 649.93 311.22 661.29 311.22 661.29 303.98 650.31 293 649.25 293 649.25 296.58 660.61 307.94 649.25 307.94 649.25 315.18 660.61 326.54 649.25 326.54 649.25 333.77 660.23 344.75 661.29 344.75 661.29 341.17 649.93 329.82"/>
      <path class="cls-1" d="m654.2,416.86c.26-.65.47-1.47.65-2.46.14-.83.31-1.42.49-1.77s.42-.53.69-.53.49.14.65.43.23.75.23,1.38c0,.87-.13,1.5-.38,1.9-.26.4-.58.62-.95.65l-.02,2.22c.6-.02,1.18-.21,1.68-.55.47-.33.84-.84,1.09-1.53.25-.68.38-1.53.38-2.54,0-1.4-.24-2.44-.73-3.12s-1.13-1.02-1.94-1.02c-.59,0-1.08.18-1.48.55s-.72.86-.96,1.5-.43,1.41-.58,2.33c-.07.5-.18.99-.33,1.47-.12.35-.26.6-.4.74-.13.14-.31.22-.5.22-.32,0-.57-.18-.73-.53-.17-.36-.25-.87-.25-1.55,0-.83.13-1.49.38-1.97.25-.48.6-.74,1.06-.78l.02-2.3c-1.03.01-1.83.43-2.38,1.26s-.83,2.07-.83,3.73h0c0,1.46.24,2.54.72,3.26s1.13,1.07,1.97,1.07c.54.01,1.07-.18,1.47-.54.41-.36.74-.86,1-1.51Z"/>
      <path class="cls-1" d="m661.26,423.68v-2.13s-2.74,0-2.74,0v-2.08s-1.87,0-1.87,0v2.08h-4.27c-.68,0-1.25.07-1.73.21-.47.14-.88.43-1.15.83-.29.42-.44,1.02-.44,1.82h0c0,.41.04.82.1,1.22.06.42.15.83.27,1.24h1.89c-.1-.37-.18-.74-.23-1.12-.05-.33-.07-.65-.08-.98,0-.31.04-.54.12-.68.09-.15.24-.27.41-.32.26-.08.53-.11.81-.1h4.3v3.2s1.87,0,1.87,0v-3.2h2.73Z"/>
      <path class="cls-1" d="m653.81,436.03c-.84,0-1.54-.21-2.08-.63-.54-.42-.82-1.14-.82-2.18,0-.67.1-1.18.31-1.55.19-.36.51-.63.89-.77.39-.14.88-.22,1.48-.22h4.93s0-2.13,0-2.13h-4.92c-.75,0-1.49.08-2.21.28-.66.18-1.22.56-1.69,1.14s-.7,1.41-.7,2.48c0,.82.12,1.51.36,2.08.21.53.58.99,1.04,1.32v.17h-1.18s0,2.13,0,2.13h9.3s0-2.13,0-2.13h-4.72Z"/>
      <polygon class="cls-1" points="649.23 451.85 649.23 451.85 649.23 453.98 658.53 453.98 658.53 451.85 649.23 451.85"/>
      <polygon class="cls-1" points="659.65 451.78 659.65 451.78 659.65 454.03 661.61 454.03 661.61 451.78 659.65 451.78"/>
      <path class="cls-1" d="m656.63,465.09c.71-.46,1.26-1.12,1.6-1.89.69-1.66.69-3.52,0-5.17-.34-.78-.9-1.44-1.61-1.9-.73-.48-1.6-.72-2.69-.72s-2,.24-2.74.73c-.71.46-1.28,1.12-1.62,1.9-.36.81-.54,1.69-.53,2.58h0c0,1.03.19,1.94.58,2.72.37.76.95,1.39,1.68,1.82.74.44,1.61.66,2.64.66,1.08,0,1.98-.24,2.7-.72Zm-4.28-1.83c-.45-.25-.83-.62-1.08-1.07-.26-.49-.39-1.03-.38-1.58h0c0-.92.27-1.66.82-2.2s1.3-.81,2.22-.81,1.64.27,2.17.82.78,1.28.78,2.2-.27,1.66-.8,2.21-1.25.83-2.15.83c-.55,0-1.09-.12-1.58-.39h0Z"/>
      <rect class="cls-1" x="659.67" y="349.97" width="1.97" height="2.25"/>
      <polygon class="cls-1" points="649.25 350.03 649.25 350.03 649.25 352.17 658.55 352.17 658.55 350.03 649.25 350.03"/>
      <path class="cls-1" d="m658.07,362.24c.47-.58.7-1.4.7-2.48,0-.82-.12-1.51-.36-2.08-.22-.53-.58-.99-1.04-1.32v-.17h1.18s0-2.13,0-2.13h-9.3s0,2.13,0,2.13h4.72c.84,0,1.54.21,2.08.63s.82,1.14.82,2.18c0,.67-.1,1.18-.31,1.55-.19.36-.51.63-.89.77-.39.14-.88.22-1.48.22h-4.93s0,2.13,0,2.13h4.92c.75,0,1.49-.08,2.21-.28.66-.18,1.23-.56,1.69-1.14Z"/>
      <path class="cls-1" d="m661.29,368.65v-2.14s-2.74,0-2.74,0v-2.08s-1.86,0-1.86,0v2.08h-4.27c-.68,0-1.25.07-1.73.21-.47.14-.88.43-1.15.83-.29.42-.44,1.02-.44,1.83,0,.41.04.82.1,1.22.06.42.15.83.27,1.24h1.89c-.1-.37-.18-.74-.23-1.11-.04-.33-.07-.65-.07-.98,0-.31.04-.54.12-.68.09-.15.24-.27.41-.32.26-.08.53-.11.81-.1h4.3v3.2s1.87,0,1.87,0v-3.2h2.73Z"/>
      <path class="cls-1" d="m658.11,380.75c.44-.78.67-1.72.67-2.82,0-1.04-.19-1.94-.58-2.7-.37-.74-.95-1.34-1.67-1.73-.73-.4-1.6-.6-2.61-.6-1.01,0-1.88.21-2.62.63-.73.41-1.32,1.03-1.68,1.78-.39.77-.58,1.69-.58,2.76h0c0,1.24.27,2.3.82,3.18s1.34,1.4,2.38,1.59v-2.22c-.4-.17-.73-.47-.98-.92-.26-.45-.38-1.02-.38-1.68s.12-1.21.35-1.64c.21-.4.53-.73.92-.95.39-.21.82-.33,1.26-.36v7.85c1.07.09,2.01-.06,2.82-.43.8-.36,1.46-.97,1.89-1.73Zm-3.22-5.63c.36.04.71.17,1,.38.33.25.59.57.75.95.19.41.28.9.28,1.48,0,.61-.1,1.12-.3,1.53s-.45.72-.77.92c-.29.19-.62.31-.97.33v-5.6Z"/>
      <path class="cls-1" d="m656.89,388.92c0,.71-.12,1.27-.37,1.67-.24.39-.6.69-1.03.86v2.27c1.02-.14,1.82-.65,2.41-1.51.58-.86.87-1.96.87-3.29,0-.96-.19-1.81-.58-2.56-.38-.74-.97-1.35-1.69-1.76-.74-.43-1.58-.64-2.58-.64s-1.87.21-2.6.63c-.72.41-1.31,1.02-1.68,1.76-.39.75-.58,1.61-.58,2.58h0c0,1.36.29,2.46.86,3.31s1.38,1.35,2.42,1.48v-2.26c-.42-.18-.78-.48-1.03-.86-.26-.4-.39-.95-.39-1.67,0-.87.27-1.55.82-2.06.55-.5,1.3-.76,2.18-.76s1.6.25,2.15.75.82,1.19.82,2.07Z"/>
      <path class="cls-1" d="m658.07,403.36c.47-.58.7-1.4.7-2.48,0-.82-.12-1.52-.36-2.08-.22-.53-.58-.99-1.04-1.32v-.17h3.92s0-2.13,0-2.13h-12.03s0,2.13,0,2.13h4.72c.84,0,1.54.21,2.08.63s.82,1.14.82,2.18c0,.67-.1,1.18-.31,1.55-.19.36-.51.63-.89.77-.39.14-.88.22-1.48.22h-4.93s0,2.13,0,2.13h4.92c.75,0,1.49-.08,2.21-.28.66-.18,1.23-.57,1.69-1.14Z"/>
      <polygon class="cls-1" points="649.25 395.17 649.25 395.17 649.25 395.17 649.25 395.17"/>
      <path class="cls-1" d="m661.26,447.83h-3.97v-.13c.46-.4.82-.9,1.06-1.47.26-.6.39-1.28.39-2.05,0-1-.22-1.84-.66-2.53-.43-.68-1.04-1.21-1.77-1.54-.77-.35-1.6-.52-2.44-.51-.84-.01-1.67.16-2.43.51-.72.33-1.34.86-1.77,1.53h0c-.44.68-.67,1.53-.67,2.53-.01.71.12,1.41.37,2.08.25.61.58,1.11.99,1.47v.12h-1.15s0,2.13,0,2.13h12.04s0-2.13,0-2.13Zm-9.54-.79c-.58-.53-.86-1.26-.86-2.27s.29-1.77.86-2.27c.58-.5,1.28-.75,2.15-.75s1.58.25,2.15.75.85,1.27.85,2.27-.28,1.76-.85,2.28-1.3.78-2.15.78-1.57-.26-2.15-.79h0Z"/>
    </g>
    <g id="Layer_2" data-name="Layer 2">
      <g id="Layer_1-2" data-name="Layer 1-2">
        <path class="cls-1" d="m666.32,204.96l-8.82-8.82h0l-1.53-1.53h0l-4.22-4.22c-.06-.06-.06-.16,0-.22.02-.02.05-.04.09-.04l9.57-1.34c.08-.01.16.05.17.13,0,.05,0,.1-.04.13l-4.69,4.69c-.06.06-.06.16,0,.22h0s1.31,1.31,1.31,1.31c.06.06.16.06.22,0l7.95-7.95c.3-.3.3-.79,0-1.09-.17-.17-.41-.25-.65-.22l-17.19,2.42c-.42.06-.72.45-.66.87.02.17.1.32.22.44l6.42,6.42h0l1.53,1.53h0l1.67,1.66h0l1.53,1.53h0l2.37,2.37c.06.06.06.16,0,.22-.03.03-.08.05-.13.04l-3.97-.56c-.09-.01-.14-.09-.13-.18,0-.03.02-.06.04-.09l.94-.95c.06-.06.06-.16,0-.22h0s-1.31-1.31-1.31-1.31c-.06-.06-.16-.06-.22,0,0,0,0,0,0,0l-2.27,2.27s-.08.05-.13.04l-2.54-.35c-.08-.01-.14-.09-.13-.17,0-.03.02-.06.04-.09l3.36-3.36c.06-.06.06-.16,0-.22,0,0,0,0,0,0l-1.31-1.31c-.06-.06-.16-.06-.22,0,0,0,0,0,0,0l-5.55,5.55c-.3.3-.3.79,0,1.09.12.12.27.2.44.22l17.19,2.38c.42.06.81-.23.87-.65.03-.24-.05-.48-.22-.65Z"/>
        <path class="cls-1" d="m651.03,134.93c0-.81.14-1.61.44-2.36.58-1.43,1.7-2.58,3.13-3.17.73-.3,1.52-.46,2.32-.45.79,0,1.58.15,2.31.45.7.29,1.34.72,1.86,1.27.53.55.95,1.19,1.23,1.9.3.75.45,1.56.44,2.37.01.82-.13,1.64-.44,2.41-.26.63-.62,1.21-1.07,1.72-.07.07-.18.07-.24,0,0,0,0,0,0,0l-1.47-1.46c-.07-.07-.07-.18,0-.24,0,0,0,0,0,0,.27-.28.48-.6.63-.95.19-.47.28-.97.27-1.47,0-.46-.08-.92-.25-1.36-.16-.4-.41-.76-.72-1.07-.32-.31-.71-.54-1.13-.69-.94-.32-1.96-.32-2.9,0-.42.15-.8.39-1.13.69-.32.3-.56.66-.72,1.07-.17.43-.26.89-.25,1.36-.01.52.08,1.03.27,1.51.15.36.37.69.64.97.07.07.07.18,0,.24,0,0,0,0,0,0l-1.47,1.48c-.07.07-.18.07-.24,0,0,0,0,0,0,0-.46-.51-.82-1.09-1.08-1.73-.3-.79-.45-1.64-.43-2.49Z"/>
        <path class="cls-1" d="m662.42,147.34h-4.09c-.1,0-.17-.08-.17-.17v-4.15c0-.1.08-.17.17-.17h4.09c.1,0,.17-.08.17-.17v-2.21c0-.1-.08-.17-.17-.17h-11.04c-.1,0-.17.08-.17.17v2.2c0,.1.08.17.17.17h4.4c.1,0,.17.08.17.17v4.15c0,.1-.08.17-.17.17h-4.4c-.1,0-.17.08-.17.17v2.22c0,.1.08.17.17.17h11.04c.1,0,.17-.08.17-.17v-2.21c0-.1-.08-.17-.17-.17Z"/>
        <path class="cls-1" d="m651.21,159.76v2.32c0,.1.08.17.17.17.02,0,.04,0,.06-.01l11.04-4.33c.07-.03.11-.09.11-.16v-2.07c0-.07-.04-.13-.11-.16l-11.04-4.36c-.09-.03-.19,0-.22.1,0,.02-.01.04-.01.06v2.25c0,.07.05.14.11.16l1.82.67c.07.03.11.09.11.16v4.22c0,.07-.05.14-.11.16l-1.81.66c-.07.02-.12.09-.12.16Zm4.35-4.47l3.36,1.24c.09.03.13.13.1.22-.02.05-.05.08-.1.1l-3.36,1.21c-.09.03-.19-.01-.22-.1,0-.02-.01-.04-.01-.06v-2.46c0-.1.08-.17.18-.17.02,0,.04,0,.06.01Z"/>
        <path class="cls-1" d="m651.02,168.19c0-.82.15-1.63.45-2.39.29-.72.72-1.37,1.26-1.92.53-.55,1.17-.98,1.88-1.27.73-.3,1.52-.46,2.32-.45.8,0,1.59.15,2.32.45,1.42.59,2.54,1.73,3.11,3.16.3.76.45,1.57.44,2.39,0,.81-.14,1.61-.44,2.36-.29.71-.71,1.36-1.24,1.91-.53.55-1.17.98-1.87,1.27-.74.3-1.53.45-2.33.44-.79,0-1.58-.15-2.31-.45-.71-.29-1.35-.72-1.88-1.26-.53-.54-.96-1.18-1.25-1.89-.3-.75-.45-1.54-.45-2.35Zm2.32-.03c-.01.62.14,1.23.45,1.76.3.5.74.92,1.26,1.19.58.29,1.22.44,1.87.43.49,0,.98-.08,1.44-.24.42-.15.8-.39,1.13-.69.32-.3.57-.67.73-1.08.17-.44.25-.9.25-1.37.01-.62-.14-1.24-.44-1.78-.29-.51-.72-.92-1.24-1.18-.58-.29-1.22-.43-1.86-.42-.5,0-1,.08-1.47.24-.42.15-.81.39-1.14.69-.32.3-.56.67-.73,1.07-.17.44-.26.91-.25,1.38h0Z"/>
        <path class="cls-1" d="m651.03,178.74c-.02-.83.13-1.65.45-2.42.3-.66.73-1.25,1.26-1.73.07-.06.17-.06.24,0l1.4,1.4c.07.07.07.18,0,.24,0,0,0,0,0,0-.34.31-.63.69-.84,1.1-.24.48-.36,1.02-.35,1.56-.02.43.08.86.3,1.23.17.28.48.45.82.44.27.01.54-.09.73-.27.21-.22.38-.48.5-.77.14-.32.27-.67.39-1.05.13-.39.28-.77.44-1.14.17-.37.38-.73.63-1.05.25-.32.58-.59.95-.77.45-.21.94-.31,1.44-.29,1.3-.06,2.5.72,2.98,1.93.27.66.41,1.36.4,2.07.01.75-.13,1.5-.42,2.19-.23.57-.57,1.08-1.01,1.51-.07.07-.17.07-.24,0l-1.42-1.42c-.07-.07-.07-.18,0-.24,0,0,0,0,0,0,.27-.27.5-.58.67-.92.18-.36.27-.76.26-1.17.02-.37-.07-.73-.25-1.05-.15-.25-.43-.4-.72-.39-.26-.01-.52.1-.69.29-.2.23-.35.49-.46.77-.13.32-.26.67-.39,1.05s-.28.76-.44,1.15c-.16.38-.38.73-.65,1.04-.28.32-.62.58-1,.77-.47.21-.98.32-1.5.3-1.09,0-1.94-.39-2.56-1.16s-.93-1.85-.92-3.22Z"/>
        <path class="cls-1" d="m651.21,216.44v2.32c0,.1.08.17.17.17.02,0,.04,0,.06-.01l11.04-4.32c.07-.03.11-.09.11-.16v-2.07c0-.07-.04-.13-.11-.16l-11.04-4.38c-.09-.03-.19,0-.22.1,0,.02-.01.04-.01.06v2.25c0,.07.04.14.11.16l1.82.68c.07.03.11.09.11.16v4.21c0,.07-.05.14-.11.16l-1.81.65c-.07.02-.12.09-.12.17Zm4.35-4.47l3.36,1.24c.09.03.14.13.1.22-.02.05-.06.09-.1.1l-3.36,1.21c-.09.03-.19-.01-.22-.1,0-.02-.01-.04-.01-.06v-2.46c0-.1.08-.17.18-.17.02,0,.04,0,.06.01Z"/>
        <path class="cls-1" d="m651.03,223.95c-.02-.87.19-1.73.61-2.5.39-.7.96-1.28,1.66-1.68.73-.41,1.56-.62,2.39-.61h6.73c.1,0,.17.08.17.17v2.2c0,.1-.08.17-.17.17h-6.86c-.42-.01-.83.09-1.19.3-.32.19-.59.47-.76.8-.18.35-.26.74-.26,1.13,0,.38.08.76.26,1.1.17.33.43.59.76.77.36.19.77.28,1.18.27h6.87c.1,0,.17.08.17.17v2.22c0,.1-.08.17-.17.17h-6.74c-.83.01-1.66-.19-2.39-.6-.69-.39-1.26-.97-1.65-1.66-.41-.75-.62-1.59-.61-2.45Z"/>
        <path class="cls-1" d="m659.21,240.44c.68-.29,1.3-.72,1.8-1.27.52-.55.92-1.2,1.18-1.9.28-.76.42-1.57.41-2.38v-4.41c0-.1-.08-.17-.17-.17h-11.05c-.1,0-.17.08-.17.17v4.44c0,.81.13,1.61.42,2.36.27.71.67,1.35,1.19,1.9.51.53,1.12.96,1.8,1.25.72.31,1.5.46,2.28.45.79.01,1.58-.14,2.31-.45Zm-4.15-2.59c-.52-.28-1.1-.68-1.38-1.19-.29-.55-.44-1.17-.42-1.8v-1.82c0-.1.08-.17.17-.17h6.87c.1,0,.17.08.17.17v1.83c.01.62-.13,1.23-.41,1.78-.31.51-.76.93-1.29,1.19-.57.3-1.2.44-1.85.43-.65.02-1.29-.13-1.86-.42h0Z"/>
        <path class="cls-1" d="m651.38,242.12h11.04c.1,0,.17.08.17.17v2.2c0,.1-.08.17-.17.17h-11.04c-.1,0-.17-.08-.17-.17v-2.2c0-.1.08-.17.17-.17Z"/>
        <path class="cls-1" d="m651.02,251.96c0-.82.15-1.63.45-2.39.29-.72.72-1.37,1.26-1.92.53-.55,1.17-.98,1.88-1.27.73-.3,1.52-.46,2.32-.45.8,0,1.59.15,2.32.45,1.42.59,2.54,1.73,3.11,3.16.3.76.45,1.57.44,2.39,0,.81-.14,1.61-.44,2.36-.29.72-.71,1.37-1.25,1.92-.53.55-1.17.98-1.87,1.27-.74.3-1.53.45-2.33.44-.79,0-1.58-.15-2.31-.45-.7-.29-1.34-.72-1.88-1.26-.54-.55-.96-1.19-1.24-1.9-.31-.74-.46-1.54-.45-2.35Zm2.32-.03c-.01.62.14,1.24.45,1.77.3.5.74.92,1.26,1.18.58.3,1.22.44,1.87.43.49,0,.98-.08,1.44-.24.42-.15.8-.39,1.13-.69.32-.3.57-.67.73-1.08.17-.44.25-.9.25-1.37.01-.62-.14-1.24-.44-1.78-.29-.51-.72-.92-1.24-1.18-.58-.29-1.22-.43-1.86-.42-.5,0-1,.08-1.47.24-.42.15-.81.39-1.14.69-.32.3-.56.67-.73,1.07-.17.44-.26.91-.25,1.38Z"/>
      </g>
    </g>
    <path class="cls-3" d="m651.91,279.24v-2.15l2.15-1.62-2.15-1.63v-2.15l3.43,2.75,3.3-2.66v2.15l-2.04,1.56,2.04,1.55v2.15l-3.32-2.67-3.41,2.73Z"/>
    <g>
      <polygon class="cls-1" points="204.73 265.14 193.38 265.14 193.38 272.38 204.73 283.73 193.38 283.73 193.38 290.97 204.36 301.95 205.41 301.95 205.41 298.37 194.06 287.01 205.41 287.01 205.41 279.77 194.06 268.42 205.41 268.42 205.41 261.18 194.43 250.2 193.38 250.2 193.38 253.78 204.73 265.14"/>
      <path class="cls-1" d="m200.47,178.09c-.26.65-.47,1.47-.65,2.46-.14.83-.31,1.42-.49,1.77s-.42.53-.69.53-.49-.14-.65-.43-.23-.75-.23-1.38c0-.87.13-1.5.38-1.9.26-.4.58-.62.95-.65l.02-2.22c-.6.02-1.18.21-1.68.55-.47.33-.84.84-1.09,1.53-.25.68-.38,1.53-.38,2.54,0,1.4.24,2.44.73,3.12s1.13,1.02,1.94,1.02c.59,0,1.08-.18,1.48-.55s.72-.86.96-1.5.43-1.41.58-2.33c.07-.5.18-.99.33-1.47.12-.35.26-.6.4-.74.13-.14.31-.22.5-.22.32,0,.57.18.73.53.17.36.25.87.25,1.55,0,.83-.13,1.49-.38,1.97-.25.48-.6.74-1.06.78l-.02,2.3c1.03-.01,1.83-.43,2.38-1.26s.83-2.07.83-3.73h0c0-1.46-.24-2.54-.72-3.26s-1.13-1.07-1.97-1.07c-.54-.01-1.07.18-1.47.54-.41.36-.74.86-1,1.51Z"/>
      <path class="cls-1" d="m193.4,171.27v2.13s2.74,0,2.74,0v2.08s1.87,0,1.87,0v-2.08h4.27c.68,0,1.25-.07,1.73-.21.47-.14.88-.43,1.15-.83.29-.42.44-1.02.44-1.82h0c0-.41-.04-.82-.1-1.22-.06-.42-.15-.83-.27-1.24h-1.89c.1.37.18.74.23,1.12.05.33.07.65.08.98,0,.31-.04.54-.12.68-.09.15-.24.27-.41.32-.26.08-.53.11-.81.1h-4.3v-3.2s-1.87,0-1.87,0v3.2h-2.73Z"/>
      <path class="cls-1" d="m200.85,158.92c.84,0,1.54.21,2.08.63.54.42.82,1.14.82,2.18,0,.67-.1,1.18-.31,1.55-.19.36-.51.63-.89.77-.39.14-.88.22-1.48.22h-4.93s0,2.13,0,2.13h4.92c.75,0,1.49-.08,2.21-.28.66-.18,1.22-.56,1.69-1.14s.7-1.41.7-2.48c0-.82-.12-1.51-.36-2.08-.21-.53-.58-.99-1.04-1.32v-.17h1.18s0-2.13,0-2.13h-9.3s0,2.13,0,2.13h4.72Z"/>
      <polygon class="cls-1" points="205.43 143.11 205.44 143.11 205.44 140.97 196.13 140.97 196.13 143.11 205.43 143.11"/>
      <polygon class="cls-1" points="195.02 143.17 195.02 143.17 195.02 140.92 193.05 140.92 193.05 143.17 195.02 143.17"/>
      <path class="cls-1" d="m198.03,129.86c-.71.46-1.26,1.12-1.6,1.89-.69,1.66-.69,3.52,0,5.17.34.78.9,1.44,1.61,1.9.73.48,1.6.72,2.69.72s2-.24,2.74-.73c.71-.46,1.28-1.12,1.62-1.9.36-.81.54-1.69.53-2.58h0c0-1.03-.19-1.94-.58-2.72-.37-.76-.95-1.39-1.68-1.82-.74-.44-1.61-.66-2.64-.66-1.08,0-1.98.24-2.7.72Zm4.28,1.83c.45.25.83.62,1.08,1.07.26.49.39,1.03.38,1.58h0c0,.92-.27,1.66-.82,2.2s-1.3.81-2.22.81-1.64-.27-2.17-.82-.78-1.28-.78-2.2.27-1.66.8-2.21,1.25-.83,2.15-.83c.55,0,1.09.12,1.58.39h0Z"/>
      <rect class="cls-1" x="193.03" y="242.73" width="1.97" height="2.25"/>
      <polygon class="cls-1" points="205.41 244.92 205.41 244.92 205.41 242.78 196.11 242.78 196.11 244.92 205.41 244.92"/>
      <path class="cls-1" d="m196.6,232.72c-.47.58-.7,1.4-.7,2.48,0,.82.12,1.51.36,2.08.22.53.58.99,1.04,1.32v.17h-1.18s0,2.13,0,2.13h9.3s0-2.13,0-2.13h-4.72c-.84,0-1.54-.21-2.08-.63s-.82-1.14-.82-2.18c0-.67.1-1.18.31-1.55.19-.36.51-.63.89-.77.39-.14.88-.22,1.48-.22h4.93s0-2.13,0-2.13h-4.92c-.75,0-1.49.08-2.21.28-.66.18-1.23.56-1.69,1.14Z"/>
      <path class="cls-1" d="m193.38,226.3v2.14s2.74,0,2.74,0v2.08s1.86,0,1.86,0v-2.08h4.27c.68,0,1.25-.07,1.73-.21.47-.14.88-.43,1.15-.83.29-.42.44-1.02.44-1.83,0-.41-.04-.82-.1-1.22-.06-.42-.15-.83-.27-1.24h-1.89c.1.37.18.74.23,1.11.04.33.07.65.07.98,0,.31-.04.54-.12.68-.09.15-.24.27-.41.32-.26.08-.53.11-.81.1h-4.3v-3.2s-1.87,0-1.87,0v3.2h-2.73Z"/>
      <path class="cls-1" d="m196.56,214.2c-.44.78-.67,1.72-.67,2.82,0,1.04.19,1.94.58,2.7.37.74.95,1.34,1.67,1.73.73.4,1.6.6,2.61.6,1.01,0,1.88-.21,2.62-.63.73-.41,1.32-1.03,1.68-1.78.39-.77.58-1.69.58-2.76h0c0-1.24-.27-2.3-.82-3.18s-1.34-1.4-2.38-1.59v2.22c.4.17.73.47.98.92.26.45.38,1.02.38,1.68s-.12,1.21-.35,1.64c-.21.4-.53.73-.92.95-.39.21-.82.33-1.26.36v-7.85c-1.07-.09-2.01.06-2.82.43-.8.36-1.46.97-1.89,1.73Zm3.22,5.63c-.36-.04-.71-.17-1-.38-.33-.25-.59-.57-.75-.95-.19-.41-.28-.9-.28-1.48,0-.61.1-1.12.3-1.53s.45-.72.77-.92c.29-.19.62-.31.97-.33v5.6Z"/>
      <path class="cls-1" d="m197.78,206.03c0-.71.12-1.27.37-1.67.24-.39.6-.69,1.03-.86v-2.27c-1.02.14-1.82.65-2.41,1.51-.58.86-.87,1.96-.87,3.29,0,.96.19,1.81.58,2.56.38.74.97,1.35,1.69,1.76.74.43,1.58.64,2.58.64s1.87-.21,2.6-.63c.72-.41,1.31-1.02,1.68-1.76.39-.75.58-1.61.58-2.58h0c0-1.36-.29-2.46-.86-3.31s-1.38-1.35-2.42-1.48v2.26c.42.18.78.48,1.03.86.26.4.39.95.39,1.67,0,.87-.27,1.55-.82,2.06-.55.5-1.3.76-2.18.76s-1.6-.25-2.15-.75-.82-1.19-.82-2.07Z"/>
      <path class="cls-1" d="m196.6,191.6c-.47.58-.7,1.4-.7,2.48,0,.82.12,1.52.36,2.08.22.53.58.99,1.04,1.32v.17h-3.92s0,2.13,0,2.13h12.03s0-2.13,0-2.13h-4.72c-.84,0-1.54-.21-2.08-.63s-.82-1.14-.82-2.18c0-.67.1-1.18.31-1.55.19-.36.51-.63.89-.77.39-.14.88-.22,1.48-.22h4.93s0-2.13,0-2.13h-4.92c-.75,0-1.49.08-2.21.28-.66.18-1.23.57-1.69,1.14Z"/>
      <polygon class="cls-1" points="205.41 199.78 205.41 199.78 205.41 199.78 205.41 199.78"/>
      <path class="cls-1" d="m193.4,147.12h3.97v.13c-.46.4-.82.9-1.06,1.47-.26.6-.39,1.28-.39,2.05,0,1,.22,1.84.66,2.53.43.68,1.04,1.21,1.77,1.54.77.35,1.6.52,2.44.51.84.01,1.67-.16,2.43-.51.72-.33,1.34-.86,1.77-1.53h0c.44-.68.67-1.53.67-2.53.01-.71-.12-1.41-.37-2.08-.25-.61-.58-1.11-.99-1.47v-.12h1.15s0-2.13,0-2.13h-12.04s0,2.13,0,2.13Zm9.54.79c.58.53.86,1.26.86,2.27s-.29,1.77-.86,2.27-1.28.75-2.15.75-1.58-.25-2.15-.75-.85-1.27-.85-2.27.28-1.76.85-2.28,1.3-.78,2.15-.78,1.57.26,2.15.79h0Z"/>
    </g>
    <g id="Layer_2-2" data-name="Layer 2">
      <g id="Layer_1-2-2" data-name="Layer 1-2">
        <path class="cls-1" d="m188.35,389.99l8.82,8.82h0l1.53,1.53h0l4.22,4.22c.06.06.06.16,0,.22-.02.02-.05.04-.09.04l-9.57,1.34c-.08.01-.16-.05-.17-.13,0-.05,0-.1.04-.13l4.69-4.69c.06-.06.06-.16,0-.22h0s-1.31-1.31-1.31-1.31c-.06-.06-.16-.06-.22,0l-7.95,7.95c-.3.3-.3.79,0,1.09.17.17.41.25.65.22l17.19-2.42c.42-.06.72-.45.66-.87-.02-.17-.1-.32-.22-.44l-6.42-6.42h0l-1.53-1.53h0l-1.67-1.66h0l-1.53-1.53h0l-2.37-2.37c-.06-.06-.06-.16,0-.22.03-.03.08-.05.13-.04l3.97.56c.09.01.14.09.13.18,0,.03-.02.06-.04.09l-.94.95c-.06.06-.06.16,0,.22h0s1.31,1.31,1.31,1.31c.06.06.16.06.22,0,0,0,0,0,0,0l2.27-2.27s.08-.05.13-.04l2.54.35c.08.01.14.09.13.17,0,.03-.02.06-.04.09l-3.36,3.36c-.06.06-.06.16,0,.22,0,0,0,0,0,0l1.31,1.31c.06.06.16.06.22,0,0,0,0,0,0,0l5.55-5.55c.3-.3.3-.79,0-1.09-.12-.12-.27-.2-.44-.22l-17.19-2.38c-.42-.06-.81.23-.87.65-.03.24.05.48.22.65Z"/>
        <path class="cls-1" d="m203.63,460.02c0,.81-.14,1.61-.44,2.36-.58,1.43-1.7,2.58-3.13,3.17-.73.3-1.52.46-2.32.45-.79,0-1.58-.15-2.31-.45-.7-.29-1.34-.72-1.86-1.27-.53-.55-.95-1.19-1.23-1.9-.3-.75-.45-1.56-.44-2.37-.01-.82.13-1.64.44-2.41.26-.63.62-1.21,1.07-1.72.07-.07.18-.07.24,0,0,0,0,0,0,0l1.47,1.46c.07.07.07.18,0,.24,0,0,0,0,0,0-.27.28-.48.6-.63.95-.19.47-.28.97-.27,1.47,0,.46.08.92.25,1.36.16.4.41.76.72,1.07.32.31.71.54,1.13.69.94.32,1.96.32,2.9,0,.42-.15.8-.39,1.13-.69.32-.3.56-.66.72-1.07.17-.43.26-.89.25-1.36.01-.52-.08-1.03-.27-1.51-.15-.36-.37-.69-.64-.97-.07-.07-.07-.18,0-.24,0,0,0,0,0,0l1.47-1.48c.07-.07.18-.07.24,0,0,0,0,0,0,0,.46.51.82,1.09,1.08,1.73.3.79.45,1.64.43,2.49Z"/>
        <path class="cls-1" d="m192.24,447.61h4.09c.1,0,.17.08.17.17v4.15c0,.1-.08.17-.17.17h-4.09c-.1,0-.17.08-.17.17v2.21c0,.1.08.17.17.17h11.04c.1,0,.17-.08.17-.17v-2.2c0-.1-.08-.17-.17-.17h-4.4c-.1,0-.17-.08-.17-.17v-4.15c0-.1.08-.17.17-.17h4.4c.1,0,.17-.08.17-.17v-2.22c0-.1-.08-.17-.17-.17h-11.04c-.1,0-.17.08-.17.17v2.21c0,.1.08.17.17.17Z"/>
        <path class="cls-1" d="m203.45,435.2v-2.32c0-.1-.08-.17-.17-.17-.02,0-.04,0-.06.01l-11.04,4.33c-.07.03-.11.09-.11.16v2.07c0,.07.04.13.11.16l11.04,4.36c.09.03.19,0,.22-.1,0-.02.01-.04.01-.06v-2.25c0-.07-.05-.14-.11-.16l-1.82-.67c-.07-.03-.11-.09-.11-.16v-4.22c0-.07.05-.14.11-.16l1.81-.66c.07-.02.12-.09.12-.16Zm-4.35,4.47l-3.36-1.24c-.09-.03-.13-.13-.1-.22.02-.05.05-.08.1-.1l3.36-1.21c.09-.03.19.01.22.1,0,.02.01.04.01.06v2.46c0,.1-.08.17-.18.17-.02,0-.04,0-.06-.01Z"/>
        <path class="cls-1" d="m203.65,426.76c0,.82-.15,1.63-.45,2.39-.29.72-.72,1.37-1.26,1.92-.53.55-1.17.98-1.88,1.27-.73.3-1.52.46-2.32.45-.8,0-1.59-.15-2.32-.45-1.42-.59-2.54-1.73-3.11-3.16-.3-.76-.45-1.57-.44-2.39,0-.81.14-1.61.44-2.36.29-.71.71-1.36,1.24-1.91.53-.55,1.17-.98,1.87-1.27.74-.3,1.53-.45,2.33-.44.79,0,1.58.15,2.31.45.71.29,1.35.72,1.88,1.26.53.54.96,1.18,1.25,1.89.3.75.45,1.54.45,2.35Zm-2.32.03c.01-.62-.14-1.23-.45-1.76-.3-.5-.74-.92-1.26-1.19-.58-.29-1.22-.44-1.87-.43-.49,0-.98.08-1.44.24-.42.15-.8.39-1.13.69-.32.3-.57.67-.73,1.08-.17.44-.25.9-.25,1.37-.01.62.14,1.24.44,1.78.29.51.72.92,1.24,1.18.58.29,1.22.43,1.86.42.5,0,1-.08,1.47-.24.42-.15.81-.39,1.14-.69.32-.3.56-.67.73-1.07.17-.44.26-.91.25-1.38h0Z"/>
        <path class="cls-1" d="m203.63,416.21c.02.83-.13,1.65-.45,2.42-.3.66-.73,1.25-1.26,1.73-.07.06-.17.06-.24,0l-1.4-1.4c-.07-.07-.07-.18,0-.24,0,0,0,0,0,0,.34-.31.63-.69.84-1.1.24-.48.36-1.02.35-1.56.02-.43-.08-.86-.3-1.23-.17-.28-.48-.45-.82-.44-.27-.01-.54.09-.73.27-.21.22-.38.48-.5.77-.14.32-.27.67-.39,1.05-.13.39-.28.77-.44,1.14-.17.37-.38.73-.63,1.05-.25.32-.58.59-.95.77-.45.21-.94.31-1.44.29-1.3.06-2.5-.72-2.98-1.93-.27-.66-.41-1.36-.4-2.07-.01-.75.13-1.5.42-2.19.23-.57.57-1.08,1.01-1.51.07-.07.17-.07.24,0l1.42,1.42c.07.07.07.18,0,.24,0,0,0,0,0,0-.27.27-.5.58-.67.92-.18.36-.27.76-.26,1.17-.02.37.07.73.25,1.05.15.25.43.4.72.39.26.01.52-.1.69-.29.2-.23.35-.49.46-.77.13-.32.26-.67.39-1.05s.28-.76.44-1.15c.16-.38.38-.73.65-1.04.28-.32.62-.58,1-.77.47-.21.98-.32,1.5-.3,1.09,0,1.94.39,2.56,1.16s.93,1.85.92,3.22Z"/>
        <path class="cls-1" d="m203.45,378.52v-2.32c0-.1-.08-.17-.17-.17-.02,0-.04,0-.06.01l-11.04,4.32c-.07.03-.11.09-.11.16v2.07c0,.07.04.13.11.16l11.04,4.38c.09.03.19,0,.22-.1,0-.02.01-.04.01-.06v-2.25c0-.07-.04-.14-.11-.16l-1.82-.68c-.07-.03-.11-.09-.11-.16v-4.21c0-.07.05-.14.11-.16l1.81-.65c.07-.02.12-.09.12-.17Zm-4.35,4.47l-3.36-1.24c-.09-.03-.14-.13-.1-.22.02-.05.06-.09.1-.1l3.36-1.21c.09-.03.19.01.22.1,0,.02.01.04.01.06v2.46c0,.1-.08.17-.18.17-.02,0-.04,0-.06-.01Z"/>
        <path class="cls-1" d="m203.63,371.01c.02.87-.19,1.73-.61,2.5-.39.7-.96,1.28-1.66,1.68-.73.41-1.56.62-2.39.61h-6.73c-.1,0-.17-.08-.17-.17v-2.2c0-.1.08-.17.17-.17h6.86c.42.01.83-.09,1.19-.3.32-.19.59-.47.76-.8.18-.35.26-.74.26-1.13,0-.38-.08-.76-.26-1.1-.17-.33-.43-.59-.76-.77-.36-.19-.77-.28-1.18-.27h-6.87c-.1,0-.17-.08-.17-.17v-2.22c0-.1.08-.17.17-.17h6.74c.83-.01,1.66.19,2.39.6.69.39,1.26.97,1.65,1.66.41.75.62,1.59.61,2.45Z"/>
        <path class="cls-1" d="m195.46,354.51c-.68.29-1.3.72-1.8,1.27-.52.55-.92,1.2-1.18,1.9-.28.76-.42,1.57-.41,2.38v4.41c0,.1.08.17.17.17h11.05c.1,0,.17-.08.17-.17v-4.44c0-.81-.13-1.61-.42-2.36-.27-.71-.67-1.35-1.19-1.9-.51-.53-1.12-.96-1.8-1.25-.72-.31-1.5-.46-2.28-.45-.79-.01-1.58.14-2.31.45Zm4.15,2.59c.52.28,1.1.68,1.38,1.19.29.55.44,1.17.42,1.8v1.82c0,.1-.08.17-.17.17h-6.87c-.1,0-.17-.08-.17-.17v-1.83c-.01-.62.13-1.23.41-1.78.31-.51.76-.93,1.29-1.19.57-.3,1.2-.44,1.85-.43.65-.02,1.29.13,1.86.42h0Z"/>
        <path class="cls-1" d="m203.28,352.83h-11.04c-.1,0-.17-.08-.17-.17v-2.2c0-.1.08-.17.17-.17h11.04c.1,0,.17.08.17.17v2.2c0,.1-.08.17-.17.17Z"/>
        <path class="cls-1" d="m203.65,343c0,.82-.15,1.63-.45,2.39-.29.72-.72,1.37-1.26,1.92-.53.55-1.17.98-1.88,1.27-.73.3-1.52.46-2.32.45-.8,0-1.59-.15-2.32-.45-1.42-.59-2.54-1.73-3.11-3.16-.3-.76-.45-1.57-.44-2.39,0-.81.14-1.61.44-2.36.29-.72.71-1.37,1.25-1.92.53-.55,1.17-.98,1.87-1.27.74-.3,1.53-.45,2.33-.44.79,0,1.58.15,2.31.45.7.29,1.34.72,1.88,1.26.54.55.96,1.19,1.24,1.9.31.74.46,1.54.45,2.35Zm-2.32.03c.01-.62-.14-1.24-.45-1.77-.3-.5-.74-.92-1.26-1.18-.58-.3-1.22-.44-1.87-.43-.49,0-.98.08-1.44.24-.42.15-.8.39-1.13.69-.32.3-.57.67-.73,1.08-.17.44-.25.9-.25,1.37-.01.62.14,1.24.44,1.78.29.51.72.92,1.24,1.18.58.29,1.22.43,1.86.42.5,0,1-.08,1.47-.24.42-.15.81-.39,1.14-.69.32-.3.56-.67.73-1.07.17-.44.26-.91.25-1.38Z"/>
      </g>
    </g>
    <path class="cls-3" d="m202.76,315.71v2.15s-2.15,1.62-2.15,1.62l2.15,1.63v2.15s-3.43-2.75-3.43-2.75l-3.3,2.66v-2.15s2.04-1.56,2.04-1.56l-2.04-1.55v-2.15s3.32,2.67,3.32,2.67l3.41-2.73Z"/>
  </g>
  <g id="Layer_2-3" data-name="Layer 2">
    <path class="cls-2" d="m509.47,857.13h-164.41c-1.98,0-3.58-1.61-3.58-3.58v-164.41c0-1.98,1.61-3.58,3.58-3.58h164.41c1.98,0,3.58,1.61,3.58,3.58v164.41c0,1.98-1.61,3.58-3.58,3.58Zm-164.41-170.08c-1.15,0-2.08.94-2.08,2.08v164.41c0,1.15.94,2.08,2.08,2.08h164.41c1.15,0,2.08-.94,2.08-2.08v-164.41c0-1.15-.94-2.08-2.08-2.08h-164.41Z"/>
    <path class="cls-2" d="m427.27,1007.44c-2.02,0-3.66-1.64-3.66-3.66s1.64-3.66,3.66-3.66,3.66,1.64,3.66,3.66-1.64,3.66-3.66,3.66Zm0-6.98c-1.83,0-3.32,1.49-3.32,3.32s1.49,3.32,3.32,3.32,3.32-1.49,3.32-3.32-1.49-3.32-3.32-3.32Z"/>
    <path class="cls-2" d="m427.28,775c-2.02,0-3.66-1.64-3.66-3.66s1.64-3.66,3.66-3.66,3.66,1.64,3.66,3.66-1.64,3.66-3.66,3.66Zm0-6.98c-1.83,0-3.32,1.49-3.32,3.32s1.49,3.32,3.32,3.32,3.32-1.49,3.32-3.32-1.49-3.32-3.32-3.32Z"/>
  </g>
</svg>