<svg xmlns="http://www.w3.org/2000/svg" viewBox="0 0 170.08 170.08"><defs><style>.cls-1{fill:#1d1d1b;}.cls-2,.cls-3{fill:#010101;}.cls-3{fill-rule:evenodd;}</style></defs><g id="Réteg_3" data-name="Réteg 3"><path class="cls-1" d="M47.24,126.3a1.4,1.4,0,0,1,.54-.54,1.44,1.44,0,0,1,.75-.19,1.55,1.55,0,0,1,.84.23,1.39,1.39,0,0,1,.53.66h-.46a1,1,0,0,0-.36-.41,1.07,1.07,0,0,0-.55-.14,1.16,1.16,0,0,0-.56.14,1.18,1.18,0,0,0-.39.41,1.38,1.38,0,0,0-.14.62,1.32,1.32,0,0,0,.14.62,1,1,0,0,0,.39.41,1.07,1.07,0,0,0,.56.15,1,1,0,0,0,.55-.15.91.91,0,0,0,.36-.41h.46a1.3,1.3,0,0,1-.53.66,1.47,1.47,0,0,1-.84.23,1.44,1.44,0,0,1-.75-.19,1.4,1.4,0,0,1-.54-.54,1.55,1.55,0,0,1-.19-.78A1.61,1.61,0,0,1,47.24,126.3Z" transform="translate(0 0)"/><path class="cls-1" d="M52.59,127.55H50.72a.75.75,0,0,0,.76.73.7.7,0,0,0,.42-.12.59.59,0,0,0,.23-.31h.42a1.08,1.08,0,0,1-.37.55,1.26,1.26,0,0,1-1.29.06,1,1,0,0,1-.41-.43,1.28,1.28,0,0,1-.15-.63,1.39,1.39,0,0,1,.14-.63,1,1,0,0,1,.41-.42,1.16,1.16,0,0,1,.6-.15,1.25,1.25,0,0,1,.59.14,1,1,0,0,1,.39.4,1.2,1.2,0,0,1,.14.57C52.6,127.39,52.59,127.46,52.59,127.55Zm-.49-.7a.64.64,0,0,0-.27-.24.75.75,0,0,0-.37-.08.71.71,0,0,0-.5.19.76.76,0,0,0-.23.51H52.2A.7.7,0,0,0,52.1,126.85Z" transform="translate(0 0)"/><path class="cls-1" d="M53.78,126.31a.88.88,0,0,1,.47-.11v.4h-.11c-.43,0-.65.23-.65.7v1.27h-.38v-2.33h.38v.38A.73.73,0,0,1,53.78,126.31Z" transform="translate(0 0)"/><path class="cls-1" d="M55.16,126.56v1.37a.33.33,0,0,0,.08.24.33.33,0,0,0,.25.07h.28v.33h-.35a.69.69,0,0,1-.48-.15.63.63,0,0,1-.16-.49v-1.37h-.3v-.32h.3v-.59h.38v.59h.61v.32Z" transform="translate(0 0)"/><path class="cls-1" d="M56.25,125.78a.25.25,0,0,1-.08-.18.27.27,0,0,1,.27-.27.26.26,0,0,1,.25.27.24.24,0,0,1-.07.18.22.22,0,0,1-.18.08A.22.22,0,0,1,56.25,125.78Zm.37.46v2.33h-.38v-2.33Z" transform="translate(0 0)"/><path class="cls-1" d="M58.23,126.56h-.49v2h-.38v-2h-.31v-.32h.31v-.17a.71.71,0,0,1,.2-.57,1,1,0,0,1,.65-.18v.32a.55.55,0,0,0-.36.1.45.45,0,0,0-.11.33v.17h.49Z" transform="translate(0 0)"/><path class="cls-1" d="M58.69,125.78a.24.24,0,0,1-.07-.18.25.25,0,0,1,.07-.19.27.27,0,0,1,.19-.08.25.25,0,0,1,.18.08.26.26,0,0,1,.08.19.25.25,0,0,1-.08.18.22.22,0,0,1-.18.08A.24.24,0,0,1,58.69,125.78Zm.38.46v2.33h-.39v-2.33Z" transform="translate(0 0)"/><path class="cls-1" d="M61.84,127.55H60a.71.71,0,0,0,.23.53.77.77,0,0,0,.52.2.7.7,0,0,0,.42-.12.67.67,0,0,0,.24-.31h.41a1,1,0,0,1-.37.55,1.26,1.26,0,0,1-1.29.06,1.06,1.06,0,0,1-.41-.43,1.4,1.4,0,0,1,0-1.26,1,1,0,0,1,.4-.42,1.21,1.21,0,0,1,.6-.15,1.25,1.25,0,0,1,.59.14,1,1,0,0,1,.39.4,1.2,1.2,0,0,1,.14.57A2,2,0,0,1,61.84,127.55Zm-.49-.7a.67.67,0,0,0-.26-.24.77.77,0,0,0-.37-.08.68.68,0,0,0-.5.19.73.73,0,0,0-.24.51h1.47A.7.7,0,0,0,61.35,126.85Z" transform="translate(0 0)"/><path class="cls-1" d="M62.36,126.77a1.08,1.08,0,0,1,.4-.42,1.1,1.1,0,0,1,.57-.15,1,1,0,0,1,.5.13.83.83,0,0,1,.36.33v-1.24h.39v3.15h-.39v-.44a.92.92,0,0,1-.34.34,1,1,0,0,1-.53.14,1.08,1.08,0,0,1-.56-.16,1,1,0,0,1-.4-.43,1.27,1.27,0,0,1-.14-.63A1.26,1.26,0,0,1,62.36,126.77Zm1.72.17a.7.7,0,0,0-.29-.3.76.76,0,0,0-.39-.1.77.77,0,0,0-.4.1.74.74,0,0,0-.28.3.94.94,0,0,0-.11.45,1,1,0,0,0,.11.47.74.74,0,0,0,.28.3.77.77,0,0,0,.4.11.77.77,0,0,0,.39-.11.7.7,0,0,0,.29-.3,1,1,0,0,0,.11-.46A1,1,0,0,0,64.08,126.94Z" transform="translate(0 0)"/><path class="cls-1" d="M37.1,135a1.45,1.45,0,0,1-.53-.54,1.51,1.51,0,0,1-.2-.78,1.46,1.46,0,0,1,.2-.78,1.38,1.38,0,0,1,.53-.54,1.53,1.53,0,0,1,1.51,0,1.38,1.38,0,0,1,.54.53,1.72,1.72,0,0,1,0,1.57,1.4,1.4,0,0,1-.54.54,1.6,1.6,0,0,1-1.51,0Zm1.31-.29a1.12,1.12,0,0,0,.4-.41,1.47,1.47,0,0,0,0-1.25,1.18,1.18,0,0,0-.39-.41,1.16,1.16,0,0,0-.56-.14,1.2,1.2,0,0,0-.57.14,1.07,1.07,0,0,0-.38.41,1.38,1.38,0,0,0,0,1.25,1,1,0,0,0,.39.41,1.17,1.17,0,0,0,1.11,0Z" transform="translate(0 0)"/><path class="cls-1" d="M40.58,133a1,1,0,0,1,.53-.14,1.07,1.07,0,0,1,.56.15,1.08,1.08,0,0,1,.4.42,1.27,1.27,0,0,1,.14.63,1.26,1.26,0,0,1-.14.62,1,1,0,0,1-.4.43,1,1,0,0,1-.56.16,1,1,0,0,1-.53-.14,1,1,0,0,1-.34-.33v1.53h-.39v-3.43h.39v.43A.9.9,0,0,1,40.58,133Zm1.13.6a.74.74,0,0,0-.28-.3.79.79,0,0,0-.4-.1.75.75,0,0,0-.68.4.87.87,0,0,0-.11.46.85.85,0,0,0,.11.46.79.79,0,0,0,.68.41.8.8,0,0,0,.4-.11.74.74,0,0,0,.28-.3,1,1,0,0,0,.11-.46A1,1,0,0,0,41.71,133.57Z" transform="translate(0 0)"/><path class="cls-1" d="M44.84,134.18H43a.8.8,0,0,0,.24.54.74.74,0,0,0,.52.19.7.7,0,0,0,.42-.12.59.59,0,0,0,.23-.31h.42a1,1,0,0,1-.37.55,1.26,1.26,0,0,1-1.29.06,1,1,0,0,1-.41-.43,1.28,1.28,0,0,1-.15-.63,1.39,1.39,0,0,1,.14-.63,1.1,1.1,0,0,1,.41-.42,1.26,1.26,0,0,1,1.19,0,1,1,0,0,1,.39.39,1.21,1.21,0,0,1,.14.58C44.85,134,44.84,134.1,44.84,134.18Zm-.49-.7a.67.67,0,0,0-.26-.24,1,1,0,0,0-.38-.08.71.71,0,0,0-.5.19.76.76,0,0,0-.23.51h1.47A.7.7,0,0,0,44.35,133.48Z" transform="translate(0 0)"/><path class="cls-1" d="M47.18,133.09a1,1,0,0,1,.26.74v1.37h-.38v-1.32a.77.77,0,0,0-.17-.53.62.62,0,0,0-.48-.19.66.66,0,0,0-.48.19.76.76,0,0,0-.19.56v1.29h-.38v-2.33h.38v.33a.87.87,0,0,1,.32-.28,1,1,0,0,1,.43-.09A.9.9,0,0,1,47.18,133.09Z" transform="translate(0 0)"/><path class="cls-1" d="M49.69,133.48v.32H48v-.32Z" transform="translate(0 0)"/><path class="cls-1" d="M50.83,135.12a.86.86,0,0,1-.36-.29.75.75,0,0,1-.14-.42h.41a.59.59,0,0,0,.18.35.63.63,0,0,0,.44.14.59.59,0,0,0,.43-.14.47.47,0,0,0,.07-.63.6.6,0,0,0-.24-.16,2.3,2.3,0,0,0-.37-.12,2.92,2.92,0,0,1-.47-.15.7.7,0,0,1-.3-.24.68.68,0,0,1-.13-.44.77.77,0,0,1,.12-.43.91.91,0,0,1,.35-.29,1.19,1.19,0,0,1,.51-.1,1,1,0,0,1,.68.21.75.75,0,0,1,.3.55h-.42a.53.53,0,0,0-.18-.3.62.62,0,0,0-.42-.13.56.56,0,0,0-.39.13.43.43,0,0,0-.16.35.4.4,0,0,0,.1.26.48.48,0,0,0,.22.15l.38.13a3.78,3.78,0,0,1,.47.15.81.81,0,0,1,.3.25.66.66,0,0,1,.13.44.84.84,0,0,1-.11.41.85.85,0,0,1-.34.31,1.12,1.12,0,0,1-.53.12A1.29,1.29,0,0,1,50.83,135.12Z" transform="translate(0 0)"/><path class="cls-1" d="M53.33,135.09a1.06,1.06,0,0,1-.41-.43,1.4,1.4,0,0,1,0-1.26,1.17,1.17,0,0,1,1-.57,1.19,1.19,0,0,1,.6.15,1.15,1.15,0,0,1,.43.42,1.28,1.28,0,0,1,.15.63,1.18,1.18,0,0,1-.16.63,1,1,0,0,1-.43.43,1.27,1.27,0,0,1-1.2,0Zm1-.29a.74.74,0,0,0,.29-.29.9.9,0,0,0,.12-.48,1,1,0,0,0-.11-.48.81.81,0,0,0-.29-.29.89.89,0,0,0-.78,0,.71.71,0,0,0-.28.29,1.1,1.1,0,0,0,0,1,.66.66,0,0,0,.28.29.7.7,0,0,0,.38.1A.87.87,0,0,0,54.32,134.8Z" transform="translate(0 0)"/><path class="cls-1" d="M57.7,132.87v2.33h-.39v-.35a.7.7,0,0,1-.31.28.91.91,0,0,1-.43.1,1.07,1.07,0,0,1-.49-.11.8.8,0,0,1-.34-.34,1,1,0,0,1-.13-.55v-1.36H56v1.31a.72.72,0,0,0,.18.53.62.62,0,0,0,.47.19.66.66,0,0,0,.49-.19.8.8,0,0,0,.18-.56v-1.28Z" transform="translate(0 0)"/><path class="cls-1" d="M59,132.94a.83.83,0,0,1,.46-.11v.4h-.1c-.44,0-.65.23-.65.7v1.27h-.39v-2.33h.39v.38A.67.67,0,0,1,59,132.94Z" transform="translate(0 0)"/><path class="cls-1" d="M59.93,133.4a1,1,0,0,1,.41-.42,1.11,1.11,0,0,1,.58-.15,1.13,1.13,0,0,1,.71.21,1,1,0,0,1,.37.58h-.42a.58.58,0,0,0-.23-.34.73.73,0,0,0-.43-.12.66.66,0,0,0-.53.23.89.89,0,0,0-.2.64.92.92,0,0,0,.2.65.69.69,0,0,0,.53.23.73.73,0,0,0,.43-.12.6.6,0,0,0,.23-.34H62a1,1,0,0,1-.37.57,1.1,1.1,0,0,1-.71.22,1.11,1.11,0,0,1-.58-.15,1,1,0,0,1-.41-.42,1.44,1.44,0,0,1-.14-.64A1.39,1.39,0,0,1,59.93,133.4Z" transform="translate(0 0)"/><path class="cls-1" d="M64.63,134.18H62.76a.8.8,0,0,0,.24.54.74.74,0,0,0,.52.19.7.7,0,0,0,.42-.12.59.59,0,0,0,.23-.31h.42a1,1,0,0,1-.37.55,1.26,1.26,0,0,1-1.29.06,1,1,0,0,1-.41-.43,1.28,1.28,0,0,1-.15-.63,1.39,1.39,0,0,1,.14-.63,1,1,0,0,1,.41-.42,1.26,1.26,0,0,1,1.19,0,1,1,0,0,1,.39.39,1.21,1.21,0,0,1,.14.58C64.64,134,64.63,134.1,64.63,134.18Zm-.49-.7a.64.64,0,0,0-.27-.24.87.87,0,0,0-.37-.08.71.71,0,0,0-.5.19.76.76,0,0,0-.23.51h1.47A.7.7,0,0,0,64.14,133.48Z" transform="translate(0 0)"/><path class="cls-1" d="M46.59,138.7v3H46.2v-1.34H44.7v1.34h-.39v-3h.39V140h1.5v-1.3Z" transform="translate(0 0)"/><path class="cls-1" d="M47.25,139.86a1.08,1.08,0,0,1,.4-.42,1.16,1.16,0,0,1,.56-.14,1,1,0,0,1,.53.13,1,1,0,0,1,.34.33v-.42h.39v2.32h-.39v-.43a.88.88,0,0,1-.35.34,1,1,0,0,1-.52.13,1.1,1.1,0,0,1-.57-.15,1.16,1.16,0,0,1-.39-.43,1.3,1.3,0,0,1-.15-.63A1.28,1.28,0,0,1,47.25,139.86ZM49,140a.74.74,0,0,0-.29-.29.77.77,0,0,0-.39-.11.88.88,0,0,0-.4.1.74.74,0,0,0-.28.3,1,1,0,0,0-.11.46,1,1,0,0,0,.11.47.74.74,0,0,0,.28.3.77.77,0,0,0,.4.1A.75.75,0,0,0,49,141a1,1,0,0,0,.11-.47A1,1,0,0,0,49,140Z" transform="translate(0 0)"/><path class="cls-1" d="M50.8,139.4a.92.92,0,0,1,.46-.11v.4h-.1c-.44,0-.65.24-.65.71v1.26h-.39v-2.32h.39v.37A.78.78,0,0,1,50.8,139.4Z" transform="translate(0 0)"/><path class="cls-1" d="M51.71,139.86a1,1,0,0,1,.39-.42,1.2,1.2,0,0,1,.57-.14,1.13,1.13,0,0,1,.51.12.93.93,0,0,1,.35.33v-1.23h.39v3.14h-.39v-.43a.92.92,0,0,1-.34.34,1,1,0,0,1-.52.13,1.1,1.1,0,0,1-.57-.15,1,1,0,0,1-.39-.43,1.3,1.3,0,0,1-.15-.63A1.28,1.28,0,0,1,51.71,139.86Zm1.72.17a.74.74,0,0,0-.29-.29.77.77,0,0,0-.4-.11.87.87,0,0,0-.39.1.76.76,0,0,0-.29.3,1,1,0,0,0-.1.46,1,1,0,0,0,.1.47.78.78,0,0,0,1.37,0,1,1,0,0,0,.1-.47A1,1,0,0,0,53.43,140Z" transform="translate(0 0)"/><path class="cls-1" d="M57.68,139.34,57,141.66h-.4L56,139.81l-.56,1.85H55l-.73-2.32h.4l.53,1.95.58-1.95h.39l.57,1.95.53-1.95Z" transform="translate(0 0)"/><path class="cls-1" d="M58.06,139.86a1.08,1.08,0,0,1,.4-.42,1.19,1.19,0,0,1,.56-.14,1,1,0,0,1,.53.13,1,1,0,0,1,.34.33v-.42h.39v2.32h-.39v-.43a.92.92,0,0,1-.34.34,1.13,1.13,0,0,1-1.09,0,1.11,1.11,0,0,1-.4-.43,1.42,1.42,0,0,1-.14-.63A1.39,1.39,0,0,1,58.06,139.86Zm1.72.17a.71.71,0,0,0-.28-.29.8.8,0,0,0-.4-.11.88.88,0,0,0-.4.1.74.74,0,0,0-.28.3,1,1,0,0,0-.11.46,1,1,0,0,0,.11.47.74.74,0,0,0,.28.3.77.77,0,0,0,.4.1.79.79,0,0,0,.4-.1.74.74,0,0,0,.28-.3,1,1,0,0,0,.11-.47A1,1,0,0,0,59.78,140Z" transform="translate(0 0)"/><path class="cls-1" d="M61.61,139.4a1,1,0,0,1,.46-.11v.4H62c-.43,0-.65.24-.65.71v1.26h-.39v-2.32h.39v.37A.78.78,0,0,1,61.61,139.4Z" transform="translate(0 0)"/><path class="cls-1" d="M64.63,140.64H62.77a.75.75,0,0,0,.23.54.76.76,0,0,0,.52.19.77.77,0,0,0,.42-.11.64.64,0,0,0,.24-.32h.42a1,1,0,0,1-.38.55,1.14,1.14,0,0,1-.7.21,1.18,1.18,0,0,1-.59-.15,1.1,1.1,0,0,1-.41-.42,1.32,1.32,0,0,1-.15-.64,1.28,1.28,0,0,1,.15-.63,1,1,0,0,1,.4-.42,1.21,1.21,0,0,1,.6-.14,1.12,1.12,0,0,1,.59.14,1,1,0,0,1,.39.4,1.1,1.1,0,0,1,.14.57A1.85,1.85,0,0,1,64.63,140.64Zm-.48-.69a.62.62,0,0,0-.27-.24.78.78,0,0,0-.37-.09.74.74,0,0,0-.5.19.77.77,0,0,0-.24.52h1.47A.74.74,0,0,0,64.15,140Z" transform="translate(0 0)"/><path class="cls-1" d="M95.8,133.08v3h-.39v-3Z" transform="translate(0 0)"/><path class="cls-1" d="M98.28,133.93a1,1,0,0,1,.27.74V136h-.39v-1.31a.81.81,0,0,0-.17-.54.65.65,0,0,0-.48-.18.62.62,0,0,0-.48.19.79.79,0,0,0-.18.56V136h-.39v-2.32h.39v.33a.77.77,0,0,1,.31-.28,1,1,0,0,1,.43-.1A.94.94,0,0,1,98.28,133.93Z" transform="translate(0 0)"/><path class="cls-1" d="M99.65,134v1.38a.33.33,0,0,0,.07.24.39.39,0,0,0,.25.07h.29V136h-.35a.75.75,0,0,1-.49-.14.69.69,0,0,1-.16-.49V134H99v-.31h.3v-.59h.39v.59h.61V134Z" transform="translate(0 0)"/><path class="cls-1" d="M102.84,135H101a.73.73,0,0,0,.75.73.7.7,0,0,0,.42-.12.67.67,0,0,0,.24-.31h.41a1,1,0,0,1-.37.54,1.26,1.26,0,0,1-1.29.06,1,1,0,0,1-.41-.42,1.28,1.28,0,0,1-.15-.63,1.44,1.44,0,0,1,.14-.64,1.1,1.1,0,0,1,.41-.42,1.33,1.33,0,0,1,1.19,0,1,1,0,0,1,.39.4,1.2,1.2,0,0,1,.14.57C102.85,134.86,102.84,134.94,102.84,135Zm-.49-.7a.55.55,0,0,0-.26-.24.81.81,0,0,0-.37-.09.72.72,0,0,0-.5.19.77.77,0,0,0-.24.52h1.47A.67.67,0,0,0,102.35,134.33Z" transform="translate(0 0)"/><path class="cls-1" d="M103.36,134.25a1,1,0,0,1,.4-.42,1.15,1.15,0,0,1,.59-.15,1.17,1.17,0,0,1,.71.21,1,1,0,0,1,.36.57H105a.6.6,0,0,0-.23-.33.75.75,0,0,0-.43-.13.71.71,0,0,0-.54.23,1,1,0,0,0-.2.65,1,1,0,0,0,.2.65.71.71,0,0,0,.54.23.7.7,0,0,0,.42-.12.6.6,0,0,0,.24-.34h.41a1,1,0,0,1-.37.57,1.26,1.26,0,0,1-1.29.06,1,1,0,0,1-.4-.42,1.28,1.28,0,0,1-.15-.63A1.25,1.25,0,0,1,103.36,134.25Z" transform="translate(0 0)"/><path class="cls-1" d="M107.57,133.79a.75.75,0,0,1,.33.33,1.18,1.18,0,0,1,.12.55V136h-.38v-1.31a.81.81,0,0,0-.17-.54A.65.65,0,0,0,107,134a.64.64,0,0,0-.49.19.79.79,0,0,0-.18.56V136h-.38V132.9h.38v1.15a.87.87,0,0,1,.32-.28,1.14,1.14,0,0,1,.45-.1A1,1,0,0,1,107.57,133.79Z" transform="translate(0 0)"/><path class="cls-1" d="M110.21,136a.91.91,0,0,1-.37-.29.69.69,0,0,1-.13-.43h.41a.51.51,0,0,0,.17.35.6.6,0,0,0,.44.15.63.63,0,0,0,.43-.14.44.44,0,0,0,.16-.36.4.4,0,0,0-.09-.27.53.53,0,0,0-.23-.16,2.9,2.9,0,0,0-.38-.12,3.3,3.3,0,0,1-.47-.15.81.81,0,0,1-.3-.25.64.64,0,0,1-.13-.44.68.68,0,0,1,.13-.42.69.69,0,0,1,.34-.29,1.19,1.19,0,0,1,.51-.11,1.09,1.09,0,0,1,.69.21.79.79,0,0,1,.29.56h-.42a.4.4,0,0,0-.18-.3.59.59,0,0,0-.41-.13.62.62,0,0,0-.4.12.44.44,0,0,0-.15.35.4.4,0,0,0,.09.27.57.57,0,0,0,.22.15,2.48,2.48,0,0,0,.38.12l.47.16a.79.79,0,0,1,.31.24.75.75,0,0,1,.13.45.72.72,0,0,1-.12.4.79.79,0,0,1-.34.31,1.12,1.12,0,0,1-.53.12A1.21,1.21,0,0,1,110.21,136Z" transform="translate(0 0)"/><path class="cls-1" d="M112.76,134v1.38a.33.33,0,0,0,.07.24.39.39,0,0,0,.25.07h.28V136H113a.75.75,0,0,1-.49-.14.64.64,0,0,1-.16-.49V134h-.3v-.31h.3v-.59h.39v.59h.6V134Z" transform="translate(0 0)"/><path class="cls-1" d="M115.9,133.72V136h-.39v-.34a.77.77,0,0,1-.31.28,1.06,1.06,0,0,1-.92,0,.88.88,0,0,1-.35-.34,1.18,1.18,0,0,1-.12-.55v-1.36h.38V135a.74.74,0,0,0,.18.53.61.61,0,0,0,.47.18.63.63,0,0,0,.49-.19.79.79,0,0,0,.18-.56v-1.27Z" transform="translate(0 0)"/><path class="cls-1" d="M116.55,134.25a1.08,1.08,0,0,1,.4-.42,1.07,1.07,0,0,1,.56-.15,1.1,1.1,0,0,1,.51.12,1,1,0,0,1,.36.33V132.9h.39V136h-.39v-.43a.92.92,0,0,1-.34.34,1,1,0,0,1-.53.13,1.07,1.07,0,0,1-.56-.15,1.11,1.11,0,0,1-.4-.43,1.28,1.28,0,0,1-.15-.63A1.21,1.21,0,0,1,116.55,134.25Zm1.72.17a.79.79,0,0,0-.68-.41.77.77,0,0,0-.4.11.66.66,0,0,0-.28.29.87.87,0,0,0-.11.46.91.91,0,0,0,.11.47.74.74,0,0,0,.28.3.77.77,0,0,0,.4.1.75.75,0,0,0,.68-.4,1,1,0,0,0,.11-.46A1,1,0,0,0,118.27,134.42Z" transform="translate(0 0)"/><path class="cls-1" d="M119.43,133.26a.24.24,0,0,1-.07-.18.25.25,0,0,1,.07-.19.29.29,0,0,1,.19-.08.25.25,0,0,1,.18.08.26.26,0,0,1,.08.19.27.27,0,0,1-.26.26A.29.29,0,0,1,119.43,133.26Zm.38.46V136h-.39v-2.32Z" transform="translate(0 0)"/><path class="cls-1" d="M120.89,135.93a1.06,1.06,0,0,1-.42-.42,1.28,1.28,0,0,1-.15-.63,1.18,1.18,0,0,1,.16-.63,1,1,0,0,1,.42-.43,1.36,1.36,0,0,1,1.2,0,1.06,1.06,0,0,1,.42.42,1.32,1.32,0,0,1,.16.64,1.28,1.28,0,0,1-.16.63,1.11,1.11,0,0,1-.44.42,1.21,1.21,0,0,1-.6.15A1.18,1.18,0,0,1,120.89,135.93Zm1-.29a.76.76,0,0,0,.3-.29,1,1,0,0,0,.11-.47,1,1,0,0,0-.11-.48.68.68,0,0,0-.29-.29.87.87,0,0,0-.39-.1.8.8,0,0,0-.38.1.68.68,0,0,0-.29.29,1.2,1.2,0,0,0,0,1,.71.71,0,0,0,.28.29.79.79,0,0,0,.38.09A.76.76,0,0,0,121.87,135.64Z" transform="translate(0 0)"/><path class="cls-1" d="M124.71,135.73h1V136h-1.42v-3h.39Z" transform="translate(0 0)"/><path class="cls-1" d="M126.63,134v1.38a.33.33,0,0,0,.07.24.39.39,0,0,0,.25.07h.28V136h-.34a.75.75,0,0,1-.49-.14.64.64,0,0,1-.16-.49V134h-.3v-.31h.3v-.59h.39v.59h.6V134Z" transform="translate(0 0)"/><path class="cls-1" d="M127.7,134.25a1.08,1.08,0,0,1,.4-.42,1.1,1.1,0,0,1,.57-.15,1.06,1.06,0,0,1,.5.12,1,1,0,0,1,.36.33V132.9h.39V136h-.39v-.43a.92.92,0,0,1-.34.34,1,1,0,0,1-.53.13,1.07,1.07,0,0,1-.56-.15,1.11,1.11,0,0,1-.4-.43,1.39,1.39,0,0,1-.14-.63A1.32,1.32,0,0,1,127.7,134.25Zm1.72.17a.7.7,0,0,0-.29-.3.77.77,0,0,0-.39-.11.77.77,0,0,0-.4.11.66.66,0,0,0-.28.29,1,1,0,0,0-.11.46,1,1,0,0,0,.11.47.74.74,0,0,0,.28.3.77.77,0,0,0,.4.1.76.76,0,0,0,.39-.1.7.7,0,0,0,.29-.3,1,1,0,0,0,.11-.46A1,1,0,0,0,129.42,134.42Z" transform="translate(0 0)"/><path class="cls-1" d="M130.51,136a.25.25,0,0,1-.08-.18.27.27,0,0,1,.27-.27.26.26,0,0,1,.25.27.24.24,0,0,1-.07.18.25.25,0,0,1-.18.08A.26.26,0,0,1,130.51,136Z" transform="translate(0 0)"/><path class="cls-1" d="M98.42,138.77v2.94H98v-2.19l-1,2.19h-.27l-1-2.2v2.2h-.39v-2.94h.42l1.09,2.43L98,138.77Z" transform="translate(0 0)"/><path class="cls-1" d="M99.07,139.91a1.08,1.08,0,0,1,.4-.42,1.13,1.13,0,0,1,1.09,0,.92.92,0,0,1,.34.34v-.43h.39v2.33h-.39v-.43a1,1,0,0,1-.34.33,1,1,0,0,1-.53.14,1,1,0,0,1-.56-.16,1.08,1.08,0,0,1-.4-.42,1.46,1.46,0,0,1-.14-.63A1.39,1.39,0,0,1,99.07,139.91Zm1.72.17a.74.74,0,0,0-.28-.3.79.79,0,0,0-.4-.1.77.77,0,0,0-.4.1.81.81,0,0,0-.28.3,1,1,0,0,0-.11.46,1,1,0,0,0,.11.46.81.81,0,0,0,.28.3.77.77,0,0,0,.4.11.8.8,0,0,0,.4-.11.74.74,0,0,0,.28-.3,1,1,0,0,0,0-.92Z" transform="translate(0 0)"/><path class="cls-1" d="M101.94,139.91a1.08,1.08,0,0,1,.4-.42,1.1,1.1,0,0,1,.57-.15,1,1,0,0,1,.5.13.83.83,0,0,1,.36.33v-1.23h.39v3.14h-.39v-.44a.92.92,0,0,1-.34.34,1.07,1.07,0,0,1-1.09,0,1.08,1.08,0,0,1-.4-.42,1.46,1.46,0,0,1-.14-.63A1.39,1.39,0,0,1,101.94,139.91Zm1.72.17a.74.74,0,0,0-.28-.3.85.85,0,0,0-.8,0,.81.81,0,0,0-.28.3,1,1,0,0,0-.1.46,1,1,0,0,0,.1.46.81.81,0,0,0,.28.3.78.78,0,0,0,.8,0,.74.74,0,0,0,.28-.3,1,1,0,0,0,0-.92Z" transform="translate(0 0)"/><path class="cls-1" d="M106.93,140.69h-1.86a.75.75,0,0,0,.23.54.74.74,0,0,0,.52.19.7.7,0,0,0,.42-.12.67.67,0,0,0,.24-.31h.41a1,1,0,0,1-.37.55,1.26,1.26,0,0,1-1.29.06,1.1,1.1,0,0,1-.41-.42,1.34,1.34,0,0,1-.15-.64,1.28,1.28,0,0,1,.15-.63,1,1,0,0,1,.4-.42,1.21,1.21,0,0,1,.6-.15,1.15,1.15,0,0,1,.59.15,1,1,0,0,1,.39.39,1.21,1.21,0,0,1,.14.58A1.85,1.85,0,0,1,106.93,140.69Zm-.49-.7a.67.67,0,0,0-.26-.24.91.91,0,0,0-.37-.08.68.68,0,0,0-.5.19.73.73,0,0,0-.24.51h1.47A.7.7,0,0,0,106.44,140Z" transform="translate(0 0)"/><path class="cls-1" d="M108.6,138.93a.27.27,0,0,1,0-.38.27.27,0,0,1,.36,0,.27.27,0,0,1,0,.38.27.27,0,0,1-.36,0Zm.37.45v2.33h-.39v-2.33Z" transform="translate(0 0)"/><path class="cls-1" d="M111.45,139.6a1,1,0,0,1,.27.74v1.37h-.39v-1.32a.72.72,0,0,0-.17-.53.66.66,0,0,0-.48-.19.63.63,0,0,0-.48.2.76.76,0,0,0-.18.55v1.29h-.39v-2.33H110v.33a.68.68,0,0,1,.31-.27.88.88,0,0,1,.43-.1A.9.9,0,0,1,111.45,139.6Z" transform="translate(0 0)"/><path class="cls-1" d="M113.87,139.06v1H115v.32h-1.08v1h1.21v.32h-1.6v-3h1.6v.32Z" transform="translate(0 0)"/><path class="cls-1" d="M116,138.75v1.87a.81.81,0,0,0,.19.59.73.73,0,0,0,.54.19.69.69,0,0,0,.53-.19.81.81,0,0,0,.2-.59v-1.87h.38v1.87a1.32,1.32,0,0,1-.14.62.92.92,0,0,1-.41.37,1.13,1.13,0,0,1-.56.13,1.2,1.2,0,0,1-.57-.13.89.89,0,0,1-.4-.37,1.21,1.21,0,0,1-.15-.62v-1.87Z" transform="translate(0 0)"/></g><g id="Réteg_4" data-name="Réteg 4"><g id="b"><g id="c"><path class="cls-2" d="M38.05,109.8a.85.85,0,0,1,.6.81v1.69L40.48,110a.84.84,0,0,1,.94-.27.82.82,0,0,1,.56.79v.14l1.7-4.25a.84.84,0,0,1,1.63.31v8.1l1.7-4.25a.84.84,0,0,1,1.63.31v1.38L50.43,110a.84.84,0,0,1,1.5.51l0,1.5,1-1.49v-5.19a1.49,1.49,0,0,0-1.49-1.49H37.78a1.49,1.49,0,0,0-1.48,1.49v6l.81-1.21A.83.83,0,0,1,38.05,109.8Z" transform="translate(0 0)"/><path class="cls-2" d="M51.19,114.58a.85.85,0,0,1-.61-.8v-1.71l-1.8,2.28a.87.87,0,0,1-.94.28.85.85,0,0,1-.57-.8v-.13L45.56,118a.83.83,0,0,1-.78.53h-.17a.84.84,0,0,1-.68-.83v-8.11l-1.7,4.26a.83.83,0,0,1-.95.51.82.82,0,0,1-.68-.83v-1.39l-1.83,2.28a.84.84,0,0,1-.94.27.86.86,0,0,1-.56-.8v-1.45l-1,1.45V119a1.48,1.48,0,0,0,1.48,1.48H51.46A1.49,1.49,0,0,0,53,119v-6l-.82,1.22a.84.84,0,0,1-.94.33Z" transform="translate(0 0)"/><path class="cls-2" d="M56.21,105.56a1,1,0,0,1-.33-.74,1,1,0,0,1,.33-.76,1.24,1.24,0,0,1,.87-.3,1.22,1.22,0,0,1,.86.3,1,1,0,0,1,.32.76,1,1,0,0,1-.32.74,1.23,1.23,0,0,1-.86.3A1.26,1.26,0,0,1,56.21,105.56Zm1.88.84v5.84h-2V106.4Z" transform="translate(0 0)"/><path class="cls-2" d="M64.67,107a2.62,2.62,0,0,1,.6,1.81v3.41h-2V109.1a1.13,1.13,0,0,0-.26-.78.92.92,0,0,0-.7-.29,1,1,0,0,0-.72.29,1.13,1.13,0,0,0-.26.78v3.14h-2V106.4h2v.83a2.17,2.17,0,0,1,.73-.64,2.26,2.26,0,0,1,1-.24,2,2,0,0,1,1.6.67Z" transform="translate(0 0)"/><path class="cls-2" d="M69.84,110.5v1.74H69A2,2,0,0,1,66.71,110V108.1H66v-1.7h.71V105h2.05v1.42h1.06v1.7H68.76v2a.45.45,0,0,0,.11.34.54.54,0,0,0,.37.11Z" transform="translate(0 0)"/><path class="cls-2" d="M76.32,109.73H72.46a1.08,1.08,0,0,0,.26.71.81.81,0,0,0,.6.24.77.77,0,0,0,.73-.46h2.17a2.58,2.58,0,0,1-.52,1.08,2.79,2.79,0,0,1-1,.74,3.4,3.4,0,0,1-2.85-.09,2.63,2.63,0,0,1-1.05-1,3.29,3.29,0,0,1-.38-1.6,3.16,3.16,0,0,1,.37-1.58,2.57,2.57,0,0,1,1-1,3.21,3.21,0,0,1,1.54-.36,3.12,3.12,0,0,1,1.53.35,2.49,2.49,0,0,1,1,1,3.07,3.07,0,0,1,.38,1.55,3.87,3.87,0,0,1,0,.48Zm-2-1a.74.74,0,0,0-.25-.59,1,1,0,0,0-.63-.21.93.93,0,0,0-.61.2,1,1,0,0,0-.31.6Z" transform="translate(0 0)"/><path class="cls-2" d="M77.22,107.73a2.57,2.57,0,0,1,1-1,3.2,3.2,0,0,1,1.53-.36,2.94,2.94,0,0,1,1.88.6,2.82,2.82,0,0,1,1,1.71H80.49a.72.72,0,0,0-.73-.58.71.71,0,0,0-.61.32,1.6,1.6,0,0,0-.22.93,1.65,1.65,0,0,0,.22.94.75.75,0,0,0,1.34-.25h2.16a2.77,2.77,0,0,1-1,1.69,2.9,2.9,0,0,1-1.88.62,3.09,3.09,0,0,1-1.53-.37,2.57,2.57,0,0,1-1-1,3.22,3.22,0,0,1-.37-1.59,3.18,3.18,0,0,1,.37-1.58Z" transform="translate(0 0)"/><path class="cls-2" d="M88.92,107a2.61,2.61,0,0,1,.59,1.81v3.41h-2V109.1a1.08,1.08,0,0,0-.26-.78.89.89,0,0,0-.7-.29.93.93,0,0,0-.71.29,1.08,1.08,0,0,0-.26.78v3.14h-2v-7.7h2v2.69a2.08,2.08,0,0,1,.73-.64,2.28,2.28,0,0,1,1.07-.24,2,2,0,0,1,1.58.67Z" transform="translate(0 0)"/><path class="cls-2" d="M57.11,120.43a2,2,0,0,1-.82-.62,1.7,1.7,0,0,1-.34-.93h1a1,1,0,0,0,.4.7,1.52,1.52,0,0,0,.94.27,1.37,1.37,0,0,0,.86-.24.72.72,0,0,0,.31-.6.62.62,0,0,0-.33-.56,5.13,5.13,0,0,0-1-.36,8.12,8.12,0,0,1-1-.33,1.94,1.94,0,0,1-.69-.51,1.34,1.34,0,0,1-.28-.89,1.28,1.28,0,0,1,.26-.8,1.68,1.68,0,0,1,.74-.58,2.53,2.53,0,0,1,1.09-.22,2.33,2.33,0,0,1,1.53.48,1.7,1.7,0,0,1,.62,1.31h-.94a1,1,0,0,0-.36-.71,1.34,1.34,0,0,0-.88-.27,1.39,1.39,0,0,0-.81.21.69.69,0,0,0-.3.58.63.63,0,0,0,.18.46,1.29,1.29,0,0,0,.45.29c.19.07.44.16.77.25a10,10,0,0,1,1,.32,1.68,1.68,0,0,1,.66.49,1.25,1.25,0,0,1,.28.84,1.39,1.39,0,0,1-.26.84,1.66,1.66,0,0,1-.73.59,2.65,2.65,0,0,1-1.09.21,2.91,2.91,0,0,1-1.17-.22Z" transform="translate(0 0)"/><path class="cls-2" d="M62.85,115.64V119a.8.8,0,0,0,.18.59.89.89,0,0,0,.61.17h.7v.8h-.85a1.73,1.73,0,0,1-1.19-.36,1.6,1.6,0,0,1-.39-1.2v-3.36h-.74v-.78h.74v-1.44h.94v1.44h1.49v.78Z" transform="translate(0 0)"/><path class="cls-2" d="M70.54,114.86v5.7H69.6v-.84a1.86,1.86,0,0,1-.76.68,2.37,2.37,0,0,1-1.07.24,2.57,2.57,0,0,1-1.19-.27,2,2,0,0,1-.84-.83,2.76,2.76,0,0,1-.31-1.34v-3.34h.94v3.21a1.79,1.79,0,0,0,.43,1.3,1.51,1.51,0,0,0,1.16.45,1.56,1.56,0,0,0,1.2-.47A1.92,1.92,0,0,0,69.6,118v-3.13Z" transform="translate(0 0)"/><path class="cls-2" d="M72.15,116.15a2.51,2.51,0,0,1,1-1,2.6,2.6,0,0,1,1.39-.37,2.65,2.65,0,0,1,1.24.31,2.2,2.2,0,0,1,.87.81v-3h1v7.7h-1v-1.07a2.14,2.14,0,0,1-.83.83,2.48,2.48,0,0,1-1.29.33,2.64,2.64,0,0,1-1.38-.37,2.59,2.59,0,0,1-1-1,3.24,3.24,0,0,1-.36-1.54,3.18,3.18,0,0,1,.36-1.54Zm4.21.42a1.89,1.89,0,0,0-.7-.73,1.93,1.93,0,0,0-1-.25,1.86,1.86,0,0,0-1,.25,1.74,1.74,0,0,0-.7.72,2.39,2.39,0,0,0-.26,1.13,2.46,2.46,0,0,0,.26,1.14,1.79,1.79,0,0,0,.7.74,1.86,1.86,0,0,0,1,.25,1.93,1.93,0,0,0,1-.25,1.85,1.85,0,0,0,.7-.74,2.41,2.41,0,0,0,.26-1.13,2.39,2.39,0,0,0-.26-1.13Z" transform="translate(0 0)"/><path class="cls-2" d="M79.21,113.74a.62.62,0,0,1-.19-.45.64.64,0,0,1,.19-.46.62.62,0,0,1,.46-.19.56.56,0,0,1,.44.19.63.63,0,0,1,.18.46.61.61,0,0,1-.18.45.58.58,0,0,1-.44.19A.63.63,0,0,1,79.21,113.74Zm.92,1.12v5.7h-.95v-5.7Z" transform="translate(0 0)"/><path class="cls-2" d="M82.77,120.29a2.62,2.62,0,0,1-1-1,3.2,3.2,0,0,1-.37-1.55,3,3,0,0,1,.39-1.55,2.55,2.55,0,0,1,1-1,3.18,3.18,0,0,1,2.94,0,2.62,2.62,0,0,1,1,1,3.1,3.1,0,0,1,.38,1.55,3,3,0,0,1-.39,1.55,2.65,2.65,0,0,1-1.06,1,3,3,0,0,1-1.47.36,3,3,0,0,1-1.46-.36Zm2.41-.71a1.87,1.87,0,0,0,.73-.72,2.29,2.29,0,0,0,.27-1.16,2.35,2.35,0,0,0-.27-1.17,1.73,1.73,0,0,0-.71-.71,1.9,1.9,0,0,0-.94-.23,2,2,0,0,0-1,.23,1.82,1.82,0,0,0-.69.71,2.47,2.47,0,0,0-.26,1.17,2.44,2.44,0,0,0,.26,1.17,1.69,1.69,0,0,0,.68.72,2,2,0,0,0,1.89,0Z" transform="translate(0 0)"/></g></g></g><g id="Réteg_5" data-name="Réteg 5"><path class="cls-3" d="M125.16,113.44l-.49,0a4.84,4.84,0,0,1,0-9.67l.49,0v1.45a2.72,2.72,0,0,0-.49,0,3.39,3.39,0,0,0,0,6.77l.49,0Z" transform="translate(0 0)"/><path class="cls-3" d="M133.38,113.44l-.49,0a4.84,4.84,0,0,1,0-9.67l.49,0v1.45a2.72,2.72,0,0,0-.49,0,3.37,3.37,0,0,0-3.3,2.66h2.82v1.45h-2.82a3.38,3.38,0,0,0,3.3,2.66l.49,0Z" transform="translate(0 0)"/></g><g id="Réteg_6" data-name="Réteg 6"><path class="cls-2" d="M124.7,122.18,122,120.6l1.4-2.46a1.65,1.65,0,0,1,2.33-.11l.69,1.15Z" transform="translate(0 0)"/><path class="cls-2" d="M122.51,125.93h-1.44a1.64,1.64,0,0,1-.93-2.24l.63-1-1-.58h3.11l1.57,2.71-1-.54Z" transform="translate(0 0)"/><path class="cls-2" d="M126.23,126.32v3.17h-3.46c-.2,0-.35-.19-.46-.35-1.63-2.89-1.61-2.87-1.68-3a.56.56,0,0,0,.46.15Z" transform="translate(0 0)"/><path class="cls-2" d="M132.23,126.32a.81.81,0,0,0,.5-.18L131,129.21a.49.49,0,0,1-.45.28h-1.92v1.13l-1.57-2.69,1.57-2.7v1.09Z" transform="translate(0 0)"/><path class="cls-2" d="M129.12,123l2.72-1.55,1.42,2.42a1.52,1.52,0,0,1-1,2.08h-1.46Z" transform="translate(0 0)"/><path class="cls-2" d="M126.12,117.79a1,1,0,0,0-.53-.37h3.64a.51.51,0,0,1,.48.24l.95,1.66.94-.53-1.54,2.66H127l.93-.55Z" transform="translate(0 0)"/></g><g id="Réteg_7" data-name="Réteg 7"><path class="cls-2" d="M104.22,105.86H102.7v.24h1.52Zm-4.35.74a1.28,1.28,0,0,0-.52.48h.52Zm7.9,2.28-.57.59,0,.29h.69v-.88Zm-5.17,4.67-3-3.13.48,5.65Zm.58,0,2.84,3,.58-6.31h0v-.1Zm-3.6-3.79,3.31,3.49,2-2h-2.76v-1h3.19v.6l1.27-1.28v-1.12h.22l.08-.79H99.39Zm8,9a2.11,2.11,0,0,1,0,.25,1.5,1.5,0,0,1-2.83.7h-3.68v.79h-1v-.79a.28.28,0,0,1-.24-.23l-.2-2.4-5.12,5.21-.31-.3,5.38-5.47-.58-6.74-5.12-5.4v-.6L99,109.15l-.13-1.55h-.63v-.52h.55a1,1,0,0,0,0-.1,2,2,0,0,1,1-1v-.34h.89v0a8.79,8.79,0,0,1,1.42-.19v-.21h2.56v1.28h-2.56v-.54a9.93,9.93,0,0,0-1.42.21v.79h6.07c-.24-.56-1.17-.82-2.09-.94v-.54a3.77,3.77,0,0,1,2.35.94.69.69,0,0,1,.55-.27.7.7,0,1,1,0,1.39.81.81,0,0,1-.27,0l-.07.8h.34l4.58-4.66v.6l-4,4.06h.09v1.82h-1.19l-.64,6.81,4.7,4.94-.31.3Zm-3,.25a1.5,1.5,0,0,1,1.33-1.49l0-.46-3.07-3.25-2.72,2.78.22,2.6h4.21C104.6,119.17,104.59,119.11,104.59,119.05Zm.72,0a.79.79,0,1,0,.79-.78A.78.78,0,0,0,105.31,119.05Zm.28,0a.51.51,0,0,1,.51-.51.51.51,0,0,1,0,1A.51.51,0,0,1,105.59,119.05Zm-10.18,7h15.12v3.68H95.41Z" transform="translate(0 0)"/></g><g id="Réteg_8" data-name="Réteg 8"><g id="g39"><g id="g33"><path id="path25" class="cls-1" d="M66.86,125.55V136H89.53V125.55h-.9l0,9.53H67.78v-8.61H85.5v-.92H66.86Z" transform="translate(0 0)"/><path id="path27" class="cls-1" d="M72.18,130.89a4.27,4.27,0,0,0-.24-1.69.83.83,0,0,0-.8-.51.83.83,0,0,0-.8.51,6.07,6.07,0,0,0,0,3.38.83.83,0,0,0,.8.51.83.83,0,0,0,.8-.51,4.27,4.27,0,0,0,.24-1.69m.76,0a3.9,3.9,0,0,1-.45,2.1,1.67,1.67,0,0,1-2.7,0,5.12,5.12,0,0,1,0-4.2,1.67,1.67,0,0,1,2.7,0,3.9,3.9,0,0,1,.45,2.1" transform="translate(0 0)"/><path id="path29" class="cls-1" d="M77,128.38v.74a2.86,2.86,0,0,0-.66-.32,2.24,2.24,0,0,0-.67-.11,1.27,1.27,0,0,0-.82.24.78.78,0,0,0-.29.65.71.71,0,0,0,.19.54,1.57,1.57,0,0,0,.73.31l.39.09a2.15,2.15,0,0,1,1.1.55,1.49,1.49,0,0,1,.34,1,1.44,1.44,0,0,1-.47,1.17,2.08,2.08,0,0,1-1.38.41,3.84,3.84,0,0,1-.76-.08,4.6,4.6,0,0,1-.77-.25v-.77a3.78,3.78,0,0,0,.78.39,2.45,2.45,0,0,0,.75.12,1.29,1.29,0,0,0,.85-.25.81.81,0,0,0,.31-.69.82.82,0,0,0-.21-.61,1.38,1.38,0,0,0-.74-.33l-.38-.09a2.22,2.22,0,0,1-1.09-.51,1.25,1.25,0,0,1-.34-.92,1.46,1.46,0,0,1,.48-1.15,1.89,1.89,0,0,1,1.29-.44,2.94,2.94,0,0,1,.65.07,5.72,5.72,0,0,1,.72.21" transform="translate(0 0)"/><path id="path31" class="cls-1" d="M78.29,128.2H79v2.2h2v-2.2h.73v5.37H81V131H79v2.56h-.73V128.2" transform="translate(0 0)"/></g><path id="path35" class="cls-1" d="M82.23,128.2h.71l.52,4.36.61-2.89h.76l.62,2.9,1.74-8.37h.71l-2,9.37h-.69l-.73-3.19-.73,3.19H83l-.8-5.37" transform="translate(0 0)"/><g id="text37-2"><path id="path307" class="cls-1" d="M66.88,138.3h.48v1.44h1.31V138.3h.48v3.52h-.48v-1.68H67.36v1.68h-.48Z" transform="translate(0 0)"/><path id="path309" class="cls-1" d="M69.82,140.47V138.3h.47v2.38a2.86,2.86,0,0,0,0,.37.38.38,0,0,0,0,.17.5.5,0,0,0,.22.21.71.71,0,0,0,.34.07.75.75,0,0,0,.35-.07.56.56,0,0,0,.22-.21.58.58,0,0,0,.05-.17,3.24,3.24,0,0,0,0-.36V138.3H72v2.17a2.84,2.84,0,0,1-.07.77.75.75,0,0,1-.23.37,1.17,1.17,0,0,1-.36.21,1.52,1.52,0,0,1-.45.07,1.63,1.63,0,0,1-.45-.07,1.13,1.13,0,0,1-.35-.21.83.83,0,0,1-.24-.38A3.36,3.36,0,0,1,69.82,140.47Z" transform="translate(0 0)"/><path id="path311" class="cls-1" d="M73.52,140.05a.29.29,0,0,1,.09-.22.27.27,0,0,1,.22-.1.28.28,0,0,1,.22.1.29.29,0,0,1,0,.44.32.32,0,0,1-.22.1.32.32,0,0,1-.23-.09A.36.36,0,0,1,73.52,140.05Zm.31-1.44a.54.54,0,0,0-.5.36,3.79,3.79,0,0,0,0,2.18.53.53,0,0,0,1,0,3.79,3.79,0,0,0,0-2.18A.54.54,0,0,0,73.83,138.61Zm0-.38a.93.93,0,0,1,.85.47,3.33,3.33,0,0,1,0,2.72,1,1,0,0,1-1.7,0,3.33,3.33,0,0,1,0-2.72A.93.93,0,0,1,73.83,138.23Z" transform="translate(0 0)"/><path id="path313" class="cls-1" d="M76.42,140.05a.29.29,0,0,1,.09-.22.3.3,0,0,1,.22-.1.29.29,0,0,1,.23.1.31.31,0,0,1,0,.44.33.33,0,0,1-.23.1.31.31,0,0,1-.22-.09A.32.32,0,0,1,76.42,140.05Zm.32-1.44a.54.54,0,0,0-.5.36,3.79,3.79,0,0,0,0,2.18.53.53,0,0,0,1,0,3.79,3.79,0,0,0,0-2.18A.54.54,0,0,0,76.74,138.61Zm0-.38a.94.94,0,0,1,.85.47,3.33,3.33,0,0,1,0,2.72.94.94,0,0,1-.85.47.93.93,0,0,1-.85-.47,3.33,3.33,0,0,1,0-2.72A.93.93,0,0,1,76.74,138.23Z" transform="translate(0 0)"/><path id="path315" class="cls-1" d="M79.33,140.05a.29.29,0,0,1,.09-.22.28.28,0,0,1,.22-.1.3.3,0,0,1,.23.1.31.31,0,0,1,0,.44.33.33,0,0,1-.23.1.29.29,0,0,1-.22-.09A.32.32,0,0,1,79.33,140.05Zm.32-1.44a.53.53,0,0,0-.5.36,3.79,3.79,0,0,0,0,2.18.53.53,0,0,0,.5.36.51.51,0,0,0,.49-.36,3.58,3.58,0,0,0,0-2.18A.51.51,0,0,0,79.65,138.61Zm0-.38a.94.94,0,0,1,.85.47,3.33,3.33,0,0,1,0,2.72.94.94,0,0,1-.85.47,1,1,0,0,1-.86-.47,3.44,3.44,0,0,1,0-2.72A1,1,0,0,1,79.65,138.23Z" transform="translate(0 0)"/><path id="path317" class="cls-1" d="M82.24,140.05a.29.29,0,0,1,.09-.22.27.27,0,0,1,.22-.1.3.3,0,0,1,.23.1.31.31,0,0,1,0,.44.34.34,0,0,1-.23.1.29.29,0,0,1-.22-.09A.32.32,0,0,1,82.24,140.05Zm.31-1.44a.52.52,0,0,0-.49.36,3.58,3.58,0,0,0,0,2.18.52.52,0,0,0,1,0,3.58,3.58,0,0,0,0-2.18A.53.53,0,0,0,82.55,138.61Zm0-.38a1,1,0,0,1,.86.47,3.33,3.33,0,0,1,0,2.72,1,1,0,0,1-.86.47.94.94,0,0,1-.85-.47,3.44,3.44,0,0,1,0-2.72A.94.94,0,0,1,82.55,138.23Z" transform="translate(0 0)"/><path id="path319" class="cls-1" d="M85.15,140.05a.29.29,0,0,1,.09-.22.31.31,0,1,1,.44.44.3.3,0,0,1-.22.1.29.29,0,0,1-.22-.09A.32.32,0,0,1,85.15,140.05Zm.31-1.44a.54.54,0,0,0-.5.36,3.79,3.79,0,0,0,0,2.18.54.54,0,0,0,.5.36.53.53,0,0,0,.5-.36A3.58,3.58,0,0,0,86,139,.53.53,0,0,0,85.46,138.61Zm0-.38a.93.93,0,0,1,.85.47,3.33,3.33,0,0,1,0,2.72.93.93,0,0,1-.85.47.94.94,0,0,1-.85-.47,3.33,3.33,0,0,1,0-2.72A.94.94,0,0,1,85.46,138.23Z" transform="translate(0 0)"/><path id="path321" class="cls-1" d="M89.25,138.37v.44a1.44,1.44,0,0,0-.31-.13,1.34,1.34,0,0,0-.35-.05.79.79,0,0,0-.69.35,1.8,1.8,0,0,0-.23,1,.85.85,0,0,1,.31-.36.82.82,0,0,1,.46-.13,1,1,0,0,1,.79.31,1.28,1.28,0,0,1,.28.89,1.22,1.22,0,0,1-.29.88,1,1,0,0,1-.8.32,1,1,0,0,1-.9-.44,2.64,2.64,0,0,1-.29-1.39,2.35,2.35,0,0,1,.34-1.36,1.17,1.17,0,0,1,1-.47,2.21,2.21,0,0,1,.35,0A1.8,1.8,0,0,1,89.25,138.37Zm-.84,1.49a.58.58,0,0,0-.48.22.94.94,0,0,0-.18.61.9.9,0,0,0,.18.6.55.55,0,0,0,.48.22.56.56,0,0,0,.47-.2,1,1,0,0,0,.16-.62,1,1,0,0,0-.16-.62A.54.54,0,0,0,88.41,139.86Z" transform="translate(0 0)"/></g></g></g><g id="Réteg_9_másolat" data-name="Réteg 9 másolat"><path class="cls-1" d="M169.83.25V169.83H.25V.25H169.83m.25-.25H0V170.08H170.08V0Z" transform="translate(0 0)"/></g></svg>