%TF.GenerationSoftware,KiCad,Pcbnew,6.0.4-6f826c9f35~116~ubuntu21.10.1*%
%TF.CreationDate,2022-09-08T13:47:43+02:00*%
%TF.ProjectId,knot_backpanel,6b6e6f74-5f62-4616-936b-70616e656c2e,rev?*%
%TF.SameCoordinates,Original*%
%TF.FileFunction,Legend,Bot*%
%TF.FilePolarity,Positive*%
%FSLAX46Y46*%
G04 Gerber Fmt 4.6, Leading zero omitted, Abs format (unit mm)*
G04 Created by KiCad (PCBNEW 6.0.4-6f826c9f35~116~ubuntu21.10.1) date 2022-09-08 13:47:43*
%MOMM*%
%LPD*%
G01*
G04 APERTURE LIST*
%ADD10C,0.300000*%
G04 APERTURE END LIST*
D10*
X113714285Y-88892857D02*
X113500000Y-88964285D01*
X113428571Y-89035714D01*
X113357142Y-89178571D01*
X113357142Y-89392857D01*
X113428571Y-89535714D01*
X113500000Y-89607142D01*
X113642857Y-89678571D01*
X114214285Y-89678571D01*
X114214285Y-88178571D01*
X113714285Y-88178571D01*
X113571428Y-88250000D01*
X113500000Y-88321428D01*
X113428571Y-88464285D01*
X113428571Y-88607142D01*
X113500000Y-88750000D01*
X113571428Y-88821428D01*
X113714285Y-88892857D01*
X114214285Y-88892857D01*
X112071428Y-89678571D02*
X112071428Y-88892857D01*
X112142857Y-88750000D01*
X112285714Y-88678571D01*
X112571428Y-88678571D01*
X112714285Y-88750000D01*
X112071428Y-89607142D02*
X112214285Y-89678571D01*
X112571428Y-89678571D01*
X112714285Y-89607142D01*
X112785714Y-89464285D01*
X112785714Y-89321428D01*
X112714285Y-89178571D01*
X112571428Y-89107142D01*
X112214285Y-89107142D01*
X112071428Y-89035714D01*
X110714285Y-89607142D02*
X110857142Y-89678571D01*
X111142857Y-89678571D01*
X111285714Y-89607142D01*
X111357142Y-89535714D01*
X111428571Y-89392857D01*
X111428571Y-88964285D01*
X111357142Y-88821428D01*
X111285714Y-88750000D01*
X111142857Y-88678571D01*
X110857142Y-88678571D01*
X110714285Y-88750000D01*
X110071428Y-89678571D02*
X110071428Y-88178571D01*
X109928571Y-89107142D02*
X109500000Y-89678571D01*
X109500000Y-88678571D02*
X110071428Y-89250000D01*
X108857142Y-88678571D02*
X108857142Y-90178571D01*
X108857142Y-88750000D02*
X108714285Y-88678571D01*
X108428571Y-88678571D01*
X108285714Y-88750000D01*
X108214285Y-88821428D01*
X108142857Y-88964285D01*
X108142857Y-89392857D01*
X108214285Y-89535714D01*
X108285714Y-89607142D01*
X108428571Y-89678571D01*
X108714285Y-89678571D01*
X108857142Y-89607142D01*
X106857142Y-89678571D02*
X106857142Y-88892857D01*
X106928571Y-88750000D01*
X107071428Y-88678571D01*
X107357142Y-88678571D01*
X107500000Y-88750000D01*
X106857142Y-89607142D02*
X107000000Y-89678571D01*
X107357142Y-89678571D01*
X107500000Y-89607142D01*
X107571428Y-89464285D01*
X107571428Y-89321428D01*
X107500000Y-89178571D01*
X107357142Y-89107142D01*
X107000000Y-89107142D01*
X106857142Y-89035714D01*
X106142857Y-88678571D02*
X106142857Y-89678571D01*
X106142857Y-88821428D02*
X106071428Y-88750000D01*
X105928571Y-88678571D01*
X105714285Y-88678571D01*
X105571428Y-88750000D01*
X105500000Y-88892857D01*
X105500000Y-89678571D01*
X104214285Y-89607142D02*
X104357142Y-89678571D01*
X104642857Y-89678571D01*
X104785714Y-89607142D01*
X104857142Y-89464285D01*
X104857142Y-88892857D01*
X104785714Y-88750000D01*
X104642857Y-88678571D01*
X104357142Y-88678571D01*
X104214285Y-88750000D01*
X104142857Y-88892857D01*
X104142857Y-89035714D01*
X104857142Y-89178571D01*
X103285714Y-89678571D02*
X103428571Y-89607142D01*
X103500000Y-89464285D01*
X103500000Y-88178571D01*
X101571428Y-89678571D02*
X101571428Y-88178571D01*
X100857142Y-88678571D02*
X100857142Y-89678571D01*
X100857142Y-88821428D02*
X100785714Y-88750000D01*
X100642857Y-88678571D01*
X100428571Y-88678571D01*
X100285714Y-88750000D01*
X100214285Y-88892857D01*
X100214285Y-89678571D01*
X99571428Y-89607142D02*
X99428571Y-89678571D01*
X99142857Y-89678571D01*
X99000000Y-89607142D01*
X98928571Y-89464285D01*
X98928571Y-89392857D01*
X99000000Y-89250000D01*
X99142857Y-89178571D01*
X99357142Y-89178571D01*
X99500000Y-89107142D01*
X99571428Y-88964285D01*
X99571428Y-88892857D01*
X99500000Y-88750000D01*
X99357142Y-88678571D01*
X99142857Y-88678571D01*
X99000000Y-88750000D01*
X98285714Y-89678571D02*
X98285714Y-88678571D01*
X98285714Y-88178571D02*
X98357142Y-88250000D01*
X98285714Y-88321428D01*
X98214285Y-88250000D01*
X98285714Y-88178571D01*
X98285714Y-88321428D01*
X96928571Y-89678571D02*
X96928571Y-88178571D01*
X96928571Y-89607142D02*
X97071428Y-89678571D01*
X97357142Y-89678571D01*
X97500000Y-89607142D01*
X97571428Y-89535714D01*
X97642857Y-89392857D01*
X97642857Y-88964285D01*
X97571428Y-88821428D01*
X97500000Y-88750000D01*
X97357142Y-88678571D01*
X97071428Y-88678571D01*
X96928571Y-88750000D01*
X95642857Y-89607142D02*
X95785714Y-89678571D01*
X96071428Y-89678571D01*
X96214285Y-89607142D01*
X96285714Y-89464285D01*
X96285714Y-88892857D01*
X96214285Y-88750000D01*
X96071428Y-88678571D01*
X95785714Y-88678571D01*
X95642857Y-88750000D01*
X95571428Y-88892857D01*
X95571428Y-89035714D01*
X96285714Y-89178571D01*
X93857142Y-88321428D02*
X93785714Y-88250000D01*
X93642857Y-88178571D01*
X93285714Y-88178571D01*
X93142857Y-88250000D01*
X93071428Y-88321428D01*
X93000000Y-88464285D01*
X93000000Y-88607142D01*
X93071428Y-88821428D01*
X93928571Y-89678571D01*
X93000000Y-89678571D01*
X92071428Y-88178571D02*
X91928571Y-88178571D01*
X91785714Y-88250000D01*
X91714285Y-88321428D01*
X91642857Y-88464285D01*
X91571428Y-88750000D01*
X91571428Y-89107142D01*
X91642857Y-89392857D01*
X91714285Y-89535714D01*
X91785714Y-89607142D01*
X91928571Y-89678571D01*
X92071428Y-89678571D01*
X92214285Y-89607142D01*
X92285714Y-89535714D01*
X92357142Y-89392857D01*
X92428571Y-89107142D01*
X92428571Y-88750000D01*
X92357142Y-88464285D01*
X92285714Y-88321428D01*
X92214285Y-88250000D01*
X92071428Y-88178571D01*
X91000000Y-88321428D02*
X90928571Y-88250000D01*
X90785714Y-88178571D01*
X90428571Y-88178571D01*
X90285714Y-88250000D01*
X90214285Y-88321428D01*
X90142857Y-88464285D01*
X90142857Y-88607142D01*
X90214285Y-88821428D01*
X91071428Y-89678571D01*
X90142857Y-89678571D01*
X89571428Y-88321428D02*
X89500000Y-88250000D01*
X89357142Y-88178571D01*
X89000000Y-88178571D01*
X88857142Y-88250000D01*
X88785714Y-88321428D01*
X88714285Y-88464285D01*
X88714285Y-88607142D01*
X88785714Y-88821428D01*
X89642857Y-89678571D01*
X88714285Y-89678571D01*
X87000000Y-88107142D02*
X88285714Y-90035714D01*
X86428571Y-89678571D02*
X86142857Y-89678571D01*
X86000000Y-89607142D01*
X85928571Y-89535714D01*
X85785714Y-89321428D01*
X85714285Y-89035714D01*
X85714285Y-88464285D01*
X85785714Y-88321428D01*
X85857142Y-88250000D01*
X86000000Y-88178571D01*
X86285714Y-88178571D01*
X86428571Y-88250000D01*
X86500000Y-88321428D01*
X86571428Y-88464285D01*
X86571428Y-88821428D01*
X86500000Y-88964285D01*
X86428571Y-89035714D01*
X86285714Y-89107142D01*
X86000000Y-89107142D01*
X85857142Y-89035714D01*
X85785714Y-88964285D01*
X85714285Y-88821428D01*
M02*
