DBRep_DrawableShape

CASCADE Topology V3, (c) Open Cascade
Locations 48
1
              1           1e-16               0               0 
         -1e-16               1               0               0 
              0               0               1               0 
1
              1               0               0 -3.77475828372553e-15 
              0               1               0 -3.77475828372553e-31 
              0               0               1 -0.500000000000006 
2  1 1 2 1 0
2  2 -1 1 -1 0
1
              1               0               0 -49.9999999999998 
              0               1               0 -49.9999999999997 
              0               0               1               0 
1
              1               0               0               0 
              0               1               0               0 
              0               0               1               0 
1
              1               0               0               0 
              0               1               0               0 
              0               0               1               0 
1
              1               0               0               0 
              0               1               0               0 
              0               0               1               0 
1
              1               0               0               0 
              0               1               0               0 
              0               0               1               0 
1
              1               0               0               0 
              0               1               0               0 
              0               0               1               0 
1
              1               0               0               0 
              0               1               0               0 
              0               0               1               0 
1
              1               0               0               0 
              0               1               0               0 
              0               0               1               0 
1
              1               0               0               0 
              0               1               0               0 
              0               0               1               0 
1
              1               0               0               0 
              0               1               0               0 
              0               0               1               0 
1
              1               0               0               0 
              0               1               0               0 
              0               0               1               0 
1
              1               0               0               0 
              0               1               0               0 
              0               0               1               0 
1
              1               0               0               0 
              0               1               0               0 
              0               0               1               0 
2  5 1 6 1 7 -1 8 1 9 -1 10 1 11 -1 12 1 13 -1 14 1 15 -1 16 1 17 1 0
2  2 -1 1 -1 17 -1 16 -1 15 1 14 -1 13 1 12 -1 11 1 10 -1 9 1 8 -1 7 1 6 -1 5 -1 0
2  12 1 13 -1 14 1 15 -1 16 1 17 1 0
1
              1               0               0               0 
              0               1               0               0 
              0               0               1               0 
1
              1               0               0               0 
              0               1               0               0 
              0               0               1               0 
1
              1               0               0               0 
              0               1               0               0 
              0               0               1               0 
2  21 -1 22 1 23 -1 6 1 7 -1 8 1 9 -1 10 1 11 -1 12 1 13 -1 14 1 15 -1 16 1 17 1 0
1
              1               0               0               0 
              0               1               0               0 
              0               0               1               0 
1
              1               0               0               0 
              0               1               0               0 
              0               0               1               0 
2  25 1 26 1 11 -1 12 1 13 -1 14 1 15 -1 16 1 17 1 0
2  11 1 26 -1 25 -1 0
2  2 -1 1 -1 17 -1 16 -1 15 1 14 -1 13 1 12 -1 11 1 26 -1 25 -1 0
1
              1               0               0               0 
              0               1               0               0 
              0               0               1               0 
2  30 1 21 -1 22 1 23 -1 6 1 7 -1 8 1 9 -1 10 1 11 -1 12 1 13 -1 14 1 15 -1 16 1 17 1 0
2  2 -1 1 -1 17 -1 16 -1 15 1 14 -1 13 1 12 -1 11 1 10 -1 9 1 8 -1 7 1 6 -1 23 1 22 -1 21 1 30 -1 0
2  21 1 30 -1 0
1
              1               0               0 -50.0000000000002 
              0               1               0 50.0000000000011 
              0               0               1               0 
2  34 1 6 1 7 -1 8 1 9 -1 10 1 11 -1 12 1 13 -1 14 1 15 -1 16 1 17 1 0
2  2 -1 1 -1 17 -1 16 -1 15 1 14 -1 13 1 12 -1 11 1 10 -1 9 1 8 -1 7 1 6 -1 34 -1 0
2  6 1 7 -1 8 1 9 -1 10 1 11 -1 12 1 13 -1 14 1 15 -1 16 1 17 1 0
2  2 -1 1 -1 17 -1 16 -1 15 1 14 -1 13 1 12 -1 11 1 10 -1 9 1 8 -1 7 1 6 -1 0
1
              1               0               0              -0 
              0               1               0              -0 
              0               0               1              -1 
2  21 -1 39 1 22 1 23 -1 6 1 7 -1 8 1 9 -1 10 1 11 -1 12 1 13 -1 14 1 15 -1 16 1 17 1 0
2  2 -1 1 -1 17 -1 16 -1 15 1 14 -1 13 1 12 -1 0
2  30 1 21 -1 39 1 22 1 23 -1 6 1 7 -1 8 1 9 -1 10 1 11 -1 12 1 13 -1 14 1 15 -1 16 1 17 1 0
2  2 -1 1 -1 17 -1 16 -1 15 1 14 -1 13 1 12 -1 11 1 10 -1 9 1 8 -1 7 1 6 -1 23 1 22 -1 39 -1 21 1 30 -1 0
2  39 -1 21 1 30 -1 0
2  22 1 23 -1 6 1 7 -1 8 1 9 -1 10 1 11 -1 12 1 13 -1 14 1 15 -1 16 1 17 1 0
2  2 -1 1 -1 17 -1 16 -1 15 1 14 -1 13 1 12 -1 11 1 10 -1 9 1 8 -1 7 1 6 -1 23 1 22 -1 0
2  30 1 21 -1 0
2  30 1 21 -1 39 1 0
Curve2ds 38
1 -28.375000000000743 4422.5134382753631 0 -1 
1 -225.875 -5.0000000000000604 1 0 
8 0 10.960155108391481
1 0 0 0 1 
1 -9.8750000000006608 -5.0000000000000604 0.70710678118654757 0.70710678118654757 
8 0 2.25
1 0 0 0 1 
1 -2.1250000000006608 2.7499999999999387 6.0000000000000001e-17 1 
1 -225.875 4.9999999999999405 1 0 
8 -10 0
1 5.4556865617096593 0 0 1 
1 -225.875 -5.0000000000000604 1 0 
8 0 3.1415926535897931
1 0 0 1 0 
8 0.82749874546992708 5.4556865617096593
1 0 0 1 0 
8 2.2911741229682963 3.99201118421129
1 0 0 1 0 
8 1.570796326794899 3.14159265358979
1 0 0 1 0 
8 0 6.2831853071795862
1 0 0 1 0 
8 0 3.1415926535897931
1 0 10.960155108391486 1 0 
8 0 3.1415926535897931
1 0 0 1 0 
8 12.374368670764579 23.334523779156058
1 3.1415926535897931 23.334523779156079 0 -1 
1 6.6249999999992566 11.499999999999941 0.70710678118654757 -0.70710678118654757 
8 3.1415926535897931 6.2831853071795862
1 6.2831853071795862 2.2500000000000009 -1 0 
8 0 2.2500000000000009
1 3.1415926535897447 0 0 1 
1 15.374999999999256 2.7499999999999387 -0 1 
1 -225.875 4.9999999999999405 1 0 
8 0.82749874546992708 5.4556865617096593
1 0 -10 1 0 
8 2.2911741229682963 3.99201118421129
1 0 -10 1 0 
8 1.570796326794899 3.14159265358979
1 0 -10 1 0 
8 0 6.2831853071795862
1 6.2831853071795862 2.2500000000000009 -1 0 
8 -10 0
1 0.82749874546992719 0 0 1 
1 28.375000000000792 2208.7567191376816 -0 1 
8 -10 0
1 3.99201118421129 0 0 1 
8 -10 0
1 2.2911741229682963 0 0 1 
8 0 10
1 1.5707963267948994 0 0 -1 
8 0 10
1 3.1415926535897896 0 0 -1 
8 0 6.2831853071795862
1 0 10.960155108391486 1 0 
8 0 6.2831853071795862
1 0 0 1 0 
8 0 10.960155108391481
1 6.2831853071795862 0 0 1 
8 0 10.960155108391481
1 0 0 0 1 
8 0 2.25
1 6.2831853071795862 0 0 1 
8 0 2.25
1 0 0 0 1 
Curves 41
1 28.375000000000746 4.2632564145606011e-13 -4422.0134382753631 0 0 1 
1 225.875 4.2632564145606011e-13 5.5000000000000666 -1 -9.9999999999999998e-17 0 
1 59.875000000000512 49.999999999999829 5.5000000000000666 -0.70710678118654757 -7.0710678118654756e-17 -0.70710678118654757 
1 52.125000000000512 49.999999999999829 -2.2499999999999329 -6.0000000000000001e-17 -6.0000000000000003e-33 -1 
1 225.875 4.2632564145606011e-13 -4.4999999999999343 -1 -9.9999999999999998e-17 0 
1 28.375000000000718 249.99999999999869 5.5000000000000666 -9.9999999999999998e-17 1 0 
1 28.375000000000657 852.85858477332772 5.5000000000000666 0 0 1 
1 28.375000000000718 249.99999999999869 -4.4999999999999343 -9.9999999999999998e-17 1 0 
1 225.875 4.2632564145606011e-13 5.5000000000000666 -1 -9.9999999999999998e-17 0 
2 43.375000000000512 49.999999999999829 5.5000000000000666 0 -0 1 1 9.9999999999999998e-17 0 -9.9999999999999998e-17 1 0 16.5
2 18.224208981569593 863.90220020035781 5.5000000000000666 0 -0 1 1 9.9999999999999998e-17 0 -9.9999999999999998e-17 1 0 15
1 28.375000000000718 249.99999999999869 5.5000000000000666 -9.9999999999999998e-17 1 0 
2 38.270029813530996 898.62258036073752 5.5000000000000666 0 -0 1 1 9.9999999999999998e-17 0 -9.9999999999999998e-17 1 0 15
1 28.375000000000718 249.99999999999869 5.5000000000000666 -9.9999999999999998e-17 1 0 
1 -24.625000000000895 1021.749999999997 5.5000000000000666 1 9.9999999999999998e-17 0 
2 -24.625000000000892 1017.999999999997 5.5000000000000666 0 -0 1 1 9.9999999999999998e-17 0 -9.9999999999999998e-17 1 0 3.75
1 -28.375000000000789 -18.000000000003098 5.5000000000000666 -9.9999999999999998e-17 1 0 
2 43.374999999996874 950.00000000000671 5.5000000000000666 0 -0 1 1 9.9999999999999998e-17 0 -9.9999999999999998e-17 1 0 16.5
2 43.375000000000512 49.999999999999829 -2.2499999999999329 0 -0 1 1 9.9999999999999998e-17 0 -9.9999999999999998e-17 1 0 8.75
1 -6.624999999999253 -6.7945649107059588e-30 -10.999999999999936 -0.70710678118654757 -7.0710678118654756e-17 0.70710678118654757 
2 -6.624999999999253 -6.7945649107059588e-30 -4.4999999999999343 0 0 -1 1 9.9999999999999998e-17 0 9.9999999999999998e-17 -1 0 8.75
1 -15.374999999999252 4.2632564145606011e-13 -2.2499999999999329 0 0 -1 
1 225.875 4.2632564145606011e-13 -4.4999999999999343 -1 -9.9999999999999998e-17 0 
2 18.224208981569593 863.90220020035781 -4.4999999999999343 0 -0 1 1 9.9999999999999998e-17 0 -9.9999999999999998e-17 1 0 15
1 28.375000000000718 249.99999999999869 -4.4999999999999343 -9.9999999999999998e-17 1 0 
2 38.270029813530996 898.62258036073752 -4.4999999999999343 0 -0 1 1 9.9999999999999998e-17 0 -9.9999999999999998e-17 1 0 15
1 28.375000000000718 249.99999999999869 -4.4999999999999343 -9.9999999999999998e-17 1 0 
1 -24.625000000000895 1021.749999999997 -3.4999999999999343 1 9.9999999999999998e-17 0 
2 -24.625000000000892 1017.999999999997 -3.4999999999999343 0 -0 1 1 9.9999999999999998e-17 0 -9.9999999999999998e-17 1 0 3.75
1 -28.375000000000789 -18.000000000003098 -3.4999999999999343 -9.9999999999999998e-17 1 0 
2 -6.6250000000034035 1000.0000000000078 -4.4999999999999343 0 0 -1 1 9.9999999999999998e-17 0 9.9999999999999998e-17 -1 0 8.75
1 28.375000000000657 874.94581562738801 5.5000000000000666 0 0 1 
1 -28.375000000000789 4.2632564145606011e-13 -2208.2567191376816 0 0 -1 
1 28.375000000000657 887.34923192341228 5.5000000000000666 0 0 1 
1 28.375000000000654 909.89592879806298 5.5000000000000666 0 0 1 
1 28.375000000000639 1021.749999999997 -2208.2567191376816 0 0 -1 
1 -24.625000000000895 1021.749999999997 5.5000000000000666 0 0 -1 
1 -28.375000000000892 1017.999999999997 5.5000000000000666 0 0 -1 
2 43.374999999996874 950.00000000000671 -2.2499999999999329 0 -0 1 1 9.9999999999999998e-17 0 -9.9999999999999998e-17 1 0 8.75
1 59.874999999996817 950.00000000000671 5.5000000000000666 -0.70710678118654757 -7.0710678118654756e-17 -0.70710678118654757 
1 52.124999999996874 950.00000000000671 -2.2499999999999329 -6.0000000000000001e-17 -6.0000000000000003e-33 -1 
Polygon3D 0
PolygonOnTriangulations 0
Surfaces 17
1 -41.624999999999254 4.2632564145606011e-13 -4422.0134382753631 -9.9999999999999998e-17 1 0 1 9.9999999999999998e-17 0 0 0 -1 
1 0 0 0 9.9999999999999998e-17 -1 0 -1 -9.9999999999999998e-17 0 0 -0 -1 
3 43.375000000000512 49.999999999999829 5.5000000000000666 0 0 -1 1 9.9999999999999998e-17 0 -9.9999999999999998e-17 1 0 16.5
-0.78539816339744828
2 43.375000000000512 49.999999999999829 -2.2499999999999329 0 0 -1 1 9.9999999999999998e-17 0 -9.9999999999999998e-17 1 0 8.75
1 28.375000000000746 4.2632564145606011e-13 -4422.0134382753631 1 9.9999999999999998e-17 0 0 0 1 9.9999999999999998e-17 -1 0 
2 18.224208981569593 863.90220020035781 5.5000000000000666 0 0 1 1 9.9999999999999998e-17 0 -9.9999999999999998e-17 1 0 15
1 493.37499999999915 499.99999999999693 5.5000000000000666 0 0 -1 -1 -9.9999999999999998e-17 0 -9.9999999999999998e-17 1 0 
2 38.270029813530996 898.62258036073752 5.5000000000000666 0 0 1 1 9.9999999999999998e-17 0 -9.9999999999999998e-17 1 0 15
2 -24.625000000000892 1017.999999999997 5.5000000000000666 0 0 1 1 9.9999999999999998e-17 0 -9.9999999999999998e-17 1 0 3.75
3 43.374999999996874 950.00000000000671 5.5000000000000666 0 0 -1 1 9.9999999999999998e-17 0 -9.9999999999999998e-17 1 0 16.5
-0.78539816339744828
1 493.37499999999915 499.99999999999693 -3.4999999999999343 0 0 -1 -1 -9.9999999999999998e-17 0 -9.9999999999999998e-17 1 0 
2 43.374999999996874 950.00000000000671 -2.2499999999999329 0 0 -1 1 9.9999999999999998e-17 0 -9.9999999999999998e-17 1 0 8.75
1 -41.624999999999254 4.2632564145606011e-13 -4422.0134382753631 -9.9999999999999998e-17 1 0 1 9.9999999999999998e-17 0 0 0 -1 
1 28.375000000000746 4.2632564145606011e-13 -4422.0134382753631 1 9.9999999999999998e-17 0 0 0 1 9.9999999999999998e-17 -1 0 
1 28.375000000000746 4.2632564145606011e-13 -4422.0134382753631 1 9.9999999999999998e-17 0 0 0 1 9.9999999999999998e-17 -1 0 
1 -24.625000000000895 1021.749999999997 5.5000000000000666 9.9999999999999998e-17 -1 0 1 9.9999999999999998e-17 0 0 0 1 
1 -28.375000000000789 -18.000000000003098 5.5000000000000666 1 9.9999999999999998e-17 0 -9.9999999999999998e-17 1 0 0 0 1 
Triangulations 0

TShapes 105
Ve
0.000501
28.3750000000007 4.2632564145606e-13 -4.99999999999994
0 0

0101101
*
Ve
0.000501
28.3750000000007 4.2632564145606e-13 5.00000000000006
0 0

0101101
*
Ed
 1e-06 1 1 0
1  1 0 4417.51343827536 4427.51343827536
2  1 2 4 4417.51343827536 4427.51343827536
0

0101000
+105 4 -104 4 *
Ve
0.000501000000426326
9.87500000000073 -3.77475828372553e-30 5.00000000000006
0 0

0101101
*
Ed
 0.000501 1 1 0
1  2 0 197.499999999999 215.999999999999
2  2 2 4 197.499999999999 215.999999999999
0

0101000
+104 4 -102 4 *
Ve
1.00000043e-06
2.12500000000074 -3.77475828372553e-30 -2.74999999999994
0 0

0101101
*
Ed
 1.00000043e-06 1 1 0
1  3 0 0 10.9601551083915
2  3 3 0 0 10.9601551083915
2  4 2 19 0 10.9601551083915
0

0101000
+102 19 -100 19 *
Ve
0.000501000000426326
2.12500000000074 -3.77475828372553e-30 -4.99999999999994
0 0

0101101
*
Ed
 1.00000043e-06 1 1 0
1  4 0 0 2.25
2  5 4 0 0 2.25
2  6 2 19 0 2.25
0

0101000
+100 19 -98 19 *
Ed
 0.000501 1 1 0
1  5 0 197.499999999999 223.749999999999
2  7 2 4 197.499999999999 223.749999999999
0

0101000
+105 4 -98 4 *
Wi

0101100
-103 0 -101 0 -99 18 -97 18 +96 0 *
Fa
0  1e-06 1 0

0101000
+95 0 *
Ve
0.000501
28.3750000000007 852.858584773328 5.00000000000006
0 0

0101101
*
Ed
 0.000501 1 1 0
1  6 0 -249.999999999998 602.858584773329
0

0101000
+104 4 -93 4 *
Ve
0.000501
28.3750000000007 852.858584773328 -4.99999999999994
0 0

0101101
*
Ed
 1e-06 1 1 0
1  7 0 -10 0
2  8 6 20 -10 0
0

0101000
+91 4 -93 4 *
Ed
 0.000501 1 1 0
1  8 0 -249.999999999998 602.858584773329
0

0101000
+105 4 -91 4 *
Wi

0101100
-103 0 -92 0 +90 0 +89 0 *
Fa
0  1e-06 5 0

0101000
+88 0 *
Ve
0.000501
-23.1249999999992 4.2632564145606e-13 5.00000000000006
0 0

0101101
*
Ve
0.000501
-28.3750000000008 4.2632564145606e-13 5.00000000000006
0 0

0101101
*
Ed
 0.000501 1 1 0
1  9 0 248.999999999999 254.250000000001
2  9 2 4 248.999999999999 254.250000000001
0

0101000
+86 4 -85 4 *
Ed
 1e-06 1 1 0
1  10 0 0 3.14159265358979
2  10 3 0 0 3.14159265358979
0

0101000
+102 19 -86 19 *
Ve
0.000501
28.3750000000007 874.945815627388 5.00000000000006
0 0

0101101
*
Ed
 1e-06 1 1 0
1  11 0 0.827498745469927 5.45568656170966
2  11 6 28 0.827498745469927 5.45568656170966
0

0101000
+82 29 -93 29 *
Ve
0.000501
28.3750000000007 887.349231923412 5.00000000000006
0 0

0101101
*
Ed
 0.000501 1 1 0
1  12 0 624.945815627389 637.349231923414
0

0101000
+82 4 -80 4 *
Ve
0.000501
28.3750000000007 909.895928798063 5.00000000000006
0 0

0101101
*
Ed
 1e-06 1 1 0
1  13 0 2.2911741229683 3.99201118421129
2  12 8 28 2.2911741229683 3.99201118421129
0

0101000
+78 29 -80 29 *
Ve
0.000501
28.3750000000007 1021.75 5.00000000000006
0 0

0101101
*
Ed
 0.000501 1 1 0
1  14 0 659.895928798064 771.749999999998
0

0101000
+78 4 -76 4 *
Ve
1e-06
-24.6250000000008 1021.75 5.00000000000006
0 0

0101101
*
Ed
 1e-06 1 1 0
1  15 0 0 53.0000000000015
0

0101000
+74 32 -76 32 *
Ve
1e-06
-28.3750000000008 1018 5.00000000000006
0 0

0101101
*
Ed
 1e-06 1 1 0
1  16 0 1.5707963267949 3.14159265358979
2  13 9 33 1.5707963267949 3.14159265358979
0

0101000
+74 32 -72 32 *
Ed
 1e-06 1 1 0
1  17 0 18.0000000000036 1036
0

0101000
+85 32 -72 32 *
Wi

0101100
+84 0 +83 18 +101 0 -92 0 +81 27 -79 0 +77 27 -75 0 +73 31 -71 31 
+70 31 *
Ve
1e-06
9.87499999999668 1000.00000000001 5.00000000000006
0 0

0101101
*
Ed
 1e-06 1 1 0
1  18 0 0 6.28318530717959
2  14 10 0 0 6.28318530717959
0

0101000
+68 36 -68 36 *
Wi

0101100
+67 35 *
Fa
0  1e-06 7 24

0101000
+69 0 +66 0 *
Ve
1.00000042634877e-06
-15.3749999999993 4.2632564145606e-13 -2.74999999999994
0 0

0101101
*
Ed
 1e-06 1 1 0
1  19 0 0 3.14159265358979
2  15 3 0 0 3.14159265358979
2  16 4 0 0 3.14159265358979
0

0101000
+100 19 -64 19 *
Ed
 1e-06 1 1 0
1  20 0 12.3743686707646 23.3345237791561
2  17 3 18 12.3743686707646 23.3345237791561
2  18 2 4 12.3743686707646 23.3345237791561
0

0101000
+64 4 -86 4 *
Wi

0101100
-99 18 -63 18 -62 0 +83 18 *
Fa
0  1e-06 3 18

0101000
+61 0 *
Ve
0.000501
-15.3749999999993 4.2632564145606e-13 -4.99999999999994
0 0

0101101
*
Ed
 1e-06 1 1 0
1  21 0 3.14159265358979 6.28318530717959
2  19 4 5 3.14159265358979 6.28318530717959
0

0101000
+59 38 -98 38 *
Ed
 1e-06 1 1 0
1  22 0 -0 2.25
2  20 4 18 -0 2.25
2  21 2 4 -0 2.25
0

0101000
+64 4 -59 4 *
Wi

0101100
-97 18 +58 37 +57 0 +63 18 *
Fa
0  1e-06 4 18

0101000
+56 0 *
Ve
0.000501
-28.3750000000008 4.2632564145606e-13 -4.99999999999994
0 0

0101101
*
Ed
 0.000501 1 1 0
1  23 0 241.249999999999 254.250000000001
2  22 2 4 241.249999999999 254.250000000001
0

0101000
+59 4 -54 4 *
Ve
0.000501
28.3750000000007 874.945815627388 -4.99999999999994
0 0

0101101
*
Ed
 1e-06 1 1 0
1  24 0 0.827498745469927 5.45568656170966
2  23 6 0 0.827498745469927 5.45568656170966
0

0101000
+52 41 -91 41 *
Ve
0.000501
28.3750000000007 887.349231923412 -4.99999999999994
0 0

0101101
*
Ed
 0.000501 1 1 0
1  25 0 624.945815627389 637.349231923414
0

0101000
+52 4 -50 4 *
Ve
0.000501
28.3750000000007 909.895928798063 -4.99999999999994
0 0

0101101
*
Ed
 1e-06 1 1 0
1  26 0 2.2911741229683 3.99201118421129
2  24 8 0 2.2911741229683 3.99201118421129
0

0101000
+48 41 -50 41 *
Ve
0.000501
28.3750000000007 1021.75 -4.99999999999994
0 0

0101101
*
Ed
 0.000501 1 1 0
1  27 0 659.895928798064 771.749999999998
0

0101000
+48 4 -46 4 *
Ve
1e-06
-24.6250000000008 1021.75 -4.99999999999994
0 0

0101101
*
Ed
 1e-06 1 1 0
1  28 0 0 53.0000000000015
0

0101000
+44 43 -46 43 *
Ve
1e-06
-28.3750000000008 1018 -4.99999999999994
0 0

0101101
*
Ed
 1e-06 1 1 0
1  29 0 1.5707963267949 3.14159265358979
2  25 9 44 1.5707963267949 3.14159265358979
0

0101000
+44 43 -42 43 *
Ed
 1e-06 1 1 0
1  30 0 18.0000000000036 1036
0

0101000
+54 43 -42 43 *
Wi

0101100
+53 0 -58 37 +96 0 -89 0 +51 20 -49 0 +47 20 -45 0 +43 42 -41 42 
+40 42 *
Ve
1e-06
2.12499999999669 1000.00000000001 -4.99999999999994
0 0

0101101
*
Ed
 1e-06 1 1 0
1  31 0 0 6.28318530717959
2  26 12 34 0 6.28318530717959
0

0101100
+38 38 -38 38 *
Wi

0101100
-37 37 *
Fa
0  1e-06 11 40

0101000
+39 0 +36 0 *
Ed
 1e-06 1 1 0
1  32 0 -10 0
2  27 6 20 -10 0
0

0101000
+52 4 -82 4 *
Wi

0101100
-81 27 +90 0 +51 20 -34 0 *
Fa
0  1e-06 6 20

0101000
+33 0 *
Ed
 0.000501 1 1 0
1  33 0 -2213.75671913768 -2203.75671913768
2  28 2 4 -2213.75671913768 -2203.75671913768
0

0101000
+85 4 -54 4 *
Wi

0101100
-31 0 +53 0 +57 0 -62 0 -84 0 *
Fa
0  1e-06 13 0

0101000
+30 0 *
Ed
 1e-06 1 1 0
1  34 0 -10 0
2  29 8 20 -10 0
0

0101000
+50 4 -80 4 *
Wi

0101100
-79 0 +28 0 +49 0 -34 0 *
Fa
0  1e-06 14 0

0101000
+27 0 *
Ed
 1e-06 1 1 0
1  35 0 -10 0
2  30 8 20 -10 0
0

0101000
+48 4 -78 4 *
Wi

0101100
-77 27 +28 0 +47 20 -25 0 *
Fa
0  1e-06 8 20

0101000
+24 0 *
Ed
 0.000501 1 1 0
1  36 0 -2213.75671913768 -2203.75671913768
0

0101000
+76 4 -46 4 *
Wi

0101100
-75 0 -22 0 +45 0 -25 0 *
Fa
0  1e-06 15 0

0101000
+21 0 *
Ed
 1e-06 1 1 0
1  37 0 0 10
2  31 9 0 0 10
4 G1 16 0 9 0
0

0101000
+74 46 -44 46 *
Wi

0101100
-73 31 -22 0 +43 42 +19 45 *
Fa
0  1e-06 16 45

0101000
+18 0 *
Ed
 1e-06 1 1 0
1  38 0 0 10
2  32 9 0 0 10
4 G1 9 0 17 0
0

0101000
+72 46 -42 46 *
Wi

0101100
+19 0 -16 0 -71 47 +41 48 *
Fa
0  1e-06 9 0

0111000
+15 0 *
Wi

0101100
-70 31 -16 45 +40 42 +31 0 *
Fa
0  1e-06 17 45

0101000
+13 0 *
Ve
1e-06
2.12499999999669 1000.00000000001 -2.74999999999994
0 0

0101101
*
Ed
 1e-06 1 1 0
1  39 0 0 6.28318530717959
2  33 10 0 0 6.28318530717959
2  34 12 0 0 6.28318530717959
0

0101000
+11 36 -11 36 *
Ed
 1e-06 1 1 0
1  40 0 0 10.9601551083915
3  35 36CN 10 0 0 10.9601551083915
0

0101000
+68 36 -11 36 *
Wi

0101100
+67 0 -10 0 -9 0 +9 0 *
Fa
0  1e-06 10 0

0111000
+8 0 *
Ed
 1e-06 1 1 0
1  41 0 0 2.25
3  37 38CN 12 0 0 2.25
0

0101000
+11 36 -38 36 *
Wi

0101100
-6 34 +37 0 +6 34 +10 34 *
Fa
0  1e-06 12 34

0111000
+5 0 *
Sh

0101100
-94 0 +87 0 -65 0 +60 0 +55 0 +35 0 -32 0 -29 0 +26 0 -23 0 
+20 0 -17 0 +14 45 -12 0 +7 35 +4 37 *
So

0100000
+3 0 *
Co

1100000
+2 0 *

+1 3 