DBRep_DrawableShape

CASCADE Topology V3, (c) Open Cascade
Locations 26
1
              1               0               0               0 
              0               1               0               0 
              0               0               1               0 
1
              1               0               0               0 
              0               1               0               0 
              0               0               1               0 
1
              1               0               0               0 
              0               1               0               0 
              0               0               1 -147.583781275845 
1
              1               0               0               0 
              0               1               0               0 
              0               0               1 -295.167562551691 
2  1 1 2 1 3 1 4 1 0
1
              1               0               0              -0 
              0               1               0              -0 
              0               0               1 590.335125103382 
2  1 1 2 1 3 1 4 1 6 1 0
1
              1               0               0               0 
              0               1               0               0 
              0               0               1 -295.167502205748 
1
              1               0               0               0 
              0               1               0               0 
              0               0               1 -147.583751102874 
1
              1               0               0               0 
              0               1               0               0 
              0               0               1               0 
1
              1               0               0               0 
              0               1               0               0 
              0               0               1               0 
2  8 -1 9 -1 10 -1 11 -1 0
1
              1               0               0              -0 
              0               1               0              -0 
              0               0               1 590.335004411495 
2  13 -1 8 -1 9 -1 10 -1 11 -1 0
1
              1               0               0               0 
              0               1               0               0 
              0               0               1 -295.167562551691 
1
              1               0               0               0 
              0               1               0               0 
              0               0               1 -147.583781275845 
1
              1               0               0               0 
              0               1               0               0 
              0               0               1               0 
2  15 -1 16 -1 17 -1 11 -1 0
1
              1               0               0              -0 
              0               1               0              -0 
              0               0               1 590.335125103382 
2  19 -1 15 -1 16 -1 17 -1 11 -1 0
1
              1               0               0               0 
              0               1               0               0 
              0               0               1 -295.167562551691 
1
              1               0               0               0 
              0               1               0               0 
              0               0               1 -147.583781275845 
1
              1               0               0               0 
              0               1               0               0 
              0               0               1               0 
2  21 -1 22 -1 23 -1 11 -1 0
1
              1               0               0              -0 
              0               1               0              -0 
              0               0               1 590.335125103382 
2  25 -1 21 -1 22 -1 23 -1 11 -1 0
Curve2ds 6
1 0 0 1 0 
1 0 -590.33500441149522 1 0 
1 0 0 1 0 
1 0 -590.33512510338176 1 0 
1 0 0 1 0 
1 0 -590.33512510338176 1 0 
Curves 3
1 -53.499999999999844 -49.999999999999652 -442.75134382753629 -0 -0 1 
1 -46.499999999999844 -49.999999999999652 -442.75134382753629 -0 -0 1 
1 -53.499999999999844 -49.999999999999652 0 1 0 0 
Polygon3D 1
2 1
0.0116666666666667
-53.4999999999998 -49.9999999999997 0 -46.4999999999998 -49.9999999999997 0 
0 7 
PolygonOnTriangulations 0
Surfaces 4
1 -53.499999999999844 -49.999999999999652 -442.75134382753629 -0 1 0 1 0 0 0 0 -1 
1 -53.499999999999844 -49.999999999999652 -442.75125330862141 -0 1 0 1 0 0 0 0 -1 
1 -53.499999999999844 -49.999999999999652 -442.75134382753629 -0 1 0 1 0 0 0 0 -1 
1 -53.499999999999844 -49.999999999999652 -442.75134382753629 -0 1 0 1 0 0 0 0 -1 
Triangulations 0

TShapes 8
Ve
1e-07
-53.4999999999998 -49.9999999999997 0
0 0

0101101
*
Ed
 1e-07 1 1 0
1  1 0 0 590.335125103382
0

0101000
+8 5 -8 7 *
Ve
1e-07
-46.4999999999998 -49.9999999999997 0
0 0

0101101
*
Ed
 1e-07 1 1 0
1  2 0 0 590.335125103382
0

0101000
+6 5 -6 7 *
Ed
 1e-07 1 1 0
1  3 0 0 7
2  1 2 12 0 7
2  2 2 14 0 7
2  3 3 18 0 7
2  4 3 20 0 7
2  5 4 24 0 7
2  6 4 26 0 7
5  1 0
0

0101000
+8 0 -6 0 *
Wi

0101100
+7 0 -5 0 -4 5 +4 7 *
Fa
0  1e-07 1 0

0101000
+3 0 *
Sh

1101000
+2 0 *

+1 0 