DBRep_DrawableShape

CASCADE Topology V3, (c) Open Cascade
Locations 29
1
              1               0               0               0 
              0               1               0               0 
              0               0               1               0 
1
              1               0               0               0 
              0               1               0               0 
              0               0               1               0 
1
              1               0               0               0 
              0               1               0               0 
              0               0               1 -147.583781275845 
1
              1               0               0               0 
              0               1               0               0 
              0               0               1 -295.167562551691 
2  1 1 2 1 3 1 4 1 0
1
              1               0               0 1.47583781275845e-14 
              0               1               0 -147.583781275845 
              0               0               1               0 
2  1 1 2 1 3 1 4 1 6 1 0
1
              1               0               0              -0 
              0               1               0              -0 
              0               0               1 590.335125103382 
2  1 1 2 1 3 1 4 1 8 1 0
2  1 1 2 1 3 1 4 1 8 1 6 1 0
1
              1               0               0               0 
              0               1               0               0 
              0               0               1 -295.167502205748 
1
              1               0               0               0 
              0               1               0               0 
              0               0               1 -147.583751102874 
1
              1               0               0               0 
              0               1               0               0 
              0               0               1               0 
1
              1               0               0               0 
              0               1               0               0 
              0               0               1               0 
2  11 -1 12 -1 13 -1 14 -1 0
1
              1               0               0              -0 
              0               1               0              -0 
              0               0               1 590.335004411495 
2  16 -1 11 -1 12 -1 13 -1 14 -1 0
1
              1               0               0               0 
              0               1               0               0 
              0               0               1 -295.167562551691 
1
              1               0               0               0 
              0               1               0               0 
              0               0               1 -147.583781275845 
1
              1               0               0               0 
              0               1               0               0 
              0               0               1               0 
2  18 -1 19 -1 20 -1 14 -1 0
1
              1               0               0              -0 
              0               1               0              -0 
              0               0               1 590.335125103382 
2  22 -1 18 -1 19 -1 20 -1 14 -1 0
1
              1               0               0               0 
              0               1               0               0 
              0               0               1 -295.167562551691 
1
              1               0               0               0 
              0               1               0               0 
              0               0               1 -147.583781275845 
1
              1               0               0               0 
              0               1               0               0 
              0               0               1               0 
2  24 -1 25 -1 26 -1 14 -1 0
1
              1               0               0              -0 
              0               1               0              -0 
              0               0               1 590.335125103382 
2  28 -1 24 -1 25 -1 26 -1 14 -1 0
Curve2ds 6
1 0 0 1 0 
1 0 -590.33500441149522 1 0 
1 0 0 1 0 
1 0 -590.33512510338176 1 0 
1 0 0 1 0 
1 0 -590.33512510338176 1 0 
Curves 7
1 -53.499999999999844 -49.999999999999652 -442.75134382753629 9.9999999999999998e-17 -1 0 
1 -53.499999999999844 -49.999999999999652 147.58378127584544 9.9999999999999998e-17 -1 0 
1 -53.499999999999844 -49.999999999999652 -442.75134382753629 -0 -0 1 
1 -46.499999999999844 -49.999999999999652 -442.75134382753629 9.9999999999999998e-17 -1 0 
1 -46.499999999999844 -49.999999999999652 147.58378127584544 9.9999999999999998e-17 -1 0 
1 -46.499999999999844 -49.999999999999652 -442.75134382753629 -0 -0 1 
1 -53.499999999999844 -49.999999999999652 0 1 0 0 
Polygon3D 1
2 1
0.0116666666666667
-53.4999999999998 -49.9999999999997 0 -46.4999999999998 -49.9999999999997 0 
0 7 
PolygonOnTriangulations 0
Surfaces 8
1 -53.499999999999844 -49.999999999999652 -442.75134382753629 -1 -9.9999999999999998e-17 -0 -0 0 1 -9.9999999999999998e-17 1 -0 
1 -46.499999999999844 -49.999999999999652 -442.75134382753629 -1 -9.9999999999999998e-17 -0 -0 0 1 -9.9999999999999998e-17 1 -0 
1 -53.499999999999844 -49.999999999999652 -442.75134382753629 -0 0 1 1 0 0 0 1 -0 
1 -53.499999999999844 -49.999999999999652 -442.75125330862141 -0 1 0 1 0 0 0 0 -1 
1 -53.499999999999844 -49.999999999999652 -442.75134382753629 -0 1 0 1 0 0 0 0 -1 
1 -53.499999999999844 -49.999999999999652 -442.75134382753629 -0 1 0 1 0 0 0 0 -1 
1 -53.499999999999844 -49.999999999999652 147.58378127584544 -0 0 1 1 0 0 0 1 -0 
1 -53.499999999999844 -49.999999999999652 -442.75134382753629 -0 1 0 1 0 0 0 0 -1 
Triangulations 0

TShapes 22
Ve
1e-07
-53.4999999999998 -49.9999999999997 0
0 0

0101101
*
Ed
 1e-07 1 1 0
1  1 0 0 147.583781275845
0

0101000
+22 5 -22 7 *
Ed
 1e-07 1 1 0
1  2 0 0 147.583781275845
0

0101000
+22 9 -22 10 *
Ed
 1e-07 1 1 0
1  3 0 0 590.335125103382
0

0101000
+22 5 -22 9 *
Wi

0101100
+21 0 -20 0 -19 0 +19 6 *
Fa
0  1e-07 1 0

0101000
+18 0 *
Ve
1e-07
-46.4999999999998 -49.9999999999997 0
0 0

0101101
*
Ed
 1e-07 1 1 0
1  4 0 0 147.583781275845
0

0101000
+16 5 -16 7 *
Ed
 1e-07 1 1 0
1  5 0 0 147.583781275845
0

0101000
+16 9 -16 10 *
Ed
 1e-07 1 1 0
1  6 0 0 590.335125103382
0

0101000
+16 5 -16 9 *
Wi

0101100
+15 0 -14 0 -13 0 +13 6 *
Fa
0  1e-07 2 0

0101000
+12 0 *
Ed
 1e-07 1 1 0
1  7 0 0 7
2  1 4 15 0 7
2  2 4 17 0 7
2  3 5 21 0 7
2  4 5 23 0 7
2  5 6 27 0 7
2  6 6 29 0 7
5  1 0
0

0101000
+22 0 -16 0 *
Wi

0101100
+21 0 -15 0 -10 5 +10 7 *
Fa
0  1e-07 3 0

0101000
+9 0 *
Wi

0101100
+20 0 -14 0 -10 9 +10 10 *
Fa
0  1e-07 7 0

0101000
+7 0 *
Wi

0101100
+19 0 -13 0 -10 5 +10 9 *
Fa
0  1e-07 8 0

0101000
+5 0 *
Sh

0101100
+17 0 -11 0 -8 0 +6 0 +4 0 -4 6 *
So

0100000
+3 0 *
Co

1100000
+2 0 *

+1 0 