<?xml version="1.0" encoding="UTF-8" standalone="no"?>
<!-- Generator: Adobe Illustrator 28.0.0, SVG Export Plug-In . SVG Version: 6.00 Build 0)  -->

<svg
   version="1.1"
   x="0px"
   y="0px"
   viewBox="0 0 226.77166 226.77166"
   xml:space="preserve"
   id="svg105"
   sodipodi:docname="6x6-knot-back.svg"
   width="60mm"
   height="60mm"
   inkscape:version="1.3.2 (091e20e, 2023-11-25, custom)"
   xmlns:inkscape="http://www.inkscape.org/namespaces/inkscape"
   xmlns:sodipodi="http://sodipodi.sourceforge.net/DTD/sodipodi-0.dtd"
   xmlns="http://www.w3.org/2000/svg"
   xmlns:svg="http://www.w3.org/2000/svg"><defs
   id="defs105" /><sodipodi:namedview
   id="namedview105"
   pagecolor="#ffffff"
   bordercolor="#000000"
   borderopacity="0.25"
   inkscape:showpageshadow="2"
   inkscape:pageopacity="0.0"
   inkscape:pagecheckerboard="0"
   inkscape:deskcolor="#d1d1d1"
   inkscape:zoom="3.4133289"
   inkscape:cx="102.83216"
   inkscape:cy="119.97086"
   inkscape:window-width="1920"
   inkscape:window-height="1137"
   inkscape:window-x="1912"
   inkscape:window-y="-8"
   inkscape:window-maximized="1"
   inkscape:current-layer="svg105"
   inkscape:document-units="mm" />
<style
   type="text/css"
   id="style1">
	.st0{fill:#1D1D1B;}
	.st1{fill-rule:evenodd;clip-rule:evenodd;}
</style>

<g
   id="g106"
   transform="matrix(1.3333234,0,0,1.3333235,-0.01059358,2.1026045e-4)"><g
     id="Layer_2">
	<g
   id="Réteg_4_00000132804577294955307730000003748488315393001386_">
		<polygon
   points="52.842781,95.099365 52.842781,102.00937 57.242783,102.00937 63.932781,95.329369 63.932781,94.679367 61.752781,94.679367 54.832783,101.59937 54.832783,94.679367 50.422779,94.679367 43.512779,101.59937 43.512779,94.679367 39.102779,94.679367 32.412781,101.36937 32.412781,102.00937 34.592781,102.00937 41.512779,95.099365 41.512779,102.00937 45.922779,102.00937 "
   id="polygon1" />
		<path
   d="m 107.85278,98.999367 c -0.48594,-0.1791 -0.98838,-0.309731 -1.5,-0.39 -0.3715,-0.05267 -0.73456,-0.153526 -1.08001,-0.300003 -0.21,-0.120002 -0.32,-0.260002 -0.32,-0.43 0.004,-0.172371 0.10995,-0.325882 0.27,-0.389999 0.26432,-0.114724 0.55276,-0.162796 0.84,-0.14 0.40044,-0.03116 0.80174,0.04841 1.16,0.230004 0.21531,0.119796 0.36028,0.335403 0.39,0.580001 h 1.39001 c -0.0152,-0.357475 -0.12944,-0.703697 -0.33,-1 -0.238,-0.30928 -0.56128,-0.542182 -0.93001,-0.669998 -0.49993,-0.163795 -1.02404,-0.241569 -1.55,-0.230003 -0.66305,-0.04624 -1.32477,0.107002 -1.9,0.440002 -0.39568,0.265335 -0.62927,0.713684 -0.62,1.190003 -0.008,0.332801 0.11394,0.655624 0.33999,0.900001 0.25128,0.264916 0.56376,0.464081 0.91001,0.580002 0.45875,0.169388 0.93506,0.286789 1.42,0.349998 0.30602,0.04107 0.6074,0.111397 0.9,0.21 0.16594,0.04562 0.31965,0.127605 0.44999,0.239995 0.0846,0.0807 0.13171,0.19308 0.13,0.31 -0.005,0.19879 -0.13248,0.37379 -0.32,0.44 -0.30294,0.11496 -0.62637,0.16603 -0.95,0.15 -0.40837,0.0202 -0.81582,-0.0552 -1.19,-0.22 -0.26708,-0.11226 -0.45129,-0.36171 -0.48,-0.65 h -1.4 c -0.0192,0.58333 0.26938,1.13388 0.76,1.45 0.69154,0.38563 1.47996,0.56276 2.27,0.51 v 0 c 0.69529,0.0512 1.39039,-0.10172 2,-0.44 0.41778,-0.25297 0.66635,-0.71187 0.65,-1.2 0.0119,-0.3268 -0.10273,-0.645598 -0.32,-0.889998 -0.27252,-0.28901 -0.61276,-0.505539 -0.98998,-0.630005 z"
   id="path1" />
		<path
   d="m 112.00278,94.699364 h -1.30001 v 1.660003 h -1.26999 v 1.14 h 1.26999 v 2.600003 c -0.007,0.35376 0.0337,0.70684 0.12001,1.05 0.0864,0.28405 0.26611,0.53066 0.51,0.7 0.33329,0.20233 0.72101,0.29664 1.11,0.26999 v 0 c 0.50842,-0.005 1.01356,-0.082 1.5,-0.23 v -1.14 c -0.22346,0.0587 -0.45065,0.10212 -0.68,0.13 -0.19546,0.0287 -0.3925,0.0454 -0.59,0.05 -0.14356,0.0102 -0.2875,-0.0138 -0.42,-0.07 -0.094,-0.0548 -0.16235,-0.14475 -0.19,-0.25 -0.0454,-0.15921 -0.0656,-0.32454 -0.06,-0.49 v -2.619993 h 2 v -1.14 h -2 z"
   id="path2" />
		<path
   d="m 119.53278,99.239365 c 0.0191,0.450843 -0.11482,0.894895 -0.38,1.260005 -0.33824,0.36922 -0.8323,0.55496 -1.33,0.5 -0.32446,0.0185 -0.64822,-0.0469 -0.94001,-0.19001 -0.21793,-0.11583 -0.38533,-0.30816 -0.47,-0.54 -0.0959,-0.290028 -0.13987,-0.594693 -0.12999,-0.899998 v -3 h -1.28 v 3 c -0.003,0.452255 0.0537,0.902938 0.17,1.339998 0.11699,0.39861 0.35886,0.74914 0.69,1 0.43806,0.31447 0.97199,0.46651 1.51,0.43 0.43399,0.0153 0.86643,-0.0596 1.27,-0.22 0.32267,-0.13174 0.60289,-0.34969 0.80999,-0.63 h 0.1 v 0.71001 h 1.30001 v -5.670002 h -1.30001 z"
   id="path3" />
		<polygon
   points="129.16278,96.359367 129.16278,102.02937 130.46278,102.02937 130.46278,96.359367 "
   id="polygon3" />
		<polygon
   points="129.12277,94.47937 129.12277,95.679367 130.49278,95.679367 130.49278,94.47937 "
   id="polygon4" />
		<path
   d="m 137.23277,97.519363 c -0.27531,-0.440315 -0.67572,-0.788497 -1.14999,-1 -0.49945,-0.21183 -1.03754,-0.317398 -1.58,-0.309997 -0.53925,-0.0075 -1.07407,0.09812 -1.57001,0.309997 -0.47731,0.210877 -0.8811,0.558968 -1.16,1 -0.59334,1.02356 -0.59334,2.286438 0,3.309997 0.27577,0.43992 0.67604,0.78798 1.14999,1 0.49519,0.21531 1.03004,0.32432 1.57001,0.32 v 0 c 0.57267,0.0103 1.14023,-0.1094 1.66,-0.35 0.45578,-0.22363 0.84018,-0.56994 1.11,-1 0.27344,-0.49182 0.41147,-1.047392 0.4,-1.609998 0.0274,-0.587197 -0.1224,-1.169068 -0.43,-1.669999 z m -1.11,2.599997 c -0.15223,0.27531 -0.37704,0.50359 -0.64999,0.66001 -0.30766,0.16233 -0.65235,0.2416 -1,0.23 v 0 c -0.49692,0.028 -0.98288,-0.15332 -1.34,-0.5 -0.34149,-0.36381 -0.51863,-0.851853 -0.49,-1.349999 -0.0287,-0.489197 0.14906,-0.96801 0.49,-1.32 0.78461,-0.633995 1.9054,-0.633995 2.69,0 0.33889,0.349861 0.5196,0.823311 0.5,1.309997 0.0157,0.334992 -0.0531,0.668549 -0.20001,0.969992 z"
   id="path4" />
		<rect
   x="67.112778"
   y="94.469368"
   width="1.3700027"
   height="1.1999969"
   id="rect4" />
		<polygon
   points="67.152779,96.349365 67.152779,102.00937 68.452774,102.00937 68.452774,96.349365 "
   id="polygon5" />
		<path
   d="m 74.582779,96.639366 c -0.441475,-0.306473 -0.973686,-0.454498 -1.510002,-0.419998 -0.433914,-0.01413 -0.86612,0.06074 -1.269997,0.220001 -0.323524,0.125527 -0.602127,0.344925 -0.800003,0.629997 h -0.110001 v -0.720001 h -1.300003 v 5.650005 h 1.300003 v -2.870006 c -0.01672,-0.453636 0.11686,-0.900093 0.379998,-1.269997 0.340065,-0.366501 0.83271,-0.551712 1.330002,-0.5 0.324104,-0.01384 0.646713,0.05137 0.940002,0.190003 0.217934,0.115829 0.385338,0.308166 0.470001,0.540001 0.09663,0.293304 0.140633,0.601379 0.129997,0.910003 v 2.999996 h 1.300004 v -2.999996 c 0.0077,-0.455787 -0.04951,-0.910354 -0.169999,-1.349998 -0.118873,-0.400467 -0.360168,-0.753662 -0.690002,-1.01001 z"
   id="path5" />
		<path
   d="m 78.492775,94.679367 h -1.300003 v 1.669998 h -1.269997 v 1.14 h 1.269997 v 2.589995 c -0.0053,0.33787 0.03848,0.67472 0.129997,1 0.07884,0.2877 0.255692,0.53883 0.5,0.71 0.336937,0.19252 0.722611,0.28286 1.110001,0.26 0.251129,-0.002 0.5018,-0.0217 0.75,-0.06 0.256698,-0.0359 0.510628,-0.0893 0.760002,-0.16 v -1.15 c -0.223473,0.061 -0.4506,0.10778 -0.68,0.14 -0.199807,0.0124 -0.400193,0.0124 -0.599999,0 -0.143295,0.005 -0.286171,-0.0185 -0.419998,-0.07 -0.0913,-0.0578 -0.158737,-0.14655 -0.190002,-0.25 -0.04476,-0.15934 -0.06499,-0.32457 -0.06,-0.49 v -2.620002 h 2 v -1.139999 h -2 v -1.569992 z"
   id="path6" />
		<path
   d="m 85.862778,96.61937 c -0.527985,-0.283768 -1.120789,-0.425072 -1.720002,-0.410004 -0.566459,-0.01257 -1.128021,0.107284 -1.639999,0.349998 -0.44342,0.222649 -0.81192,0.57029 -1.059998,1 -0.251899,0.491257 -0.375724,1.038147 -0.36,1.589997 -0.01837,0.554504 0.112884,1.103719 0.379997,1.589999 0.251496,0.43416 0.627808,0.78259 1.080002,1 0.524223,0.24852 1.100143,0.3685 1.68,0.35 v 0 c 0.679802,0.0216 1.352013,-0.14814 1.940003,-0.49 0.531166,-0.31662 0.896713,-0.85031 1,-1.46 h -1.380005 c -0.113816,0.25732 -0.311119,0.46873 -0.559998,0.6 -0.306717,0.16579 -0.651443,0.24852 -1,0.23999 -0.346344,0.01 -0.689789,-0.0657 -1,-0.22 -0.243042,-0.12717 -0.444382,-0.32156 -0.580002,-0.55999 -0.124496,-0.239216 -0.199325,-0.501126 -0.220001,-0.770001 h 4.790001 c 0.06091,-0.583801 -0.03218,-1.17337 -0.269997,-1.709999 -0.234581,-0.471672 -0.612708,-0.856804 -1.080001,-1.09999 z m -3.430001,2 c 0.01786,-0.220902 0.09757,-0.432297 0.230004,-0.610001 0.151871,-0.199379 0.351272,-0.357529 0.580002,-0.459999 0.284919,-0.118607 0.591446,-0.176506 0.900001,-0.169998 0.322769,-0.01004 0.643768,0.05143 0.940003,0.18 0.222404,0.104133 0.412468,0.266548 0.550003,0.470001 0.119323,0.175461 0.191635,0.378601 0.209999,0.589996 z"
   id="path7" />
		<path
   d="m 90.832779,97.359367 c 0.347664,-0.0116 0.692337,0.06767 1,0.230004 0.237244,0.146057 0.42263,0.362922 0.529999,0.620002 h 1.379997 c -0.07691,-0.598327 -0.413452,-1.1324 -0.919998,-1.459999 -0.596901,-0.377693 -1.294113,-0.565941 -2,-0.540001 -0.54158,-0.0091 -1.077149,0.114541 -1.559998,0.360001 -0.443527,0.226204 -0.814354,0.572769 -1.07,1 -0.271308,0.477745 -0.406211,1.020828 -0.389999,1.57 -0.01324,0.550789 0.11776,1.095466 0.379997,1.580006 0.255646,0.42723 0.626473,0.77379 1.07,1 0.48687,0.24321 1.025932,0.36338 1.57,0.34999 v 0 c 0.705047,0.0308 1.40274,-0.15406 2,-0.52999 0.510391,-0.32682 0.845062,-0.86744 0.910004,-1.47001 h -1.350007 c -0.110061,0.25805 -0.294593,0.47741 -0.529998,0.63 -0.303955,0.17291 -0.650681,0.25612 -1,0.24 -0.469246,0.0212 -0.924843,-0.16101 -1.25,-0.5 -0.607468,-0.775162 -0.607468,-1.864838 0,-2.64 0.332008,-0.309639 0.776931,-0.468796 1.230003,-0.440003 z"
   id="path8" />
		<path
   d="m 99.632774,96.639366 c -0.445228,-0.306496 -0.980567,-0.454414 -1.519996,-0.419998 -0.430664,-0.01418 -0.859619,0.06072 -1.260002,0.220001 -0.324837,0.12796 -0.606011,0.346657 -0.809998,0.629997 h -0.1 v -2.389999 h -1.300003 v 7.320003 h 1.300003 v -2.870006 c -0.01672,-0.453636 0.116859,-0.900093 0.379997,-1.269997 0.340065,-0.366501 0.83271,-0.551712 1.330002,-0.5 0.324104,-0.01384 0.646713,0.05137 0.940002,0.190003 0.21402,0.120697 0.379982,0.311378 0.470001,0.540001 0.09177,0.294418 0.135666,0.601661 0.129998,0.910003 v 2.999996 h 1.300002 v -2.999996 c 0.003,-0.455505 -0.0545,-0.909385 -0.17,-1.349998 -0.11888,-0.400467 -0.360166,-0.753662 -0.690008,-1.01001 z"
   id="path9" />
		<polygon
   points=""
   id="polygon9" />
		<path
   d="m 126.72278,94.699364 v 1.660003 0 0.75 h -0.09 c -0.24257,-0.279953 -0.54739,-0.499153 -0.89,-0.639999 -0.39524,-0.166733 -0.82111,-0.248497 -1.25,-0.239998 -0.54134,-0.01955 -1.0766,0.119476 -1.54,0.400002 -0.41116,0.261543 -0.73768,0.636688 -0.94,1.080001 -0.42234,0.955407 -0.42234,2.044594 0,2.999997 0.2049,0.43593 0.52687,0.80637 0.93,1.07 v 0 c 0.46232,0.28403 0.99766,0.42655 1.54,0.41001 0.43409,0.005 0.8651,-0.0734 1.27,-0.23001 0.34095,-0.13044 0.64844,-0.33544 0.9,-0.6 h 0.07 v 0.7 h 1.28 v -5.669996 0 -1.69001 z m -0.49,5.800006 c -0.35756,0.3742 -0.86388,0.56865 -1.38,0.53 -0.51696,0.0446 -1.02575,-0.15085 -1.37999,-0.53 -0.61376,-0.76176 -0.61376,-1.848247 0,-2.610004 0.35938,-0.370529 0.86545,-0.561226 1.37999,-0.519996 0.51695,-0.0373 1.02447,0.152565 1.39,0.519996 0.32577,0.35672 0.49818,0.827248 0.48001,1.309998 0.0161,0.481262 -0.16025,0.949106 -0.49001,1.300006 z"
   id="path10" />
	</g>
	<path
   d="m 139.64001,12.98999 c -1.23004,0.01001 -2.23004,-0.970031 -2.23004,-2.200012 -0.01,-1.2299805 0.98004,-2.2199707 2.21003,-2.2299805 0.41003,0 0.79998,0.1099854 1.13,0.2999878 l 0.26001,-0.4299927 c -0.40002,-0.2299805 -0.87,-0.3599854 -1.37,-0.3599854 -1.40002,0 -2.55999,1.0700073 -2.69,2.4599608 h -0.01 -4.53003 C 132.27003,9.0299681 130.95002,7.9299925 129.45002,8.0700072 127.96003,8.2099608 126.86,9.5299681 126.99,11.029968 c 0.14001,1.5 1.47003,2.600037 2.96002,2.460022 1.31,-0.119995 2.33997,-1.160034 2.45996,-2.460022 h 4.53003 0.01 c 0.15998,1.48999 1.48999,2.559998 2.97998,2.400025 0.38001,-0.03998 0.72998,-0.160035 1.04999,-0.330018 l -0.23999,-0.409973 c -0.33002,0.190003 -0.70001,0.289979 -1.09998,0.299988 z M 129.70738,13 c -1.21997,0 -2.21998,-0.98999 -2.21998,-2.220032 0,-1.2299802 1.00001,-2.2199704 2.21998,-2.2199704 1.23004,0 2.22003,0.9899902 2.22003,2.2199704 0,1.230042 -0.98999,2.220032 -2.22003,2.220032 z"
   id="path11" />
	<path
   d="m 149.55179,8.0793695 c -1.39659,0.00435 -2.56117,1.0693541 -2.69,2.4599995 h -6.49001 c -0.10385,-0.321149 -0.40248,-0.539067 -0.74001,-0.5399995 -0.43626,-0.00552 -0.79441,0.3436635 -0.79994,0.7799335 -4e-5,0.0034 -6e-5,0.0067 -6e-5,0.01007 0,0.441828 0.35817,0.800001 0.80001,0.800001 v 0 c 0.3413,9.31e-4 0.64248,-0.222925 0.74,-0.550001 h 6.49001 c 0.16017,1.488098 1.49633,2.564599 2.98443,2.404436 1.4881,-0.160165 2.56461,-1.496346 2.40444,-2.984443 -0.14833,-1.3781767 -1.31273,-2.3822612 -2.69887,-2.3799925 z m 0,4.9200005 c -1.22606,0.0055 -2.22446,-0.973925 -2.22997,-2.199984 -0.006,-1.2260599 0.98392,-2.224452 2.20998,-2.2299709 1.22606,-0.00552 2.22446,0.9839239 2.22998,2.2099839 2e-5,0.0033 2e-5,0.0066 2e-5,0.01 -0.0109,1.216026 -0.99399,2.199145 -2.21001,2.21 z"
   id="path12" />
	<g
   id="Réteg_9_másolat_00000114756325506769906070000009918022602752317574_">
		<path
   class="st0"
   d="M 169.86179,0.2493692 V 169.82937 H 0.2817817 V 0.2493692 H 169.86179 m 0.25,-0.25 H 0.0317817 V 170.07937 H 170.11178 V -6.308e-4 Z"
   id="path13" />
	</g>
	<path
   d="m 135.51962,114.99937 h -1.25 v 0.19999 h 1.25 z m -3.57,0.61 c -0.17595,0.0887 -0.32456,0.22352 -0.43,0.39 h 0.43 z m 6.49,1.87 -0.47,0.48 v 0.25 h 0.57001 v -0.73 z m -4.25,3.84 -2.42999,-2.57 0.39999,4.64 z m 0.48,0 2.33,2.44999 0.47999,-5.18 v 0 -0.08 z m -3,-3.12001 2.72,2.87001 1.61,-1.64 h -2.23 v -0.86 h 2.63001 v 0.5 l 1,-1.06 v -0.91 h 0.17999 l 0.06,-0.65001 h -6.12 z m 6.58,7.43 c 0.005,0.0699 0.005,0.14009 0,0.21 3e-5,0.68096 -0.54907,1.23452 -1.23,1.24001 -0.45848,0.002 -0.87954,-0.25267 -1.08999,-0.66001 h -3 v 0.58001 h -0.79 v -0.64 c -0.0964,-0.0248 -0.17016,-0.10247 -0.19,-0.2 l -0.17,-2 -4.20999,4.29 -0.25,-0.25 4.42,-4.50001 -0.48,-5.54 -4.19999,-4.44 v -0.49 l 4.16,4.38 -0.11,-1.27 h -0.52 v -0.33999 h 0.46 c -0.007,-0.0262 -0.007,-0.0538 0,-0.08 0.17569,-0.35725 0.47902,-0.63559 0.85001,-0.78 v -0.28 h 0.72999 v 0 c 0.38228,-0.0814 0.76998,-0.13483 1.16001,-0.16001 v -0.16999 h 2.11 v 1.05999 h -2.03003 v -0.44999 c -0.39034,0.0279 -0.77806,0.0847 -1.16,0.16999 v 0.69001 h 5 c -0.2,-0.46 -1,-0.68 -1.72001,-0.77 v -0.44 c 0.71416,0.0259 1.39827,0.29394 1.94001,0.76 0.10907,-0.13631 0.27546,-0.21397 0.44999,-0.21 0.31481,-1e-5 0.57001,0.25519 0.57001,0.56999 v 10e-6 c -0.005,0.31256 -0.25745,0.56466 -0.57001,0.57 -0.0725,0.016 -0.14753,0.016 -0.22,0 l -0.07,0.67 h 0.29 l 3.75999,-3.84 v 0.49 l -3.26997,3.27 v 0 1.48999 h -1 l -0.52001,5.6 3.86001,4.06002 -0.25,0.24 z m -2.46001,0.21 c 0.005,-0.6248 0.47032,-1.15004 1.09,-1.23 v -0.38 l -2.53,-2.66 -2.23,2.28 0.18,2.14 h 3.57002 c 0,-0.08 0,-0.12999 0,-0.18 z m 0.60001,0 c 4.9e-4,0.35346 0.28741,0.63961 0.64088,0.63912 0.35277,-4.8e-4 0.63863,-0.28633 0.63912,-0.63912 0,-0.35345 -0.28655,-0.64 -0.64,-0.64 -0.32651,0.0201 -0.58528,0.28322 -0.59999,0.61 z m 0.22,0 c 0,-0.23196 0.18803,-0.42 0.42,-0.42 0.23196,6.9e-4 0.41945,0.18927 0.41876,0.42124 -6.9e-4,0.23099 -0.18778,0.41807 -0.41876,0.41876 -0.22824,-0.0212 -0.39734,-0.22143 -0.37999,-0.45 z m -8.36,5.74002 h 12.42 v 3 h -12.37999 z"
   id="path14" />
	<g
   id="Réteg_8_00000106832397791466767830000016734050564065500824_">
		<g
   id="g39_00000073686125036842783120000003539164564327151268_">
			<g
   id="g33_00000068640588301118549580000012660620298127425936_">
				<path
   id="path25_00000047761989866936687420000015418336820537711771_"
   d="m 60.069634,113.15937 v 9.34 h 20.25 v -9.34 H 79.51963 v 8.52 H 60.869633 v -7.68 h 15.850002 v -0.82 H 60.069634 Z" />
				<path
   id="path27_00000151508988794959863770000011608068351474231952_"
   d="m 64.869636,117.92937 c 0.03387,-0.51322 -0.0411,-1.0278 -0.220001,-1.51 -0.138229,-0.29736 -0.455658,-0.46828 -0.780002,-0.42 -0.308022,-0.005 -0.588433,0.17694 -0.709999,0.46 -0.276429,0.98089 -0.276429,2.0191 0,3 0.122474,0.28099 0.403614,0.45918 0.709999,0.44999 0.307949,0.015 0.592106,-0.16511 0.710003,-0.44999 0.178901,-0.48221 0.253875,-0.99679 0.220001,-1.51001 m 0.68,0 c 0.04608,0.64862 -0.0926,1.29701 -0.400001,1.87001 -0.259247,0.41278 -0.723526,0.65068 -1.210003,0.62 -0.483563,0.0285 -0.945313,-0.20431 -1.209999,-0.61 -0.298275,-0.57964 -0.433098,-1.22955 -0.39,-1.88 -0.0433,-0.64726 0.09158,-1.29401 0.39,-1.87 0.259246,-0.41278 0.723526,-0.65068 1.209999,-0.62 0.487407,-0.0352 0.953884,0.20382 1.210003,0.62 0.307396,0.573 0.446083,1.22139 0.400001,1.87" />
				<path
   id="path29_00000119838640265805836740000014019933881567833780_"
   d="m 69.129639,115.68937 v 0.66 c -0.184021,-0.12051 -0.382172,-0.21791 -0.589997,-0.29 -0.194526,-0.0592 -0.396675,-0.0895 -0.599998,-0.09 -0.260094,-0.0147 -0.517479,0.0593 -0.730003,0.20999 -0.179604,0.13741 -0.28048,0.35411 -0.269997,0.58001 -0.01205,0.17847 0.05357,0.35346 0.18,0.48 0.18956,0.1467 0.413178,0.24302 0.650002,0.28 l 0.339996,0.08 c 0.376923,0.0595 0.726212,0.23418 1,0.5 0.215561,0.25665 0.326279,0.58523 0.309998,0.92 0.01402,0.38097 -0.143837,0.7481 -0.430001,1 -0.353607,0.26353 -0.790107,0.39128 -1.230003,0.36 -0.228539,0.001 -0.456558,-0.022 -0.68,-0.07 -0.236672,-0.0505 -0.467797,-0.12416 -0.690003,-0.22 v -0.69 c 0.217583,0.14324 0.452896,0.25753 0.699997,0.33999 0.215027,0.0762 0.441902,0.11343 0.669998,0.11 0.271378,0.0189 0.540665,-0.0591 0.760002,-0.22 0.188195,-0.14474 0.292946,-0.37294 0.279999,-0.61 0.01214,-0.20128 -0.05621,-0.39913 -0.190002,-0.55 -0.18853,-0.15831 -0.416763,-0.26206 -0.660004,-0.3 l -0.339996,-0.08 c -0.368752,-0.0539 -0.715103,-0.20976 -1,-0.44999 -0.212486,-0.21858 -0.324753,-0.51552 -0.309998,-0.82 -0.0059,-0.37941 0.150574,-0.74327 0.430001,-1 0.323883,-0.27122 0.738052,-0.41047 1.160003,-0.39 0.194794,0.002 0.388993,0.0218 0.580002,0.06 0.217697,0.0476 0.43161,0.11109 0.639999,0.19001" />
				<path
   id="path31_00000149352531188993285670000000118996949032904606_"
   d="m 70.27964,115.51936 h 0.650002 v 2 h 1.779999 v -2 h 0.650001 v 4.81 h -0.650001 v -2.32999 h -1.780007 v 2.29 h -0.650001 v -4.81" />
			</g>
			<path
   id="path35_00000156557054618539725900000010204064508153237124_"
   d="m 73.799637,115.51936 h 0.639999 l 0.459999,3.9 0.540001,-2.58 h 0.68 l 0.550004,2.59 1.559997,-7.42999 h 0.64 l -1.82,8.37 h -0.610001 l -0.660003,-2.86 -0.650002,2.86 H 74.51963 l -0.720001,-4.81" />
			<g
   id="text37-2_00000105428600583275909750000013163482885969913236_">
				<path
   id="path307_00000150823600617649134710000018004253120409562755_"
   d="m 60.089634,124.54937 h 0.43 v 1.28999 h 1.16 v -1.29 h 0.43 v 3.14001 h -0.43 v -1.5 h -1.16 v 1.5 h -0.43 z" />
				<path
   id="path309_00000108306715782365688890000013146404542455416224_"
   d="m 62.709633,126.48937 v -1.94 h 0.43 v 2.13 c -0.0064,0.10991 -0.0064,0.2201 0,0.33001 -0.007,0.0498 -0.007,0.10023 0,0.14999 0.04834,0.0802 0.117443,0.14583 0.200001,0.19 0.09752,0.043 0.203476,0.0635 0.310001,0.06 0.106423,0.002 0.212098,-0.0182 0.310002,-0.06 0.07949,-0.0448 0.145199,-0.11052 0.190006,-0.19 0.0071,-0.0497 0.0071,-0.10025 0,-0.14999 0.0066,-0.1099 0.0066,-0.22011 0,-0.33001 v -2.12999 h 0.43 v 1.93999 c 0.01274,0.22895 -0.01089,0.45845 -0.07,0.68 -0.02788,0.13208 -0.0981,0.25146 -0.199997,0.33999 -0.09349,0.0809 -0.202324,0.14211 -0.320004,0.17999 -0.260635,0.0802 -0.539364,0.0802 -0.799999,0 -0.117676,-0.0379 -0.226509,-0.0991 -0.32,-0.17999 -0.101551,-0.0905 -0.174522,-0.20866 -0.209999,-0.33999 -0.01161,-0.22786 0.0052,-0.45629 0.04999,-0.68 z" />
				<path
   id="path311_00000023280158063460405520000004891944326822160018_"
   d="m 66.019638,126.10937 c -0.0055,-0.14902 0.110802,-0.27429 0.259819,-0.27982 0.0034,-1.2e-4 0.0068,-1.8e-4 0.01018,-1.8e-4 0.07467,-10e-4 0.146667,0.0277 0.199997,0.08 0.05595,0.0517 0.08844,0.12387 0.09,0.2 0.0024,0.077 -0.0308,0.15075 -0.09,0.19999 -0.05029,0.0568 -0.124436,0.0864 -0.199997,0.08 -0.0751,0.003 -0.148033,-0.0257 -0.199997,-0.08 -0.04961,-0.0543 -0.07489,-0.12657 -0.07,-0.19999 z m 0.279999,-1.28 c -0.203453,-0.002 -0.385079,0.12718 -0.449997,0.32001 -0.116463,0.31977 -0.164169,0.66053 -0.139999,1 -0.02241,0.3394 0.02524,0.67979 0.139999,1 0.06989,0.18907 0.248451,0.31605 0.449997,0.32 0.199776,-0.002 0.376259,-0.13066 0.440002,-0.32 0.118996,-0.31928 0.170082,-0.65987 0.150002,-1 0.0219,-0.34021 -0.02925,-0.68119 -0.150002,-1 -0.0611,-0.19127 -0.239212,-0.3208 -0.440002,-0.32001 z m 0,-0.34 c 0.309059,-0.0118 0.600128,0.14525 0.760002,0.41001 0.193588,0.37631 0.28334,0.79745 0.260002,1.22 0.02582,0.42274 -0.06406,0.84453 -0.260002,1.22 -0.1567,0.26806 -0.449921,0.42625 -0.760002,0.41 -0.310608,0.0186 -0.604981,-0.14021 -0.760002,-0.41 -0.200432,-0.37384 -0.290596,-0.79692 -0.260002,-1.22 -0.02843,-0.42293 0.06161,-0.84542 0.260002,-1.22 0.15831,-0.2664 0.450431,-0.42399 0.760002,-0.41001 z" />
				<path
   id="path313_00000005267813581436669030000009932712191701550260_"
   d="m 68.609634,126.10937 c 0.0028,-0.0739 0.03102,-0.14458 0.08,-0.2 0.05447,-0.0505 0.125725,-0.079 0.199997,-0.08 0.07467,-10e-4 0.146668,0.0277 0.199997,0.08 0.05595,0.0517 0.08844,0.12387 0.09,0.2 0.0024,0.077 -0.0308,0.15075 -0.09,0.19999 -0.111999,0.10668 -0.288002,0.10668 -0.400001,0 -0.05227,-0.0533 -0.08106,-0.12533 -0.07999,-0.19999 z m 0.279999,-1.28 c -0.199775,0.002 -0.376259,0.13066 -0.440002,0.32001 -0.120751,0.31881 -0.171898,0.65979 -0.150002,1 -0.02008,0.34013 0.03101,0.68072 0.150002,1 0.08353,0.24577 0.350479,0.37728 0.596245,0.29374 0.138229,-0.047 0.246772,-0.15551 0.293754,-0.29374 0.118996,-0.31928 0.170082,-0.65987 0.150002,-1 0.0219,-0.34021 -0.02925,-0.68119 -0.150002,-1 -0.06706,-0.20009 -0.259254,-0.33094 -0.469993,-0.32001 z m 0,-0.34 c 0.309571,-0.014 0.601685,0.14362 0.760002,0.41001 0.198387,0.37458 0.28843,0.79707 0.260002,1.22 0.03059,0.42308 -0.05957,0.84616 -0.260002,1.22 -0.155021,0.26979 -0.449394,0.4286 -0.760002,0.41 -0.310081,0.0162 -0.603302,-0.14194 -0.760002,-0.41 -0.192001,-0.37662 -0.278396,-0.79822 -0.25,-1.22 -0.02594,-0.42162 0.06032,-0.84258 0.25,-1.22 0.156304,-0.25844 0.438011,-0.41452 0.740006,-0.41002 z" />
				<path
   id="path315_00000004524814512414440740000007111863637791334039_"
   d="m 71.209633,126.10937 c 0.0028,-0.0739 0.03102,-0.14458 0.08,-0.2 0.111999,-0.10667 0.288002,-0.10667 0.400001,0 0.05325,0.0527 0.08223,0.12512 0.08,0.2 0.0023,0.15461 -0.121277,0.2818 -0.275902,0.28404 -0.07667,10e-4 -0.150444,-0.0293 -0.204101,-0.0841 -0.05227,-0.0533 -0.08107,-0.12533 -0.08,-0.19999 z m 0.279999,-1.28 c -0.200791,-7.9e-4 -0.378899,0.12874 -0.440003,0.32001 -0.12075,0.31881 -0.171898,0.65979 -0.150001,1 -0.02008,0.34013 0.03101,0.68072 0.150001,1 0.06374,0.18934 0.240227,0.3177 0.440003,0.32 0.201545,-0.004 0.380104,-0.13093 0.449997,-0.32 0.109611,-0.32146 0.157119,-0.66082 0.139999,-1 0.01862,-0.33927 -0.02893,-0.6789 -0.139999,-1 -0.06492,-0.19283 -0.246537,-0.32199 -0.449997,-0.32001 z m 0,-0.34 c 0.30957,-0.014 0.601684,0.14362 0.760002,0.41001 0.198387,0.37458 0.288429,0.79707 0.260002,1.22 0.03059,0.42308 -0.05957,0.84616 -0.260002,1.22 -0.155022,0.26979 -0.449394,0.4286 -0.760002,0.41 -0.310082,0.0162 -0.603302,-0.14194 -0.760002,-0.41 -0.195938,-0.37547 -0.285828,-0.79726 -0.260002,-1.22 -0.02334,-0.42255 0.06641,-0.84369 0.260002,-1.22 0.159874,-0.26477 0.450942,-0.4218 0.760002,-0.41001 z" />
				<path
   id="path317_00000002381763126908608230000009281736085075900820_"
   d="m 73.809639,126.10937 c 0.0028,-0.0739 0.03102,-0.14458 0.08,-0.2 0.05333,-0.0523 0.125328,-0.0811 0.199997,-0.08 0.149009,-0.006 0.274368,0.11061 0.279999,0.25961 2.59e-4,0.007 2.59e-4,0.0136 0,0.0204 0.0011,0.0747 -0.02773,0.14666 -0.08,0.19999 -0.05196,0.0543 -0.124901,0.0835 -0.199997,0.08 -0.07556,0.006 -0.149712,-0.0232 -0.199997,-0.08 -0.05227,-0.0533 -0.08107,-0.12533 -0.08,-0.19999 z m 0.279999,-1.28 c -0.201843,-0.004 -0.381722,0.12672 -0.440003,0.32001 -0.12075,0.31881 -0.171897,0.65979 -0.150001,1 -0.02008,0.34013 0.03101,0.68072 0.150001,1 0.0741,0.24301 0.331162,0.37992 0.574166,0.30583 0.146499,-0.0447 0.261162,-0.15933 0.305832,-0.30583 0.118995,-0.31928 0.170082,-0.65987 0.150001,-1 0.0219,-0.34021 -0.02925,-0.68119 -0.150001,-1 -0.05828,-0.19329 -0.238152,-0.32412 -0.439995,-0.32001 z m 0,-0.34 c 0.30957,-0.014 0.601684,0.14362 0.760002,0.41001 0.193588,0.37631 0.28334,0.79745 0.260002,1.22 0.02583,0.42274 -0.06406,0.84453 -0.260002,1.22 -0.276421,0.41974 -0.840767,0.53592 -1.260498,0.25949 -0.103226,-0.068 -0.191521,-0.15627 -0.259499,-0.25949 -0.195938,-0.37547 -0.285827,-0.79726 -0.260002,-1.22 -0.02334,-0.42255 0.06641,-0.84369 0.260002,-1.22 0.15831,-0.26639 0.450432,-0.42399 0.759995,-0.41001 z" />
				<path
   id="path319_00000167360728825913423420000008778820967584614585_"
   d="m 76.409638,126.10937 c -0.0055,-0.14902 0.110801,-0.27429 0.259818,-0.27982 0.0034,-1.2e-4 0.0068,-1.8e-4 0.01018,-1.8e-4 0.07737,4e-4 0.15197,0.0288 0.209999,0.08 0.04898,0.0554 0.07725,0.12608 0.08,0.2 0.0059,0.149 -0.110031,0.27459 -0.259026,0.28055 -0.01033,4.1e-4 -0.02067,2.2e-4 -0.03098,-5.5e-4 -0.07214,0.003 -0.141929,-0.0261 -0.190002,-0.08 -0.05676,-0.0503 -0.08643,-0.12443 -0.07999,-0.19999 z m 0.279998,-1.28 c -0.203453,-0.002 -0.385078,0.12718 -0.449997,0.32001 -0.111068,0.3211 -0.158615,0.66073 -0.139999,1 -0.01712,0.33918 0.03039,0.67854 0.139999,1 0.06989,0.18907 0.248451,0.31605 0.449997,0.32 0.200791,8e-4 0.378899,-0.12874 0.440003,-0.32 0.118995,-0.31928 0.170082,-0.65987 0.150001,-1 0.0219,-0.34021 -0.02925,-0.68119 -0.150001,-1 -0.05828,-0.19329 -0.238159,-0.32412 -0.440003,-0.32001 z m 0,-0.34 c 0.309059,-0.0118 0.600128,0.14525 0.760002,0.41001 0.193589,0.37631 0.283341,0.79745 0.260002,1.22 0.02583,0.42274 -0.06406,0.84453 -0.260002,1.22 -0.1567,0.26806 -0.44992,0.42625 -0.760002,0.41 -0.310608,0.0186 -0.60498,-0.14021 -0.760002,-0.41 -0.195938,-0.37547 -0.285828,-0.79726 -0.260002,-1.22 -0.02334,-0.42255 0.06641,-0.84369 0.260002,-1.22 0.15831,-0.2664 0.450432,-0.42399 0.760002,-0.41001 z" />
				<path
   id="path321_00000178905224577543408090000000838989121402738085_"
   d="m 80.079636,124.61937 v 0.38 c -0.09214,-0.0502 -0.189354,-0.0904 -0.290001,-0.12001 -0.102776,-0.0152 -0.207222,-0.0152 -0.309998,0 -0.241905,-0.014 -0.47345,0.0998 -0.610001,0.3 -0.157005,0.27281 -0.230049,0.58588 -0.209999,0.89999 0.124665,-0.26855 0.393929,-0.44026 0.690003,-0.44 0.265609,-0.0113 0.523575,0.0905 0.709999,0.28 0.175285,0.22488 0.264,0.50522 0.25,0.78999 0.01794,0.28694 -0.07515,0.5698 -0.260002,0.79 -0.186508,0.19563 -0.450325,0.29821 -0.720001,0.28 -0.320244,0.0238 -0.628914,-0.12481 -0.809998,-0.39 -0.196083,-0.38237 -0.282608,-0.81153 -0.25,-1.24001 -0.02737,-0.42464 0.07743,-0.84734 0.300003,-1.21 0.208626,-0.27897 0.54203,-0.4363 0.889999,-0.42 0.103074,-0.0104 0.206925,-0.0104 0.309998,0 0.106468,0.0227 0.210335,0.0562 0.309998,0.10004 z m -0.760003,1.38 c -0.165718,-0.0104 -0.326141,0.0604 -0.43,0.19 -0.111732,0.15727 -0.168014,0.34723 -0.160004,0.53999 -0.0066,0.1957 0.0495,0.38837 0.160004,0.55001 0.103859,0.12956 0.264282,0.20044 0.43,0.19 0.161118,0.013 0.318253,-0.0544 0.419999,-0.17999 0.111099,-0.16469 0.163902,-0.36182 0.150001,-0.56 0.01241,-0.1949 -0.04036,-0.3884 -0.150001,-0.55001 -0.101738,-0.12561 -0.258881,-0.19294 -0.419999,-0.18 z" />
			</g>
		</g>
	</g>
	<g
   id="g17">
		<g
   id="g16">
			<path
   class="st1"
   d="m 91.508667,125.47539 v 2.11549 0 c -0.232017,0.0218 -0.466759,0.0355 -0.704239,0.0355 -3.933334,0 -7.137871,-3.20736 -7.137871,-7.13536 0,-3.92801 3.204537,-7.13537 7.137871,-7.13537 0.23748,0 0.474953,0.0137 0.704239,0.0355 v 0 2.11549 0 c -0.232017,-0.0327 -0.466759,-0.0519 -0.704239,-0.0519 -2.773254,0 -5.038818,2.2629 -5.038818,5.03625 0,2.77334 2.262832,5.03624 5.038818,5.03624 0.23748,0 0.474953,-0.0191 0.704239,-0.0519 v 0 0 z"
   id="path15" />
			<path
   class="st1"
   d="m 98.14975,119.40186 h 4.12168 v 2.18101 h -4.12168 v 0 c 0.499511,2.25198 2.51395,3.94438 4.91598,3.94438 0.23748,0 0.47768,-0.0191 0.70697,-0.0519 v 0 2.11549 0 c -0.23474,0.0218 -0.46949,0.0355 -0.70697,0.0355 -3.930598,0 -7.135135,-3.20464 -7.135135,-7.13537 0,-3.93073 3.201806,-7.13536 7.135135,-7.13536 0.23749,0 0.47496,0.0137 0.70698,0.0355 v 0 2.11549 0 c -0.23475,-0.0327 -0.4695,-0.0519 -0.70698,-0.0519 -2.40203,0 -4.416461,1.6924 -4.91598,3.9471 v 0 0 z"
   id="path16" />
		</g>
	</g>
	<path
   d="m 123.30042,124.44583 c -1.00979,1.01336 -2.39683,1.63754 -3.93596,1.63754 -1.54048,0 -2.92706,-0.62418 -3.93685,-1.63754 -1.00875,-1.0144 -1.63045,-2.40817 -1.63045,-3.95447 0,-1.54718 0.6217,-2.93971 1.63045,-3.95465 1.00979,-1.01281 2.39637,-1.6379 3.93685,-1.6379 1.53913,0 2.92617,0.62509 3.93596,1.6379 0.2162,0.21804 0.41426,0.45449 0.59278,0.70493 l 1.23574,-0.9158 c -1.28944,-1.79798 -3.39064,-2.96913 -5.76448,-2.9702 -3.66659,0.001 -6.68206,2.79014 -7.06247,6.37212 h -2.69812 v -4.66783 h 3.36167 l 1.22024,-1.70429 h -6.01183 v 14.27073 l 1.42992,-1.05342 v -5.3178 h 2.69812 c 0.38041,3.58122 3.39588,6.37086 7.06247,6.37122 2.37384,0 4.47504,-1.17168 5.76448,-2.97002 l -1.23574,-0.91598 c -0.17852,0.25044 -0.37658,0.48724 -0.59278,0.70546 z"
   id="path17" />
	<path
   d="m 119.36446,117.92977 c 0.87104,0.002 1.63953,0.44223 2.09909,1.11265 l 1.23716,-0.91684 c -0.73925,-1.0512 -1.95823,-1.73776 -3.33625,-1.73826 -2.25669,5e-4 -4.08503,1.83705 -4.08503,4.10404 0,2.26647 1.82834,4.10265 4.08503,4.10333 1.37802,0 2.597,-0.68724 3.33625,-1.73808 l -1.23716,-0.91702 c -0.45956,0.67114 -1.22805,1.11038 -2.09909,1.11247 -1.40801,-0.003 -2.54734,-1.14679 -2.5494,-2.5607 0.002,-1.41444 1.14139,-2.55879 2.5494,-2.56159 z"
   id="path18" />
</g><g
     id="Layer_3">
	<g
   id="g25">
		<path
   d="m 132.25195,18.725586 c 0,0.516113 -0.36816,0.911621 -1.10742,0.911621 -1.02344,0 -1.16797,-0.81543 -1.16797,-1.363281 0,-0.595703 0.18457,-1.515137 1.20801,-1.515137 0.72754,0 0.89941,0.459961 0.93066,0.6875 h -0.44726 c -0.0644,-0.179687 -0.24414,-0.287598 -0.4834,-0.287598 -0.54395,0 -0.71191,0.495606 -0.74805,1.011231 0.15625,-0.179688 0.41602,-0.355469 0.84375,-0.355469 0.63575,0 0.97168,0.399414 0.97168,0.911133 z m -0.47265,-0.0078 c 0,-0.239746 -0.11914,-0.499511 -0.5791,-0.499511 -0.36426,0 -0.7002,0.163574 -0.7002,0.495605 0,0.295899 0.25195,0.523438 0.66797,0.523438 0.39551,0 0.61133,-0.203614 0.61133,-0.519532 z"
   id="path19" />
		<path
   d="m 132.90039,18.617676 v -0.415528 h 1.3916 v 0.415528 z"
   id="path20" />
		<path
   d="M 135.37988,19.589355 V 17.67041 h -0.73535 v -0.327637 c 0.49609,0 0.76367,-0.280273 0.80762,-0.551757 h 0.39941 v 2.798339 z"
   id="path21" />
		<path
   d="m 138.72363,18.693848 c 0,0.47998 -0.25195,0.943359 -1.10742,0.943359 -0.85156,0 -1.09473,-0.459473 -1.11523,-0.779297 h 0.49218 c 0.0117,0.211914 0.24805,0.395508 0.63184,0.395508 0.42773,0 0.61133,-0.223633 0.61133,-0.55957 0,-0.303711 -0.15235,-0.595703 -0.63574,-0.595703 -0.25977,0 -0.45215,0.08398 -0.54004,0.235839 h -0.51172 l 0.17187,-1.542968 h 1.89551 v 0.427734 h -1.53516 l -0.0879,0.779297 c 0.15528,-0.147949 0.40332,-0.271485 0.75098,-0.271485 0.62402,0 0.97949,0.391602 0.97949,0.967286 z"
   id="path22" />
		<path
   d="m 141.54004,16.791016 h 0.50391 l -1.0918,2.798339 h -0.71192 l -1.08691,-2.798339 h 0.50391 l 0.89941,2.378418 h 0.0801 z"
   id="path23" />
		<path
   d="m 143.70508,19.589355 v -2.798339 h 1.18359 c 1.19141,0 1.35547,0.879394 1.35547,1.398925 0,0.516114 -0.16406,1.399415 -1.35547,1.399415 h -1.18359 z m 0.47168,-0.447753 h 0.71191 c 0.64746,0 0.875,-0.503907 0.875,-0.951661 0,-0.471679 -0.23144,-0.983398 -0.875,-0.983398 h -0.71191 z"
   id="path24" />
		<path
   d="m 146.7168,18.174316 c 0,-0.903808 0.56347,-1.431152 1.42285,-1.431152 0.72363,0 1.2793,0.399414 1.36328,0.958984 h -0.50781 c -0.12012,-0.327636 -0.41992,-0.543457 -0.85157,-0.543457 -0.63574,0 -0.95507,0.38379 -0.95507,1.015625 0,0.639649 0.31933,1.043457 0.95507,1.043457 0.42774,0 0.73536,-0.224121 0.85157,-0.547851 h 0.50781 c -0.0996,0.57959 -0.63184,0.963379 -1.36328,0.963379 -0.87207,0 -1.42285,-0.535645 -1.42285,-1.458985 z"
   id="path25" />
	</g>
	<g
   id="g51">
		<path
   d="m 130.11621,26.629394 -0.21191,-0.567871 h -1.45899 l -0.21582,0.567871 h -0.50781 l 1.08301,-2.798339 h 0.74023 l 1.0791,2.798339 z m -1.51562,-0.983398 h 1.14355 l -0.52344,-1.399414 h -0.0918 z"
   id="path26" />
		<path
   d="m 133.2168,24.410644 v 2.21875 h -0.44825 V 26.32959 h -0.0479 c -0.16015,0.23584 -0.44726,0.347656 -0.83984,0.347656 -0.85059,0 -0.92676,-0.631348 -0.92676,-1.107422 v -1.15918 h 0.44727 v 1.191407 c 0,0.463867 0.18847,0.691406 0.66797,0.691406 0.56738,0 0.69921,-0.375489 0.69921,-0.763672 v -1.119141 h 0.44825 z"
   id="path27" />
		<path
   d="m 134.16504,25.85791 v -1.027344 h -0.48731 v -0.419922 h 0.48731 v -0.66748 h 0.44824 v 0.66748 h 0.81152 v 0.419922 h -0.81152 v 1.019043 c 0,0.288086 0.0439,0.383789 0.27149,0.383789 0.14062,0 0.38378,-0.03564 0.54003,-0.07568 v 0.419922 c -0.16796,0.04785 -0.38769,0.07959 -0.57128,0.07959 -0.61231,0 -0.68848,-0.36377 -0.68848,-0.799317 z"
   id="path28" />
		<path
   d="m 138.27539,25.505859 c 0,0.715821 -0.46777,1.163575 -1.23926,1.163575 -0.59961,0 -1.23925,-0.319825 -1.23925,-1.163575 0,-0.835449 0.63574,-1.143066 1.23925,-1.143066 0.59961,0 1.23926,0.307617 1.23926,1.143066 z m -0.45508,0 c 0,-0.455566 -0.29199,-0.755371 -0.78418,-0.755371 -0.49511,0 -0.78711,0.295899 -0.78711,0.755371 0,0.467774 0.292,0.783692 0.78711,0.783692 0.48438,0 0.78418,-0.335938 0.78418,-0.783692 z"
   id="path29" />
		<path
   d="m 138.74121,26.629394 v -2.21875 h 0.44727 v 0.303711 h 0.04 c 0.17187,-0.243652 0.45605,-0.351562 0.79589,-0.351562 0.34766,0 0.61524,0.111816 0.7959,0.379394 0.15528,-0.175781 0.39551,-0.379394 0.88281,-0.379394 0.93555,0 1.00782,0.683594 1.00782,1.111328 v 1.155273 h -0.4482 V 25.46582 c 0,-0.467773 -0.21973,-0.715332 -0.63965,-0.715332 -0.49903,0 -0.6709,0.359863 -0.6709,0.679688 v 1.199218 h -0.44824 V 25.46582 c 0,-0.455566 -0.16016,-0.715332 -0.60352,-0.715332 -0.47949,0 -0.71191,0.303711 -0.71191,0.751465 v 1.127441 z"
   id="path30" />
		<path
   d="m 143.17773,25.521973 c 0,-0.631836 0.38379,-1.15918 1.13184,-1.15918 0.34375,0 0.6875,0.131836 0.86719,0.367676 h 0.04 v -0.319824 h 0.44726 v 2.21875 H 145.2168 V 26.32959 h -0.0322 c -0.17969,0.228027 -0.53906,0.347656 -0.87891,0.347656 -0.74414,0 -1.12793,-0.519531 -1.12793,-1.155273 z m 2.03907,-0.0039 c 0,-0.407714 -0.23243,-0.779785 -0.7959,-0.779785 -0.5752,0 -0.78711,0.383789 -0.78711,0.779785 0,0.399903 0.21191,0.783692 0.78711,0.783692 0.56347,0 0.7959,-0.375977 0.7959,-0.783692 z"
   id="path31" />
		<path
   d="m 146.6123,25.85791 v -1.027344 h -0.4873 v -0.419922 h 0.4873 v -0.66748 h 0.44825 v 0.66748 h 0.81152 v 0.419922 h -0.81152 v 1.019043 c 0,0.288086 0.0439,0.383789 0.27148,0.383789 0.14063,0 0.38379,-0.03564 0.54004,-0.07568 v 0.419922 c -0.16797,0.04785 -0.38769,0.07959 -0.57129,0.07959 -0.6123,0 -0.68848,-0.36377 -0.68848,-0.799317 z"
   id="path32" />
		<path
   d="m 148.38086,24.106934 v -0.407715 h 0.48047 v 0.407715 z m 0.0166,2.52246 v -2.21875 h 0.44727 v 2.21875 z"
   id="path33" />
		<path
   d="m 149.30957,25.518066 c 0,-0.675781 0.45996,-1.155273 1.17969,-1.155273 0.62304,0 1.05078,0.275879 1.14355,0.727539 h -0.5 c -0.1123,-0.200195 -0.29199,-0.34375 -0.64355,-0.34375 -0.46778,0 -0.72364,0.319824 -0.72364,0.771484 0,0.463868 0.28809,0.775391 0.72364,0.775391 0.35156,0 0.53125,-0.155762 0.64355,-0.34375 h 0.5 c -0.084,0.45166 -0.51562,0.727539 -1.14355,0.727539 -0.71973,0 -1.17969,-0.483398 -1.17969,-1.15918 z"
   id="path34" />
		<path
   d="m 131.25488,31.629394 v -2.798339 h 1.23926 c 0.66016,0 1.17188,0.199707 1.17188,0.975586 0,0.735351 -0.51172,0.979003 -1.14747,0.979003 h -0.79199 v 0.84375 z m 0.47168,-1.255371 h 0.79199 c 0.43165,0 0.667,-0.164062 0.667,-0.567382 0,-0.456055 -0.27149,-0.563965 -0.70703,-0.563965 h -0.75196 z"
   id="path35" />
		<path
   d="m 136.52539,30.505859 c 0,0.715821 -0.46777,1.163575 -1.23926,1.163575 -0.59961,0 -1.23925,-0.319825 -1.23925,-1.163575 0,-0.835449 0.63574,-1.143066 1.23925,-1.143066 0.59961,0 1.23926,0.307617 1.23926,1.143066 z m -0.45508,0 c 0,-0.455566 -0.29199,-0.755371 -0.78418,-0.755371 -0.49511,0 -0.78711,0.295899 -0.78711,0.755371 0,0.467774 0.292,0.783692 0.78711,0.783692 0.48438,0 0.78418,-0.335938 0.78418,-0.783692 z"
   id="path36" />
		<path
   d="m 136.99121,31.629394 v -2.88623 h 0.44727 v 2.88623 z"
   id="path37" />
		<path
   d="m 137.90234,30.521973 c 0,-0.631836 0.38379,-1.15918 1.13184,-1.15918 0.34375,0 0.6875,0.131836 0.86719,0.367676 h 0.04 v -0.319824 h 0.44726 v 2.21875 h -0.44726 V 31.32959 h -0.0322 c -0.17969,0.228027 -0.53906,0.347656 -0.87891,0.347656 -0.74414,0 -1.12793,-0.519531 -1.12793,-1.155273 z m 2.03907,-0.0039 c 0,-0.407714 -0.23243,-0.779785 -0.7959,-0.779785 -0.5752,0 -0.78711,0.383789 -0.78711,0.779785 0,0.399903 0.21191,0.783692 0.78711,0.783692 0.56347,0 0.7959,-0.375977 0.7959,-0.783692 z"
   id="path38" />
		<path
   d="m 140.9668,31.629394 v -2.21875 h 0.44726 v 0.315918 h 0.0606 c 0.14355,-0.251953 0.35547,-0.348144 0.75488,-0.348144 0.12403,0 0.23242,0.02002 0.32422,0.04004 l -0.0723,0.439941 c -0.084,-0.01611 -0.21192,-0.03223 -0.35938,-0.03223 -0.52344,0 -0.70801,0.403808 -0.70801,0.779785 v 1.023438 h -0.44726 z"
   id="path39" />
		<path
   d="m 142.96289,29.106934 v -0.407715 h 0.48047 v 0.407715 z m 0.0166,2.52246 v -2.21875 h 0.44727 v 2.21875 z"
   id="path40" />
		<path
   d="m 144.37402,30.85791 v -1.027344 h -0.4873 v -0.419922 h 0.4873 v -0.66748 h 0.44825 v 0.66748 h 0.81152 v 0.419922 h -0.81152 v 1.019043 c 0,0.288086 0.0439,0.383789 0.27148,0.383789 0.14062,0 0.38379,-0.03564 0.54004,-0.07568 v 0.419922 c -0.16797,0.04785 -0.3877,0.07959 -0.57129,0.07959 -0.6123,0 -0.68848,-0.36377 -0.68848,-0.799317 z"
   id="path41" />
		<path
   d="m 146.71484,32.541016 0.34375,-0.911622 h -0.25195 l -0.87207,-2.21875 h 0.48047 l 0.74707,1.950684 0.74805,-1.950684 h 0.47949 l -1.19922,3.130372 z"
   id="path42" />
		<path
   d="m 129.10059,36.629394 v -2.798339 h 1.18359 c 1.19141,0 1.35449,0.879394 1.35449,1.398925 0,0.516114 -0.16308,1.399415 -1.35449,1.399415 z m 0.47168,-0.447753 h 0.71191 c 0.64746,0 0.875,-0.503907 0.875,-0.951661 0,-0.471679 -0.23145,-0.983398 -0.875,-0.983398 h -0.71191 z"
   id="path43" />
		<path
   d="m 132.5127,35.62207 c 0,0.299805 0.2041,0.679688 0.7832,0.679688 0.32812,0 0.54785,-0.136231 0.65625,-0.332031 h 0.47168 c -0.12793,0.543945 -0.69629,0.707519 -1.12403,0.707519 -0.73144,0 -1.24707,-0.435547 -1.24707,-1.16748 0,-0.723145 0.44434,-1.146973 1.21192,-1.146973 0.76269,0 1.23926,0.495605 1.19531,1.259277 z m 0.004,-0.315918 h 1.49121 c 0,-0.268066 -0.24414,-0.567871 -0.74316,-0.567871 -0.51172,0 -0.74805,0.312012 -0.74805,0.567871 z"
   id="path44" />
		<path
   d="m 135.09961,35.85791 v -1.027344 h -0.48731 v -0.419921 h 0.48731 v -0.667481 h 0.44824 v 0.667481 h 0.81152 v 0.419921 h -0.81152 v 1.019043 c 0,0.288086 0.0439,0.38379 0.27149,0.38379 0.14062,0 0.38379,-0.03564 0.54004,-0.07568 v 0.419922 c -0.16797,0.04785 -0.3877,0.07959 -0.57129,0.07959 -0.61231,0 -0.68848,-0.36377 -0.68848,-0.799317 z"
   id="path45" />
		<path
   d="m 137.19238,35.62207 c 0,0.299805 0.2041,0.679688 0.78321,0.679688 0.32812,0 0.54785,-0.136231 0.65625,-0.332031 h 0.47168 c -0.12793,0.543945 -0.69629,0.707519 -1.12403,0.707519 -0.73144,0 -1.24707,-0.435547 -1.24707,-1.16748 0,-0.723145 0.44434,-1.146973 1.21192,-1.146973 0.76269,0 1.23925,0.495605 1.19531,1.259277 z m 0.004,-0.315918 h 1.49121 c 0,-0.268066 -0.24414,-0.567871 -0.74316,-0.567871 -0.51172,0 -0.74805,0.312012 -0.74805,0.567871 z"
   id="path46" />
		<path
   d="m 139.49609,35.518066 c 0,-0.675781 0.45996,-1.155273 1.17969,-1.155273 0.62305,0 1.05078,0.275879 1.14356,0.727539 h -0.5 c -0.11231,-0.200195 -0.292,-0.34375 -0.64356,-0.34375 -0.46777,0 -0.72363,0.319824 -0.72363,0.771485 0,0.463867 0.28808,0.77539 0.72363,0.77539 0.35156,0 0.53125,-0.155762 0.64356,-0.34375 h 0.5 c -0.084,0.45166 -0.51661,0.727539 -1.14356,0.727539 -0.71973,0 -1.17969,-0.483398 -1.17969,-1.15918 z"
   id="path47" />
		<path
   d="m 142.45605,35.85791 v -1.027344 h -0.4873 v -0.419921 h 0.4873 v -0.667481 h 0.44825 v 0.667481 h 0.81152 v 0.419921 h -0.81152 v 1.019043 c 0,0.288086 0.0439,0.38379 0.27148,0.38379 0.14063,0 0.38379,-0.03564 0.54004,-0.07568 v 0.419922 c -0.16797,0.04785 -0.38769,0.07959 -0.57129,0.07959 -0.6123,0 -0.68848,-0.36377 -0.68848,-0.799317 z"
   id="path48" />
		<path
   d="m 144.22461,34.106934 v -0.407715 h 0.48047 v 0.407715 z m 0.0166,2.52246 v -2.21875 h 0.44727 v 2.21875 z"
   id="path49" />
		<path
   d="m 147.63086,35.505859 c 0,0.715821 -0.46777,1.163575 -1.23926,1.163575 -0.59961,0 -1.23926,-0.319825 -1.23926,-1.163575 0,-0.835449 0.63575,-1.143066 1.23926,-1.143066 0.59961,0 1.23926,0.307617 1.23926,1.143066 z m -0.45508,0 c 0,-0.455566 -0.29199,-0.755371 -0.78418,-0.755371 -0.49512,0 -0.78711,0.295899 -0.78711,0.755371 0,0.467774 0.29199,0.783692 0.78711,0.783692 0.48438,0 0.78418,-0.335938 0.78418,-0.783692 z"
   id="path50" />
		<path
   d="m 148.09668,36.629394 v -2.21875 h 0.44727 v 0.299805 h 0.0479 c 0.16015,-0.23584 0.44824,-0.347656 0.83984,-0.347656 0.85156,0 0.92774,0.631348 0.92774,1.107422 v 1.15918 h -0.44825 v -1.191407 c 0,-0.463867 -0.1875,-0.691406 -0.66699,-0.691406 -0.56836,0 -0.70019,0.375488 -0.70019,0.763184 v 1.119629 h -0.44727 z"
   id="path51" />
	</g>
	<g
   id="g79">
		<path
   d="m 37.658691,114.53809 c 0,-0.90332 0.563477,-1.43067 1.422852,-1.43067 0.723633,0 1.279297,0.39942 1.363281,0.95899 h -0.507812 c -0.120117,-0.32813 -0.419922,-0.54395 -0.851563,-0.54395 -0.635742,0 -0.955078,0.38379 -0.955078,1.01563 0,0.63964 0.319336,1.04394 0.955078,1.04394 0.427735,0 0.735352,-0.22461 0.851563,-0.54785 h 0.507812 c -0.09961,0.5791 -0.631836,0.96289 -1.363281,0.96289 -0.87207,0 -1.422852,-0.53516 -1.422852,-1.45898 z"
   id="path52" />
		<path
   d="m 41.205566,114.94629 c 0,0.2998 0.204102,0.67969 0.783204,0.67969 0.328125,0 0.547851,-0.13672 0.65625,-0.33203 h 0.471679 c -0.127929,0.54394 -0.696289,0.70703 -1.124023,0.70703 -0.731445,0 -1.24707,-0.43555 -1.24707,-1.167 0,-0.72363 0.444335,-1.14746 1.211914,-1.14746 0.762695,0 1.239257,0.4961 1.195312,1.25977 z m 0.0039,-0.31641 h 1.491211 c 0,-0.26758 -0.244141,-0.56738 -0.743165,-0.56738 -0.511718,0 -0.748046,0.31152 -0.748046,0.56738 z"
   id="path53" />
		<path
   d="m 43.510254,115.95313 v -2.21875 h 0.447266 v 0.3164 h 0.06055 c 0.143555,-0.25195 0.355469,-0.34863 0.754883,-0.34863 0.124024,0 0.232422,0.0205 0.324219,0.04 l -0.07227,0.44043 c -0.08398,-0.0166 -0.211914,-0.0322 -0.359375,-0.0322 -0.523437,0 -0.708007,0.40332 -0.708007,0.7793 v 1.02344 z"
   id="path54" />
		<path
   d="m 45.781738,115.18164 v -1.02734 h -0.487304 v -0.41993 h 0.487304 v -0.66699 h 0.448243 v 0.66699 h 0.811523 v 0.41993 h -0.811523 v 1.01953 c 0,0.28808 0.04395,0.38379 0.271484,0.38379 0.140625,0 0.383789,-0.0361 0.540039,-0.0762 v 0.41992 c -0.167969,0.0478 -0.387695,0.0801 -0.571289,0.0801 -0.612305,0 -0.688477,-0.36426 -0.688477,-0.79981 z"
   id="path55" />
		<path
   d="m 47.437988,113.43066 v -0.40722 h 0.480469 v 0.40722 z m 0.0166,2.52247 v -2.21875 h 0.447265 v 2.21875 z"
   id="path56" />
		<path
   d="m 48.722168,115.95313 v -1.8545 h -0.467773 v -0.36425 h 0.467773 v -0.19922 c 0,-0.41602 0.183594,-0.64453 0.739258,-0.64453 0.196289,0 0.427734,0.0244 0.612305,0.0527 v 0.37988 c -0.160157,-0.0205 -0.356446,-0.0361 -0.511719,-0.0361 -0.288086,0 -0.391602,0.0596 -0.391602,0.31543 v 0.13184 h 0.863281 v 0.36425 H 49.17041 v 1.8545 z"
   id="path57" />
		<path
   d="m 50.369629,113.43066 v -0.40722 h 0.480469 v 0.40722 z m 0.0166,2.52247 v -2.21875 h 0.447265 v 2.21875 z"
   id="path58" />
		<path
   d="m 51.645996,114.94629 c 0,0.2998 0.204102,0.67969 0.783203,0.67969 0.328125,0 0.547852,-0.13672 0.65625,-0.33203 h 0.47168 c -0.12793,0.54394 -0.696289,0.70703 -1.124023,0.70703 -0.731446,0 -1.247071,-0.43555 -1.247071,-1.167 0,-0.72363 0.444336,-1.14746 1.211914,-1.14746 0.762696,0 1.239258,0.4961 1.195313,1.25977 z m 0.0039,-0.31641 h 1.491211 c 0,-0.26758 -0.24414,-0.56738 -0.743164,-0.56738 -0.511718,0 -0.748047,0.31152 -0.748047,0.56738 z"
   id="path59" />
		<path
   d="m 56.323731,113.06738 v 2.88575 h -0.447266 v -0.29981 h -0.03223 c -0.179687,0.22852 -0.539062,0.34766 -0.878906,0.34766 -0.744141,0 -1.12793,-0.51953 -1.12793,-1.15528 0,-0.63183 0.383789,-1.15918 1.131836,-1.15918 0.34375,0 0.6875,0.13184 0.867188,0.36817 h 0.04004 v -0.98731 h 0.447266 z m -0.447266,1.77442 c 0,-0.40723 -0.231445,-0.7793 -0.795899,-0.7793 -0.575195,0 -0.787109,0.38379 -0.787109,0.7793 0,0.40039 0.211914,0.78418 0.787109,0.78418 0.564453,0 0.795899,-0.37598 0.795899,-0.78418 z"
   id="path60" />
		<path
   d="m 27.902832,120.34961 c 0,-0.85938 0.586914,-1.44238 1.462891,-1.44238 0.867187,0 1.451171,0.57129 1.451171,1.44238 0,0.86816 -0.580078,1.44727 -1.451171,1.44727 -0.887696,0 -1.462891,-0.56739 -1.462891,-1.44727 z m 2.43457,0 c 0,-0.5791 -0.360351,-1.03516 -0.967773,-1.03516 -0.611328,0 -0.983398,0.45215 -0.983398,1.03516 0,0.5918 0.37207,1.03613 0.983398,1.03613 0.595703,0 0.967773,-0.45215 0.967773,-1.03613 z"
   id="path61" />
		<path
   d="m 33.717285,120.6416 c 0,0.63184 -0.383789,1.15918 -1.130859,1.15918 -0.344727,0 -0.688477,-0.13183 -0.868164,-0.36719 h -0.04004 v 1.23145 h -0.447266 v -3.13086 h 0.447266 v 0.2998 h 0.03223 c 0.179688,-0.22753 0.540039,-0.34765 0.879883,-0.34765 0.743164,0 1.126953,0.51953 1.126953,1.15527 z m -0.456054,0.004 c 0,-0.39942 -0.211915,-0.78321 -0.78711,-0.78321 -0.563476,0 -0.795898,0.37598 -0.795898,0.78321 0,0.4082 0.232422,0.78027 0.795898,0.78027 0.575195,0 0.78711,-0.38379 0.78711,-0.78027 z"
   id="path62" />
		<path
   d="m 34.418457,120.74609 c 0,0.29981 0.204102,0.67969 0.783203,0.67969 0.328125,0 0.547852,-0.13672 0.65625,-0.33203 h 0.47168 c -0.12793,0.54395 -0.696289,0.70703 -1.124024,0.70703 -0.731445,0 -1.24707,-0.43555 -1.24707,-1.16699 0,-0.72363 0.444336,-1.14746 1.211914,-1.14746 0.762696,0 1.239258,0.49609 1.195313,1.25976 z m 0.0039,-0.3164 h 1.491211 c 0,-0.26758 -0.24414,-0.56739 -0.743164,-0.56739 -0.511719,0 -0.748047,0.31153 -0.748047,0.56739 z"
   id="path63" />
		<path
   d="m 36.722168,121.75293 v -2.21875 h 0.447266 v 0.2998 h 0.04785 c 0.160156,-0.23535 0.448242,-0.34765 0.839844,-0.34765 0.851563,0 0.927734,0.63183 0.927734,1.10742 v 1.15918 H 38.53662 v -1.19141 c 0,-0.46386 -0.1875,-0.6914 -0.666992,-0.6914 -0.568359,0 -0.700195,0.37597 -0.700195,0.76367 v 1.11914 h -0.447266 z"
   id="path64" />
		<path
   d="m 39.502441,120.78125 v -0.41504 h 1.391602 v 0.41504 z"
   id="path65" />
		<path
   d="m 41.358887,120.86523 h 0.479492 c 0.02734,0.4004 0.419922,0.52442 0.90332,0.52442 0.311524,0 0.763672,-0.0478 0.763672,-0.39649 0,-0.32324 -0.427734,-0.40722 -0.891602,-0.48339 -0.555664,-0.0918 -1.163085,-0.27149 -1.163085,-0.84375 0,-0.41993 0.371093,-0.75879 1.191406,-0.75879 1.042969,0 1.210937,0.54297 1.239258,0.92675 h -0.484375 c -0.01563,-0.22363 -0.151368,-0.51562 -0.798829,-0.51562 -0.467773,0 -0.667968,0.16016 -0.667968,0.34766 0,0.21972 0.263672,0.36035 0.763672,0.44043 0.651367,0.10351 1.291015,0.24707 1.291015,0.88671 0,0.48047 -0.363281,0.80372 -1.203125,0.80372 -0.791992,0 -1.40332,-0.23145 -1.422851,-0.93165 z"
   id="path66" />
		<path
   d="m 46.76416,120.62988 c 0,0.71582 -0.467773,1.16309 -1.239258,1.16309 -0.599609,0 -1.239257,-0.31934 -1.239257,-1.16309 0,-0.83593 0.635742,-1.14355 1.239257,-1.14355 0.59961,0 1.239258,0.30762 1.239258,1.14355 z m -0.455078,0 c 0,-0.45605 -0.291992,-0.75586 -0.78418,-0.75586 -0.495117,0 -0.787109,0.2959 -0.787109,0.75586 0,0.46778 0.291992,0.78321 0.787109,0.78321 0.484375,0 0.78418,-0.33594 0.78418,-0.78321 z"
   id="path67" />
		<path
   d="m 49.381348,119.53418 v 2.21875 h -0.448243 v -0.2998 h -0.04785 c -0.160156,0.23632 -0.447266,0.34765 -0.839844,0.34765 -0.850586,0 -0.926758,-0.63086 -0.926758,-1.10742 v -1.15918 h 0.447266 v 1.19141 c 0,0.46386 0.188477,0.6914 0.667969,0.6914 0.567382,0 0.699218,-0.375 0.699218,-0.76367 v -1.11914 h 0.448243 z"
   id="path68" />
		<path
   d="m 49.846191,121.75293 v -2.21875 h 0.447266 v 0.31641 h 0.06055 c 0.143555,-0.25196 0.355469,-0.34864 0.754883,-0.34864 0.124023,0 0.232422,0.0205 0.324218,0.04 l -0.07226,0.44043 c -0.08399,-0.0166 -0.211914,-0.0322 -0.359375,-0.0322 -0.523438,0 -0.708008,0.40332 -0.708008,0.77929 v 1.02344 z"
   id="path69" />
		<path
   d="m 51.462402,120.6416 c 0,-0.67578 0.459961,-1.15527 1.179688,-1.15527 0.623047,0 1.050781,0.27637 1.143555,0.72754 h -0.5 c -0.112305,-0.2002 -0.291993,-0.34375 -0.643555,-0.34375 -0.467774,0 -0.723633,0.32031 -0.723633,0.77148 0,0.46387 0.288086,0.77539 0.723633,0.77539 0.351562,0 0.53125,-0.15527 0.643555,-0.34375 h 0.5 c -0.08399,0.45215 -0.515625,0.72754 -1.143555,0.72754 -0.719727,0 -1.179688,-0.4834 -1.179688,-1.15918 z"
   id="path70" />
		<path
   d="m 54.48584,120.74609 c 0,0.29981 0.204101,0.67969 0.783203,0.67969 0.328125,0 0.547852,-0.13672 0.65625,-0.33203 h 0.47168 c -0.12793,0.54395 -0.696289,0.70703 -1.124024,0.70703 -0.731445,0 -1.24707,-0.43555 -1.24707,-1.16699 0,-0.72363 0.444336,-1.14746 1.211914,-1.14746 0.762695,0 1.239258,0.49609 1.195313,1.25976 z m 0.0039,-0.3164 h 1.491211 c 0,-0.26758 -0.244141,-0.56739 -0.743164,-0.56739 -0.511719,0 -0.748047,0.31153 -0.748047,0.56739 z"
   id="path71" />
		<path
   d="m 35.249512,127.55371 v -2.79883 h 0.471679 v 1.19141 h 1.710938 v -1.19141 h 0.47168 v 2.79883 h -0.47168 v -1.19531 h -1.710938 v 1.19531 z"
   id="path72" />
		<path
   d="m 38.309082,126.44629 c 0,-0.63184 0.383789,-1.15918 1.131836,-1.15918 0.34375,0 0.6875,0.13184 0.867187,0.36719 h 0.04004 v -0.31934 h 0.447266 v 2.21875 h -0.447266 v -0.2998 h -0.03223 c -0.179687,0.22754 -0.539062,0.34765 -0.878906,0.34765 -0.744141,0 -1.12793,-0.51953 -1.12793,-1.15527 z m 2.039062,-0.004 c 0,-0.4082 -0.232421,-0.78027 -0.795898,-0.78027 -0.575195,0 -0.787109,0.38379 -0.787109,0.78027 0,0.39942 0.211914,0.78321 0.787109,0.78321 0.563477,0 0.795898,-0.37598 0.795898,-0.78321 z"
   id="path73" />
		<path
   d="m 41.261231,127.55371 v -2.21875 h 0.447265 v 0.31543 h 0.06055 c 0.143555,-0.25195 0.355469,-0.34766 0.754883,-0.34766 0.124023,0 0.232422,0.0195 0.324219,0.04 l -0.07227,0.43946 c -0.08398,-0.0156 -0.211914,-0.0322 -0.359375,-0.0322 -0.523438,0 -0.708008,0.4043 -0.708008,0.78027 v 1.02344 H 41.26123 Z"
   id="path74" />
		<path
   d="m 45.363769,124.66699 v 2.88672 h -0.447265 v -0.2998 h -0.03223 c -0.179687,0.22754 -0.539062,0.34765 -0.878906,0.34765 -0.744141,0 -1.12793,-0.51953 -1.12793,-1.15527 0,-0.63184 0.383789,-1.15918 1.131836,-1.15918 0.34375,0 0.6875,0.13184 0.867188,0.36719 h 0.04004 v -0.98731 h 0.447265 z m -0.447265,1.77539 c 0,-0.4082 -0.232422,-0.78027 -0.795898,-0.78027 -0.575196,0 -0.78711,0.38379 -0.78711,0.78027 0,0.39942 0.211914,0.78321 0.78711,0.78321 0.563476,0 0.795898,-0.37598 0.795898,-0.78321 z"
   id="path75" />
		<path
   d="m 48.915527,125.33496 h 0.47168 l -0.71582,2.21875 h -0.647461 l -0.507813,-1.62305 -0.507812,1.62305 H 46.36084 l -0.71582,-2.21875 h 0.472656 l 0.579101,1.84668 0.583985,-1.84668 h 0.47168 l 0.583984,1.84668 z"
   id="path76" />
		<path
   d="m 49.457519,126.44629 c 0,-0.63184 0.38379,-1.15918 1.131836,-1.15918 0.34375,0 0.6875,0.13184 0.867188,0.36719 h 0.04004 v -0.31934 h 0.447266 v 2.21875 h -0.447266 v -0.2998 h -0.03223 c -0.179687,0.22754 -0.539062,0.34765 -0.878906,0.34765 -0.74414,0 -1.12793,-0.51953 -1.12793,-1.15527 z m 2.039063,-0.004 c 0,-0.4082 -0.232422,-0.78027 -0.795898,-0.78027 -0.575196,0 -0.78711,0.38379 -0.78711,0.78027 0,0.39942 0.211914,0.78321 0.78711,0.78321 0.563476,0 0.795898,-0.37598 0.795898,-0.78321 z"
   id="path77" />
		<path
   d="m 52.409668,127.55371 v -2.21875 h 0.447266 v 0.31543 h 0.06055 c 0.143554,-0.25195 0.355468,-0.34766 0.754882,-0.34766 0.124024,0 0.232422,0.0195 0.324219,0.04 l -0.07227,0.43946 c -0.08398,-0.0156 -0.211914,-0.0322 -0.359375,-0.0322 -0.523437,0 -0.708007,0.4043 -0.708007,0.78027 v 1.02344 z"
   id="path78" />
		<path
   d="m 54.484863,126.5459 c 0,0.2998 0.204102,0.67969 0.783203,0.67969 0.328125,0 0.547852,-0.13575 0.65625,-0.33204 h 0.47168 c -0.12793,0.54395 -0.696289,0.70801 -1.124023,0.70801 -0.731446,0 -1.247071,-0.43554 -1.247071,-1.16699 0,-0.72363 0.444336,-1.14746 1.211915,-1.14746 0.762695,0 1.239257,0.49512 1.195312,1.25879 z m 0.0039,-0.31543 h 1.491211 c 0,-0.26856 -0.24414,-0.56836 -0.743164,-0.56836 -0.511718,0 -0.748047,0.3125 -0.748047,0.56836 z"
   id="path79" />
	</g>
	<g
   id="g105">
		<path
   d="m 59.636719,131.79199 h 0.832031 v 2.79883 h -0.47168 v -2.32715 h -0.06445 l -0.635742,2.32715 H 58.59375 l -0.607422,-2.32715 h -0.06836 v 2.32715 h -0.47168 v -2.79883 h 0.835937 l 0.626954,2.37891 h 0.07617 z"
   id="path80" />
		<path
   d="m 60.866211,133.4834 c 0,-0.63184 0.383789,-1.15918 1.131836,-1.15918 0.34375,0 0.6875,0.13183 0.867187,0.36719 h 0.04004 v -0.31934 h 0.447266 v 2.21875 h -0.447266 v -0.2998 h -0.03223 c -0.179688,0.22753 -0.539063,0.34765 -0.878906,0.34765 -0.744141,0 -1.12793,-0.51953 -1.12793,-1.15527 z m 2.039062,-0.004 c 0,-0.4082 -0.231445,-0.78027 -0.795898,-0.78027 -0.575195,0 -0.787109,0.38379 -0.787109,0.78027 0,0.39942 0.211914,0.78321 0.787109,0.78321 0.564453,0 0.795898,-0.37598 0.795898,-0.78321 z"
   id="path81" />
		<path
   d="m 66.18457,131.7041 v 2.88672 h -0.447265 v -0.2998 h -0.03223 c -0.179687,0.22753 -0.539062,0.34765 -0.878906,0.34765 -0.744141,0 -1.12793,-0.51953 -1.12793,-1.15527 0,-0.63184 0.383789,-1.15918 1.131836,-1.15918 0.34375,0 0.6875,0.13183 0.867188,0.36719 h 0.04004 v -0.98731 h 0.447265 z m -0.447265,1.77539 c 0,-0.4082 -0.231446,-0.78027 -0.795899,-0.78027 -0.575195,0 -0.787109,0.38379 -0.787109,0.78027 0,0.39942 0.211914,0.78321 0.787109,0.78321 0.564453,0 0.795899,-0.37598 0.795899,-0.78321 z"
   id="path82" />
		<path
   d="m 66.990234,133.58301 c 0,0.2998 0.204102,0.67969 0.783203,0.67969 0.328125,0 0.547852,-0.13575 0.65625,-0.33204 h 0.47168 c -0.12793,0.54395 -0.696289,0.70801 -1.124023,0.70801 -0.731446,0 -1.247071,-0.43555 -1.247071,-1.16797 0,-0.72265 0.444336,-1.14648 1.211915,-1.14648 0.762695,0 1.239257,0.49512 1.195312,1.25879 z m 0.0039,-0.31543 h 1.49121 c 0,-0.26856 -0.24414,-0.56836 -0.743164,-0.56836 -0.511718,0 -0.748046,0.3125 -0.748046,0.56836 z"
   id="path83" />
		<path
   d="m 70.349609,132.06836 v -0.4082 h 0.480469 v 0.4082 z m 0.0166,2.52246 v -2.21875 h 0.447265 v 2.21875 z"
   id="path84" />
		<path
   d="m 71.270508,134.59082 v -2.21875 h 0.447265 v 0.2998 h 0.04785 c 0.160156,-0.23632 0.448242,-0.34765 0.839844,-0.34765 0.851562,0 0.927734,0.63086 0.927734,1.10742 v 1.15918 h -0.448242 v -1.19141 c 0,-0.46386 -0.1875,-0.6914 -0.666992,-0.6914 -0.56836,0 -0.700195,0.375 -0.700195,0.76269 v 1.12012 h -0.447266 z"
   id="path85" />
		<path
   d="m 75.12207,134.59082 v -2.79883 h 2.238282 v 0.41211 H 75.59375 v 0.76367 h 1.663086 v 0.41114 H 75.59375 v 0.79199 h 1.783203 v 0.41992 z"
   id="path86" />
		<path
   d="m 77.870117,133.32324 v -1.53125 h 0.47168 v 1.53125 c 0,0.58789 0.223633,0.90332 0.77539,0.90332 0.551758,0 0.775391,-0.31543 0.775391,-0.90332 v -1.53125 h 0.47168 v 1.53125 c 0,0.73145 -0.247071,1.31543 -1.247071,1.31543 -0.999023,0 -1.24707,-0.58398 -1.24707,-1.31543 z"
   id="path87" />
		<path
   d="m 84.44043,133.4834 c 0,0.63574 -0.383789,1.15527 -1.126953,1.15527 -0.339844,0 -0.700196,-0.12012 -0.879883,-0.34765 h -0.03223 v 0.2998 h -0.447265 v -2.88672 h 0.447265 v 0.98731 h 0.04004 c 0.179688,-0.23536 0.523438,-0.36719 0.868164,-0.36719 0.747071,0 1.13086,0.52734 1.13086,1.15918 z m -0.456055,-0.004 c 0,-0.39648 -0.211914,-0.78027 -0.787109,-0.78027 -0.563477,0 -0.795899,0.37207 -0.795899,0.78027 0,0.40723 0.232422,0.78321 0.795899,0.78321 0.575195,0 0.787109,-0.38379 0.787109,-0.78321 z"
   id="path88" />
		<path
   d="m 85.282227,135.50195 0.34375,-0.91113 h -0.251953 l -0.872071,-2.21875 h 0.480469 l 0.74707,1.9502 0.748047,-1.9502 h 0.479492 l -1.199218,3.12988 z"
   id="path89" />
		<path
   d="m 88.361328,134.59082 v -2.79883 h 0.47168 v 2.79883 z"
   id="path90" />
		<path
   d="m 89.341797,134.59082 v -2.21875 h 0.447265 v 0.2998 h 0.04785 c 0.160156,-0.23632 0.448242,-0.34765 0.839844,-0.34765 0.851562,0 0.927734,0.63086 0.927734,1.10742 v 1.15918 h -0.44824 v -1.19141 c 0,-0.46386 -0.1875,-0.6914 -0.666992,-0.6914 -0.56836,0 -0.700196,0.375 -0.700196,0.76269 v 1.12012 z"
   id="path91" />
		<path
   d="m 92.273437,133.81934 v -1.02735 h -0.487304 v -0.41992 h 0.487304 v -0.66797 h 0.448243 v 0.66797 h 0.811523 v 0.41992 H 92.72168 v 1.01856 c 0,0.28808 0.04394,0.38379 0.271484,0.38379 0.140625,0 0.383789,-0.0352 0.540039,-0.0752 v 0.41992 c -0.167969,0.0478 -0.387695,0.0791 -0.571289,0.0791 -0.612305,0 -0.688477,-0.36328 -0.688477,-0.79882 z"
   id="path92" />
		<path
   d="m 94.246094,133.58301 c 0,0.2998 0.204101,0.67969 0.783203,0.67969 0.328125,0 0.547851,-0.13575 0.65625,-0.33204 h 0.47168 c -0.12793,0.54395 -0.69629,0.70801 -1.124024,0.70801 -0.731445,0 -1.24707,-0.43555 -1.24707,-1.16797 0,-0.72265 0.444336,-1.14648 1.211914,-1.14648 0.762695,0 1.239258,0.49512 1.195312,1.25879 z m 0.0039,-0.31543 h 1.491211 c 0,-0.26856 -0.244141,-0.56836 -0.743164,-0.56836 -0.511719,0 -0.748047,0.3125 -0.748047,0.56836 z"
   id="path93" />
		<path
   d="m 96.429687,133.47949 c 0,-0.67578 0.459961,-1.15527 1.179688,-1.15527 0.623047,0 1.050781,0.27539 1.143555,0.72754 h -0.5 c -0.112305,-0.2002 -0.291993,-0.34375 -0.643555,-0.34375 -0.467773,0 -0.723633,0.31933 -0.723633,0.77148 0,0.46387 0.288086,0.77539 0.723633,0.77539 0.351562,0 0.53125,-0.15625 0.643555,-0.34375 h 0.5 c -0.08399,0.45117 -0.516602,0.72754 -1.143555,0.72754 -0.719727,0 -1.179688,-0.4834 -1.179688,-1.15918 z"
   id="path94" />
		<path
   d="m 101.36035,133.43164 v 1.15918 h -0.44824 v -1.19141 c 0,-0.46386 -0.1875,-0.6914 -0.66699,-0.6914 -0.568362,0 -0.700198,0.375 -0.700198,0.76269 v 1.12012 h -0.447266 v -2.88672 h 0.447266 v 0.96778 h 0.04785 c 0.160156,-0.23633 0.448248,-0.34766 0.839848,-0.34766 0.85156,0 0.92773,0.63086 0.92773,1.10742 z"
   id="path95" />
		<path
   d="m 102.8457,133.70312 h 0.4795 c 0.0273,0.39942 0.41992,0.52344 0.90332,0.52344 0.31152,0 0.76367,-0.0479 0.76367,-0.39551 0,-0.32421 -0.42774,-0.4082 -0.8916,-0.48339 -0.55567,-0.0928 -1.16309,-0.27246 -1.16309,-0.84375 0,-0.41993 0.37109,-0.75977 1.19141,-0.75977 1.04297,0 1.21093,0.54395 1.23925,0.92774 h -0.48437 c -0.0156,-0.22461 -0.15137,-0.51563 -0.79883,-0.51563 -0.46777,0 -0.66797,0.15918 -0.66797,0.34766 0,0.21972 0.26367,0.35937 0.76367,0.43945 0.65137,0.10449 1.29102,0.24805 1.29102,0.88769 0,0.4795 -0.36328,0.80372 -1.20313,0.80372 -0.79199,0 -1.40332,-0.23243 -1.42285,-0.93165 z"
   id="path96" />
		<path
   d="m 106.24902,133.81934 v -1.02735 h -0.4873 v -0.41992 h 0.4873 v -0.66797 h 0.44825 v 0.66797 h 0.81152 v 0.41992 h -0.81152 v 1.01856 c 0,0.28808 0.0439,0.38379 0.27148,0.38379 0.14063,0 0.38379,-0.0352 0.54004,-0.0752 v 0.41992 c -0.16797,0.0478 -0.3877,0.0791 -0.57129,0.0791 -0.6123,0 -0.68848,-0.36328 -0.68848,-0.79882 z"
   id="path97" />
		<path
   d="m 110.17676,132.37207 v 2.21875 h -0.44824 v -0.2998 h -0.0479 c -0.16015,0.23535 -0.44726,0.34765 -0.83886,0.34765 -0.85157,0 -0.92774,-0.63183 -0.92774,-1.10742 v -1.15918 h 0.44727 v 1.19141 c 0,0.46386 0.18847,0.6914 0.66797,0.6914 0.56738,0 0.69922,-0.37597 0.69922,-0.76367 v -1.11914 h 0.44824 z"
   id="path98" />
		<path
   d="m 113.00781,131.7041 v 2.88672 h -0.44726 v -0.2998 h -0.0322 c -0.17969,0.22753 -0.53906,0.34765 -0.87891,0.34765 -0.74414,0 -1.12793,-0.51953 -1.12793,-1.15527 0,-0.63184 0.38379,-1.15918 1.13184,-1.15918 0.34375,0 0.6875,0.13183 0.86719,0.36719 h 0.04 v -0.98731 h 0.44726 z m -0.44726,1.77539 c 0,-0.4082 -0.23242,-0.78027 -0.7959,-0.78027 -0.5752,0 -0.78711,0.38379 -0.78711,0.78027 0,0.39942 0.21191,0.78321 0.78711,0.78321 0.56348,0 0.7959,-0.37598 0.7959,-0.78321 z"
   id="path99" />
		<path
   d="m 113.44922,132.06836 v -0.4082 h 0.48047 v 0.4082 z m 0.0166,2.52246 v -2.21875 h 0.44727 v 2.21875 z"
   id="path100" />
		<path
   d="m 116.73633,133.4668 c 0,0.71582 -0.46778,1.16406 -1.23926,1.16406 -0.59961,0 -1.23926,-0.32031 -1.23926,-1.16406 0,-0.83496 0.63574,-1.14258 1.23926,-1.14258 0.59961,0 1.23926,0.30762 1.23926,1.14258 z m -0.45508,0 c 0,-0.45508 -0.29199,-0.75489 -0.78418,-0.75489 -0.49512,0 -0.78711,0.2959 -0.78711,0.75489 0,0.46777 0.29199,0.78418 0.78711,0.78418 0.48438,0 0.78418,-0.33594 0.78418,-0.78418 z"
   id="path101" />
		<path
   d="m 118.21289,134.59082 v -2.79883 h 0.47168 v 2.38672 h 1.70313 v 0.41211 z"
   id="path102" />
		<path
   d="m 120.86035,133.81934 v -1.02735 h -0.4873 v -0.41992 h 0.4873 v -0.66797 h 0.44824 v 0.66797 h 0.81153 v 0.41992 h -0.81153 v 1.01856 c 0,0.28808 0.044,0.38379 0.27149,0.38379 0.14062,0 0.38379,-0.0352 0.54004,-0.0752 v 0.41992 c -0.16797,0.0478 -0.3877,0.0791 -0.57129,0.0791 -0.61231,0 -0.68848,-0.36328 -0.68848,-0.79882 z"
   id="path103" />
		<path
   d="m 124.85938,131.7041 v 2.88672 h -0.44727 v -0.2998 h -0.0322 c -0.17968,0.22753 -0.53906,0.34765 -0.8789,0.34765 -0.74414,0 -1.12793,-0.51953 -1.12793,-1.15527 0,-0.63184 0.38379,-1.15918 1.13183,-1.15918 0.34375,0 0.6875,0.13183 0.86719,0.36719 h 0.04 v -0.98731 h 0.44727 z m -0.44727,1.77539 c 0,-0.4082 -0.23242,-0.78027 -0.7959,-0.78027 -0.57519,0 -0.78711,0.38379 -0.78711,0.78027 0,0.39942 0.21192,0.78321 0.78711,0.78321 0.56348,0 0.7959,-0.37598 0.7959,-0.78321 z"
   id="path104" />
		<path
   d="m 125.26563,134.33105 c 0,-0.16406 0.13964,-0.29589 0.2998,-0.29589 0.16309,0 0.2959,0.13183 0.2959,0.29589 0,0.15918 -0.13281,0.29102 -0.2959,0.29102 -0.16016,0 -0.2998,-0.13184 -0.2998,-0.29102 z"
   id="path105" />
	</g>
</g></g>
</svg>
