<?xml version="1.0" encoding="UTF-8" standalone="no"?>
<!-- Generator: Adobe Illustrator 28.0.0, SVG Export Plug-In . SVG Version: 6.00 Build 0)  -->

<svg
   version="1.1"
   x="0px"
   y="0px"
   viewBox="0 0 226.77166 226.77166"
   xml:space="preserve"
   id="svg40"
   sodipodi:docname="6x6-knot-front.svg"
   width="60mm"
   height="60mm"
   inkscape:version="1.3.2 (091e20e, 2023-11-25, custom)"
   xmlns:inkscape="http://www.inkscape.org/namespaces/inkscape"
   xmlns:sodipodi="http://sodipodi.sourceforge.net/DTD/sodipodi-0.dtd"
   xmlns="http://www.w3.org/2000/svg"
   xmlns:svg="http://www.w3.org/2000/svg"><defs
   id="defs40" /><sodipodi:namedview
   id="namedview40"
   pagecolor="#ffffff"
   bordercolor="#000000"
   borderopacity="0.25"
   inkscape:showpageshadow="2"
   inkscape:pageopacity="0.0"
   inkscape:pagecheckerboard="0"
   inkscape:deskcolor="#d1d1d1"
   inkscape:zoom="3.4133289"
   inkscape:cx="125.39079"
   inkscape:cy="105.3224"
   inkscape:window-width="1920"
   inkscape:window-height="1137"
   inkscape:window-x="1912"
   inkscape:window-y="-8"
   inkscape:window-maximized="1"
   inkscape:current-layer="svg40"
   inkscape:document-units="mm" />

<g
   id="g40"
   transform="matrix(1.3313735,0,0,1.3313735,0.04142169,0.04142169)"><g
     id="Layer_1">
	<path
   d="M 170.2041,170.2041 H -0.125 V -0.125 H 170.2041 Z M 0.125,169.9541 H 169.9541 V 0.125 H 0.125 Z"
   id="path1" />
</g><g
     id="Layer_2">
	<g
   id="g25">
		<path
   d="m 26.34375,6.4018555 c 0,-0.7797852 -0.246094,-2.0991211 -2.033203,-2.0991211 h -1.774902 v 4.1977539 h 1.774902 c 1.787109,0 2.033203,-1.3251953 2.033203,-2.0986328 z m -3.100586,-1.475586 h 1.067383 c 0.965332,0 1.313477,0.7675781 1.313477,1.4755859 0,0.6713867 -0.341797,1.4272461 -1.313477,1.4272461 h -1.067383 z"
   id="path2" />
		<path
   d="m 29.026367,4.8544922 c 0.647461,0 1.097168,0.3237305 1.277344,0.8154297 H 31.06543 C 30.939453,4.8305664 30.105957,4.230957 29.020508,4.230957 c -1.289551,0 -2.134766,0.7915039 -2.134766,2.1464844 0,1.3852539 0.827149,2.1889648 2.134766,2.1889648 1.097168,0 1.895019,-0.5756836 2.044922,-1.4453125 h -0.761719 c -0.173828,0.4858398 -0.635742,0.8217773 -1.277344,0.8217773 -0.953613,0 -1.433105,-0.605957 -1.433105,-1.5654297 0,-0.9472655 0.479492,-1.5229491 1.433105,-1.5229491 z"
   id="path3" />
		<rect
   x="33.395508"
   y="4.3027344"
   width="0.70751947"
   height="4.1977539"
   id="rect3" />
		<polygon
   points="37.744141,8.5004883 38.757324,8.5004883 38.757324,4.3027344 38.049805,4.3027344 38.049805,7.6728516 37.96582,7.6728516 35.975098,4.3027344 34.955566,4.3027344 34.955566,8.5004883 35.663086,8.5004883 35.663086,5.1303711 35.74707,5.1303711 "
   id="polygon3" />
		<path
   d="m 63.060059,6.5253906 c 0,0.8813477 -0.335938,1.3549805 -1.163086,1.3549805 -0.827637,0 -1.163575,-0.4736328 -1.163575,-1.3549805 v -2.296875 h -0.707519 v 2.296875 c 0,1.097168 0.371582,1.9726562 1.871094,1.9726562 1.499023,0 1.870605,-0.8754883 1.870605,-1.9726562 v -2.296875 h -0.707519 z"
   id="path4" />
		<path
   d="m 66.46875,5.9555664 c -0.75,-0.1196289 -1.145508,-0.3295898 -1.145508,-0.659668 0,-0.2817383 0.299805,-0.5214844 1.001465,-0.5214844 0.971191,0 1.175293,0.4375 1.199219,0.7734375 h 0.725586 c -0.04199,-0.5756836 -0.293946,-1.3911133 -1.858887,-1.3911133 -1.229492,0 -1.787109,0.5097656 -1.787109,1.1391602 0,0.8574219 0.911621,1.1274414 1.745117,1.265625 0.695801,0.1137695 1.337402,0.2397461 1.337402,0.7255859 0,0.5214844 -0.677734,0.5932617 -1.145508,0.5932617 -0.725586,0 -1.313476,-0.1855469 -1.355469,-0.7851562 H 64.46582 c 0.02979,1.0493164 0.947266,1.3969727 2.134766,1.3969727 1.259277,0 1.804687,-0.4858398 1.804687,-1.2050781 0,-0.9594727 -0.959472,-1.1757813 -1.936523,-1.331543 z"
   id="path5" />
		<path
   d="m 72.144531,6.2792969 c 0.371582,-0.2036133 0.497559,-0.5395508 0.497559,-0.9233398 0,-0.7495117 -0.527832,-1.1274414 -1.451172,-1.1274414 h -2.086914 v 4.1977539 h 2.488769 c 0.539551,0 1.235352,-0.3178711 1.235352,-1.1513672 0,-0.4975586 -0.204102,-0.8334962 -0.683594,-0.9956055 z M 69.811523,4.8520508 h 1.139649 c 0.413574,0 0.977051,0 0.977051,0.5878906 0,0.59375 -0.539551,0.6054688 -0.935059,0.6054688 h -1.181641 z m 1.343262,2.9506836 h -1.343261 v -1.241211 h 1.469238 c 0.401855,0 0.833496,0.047852 0.833496,0.6113281 0,0.6118165 -0.551758,0.6298829 -0.959473,0.6298829 z"
   id="path6" />
		<path
   d="m 79.289551,7.046875 h -0.761719 c -0.173828,0.4858398 -0.635742,0.8217773 -1.277344,0.8217773 -0.953613,0 -1.433105,-0.605957 -1.433105,-1.5654297 0,-0.9472656 0.479492,-1.5229492 1.433105,-1.5229492 0.647461,0 1.097168,0.3237305 1.277344,0.8154297 h 0.761719 C 79.163574,4.7563476 78.330078,4.1567383 77.244629,4.1567383 c -1.289551,0 -2.134766,0.7915039 -2.134766,2.1464844 0,1.3852539 0.827149,2.1889648 2.134766,2.1889648 1.097168,0 1.895019,-0.5756836 2.044922,-1.4453125 z"
   id="path7" />
		<polygon
   points="94.878906,7.8823242 93.9375,4.3144531 92.683594,4.3144531 92.683594,8.512207 93.391602,8.512207 93.391602,5.0219727 93.493164,5.0219727 94.405273,8.512207 95.459961,8.512207 96.414062,5.0219727 96.509766,5.0219727 96.509766,8.512207 97.217773,8.512207 97.217773,4.3144531 95.969727,4.3144531 94.992188,7.8823242 "
   id="polygon7" />
		<rect
   x="98.072266"
   y="4.3144531"
   width="0.70703119"
   height="4.1977539"
   id="rect7" />
		<path
   d="M 101.40625,4.3144531 H 99.631836 V 8.512207 h 1.774414 c 1.78711,0 2.0332,-1.3251953 2.0332,-2.0986328 0,-0.7797851 -0.24609,-2.0991211 -2.0332,-2.0991211 z m 0,3.5263672 h -1.06738 v -2.902832 h 1.06738 c 0.96582,0 1.31348,0.7675781 1.31348,1.4755859 0,0.6713867 -0.3418,1.4272461 -1.31348,1.4272461 z"
   id="path8" />
		<rect
   x="104.1377"
   y="4.3144531"
   width="0.70800781"
   height="4.1977539"
   id="rect8" />
		<path
   d="m 109.36914,4.2426758 c -1.31348,0 -2.19531,0.8754883 -2.19531,2.1645508 0,1.3193359 0.86328,2.1708984 2.19531,2.1708984 1.30664,0 2.17676,-0.8696289 2.17676,-2.1708984 0,-1.3071289 -0.87598,-2.1645508 -2.17676,-2.1645508 z m 0.006,3.7177734 c -0.91797,0 -1.47559,-0.6655273 -1.47559,-1.5532227 0,-0.8754883 0.55762,-1.5532227 1.47559,-1.5532227 0.91113,0 1.45117,0.684082 1.45117,1.5532227 0,0.8754883 -0.55762,1.5532227 -1.45117,1.5532227 z"
   id="path9" />
		<path
   d="m 115.27734,6.6113281 c 0,0.8813477 -0.33593,1.3549805 -1.16308,1.3549805 -0.82715,0 -1.16309,-0.4736328 -1.16309,-1.3549805 v -2.296875 h -0.70801 v 2.296875 c 0,1.097168 0.37207,1.9726562 1.8711,1.9726562 1.49902,0 1.87109,-0.8754883 1.87109,-1.9726562 v -2.296875 h -0.70801 z"
   id="path10" />
		<polygon
   points="116.53418,4.9321289 118.20703,4.9321289 118.20703,8.512207 118.91406,8.512207 118.91406,4.9321289 120.58789,4.9321289 120.58789,4.3144531 116.53418,4.3144531 "
   id="polygon10" />
		<polygon
   points="135.05469,8.5009766 136.11035,8.5009766 137.06348,5.0107422 137.15918,5.0107422 137.15918,8.5009766 137.86719,8.5009766 137.86719,4.3032227 136.62012,4.3032227 135.64258,7.8710938 135.52832,7.8710938 134.58691,4.3032227 133.33398,4.3032227 133.33398,8.5009766 134.04102,8.5009766 134.04102,5.0107422 134.14355,5.0107422 "
   id="polygon11" />
		<rect
   x="138.72168"
   y="4.3032227"
   width="0.70800781"
   height="4.1977539"
   id="rect11" />
		<path
   d="m 144.08887,6.4023438 c 0,-0.7797852 -0.24512,-2.0991211 -2.03223,-2.0991211 h -1.77539 v 4.1977539 h 1.77539 c 1.78711,0 2.03223,-1.3251954 2.03223,-2.0986328 z m -3.09961,-1.475586 h 1.06738 c 0.96484,0 1.31348,0.7675781 1.31348,1.4755859 0,0.6713867 -0.3418,1.4272461 -1.31348,1.4272461 h -1.06738 z"
   id="path11" />
		<rect
   x="144.78809"
   y="4.3032227"
   width="0.70703119"
   height="4.1977539"
   id="rect12" />
		<rect
   x="147.97949"
   y="4.3032227"
   width="0.70800412"
   height="4.1977539"
   id="rect13" />
		<polygon
   points="150.33105,5.1308594 152.32812,8.5009766 153.34082,8.5009766 153.34082,4.3032227 152.63379,4.3032227 152.63379,7.6733398 152.5498,7.6733398 150.55859,4.3032227 149.53906,4.3032227 149.53906,8.5009766 150.24707,8.5009766 150.24707,5.1308594 "
   id="polygon13" />
		<polygon
   points="126.99902,95.650391 129.08789,98.477539 130.42871,98.477539 127.67383,94.90332 130.14941,92.175781 128.73633,92.175781 125.63086,95.704102 125.63086,92.175781 124.56836,92.175781 124.56836,98.477539 125.63086,98.477539 125.63086,97.163086 "
   id="polygon14" />
		<polygon
   points="135.51367,98.477539 137.03516,98.477539 137.03516,92.175781 135.97266,92.175781 135.97266,97.235352 135.84668,97.235352 132.85742,92.175781 131.32715,92.175781 131.32715,98.477539 132.38965,98.477539 132.38965,93.417969 132.51562,93.417969 "
   id="polygon15" />
		<path
   d="m 141.37207,92.067383 c -1.97168,0 -3.29492,1.314453 -3.29492,3.25 0,1.980469 1.2959,3.258789 3.29492,3.258789 1.96191,0 3.26758,-1.305664 3.26758,-3.258789 0,-1.962891 -1.31445,-3.25 -3.26758,-3.25 z m 0.009,5.582031 c -1.37793,0 -2.21484,-1 -2.21484,-2.332031 0,-1.314453 0.83691,-2.332031 2.21484,-2.332031 1.36816,0 2.17871,1.026367 2.17871,2.332031 0,1.314453 -0.83691,2.332031 -2.17871,2.332031 z"
   id="path15" />
		<polygon
   points="144.81738,93.102539 147.3291,93.102539 147.3291,98.477539 148.3916,98.477539 148.3916,93.102539 150.90332,93.102539 150.90332,92.175781 144.81738,92.175781 "
   id="polygon16" />
		<path
   d="m 17.655273,161.56543 -1.625488,4.19824 h 0.761719 l 0.32373,-0.85156 h 2.188965 l 0.317871,0.85156 h 0.761719 l -1.619141,-4.19824 z m -0.306152,2.72266 0.791504,-2.09864 h 0.138184 l 0.785644,2.09864 z"
   id="path16" />
		<polygon
   points="20.907715,165.76367 21.633301,165.76367 23.084473,161.43359 22.353027,161.43359 "
   id="polygon17" />
		<path
   d="m 25.665039,161.49414 c -1.067383,0 -1.774902,0.78516 -1.774902,2.16406 0,1.28321 0.689453,2.17676 1.774902,2.17676 1.067383,0 1.774902,-0.89355 1.774902,-2.17676 0,-1.3789 -0.707519,-2.16406 -1.774902,-2.16406 z m -1.055664,2.16406 c 0,-1.01269 0.335937,-1.53515 1.055664,-1.53515 0.07959,0 0.138001,0.0312 0.208496,0.0446 l -0.910156,2.72736 c -0.236572,-0.27179 -0.354004,-0.703 -0.354004,-1.23682 z m 1.055664,1.54785 c -0.0686,0 -0.130554,-0.0109 -0.192261,-0.022 l 0.915345,-2.73083 c 0.21466,0.25665 0.332092,0.65149 0.332092,1.20501 0,0.89942 -0.347656,1.54785 -1.055176,1.54785 z"
   id="path17" />
		<polygon
   points="28.245605,165.76367 28.971191,165.76367 30.422363,161.43359 29.690918,161.43359 "
   id="polygon18" />
		<path
   d="m 34.31543,163.61621 c 0.37207,-0.20312 0.498047,-0.53906 0.498047,-0.92285 0,-0.75 -0.527832,-1.12793 -1.451172,-1.12793 h -2.086914 v 4.19824 h 2.488769 c 0.539551,0 1.235352,-0.31836 1.235352,-1.15137 0,-0.49804 -0.204102,-0.83398 -0.684082,-0.99609 z m -2.33252,-1.42676 h 1.139649 c 0.413574,0 0.97705,0 0.97705,0.58789 0,0.59375 -0.53955,0.60547 -0.935547,0.60547 H 31.98291 Z m 1.343262,2.9502 H 31.98291 v -1.24121 h 1.469238 c 0.401856,0 0.833497,0.0479 0.833497,0.61133 -1e-6,0.6123 -0.551758,0.62988 -0.959473,0.62988 z"
   id="path18" />
		<polygon
   points="42.419922,165.78223 43.475098,165.78223 44.428711,162.29199 44.524414,162.29199 44.524414,165.78223 45.232422,165.78223 45.232422,161.58496 43.984863,161.58496 43.007324,165.15234 42.893555,165.15234 41.952148,161.58496 40.698731,161.58496 40.698731,165.78223 41.40625,165.78223 41.40625,162.29199 41.508301,162.29199 "
   id="polygon19" />
		<path
   d="m 48.125977,161.5127 c -1.313477,0 -2.194825,0.87597 -2.194825,2.16503 0,1.31934 0.863282,2.1709 2.194825,2.1709 1.307129,0 2.176757,-0.87011 2.176757,-2.1709 0,-1.30761 -0.875488,-2.16503 -2.176757,-2.16503 z m 0.0059,3.71777 c -0.917481,0 -1.475098,-0.66504 -1.475098,-1.55274 0,-0.87597 0.557617,-1.55371 1.475098,-1.55371 0.911621,0 1.451172,0.68457 1.451172,1.55371 0,0.875 -0.557617,1.55274 -1.451172,1.55274 z"
   id="path19" />
		<path
   d="m 52.775391,161.58496 h -1.774903 v 4.19727 h 1.774903 c 1.787109,0 2.033203,-1.3252 2.033203,-2.09864 0,-0.77929 -0.246094,-2.09863 -2.033203,-2.09863 z m 0,3.52637 h -1.067383 v -2.90332 h 1.067383 c 0.965332,0 1.313476,0.76758 1.313476,1.47558 0,0.67188 -0.341797,1.42774 -1.313476,1.42774 z"
   id="path20" />
		<polygon
   points="55.506348,165.78223 58.888672,165.78223 58.888672,165.15234 56.213867,165.15234 56.213867,163.96582 58.708496,163.96582 58.708496,163.34766 56.213867,163.34766 56.213867,162.20215 58.864258,162.20215 58.864258,161.58496 55.506348,161.58496 "
   id="polygon20" />
		<path
   d="m 71.886719,163.85645 c 0,0.88183 -0.335938,1.35546 -1.163086,1.35546 -0.827637,0 -1.163574,-0.47363 -1.163574,-1.35546 v -2.29688 h -0.70752 v 2.29688 c 0,1.09765 0.371582,1.97265 1.871094,1.97265 1.499023,0 1.870605,-0.875 1.870605,-1.97265 v -2.29688 h -0.707519 z"
   id="path21" />
		<path
   d="m 75.29541,163.28711 c -0.75,-0.12012 -1.145508,-0.33008 -1.145508,-0.66016 0,-0.28125 0.299805,-0.52148 1.001465,-0.52148 0.971192,0 1.175293,0.4375 1.199219,0.77344 h 0.725586 c -0.04199,-0.5752 -0.293945,-1.39063 -1.858887,-1.39063 -1.229492,0 -1.787109,0.50977 -1.787109,1.13867 0,0.85743 0.911621,1.12793 1.745117,1.26563 0.695801,0.11426 1.337402,0.24023 1.337402,0.72558 0,0.52149 -0.677734,0.59375 -1.145508,0.59375 -0.725585,0 -1.313476,-0.18554 -1.355468,-0.78515 H 73.29248 c 0.02979,1.04883 0.947266,1.39648 2.134766,1.39648 1.259277,0 1.804687,-0.48535 1.804687,-1.20508 10e-7,-0.95898 -0.959472,-1.17578 -1.936523,-1.33105 z"
   id="path22" />
		<path
   d="m 80.971191,163.61035 c 0.371582,-0.20312 0.497559,-0.53906 0.497559,-0.92285 0,-0.75 -0.527832,-1.12793 -1.451172,-1.12793 h -2.086914 v 4.19824 h 2.488769 c 0.539551,0 1.235352,-0.31836 1.235352,-1.15136 0,-0.49805 -0.204101,-0.83399 -0.683594,-0.9961 z m -2.333007,-1.42676 h 1.139648 c 0.413574,0 0.977051,0 0.977051,0.58789 0,0.59375 -0.539551,0.60547 -0.935059,0.60547 h -1.18164 z m 1.343261,2.9502 h -1.343261 v -1.24121 h 1.469238 c 0.401855,0 0.833496,0.0478 0.833496,0.61133 0,0.6123 -0.551758,0.62988 -0.959473,0.62988 z"
   id="path23" />
		<polygon
   points="87.366211,165.75781 88.074219,165.75781 88.074219,161.55957 87.366211,161.55957 87.366211,163.34668 84.799805,163.34668 84.799805,161.55957 84.092285,161.55957 84.092285,165.75781 84.799805,165.75781 84.799805,163.96484 87.366211,163.96484 "
   id="polygon23" />
		<path
   d="m 90.967773,161.48828 c -1.313476,0 -2.195312,0.875 -2.195312,2.16406 0,1.31934 0.863281,2.1709 2.195312,2.1709 1.306641,0 2.176758,-0.86914 2.176758,-2.1709 0,-1.30664 -0.875976,-2.16406 -2.176758,-2.16406 z m 0.0059,3.71777 c -0.917969,0 -1.475586,-0.66601 -1.475586,-1.55371 0,-0.875 0.557617,-1.55273 1.475586,-1.55273 0.911133,0 1.451172,0.68359 1.451172,1.55273 0,0.87598 -0.557618,1.55371 -1.451172,1.55371 z"
   id="path24" />
		<path
   d="m 95.689453,163.28711 c -0.75,-0.12012 -1.145508,-0.33008 -1.145508,-0.66016 0,-0.28125 0.299805,-0.52148 1.001953,-0.52148 0.970703,0 1.174805,0.4375 1.199219,0.77344 h 0.725586 c -0.04199,-0.5752 -0.293945,-1.39063 -1.859375,-1.39063 -1.229492,0 -1.787109,0.50977 -1.787109,1.13867 0,0.85743 0.912109,1.12793 1.745117,1.26563 0.696289,0.11426 1.33789,0.24023 1.33789,0.72558 0,0.52149 -0.677734,0.59375 -1.145507,0.59375 -0.725586,0 -1.313477,-0.18554 -1.355469,-0.78515 h -0.719727 c 0.03027,1.04883 0.947266,1.39648 2.134766,1.39648 1.259765,0 1.804687,-0.48535 1.804687,-1.20508 1e-6,-0.95898 -0.958984,-1.17578 -1.936523,-1.33105 z"
   id="path25" />
		<polygon
   points="97.869141,162.17773 99.541992,162.17773 99.541992,165.75781 100.24902,165.75781 100.24902,162.17773 101.92285,162.17773 101.92285,161.55957 97.869141,161.55957 "
   id="polygon25" />
	</g>
	<rect
   x="144.32001"
   y="11.330033"
   width="0.5"
   height="72.010002"
   id="rect25" />
	<rect
   x="141.48"
   y="11.330033"
   width="0.5"
   height="72.010002"
   id="rect26" />
	<path
   d="m 86.709999,158.74004 h -0.5 v -49.6 c -0.0045,-0.81796 0.319817,-1.60342 0.900002,-2.18 l 1,-1 c 0.58152,-0.57277 1.363777,-0.89572 2.18,-0.9 H 117.75 v 0.5 H 90.290001 c -0.683159,0.003 -1.337311,0.27655 -1.82,0.76 l -1,1 c -0.4813,0.48739 -0.750824,1.14502 -0.75,1.83 z"
   id="path26" />
	<path
   d="m 83.870003,158.74004 h -0.5 v -50.74001 c -0.0076,-0.82054 0.321289,-1.60837 0.910003,-2.18 l 2.660004,-2.66 c 0.57785,-0.5783 1.362488,-0.90223 2.18,-0.9 h 28.63 v 0.5 H 89.120003 c -0.685837,-0.005 -1.345101,0.26495 -1.830002,0.75 l -2.660004,2.66999 c -0.489105,0.47888 -0.763306,1.1355 -0.760002,1.82 z"
   id="path27" />
	<path
   d="m 24.34,158.74004 h -0.5 v -24.21001 c 0.0015,-0.81873 0.328978,-1.60317 0.91,-2.17999 l 11,-11 c 0.581547,-0.57888 1.369457,-0.90268 2.189999,-0.9 h 29.710003 c 0.687065,0.001 1.346115,-0.27224 1.830001,-0.76001 l 2.150002,-2.15 c 0.48777,-0.48389 0.761474,-1.14294 0.760002,-1.83 v -12.8 c -0.0022,-0.81752 0.321709,-1.60215 0.900001,-2.18 l 8.949997,-9.000004 c 0.577851,-0.578293 1.362488,-0.902229 2.180001,-0.900001 h 33.330004 v 0.5 H 84.419998 c -0.682381,-0.0026 -1.337539,0.267425 -1.82,0.75 l -8.949996,8.999995 c -0.487771,0.48389 -0.761475,1.14294 -0.760002,1.83001 v 12.8 c 0.0045,0.81795 -0.319817,1.60342 -0.900002,2.18 l -2.150002,2.11 c -0.578002,0.58538 -1.367355,0.91338 -2.190002,0.91 H 37.93 c -0.685192,-0.002 -1.343223,0.26778 -1.830001,0.75 l -11,11 c -0.484047,0.48638 -0.757081,1.14382 -0.760001,1.83001 z"
   id="path28" />
	<path
   d="m 27.18,158.74004 h -0.5 v -23 c -0.0022,-0.81751 0.321711,-1.60215 0.9,-2.18 l 9.339998,-9.33999 c 0.57785,-0.5783 1.362488,-0.90223 2.18,-0.9 h 29.730004 c 0.683159,-0.003 1.337311,-0.27655 1.82,-0.76001 l 3.819999,-3.80999 c 0.481301,-0.48739 0.750824,-1.14502 0.75,-1.83001 v -12.83001 c -0.0034,-0.82265 0.324623,-1.612 0.910004,-2.19001 l 7.290001,-7.279994 c 0.571632,-0.588715 1.359459,-0.91758 2.18,-0.910004 h 32.150004 v 0.5 H 85.599998 c -0.687065,-0.0015 -1.346115,0.272232 -1.830001,0.760002 l -7.290001,7.289996 c -0.48777,0.48389 -0.761475,1.14294 -0.760002,1.83001 v 12.79 c 0.0027,0.82054 -0.321121,1.60845 -0.900002,2.19 L 71,122.88003 c -0.58152,0.57277 -1.363777,0.89572 -2.18,0.9 H 39.099998 c -0.687068,-10e-4 -1.346115,0.27223 -1.830001,0.76 l -9.33,9.34001 c -0.489109,0.47888 -0.763306,1.13551 -0.76,1.82 z"
   id="path29" />
	<path
   d="m 48.439999,158.74004 h -0.5 v -23.46001 c -0.0027,-0.82054 0.321125,-1.60846 0.900001,-2.19 l 6.079998,-6.09 c 0.576584,-0.58018 1.362049,-0.90446 2.18,-0.9 H 70 c 0.687065,10e-4 1.346115,-0.27223 1.830002,-0.76 l 5.470001,-5.47 c 0.48777,-0.48389 0.761475,-1.14294 0.760002,-1.83001 v -12.8 c -0.0022,-0.81751 0.321709,-1.60215 0.900002,-2.18 l 5.629997,-5.629997 c 0.57785,-0.578292 1.362488,-0.902229 2.18,-0.900001 H 117.77 v 0.5 H 86.770004 c -0.684982,-8.24e-4 -1.342613,0.268699 -1.830002,0.75 L 79.32,103.41002 c -0.48777,0.48389 -0.761475,1.14294 -0.760002,1.83 v 12.8 c 0.0076,0.82055 -0.321289,1.60837 -0.910004,2.18 l -5.470001,5.47001 c -0.571633,0.58871 -1.359459,0.91758 -2.180001,0.91 H 57.099998 c -0.68584,-0.005 -1.345096,0.26495 -1.830001,0.75 l -6.080002,6.07999 c -0.482227,0.48677 -0.751911,1.14481 -0.75,1.83001 z"
   id="path30" />
	<path
   d="m 51.270001,158.74004 h -0.5 v -22.29001 c -0.0076,-0.82054 0.321292,-1.60837 0.909999,-2.18 l 4.41,-4.41999 c 0.57785,-0.5783 1.362488,-0.90223 2.18,-0.9 h 12.91 c 0.684494,0.003 1.341126,-0.27089 1.82,-0.75999 l 7.139999,-7.13 c 0.481301,-0.48739 0.750824,-1.14502 0.75,-1.83 v -12.8 c 0.0015,-0.81874 0.32898,-1.60317 0.910004,-2.18 l 4,-4 c 0.571632,-0.588719 1.359459,-0.917584 2.18,-0.910008 H 117.79 v 0.5 H 87.940002 c -0.684501,-0.0033 -1.341125,0.270898 -1.819999,0.759998 l -4,4 c -0.484047,0.48638 -0.75708,1.14382 -0.760002,1.83001 v 12.8 c 0.0027,0.82054 -0.321122,1.60845 -0.900002,2.19 l -7.129997,7.13 c -0.579094,0.57641 -1.362923,0.90002 -2.18,0.89999 H 58.270001 c -0.687066,-0.001 -1.346116,0.27223 -1.830002,0.76 L 52,134.62003 c -0.487766,0.48388 -0.761467,1.14292 -0.759998,1.83 z"
   id="path31" />
	<path
   d="m 130.64,83.350029 h -0.5 V 49.000034 c 0.007,-0.683258 -0.2636,-1.340103 -0.75,-1.819999 l -1.21001,-1.180001 c -0.4837,-0.480705 -1.13805,-0.750354 -1.82,-0.75 H 81.900002 c -0.818291,-0.0037 -1.601922,-0.330829 -2.180001,-0.909999 l -11,-11 C 68.137093,32.764469 67.809303,31.979214 67.809997,31.160034 V 11.330033 h 0.5 v 19.790001 c -0.0219,0.674407 0.226502,1.32962 0.690003,1.819999 l 11,11 c 0.487587,0.482231 1.144249,0.75494 1.830002,0.759998 H 126.29 c 0.81622,0.0043 1.59848,0.327229 2.18,0.900002 l 1.2,1.200001 c 0.57641,0.579093 0.90002,1.362922 0.89999,2.18 z"
   id="path32" />
	<path
   d="M 133.48,83.350029 H 133 V 47.850033 c -0.003,-0.686188 -0.27596,-1.343624 -0.75999,-1.830002 L 129.38,43.16003 c -0.48388,-0.487766 -1.14292,-0.761467 -1.83,-0.759998 H 83.080002 c -0.817955,0.0045 -1.603417,-0.319816 -2.18,-0.900001 l -9.379998,-9.380002 c -0.580185,-0.576585 -0.904457,-1.362049 -0.900001,-2.18 V 11.330033 h 0.5 v 18.610001 c -0.0052,0.685839 0.264953,1.345096 0.75,1.83 L 81.25,41.150036 c 0.487389,0.4813 1.14502,0.75082 1.830002,0.75 H 127.53 c 0.82054,-0.0076 1.60837,0.321293 2.17999,0.91 l 2.87,2.86 c 0.57458,0.580319 0.89785,1.363354 0.89999,2.180001 z"
   id="path33" />
	<path
   d="m 136.31,83.350029 h -0.5 V 46.680035 c 0.005,-0.685841 -0.26496,-1.345097 -0.75,-1.830002 l -6.55001,-6.540001 c -0.47888,-0.489109 -1.13549,-0.763302 -1.82,-0.759998 H 115.57 c -0.81665,-0.0021 -1.59969,-0.325417 -2.18,-0.900002 l -7.85,-7.85 c -0.57917,-0.57808 -0.90628,-1.36171 -0.91,-2.180001 V 11.340034 h 0.5 v 15.280001 c 0.003,0.683157 0.27655,1.337309 0.76,1.82 l 7.85,7.859999 c 0.48739,0.4813 1.14502,0.75082 1.83,0.75 h 11.12 c 0.81751,-0.0022 1.60214,0.321712 2.18,0.900001 l 6.53999,6.549999 c 0.58018,0.576588 0.90445,1.362049 0.89999,2.180001 z"
   id="path34" />
	<path
   d="m 139.14999,83.350029 h -0.5 V 45.500034 c 0.003,-0.684498 -0.27089,-1.341121 -0.75999,-1.819999 l -8.2,-8.200001 c -0.48388,-0.487766 -1.14293,-0.761467 -1.83,-0.759998 h -11.12 c -0.82054,0.0076 -1.60837,-0.32129 -2.18,-0.91 l -6.19,-6.190001 c -0.58019,-0.576586 -0.90446,-1.362049 -0.90001,-2.18 V 11.340034 h 0.5 v 14.100001 c -8.2e-4,0.68498 0.2687,1.342611 0.75,1.83 l 6.19001,6.189998 c 0.48388,0.487767 1.14293,0.761467 1.83,0.759999 h 11.12 c 0.81795,-0.0045 1.60341,0.319816 2.17999,0.900001 l 8.2,8.200001 c 0.58871,0.571632 0.91757,1.359459 0.91,2.18 z"
   id="path35" />
	<path
   d="M 117.75,88.540031 H 108 c -0.82054,0.0027 -1.60845,-0.321121 -2.19,-0.900001 L 96.18,78.000031 C 95.603577,77.420937 95.279976,76.637108 95.279999,75.82003 V 63.230034 c 0.0015,-0.687069 -0.272232,-1.346115 -0.760002,-1.830002 l -2.75,-2.75 c -0.484902,-0.485046 -1.144165,-0.755234 -1.830002,-0.75 H 37.200001 C 36.375786,57.90649 35.583366,57.582321 35,57.000034 l -5.31,-5.299999 c -0.576425,-0.579094 -0.900024,-1.362923 -0.899999,-2.18 V 11.330033 h 0.5 v 38.180001 c -0.0033,0.684497 0.270893,1.341125 0.76,1.819999 l 5.300001,5.310002 c 0.486378,0.484047 1.143814,0.75708 1.830002,0.759998 h 52.759998 c 0.817955,-0.0045 1.603417,0.319817 2.180001,0.900001 l 2.75,2.75 c 0.588714,0.571633 0.917579,1.359459 0.910003,2.180001 v 12.599998 c -0.0033,0.684502 0.270897,1.341126 0.760002,1.82 l 9.630002,9.639999 c 0.49321,0.467606 1.15046,0.722603 1.82999,0.71 h 9.75 z"
   id="path36" />
	<path
   d="m 117.75,85.71003 h -8.58 c -0.81526,-0.0042 -1.59561,-0.331421 -2.17,-0.909996 l -8,-8 C 98.418976,76.223198 98.09153,75.438766 98.089996,74.620033 V 62.060036 c 8.24e-4,-0.684979 -0.268699,-1.342614 -0.75,-1.830002 L 93,55.820034 C 92.516113,55.332268 91.857063,55.058567 91.169998,55.060036 H 38.369999 c -0.817078,2.3e-5 -1.600907,-0.323574 -2.18,-0.900002 l -3.64,-3.650001 c -0.581024,-0.576836 -0.90847,-1.361267 -0.91,-2.180001 v -37 h 0.5 v 37 c 0.0029,0.686188 0.275952,1.343624 0.759999,1.830002 l 3.650001,3.64 c 0.478874,0.489109 1.135502,0.763301 1.82,0.759998 h 52.750004 c 0.817512,-0.0022 1.60215,0.321709 2.18,0.900001 l 4.410004,4.419999 c 0.5755,0.579708 0.898941,1.363136 0.900001,2.18 v 12.59 c 0.0029,0.686188 0.275955,1.343628 0.760002,1.830002 l 8,8 c 0.48637,0.484047 1.14381,0.75708 1.83,0.760002 h 8.58 z"
   id="path37" />
	<path
   d="m 133,107.88003 v 17.12 c -0.003,0.68619 -0.27596,1.34362 -0.75999,1.83 l -9.68,9.68001 c -0.5783,0.57785 -0.90223,1.36249 -0.90001,2.17999 v 22.62 c -0.32301,-0.28612 -0.73851,-0.44592 -1.16999,-0.45 -0.42856,0.004 -0.84102,0.16377 -1.16001,0.45 v -23.79 c -0.005,-0.68583 0.26496,-1.34509 0.75,-1.83 l 9.68001,-9.68 c 0.57829,-0.57785 0.90222,-1.36249 0.89999,-2.18 v -16 h -0.5 v 16 c 0.005,0.68584 -0.26495,1.3451 -0.75,1.83 l -9.68,9.67 c -0.57888,0.58155 -0.90268,1.36946 -0.9,2.19 v 24.48 0 c -0.0719,0.19191 -0.10916,0.39507 -0.11,0.60001 0.0736,0.9803 0.92799,1.71531 1.9083,1.64169 0.87793,-0.0659 1.57577,-0.76376 1.6417,-1.64169 -0.006,-0.20446 -0.0429,-0.4068 -0.11,-0.60001 v 0 -23.31 c -10e-4,-0.68707 0.27224,-1.34611 0.76001,-1.83 l 9.68,-9.68 c 0.5755,-0.57971 0.89892,-1.36314 0.89999,-2.18 v -17.12 z m -12.51,56.00001 c -0.70693,-2e-5 -1.27999,-0.57312 -1.27996,-1.28005 2e-5,-0.70692 0.57311,-1.27998 1.28003,-1.27995 0.70693,1e-5 1.27999,0.5731 1.27996,1.28003 0,0.003 -1e-5,0.007 -3e-5,0.01 0.0168,0.7012 -0.53807,1.28323 -1.23928,1.3 -0.0202,4.9e-4 -0.0405,4.9e-4 -0.0607,0 z"
   id="path38" />
	<path
   d="m 138.64999,107.88003 v 19.47 c 0.001,0.68706 -0.27223,1.34611 -0.75999,1.82999 l -1.17999,1.18 c -0.58019,0.57658 -0.90445,1.36204 -0.9,2.17999 v 28.77 c -0.31747,-0.28866 -0.73091,-0.44905 -1.16,-0.44999 -0.43149,0.004 -0.84699,0.16388 -1.17,0.44999 v -29.94998 c -0.003,-0.68239 0.26743,-1.33754 0.75,-1.82001 l 1.17999,-1.17999 c 0.57459,-0.58032 0.89786,-1.36336 0.9,-2.18 v -18.29999 h -0.5 v 18.3 c 8.2e-4,0.68498 -0.26871,1.34261 -0.75,1.83 l -1.18,1.17 c -0.57829,0.57785 -0.90222,1.36249 -0.89999,2.17999 v 30.69 c -0.072,0.18842 -0.10927,0.38831 -0.11,0.59 0.0736,0.9803 0.92799,1.71532 1.90831,1.64169 0.87791,-0.0659 1.57576,-0.76376 1.64169,-1.64169 1.7e-4,-0.20178 -0.0371,-0.40184 -0.11,-0.59 v -29.51001 c -0.001,-0.68707 0.27223,-1.34611 0.76,-1.83 l 1.17999,-1.17999 c 0.58018,-0.57658 0.90445,-1.36205 0.89999,-2.18 v -19.47 z m -4,56.00001 c -0.70691,0.005 -1.28442,-0.5631 -1.28991,-1.27001 -0.006,-0.70691 0.56309,-1.28442 1.27,-1.28992 0.70691,-0.005 1.28443,0.5631 1.28992,1.27001 4e-5,0.007 4e-5,0.0133 0,0.0199 0.0166,0.7012 -0.53844,1.28308 -1.23964,1.29965 -0.0101,2.3e-4 -0.0203,3.5e-4 -0.0304,3.5e-4 v -0.03 z"
   id="path39" />
	<path
   d="m 150.48,162.00003 v 0 -36 c 6.8e-4,-0.81918 -0.32711,-1.60443 -0.91001,-2.18 l -4,-4 c -0.48129,-0.48739 -0.75082,-1.14502 -0.75,-1.83 v -10.1 h -0.5 v 10.11 c -0.004,0.81795 0.31981,1.60342 0.9,2.18 l 4,4 c 0.49266,0.47814 0.77352,1.1335 0.78001,1.82 v 35.31 c -0.32394,-0.28458 -0.73885,-0.44415 -1.17,-0.45 -0.43149,0.004 -0.84698,0.16388 -1.17,0.45 v -34.14 c 3e-5,-0.81708 -0.32357,-1.60091 -0.89999,-2.18 l -4,-4 c -0.48718,-0.48017 -0.76103,-1.13596 -0.75999,-1.82 v -11.29 h -0.5 v 11.28 c -0.007,0.8156 0.31747,1.59908 0.89999,2.16999 l 4,4 c 0.48257,0.48246 0.75256,1.13762 0.75,1.82 v 34.85001 0 c -0.0763,0.19449 -0.11694,0.40111 -0.12,0.61 0.0736,0.9803 0.928,1.71532 1.90831,1.64169 0.87792,-0.0659 1.57576,-0.76376 1.6417,-1.64169 0.003,-0.20767 -0.0305,-0.41426 -0.10002,-0.61 z m -1.66001,1.88001 c -0.70691,0.005 -1.28442,-0.5631 -1.28991,-1.27001 -0.006,-0.70691 0.56309,-1.28442 1.27,-1.28992 0.70691,-0.005 1.28442,0.5631 1.28992,1.27001 4e-5,0.007 4e-5,0.0133 0,0.0199 0.0111,0.70683 -0.55297,1.28882 -1.2598,1.29988 -0.003,6e-5 -0.007,9e-5 -0.0102,1.2e-4 z"
   id="path40" />
</g></g>
</svg>
