<?xml version="1.0" encoding="UTF-8" standalone="no"?>
<!-- Generator: Adobe Illustrator 28.0.0, SVG Export Plug-In . SVG Version: 6.00 Build 0)  -->

<svg
   version="1.1"
   x="0px"
   y="0px"
   viewBox="0 0 226.77166 226.77166"
   xml:space="preserve"
   id="svg98"
   sodipodi:docname="6x6-chaos-back.svg"
   width="60mm"
   height="60mm"
   inkscape:version="1.3.2 (091e20e, 2023-11-25, custom)"
   xmlns:inkscape="http://www.inkscape.org/namespaces/inkscape"
   xmlns:sodipodi="http://sodipodi.sourceforge.net/DTD/sodipodi-0.dtd"
   xmlns="http://www.w3.org/2000/svg"
   xmlns:svg="http://www.w3.org/2000/svg"><defs
   id="defs98" /><sodipodi:namedview
   id="namedview98"
   pagecolor="#ffffff"
   bordercolor="#000000"
   borderopacity="0.25"
   inkscape:showpageshadow="2"
   inkscape:pageopacity="0.0"
   inkscape:pagecheckerboard="0"
   inkscape:deskcolor="#d1d1d1"
   inkscape:zoom="2.413588"
   inkscape:cx="144.18368"
   inkscape:cy="147.29108"
   inkscape:window-width="1920"
   inkscape:window-height="1137"
   inkscape:window-x="1912"
   inkscape:window-y="-8"
   inkscape:window-maximized="1"
   inkscape:current-layer="svg98"
   inkscape:document-units="mm" />
<style
   type="text/css"
   id="style1">
	.st0{fill:#1D1D1B;}
	.st1{fill-rule:evenodd;clip-rule:evenodd;}
</style>

<g
   id="g99"
   transform="matrix(1.3333234,0,0,1.3333235,-0.01059359,2.102604e-4)"><g
     id="Layer_2">
	<g
   id="Réteg_4_00000132804577294955307730000003748488315393001386_">
		<polygon
   points="41.512779,91.099365 41.512779,98.009369 45.922779,98.009369 52.842781,91.099365 52.842781,98.009369 57.242783,98.009369 63.932781,91.329369 63.932781,90.679367 61.752781,90.679367 54.832783,97.599365 54.832783,90.679367 50.422779,90.679367 43.512779,97.599365 43.512779,90.679367 39.102779,90.679367 32.412781,97.36937 32.412781,98.009369 34.592781,98.009369 "
   id="polygon1" />
		<path
   d="m 107.85278,94.999367 c -0.48594,-0.1791 -0.98838,-0.309731 -1.5,-0.39 -0.3715,-0.05267 -0.73456,-0.153526 -1.08001,-0.300003 -0.21,-0.120002 -0.32,-0.260002 -0.32,-0.43 0.004,-0.172371 0.10995,-0.325882 0.27,-0.389999 0.26432,-0.114724 0.55276,-0.162796 0.84,-0.14 0.40044,-0.03116 0.80174,0.04841 1.16,0.230004 0.21531,0.119796 0.36028,0.335403 0.39,0.580001 h 1.39001 c -0.0152,-0.357475 -0.12944,-0.703697 -0.33,-1 -0.238,-0.30928 -0.56128,-0.542182 -0.93001,-0.669998 -0.49993,-0.163795 -1.02404,-0.241569 -1.55,-0.230003 -0.66305,-0.04624 -1.32477,0.107002 -1.9,0.440002 -0.39568,0.265335 -0.62927,0.713684 -0.62,1.190003 -0.008,0.332801 0.11394,0.655624 0.33999,0.900001 0.25128,0.264916 0.56376,0.464081 0.91001,0.580002 0.45875,0.169388 0.93506,0.286789 1.42,0.349998 0.30602,0.04107 0.6074,0.111397 0.9,0.21 0.16594,0.04562 0.31965,0.127609 0.44999,0.239997 0.0846,0.08073 0.13171,0.193078 0.13,0.309998 -0.005,0.198792 -0.13248,0.373787 -0.32,0.440002 -0.30294,0.11496 -0.62637,0.166031 -0.95,0.150002 -0.40837,0.02016 -0.81582,-0.05516 -1.19,-0.220001 -0.26708,-0.112259 -0.45129,-0.36171 -0.48,-0.650002 h -1.4 c -0.0192,0.583328 0.26938,1.133881 0.76,1.449997 0.69154,0.385628 1.47996,0.56276 2.27,0.510002 v 0 c 0.69529,0.0512 1.39039,-0.101722 2,-0.440002 0.41778,-0.252968 0.66635,-0.711868 0.65,-1.199997 0.0119,-0.326798 -0.10273,-0.645599 -0.32,-0.889999 -0.27252,-0.28901 -0.61276,-0.505539 -0.98998,-0.630005 z"
   id="path1" />
		<path
   d="m 112.00278,90.699364 h -1.30001 v 1.660003 h -1.26999 v 1.14 h 1.26999 v 2.599998 c -0.007,0.353768 0.0337,0.706848 0.12001,1.050003 0.0864,0.28405 0.26611,0.530663 0.51,0.699997 0.33329,0.202339 0.72101,0.296646 1.11,0.269997 v 0 c 0.50842,-0.0046 1.01356,-0.08205 1.5,-0.230004 v -1.139999 c -0.22346,0.05868 -0.45065,0.10212 -0.68,0.129997 -0.19546,0.02869 -0.3925,0.04539 -0.59,0.05 -0.14356,0.01021 -0.2875,-0.01378 -0.42,-0.07 -0.094,-0.05482 -0.16235,-0.144753 -0.19,-0.25 -0.0454,-0.15921 -0.0656,-0.324539 -0.06,-0.489998 v -2.619995 h 2 v -1.14 h -2 V 90.69936 Z"
   id="path2" />
		<path
   d="m 119.53278,95.239365 c 0.0191,0.450843 -0.11482,0.894897 -0.38,1.260002 -0.33824,0.369224 -0.8323,0.554962 -1.33,0.5 -0.32446,0.01854 -0.64822,-0.04691 -0.94001,-0.190003 -0.21793,-0.115829 -0.38533,-0.308166 -0.47,-0.540001 -0.0959,-0.290031 -0.13987,-0.594696 -0.12999,-0.900001 v -3 h -1.28 v 3 c -0.003,0.452255 0.0537,0.902939 0.17,1.339996 0.11699,0.398613 0.35886,0.749146 0.69,1 0.43806,0.314469 0.97199,0.466515 1.51,0.43 0.43399,0.01528 0.86643,-0.05964 1.27,-0.220001 0.32267,-0.131736 0.60289,-0.349685 0.80999,-0.629997 h 0.1 v 0.710007 h 1.30001 v -5.669999 h -1.30001 z"
   id="path3" />
		<polygon
   points="129.16278,98.029365 130.46278,98.029365 130.46278,92.359367 129.16278,92.359367 "
   id="polygon3" />
		<polygon
   points="129.12277,91.679367 130.49278,91.679367 130.49278,90.47937 129.12277,90.47937 "
   id="polygon4" />
		<path
   d="m 137.23277,93.519363 c -0.27531,-0.440315 -0.67572,-0.788497 -1.14999,-1 -0.49945,-0.21183 -1.03754,-0.317398 -1.58,-0.309997 -0.53925,-0.0075 -1.07407,0.09812 -1.57001,0.309997 -0.47731,0.210877 -0.8811,0.558968 -1.16,1 -0.59334,1.02356 -0.59334,2.286438 0,3.309998 0.27577,0.439919 0.67604,0.787979 1.14999,1 0.49519,0.215309 1.03004,0.324318 1.57001,0.32 v 0 c 0.57267,0.01027 1.14023,-0.109398 1.66,-0.349999 0.45578,-0.223633 0.84018,-0.569938 1.11,-1 0.27344,-0.491821 0.41147,-1.047394 0.4,-1.61 0.0274,-0.587197 -0.1224,-1.169068 -0.43,-1.669999 z m -1.11,2.599999 c -0.15223,0.275307 -0.37704,0.503586 -0.64999,0.660004 -0.30766,0.16233 -0.65235,0.241607 -1,0.230003 v 0 c -0.49692,0.02801 -0.98288,-0.15332 -1.34,-0.5 -0.34149,-0.363808 -0.51863,-0.851852 -0.49,-1.349998 -0.0287,-0.489197 0.14906,-0.96801 0.49,-1.32 0.78461,-0.633995 1.9054,-0.633995 2.69,0 0.33889,0.349861 0.5196,0.823311 0.5,1.309997 0.0157,0.334992 -0.0531,0.668549 -0.20001,0.969994 z"
   id="path4" />
		<rect
   x="67.112778"
   y="90.469368"
   width="1.3700027"
   height="1.1999969"
   id="rect4" />
		<polygon
   points="67.152779,98.009369 68.452774,98.009369 68.452774,92.349365 67.152779,92.349365 "
   id="polygon5" />
		<path
   d="m 74.582779,92.639366 c -0.441475,-0.306473 -0.973686,-0.454498 -1.510002,-0.419998 -0.433914,-0.01413 -0.86612,0.06074 -1.269997,0.220001 -0.323524,0.125527 -0.602127,0.344925 -0.800003,0.629997 h -0.110001 v -0.720001 h -1.300003 v 5.650002 h 1.300003 v -2.870003 c -0.01672,-0.453636 0.11686,-0.900093 0.379998,-1.269997 0.340065,-0.366501 0.83271,-0.551712 1.330002,-0.5 0.324104,-0.01384 0.646713,0.05137 0.940002,0.190003 0.217934,0.115829 0.385338,0.308166 0.470001,0.540001 0.09663,0.293304 0.140633,0.601379 0.129997,0.910003 v 3 h 1.300004 v -3 c 0.0077,-0.455787 -0.04951,-0.910354 -0.169999,-1.349998 -0.118873,-0.400467 -0.360168,-0.753662 -0.690002,-1.01001 z"
   id="path5" />
		<path
   d="m 78.492775,90.679367 h -1.300003 v 1.669998 h -1.269997 v 1.14 h 1.269997 v 2.589996 c -0.0053,0.337868 0.03848,0.674721 0.129997,1 0.07884,0.287697 0.255692,0.538826 0.5,0.709999 0.336937,0.19252 0.722611,0.28286 1.110001,0.260002 0.251129,-0.0016 0.5018,-0.0217 0.75,-0.06 0.256698,-0.03587 0.510628,-0.08933 0.760002,-0.160004 v -1.150002 c -0.223473,0.06102 -0.4506,0.107781 -0.68,0.14 -0.199807,0.01244 -0.400193,0.01244 -0.599999,0 -0.143295,0.0053 -0.286171,-0.0185 -0.419998,-0.07 -0.0913,-0.05782 -0.158737,-0.146553 -0.190002,-0.25 -0.04476,-0.15934 -0.06499,-0.32457 -0.06,-0.489998 v -2.620003 h 2 v -1.139999 h -2 v -1.569992 z"
   id="path6" />
		<path
   d="m 85.862778,92.61937 c -0.527985,-0.283768 -1.120789,-0.425072 -1.720002,-0.410004 -0.566459,-0.01257 -1.128021,0.107284 -1.639999,0.349998 -0.44342,0.222649 -0.81192,0.57029 -1.059998,1 -0.251899,0.491257 -0.375724,1.038147 -0.36,1.589997 -0.01837,0.554504 0.112884,1.103721 0.379997,1.589996 0.251496,0.434158 0.627808,0.782593 1.080002,1 0.524223,0.24852 1.100143,0.368507 1.68,0.349998 v 0 c 0.679802,0.02164 1.352013,-0.14814 1.940003,-0.489998 0.531166,-0.316619 0.896713,-0.850311 1,-1.459999 h -1.380005 c -0.113816,0.257325 -0.311119,0.468727 -0.559998,0.599999 -0.306717,0.165794 -0.651443,0.248527 -1,0.239998 -0.346344,0.0099 -0.689789,-0.06567 -1,-0.220001 -0.243042,-0.127175 -0.444382,-0.321564 -0.580002,-0.559998 -0.124496,-0.239212 -0.199325,-0.501122 -0.220001,-0.769997 h 4.790001 c 0.06091,-0.583801 -0.03218,-1.17337 -0.269997,-1.709999 -0.234581,-0.471672 -0.612708,-0.856804 -1.080001,-1.09999 z m -3.430001,2 c 0.01786,-0.220902 0.09757,-0.432297 0.230004,-0.610001 0.151871,-0.199379 0.351272,-0.357529 0.580002,-0.459999 0.284919,-0.118607 0.591446,-0.176506 0.900001,-0.169998 0.322769,-0.01004 0.643768,0.05143 0.940003,0.18 0.222404,0.104133 0.412468,0.266548 0.550003,0.470001 0.119323,0.175461 0.191635,0.378601 0.209999,0.589996 z"
   id="path7" />
		<path
   d="m 90.832779,93.359367 c 0.347664,-0.0116 0.692337,0.06767 1,0.230004 0.237244,0.146057 0.42263,0.362922 0.529999,0.620002 h 1.379997 c -0.07691,-0.598327 -0.413452,-1.1324 -0.919998,-1.459999 -0.596901,-0.377693 -1.294113,-0.565941 -2,-0.540001 -0.54158,-0.0091 -1.077149,0.114541 -1.559998,0.360001 -0.443527,0.226204 -0.814354,0.572769 -1.07,1 -0.271308,0.477745 -0.406211,1.020828 -0.389999,1.57 -0.01324,0.550789 0.11776,1.095466 0.379997,1.580002 0.255646,0.42723 0.626473,0.773796 1.07,1 0.48687,0.243209 1.025932,0.36338 1.57,0.349998 v 0 c 0.705047,0.03082 1.40274,-0.154068 2,-0.529999 0.510391,-0.326812 0.845062,-0.867431 0.910004,-1.470001 h -1.350007 c -0.110061,0.258049 -0.294593,0.477402 -0.529998,0.629997 -0.303955,0.172905 -0.650681,0.256119 -1,0.239998 -0.469246,0.02123 -0.924843,-0.16101 -1.25,-0.5 -0.607468,-0.775161 -0.607468,-1.864837 0,-2.639999 0.332008,-0.309639 0.776931,-0.468796 1.230003,-0.440003 z"
   id="path8" />
		<path
   d="m 99.632774,92.639366 c -0.445228,-0.306496 -0.980567,-0.454414 -1.519996,-0.419998 -0.430664,-0.01418 -0.859619,0.06072 -1.260002,0.220001 -0.324837,0.12796 -0.606011,0.346657 -0.809998,0.629997 h -0.1 v -2.389999 h -1.300003 v 7.32 h 1.300003 v -2.870003 c -0.01672,-0.453636 0.116859,-0.900093 0.379997,-1.269997 0.340065,-0.366501 0.83271,-0.551712 1.330002,-0.5 0.324104,-0.01384 0.646713,0.05137 0.940002,0.190003 0.21402,0.120697 0.379982,0.311378 0.470001,0.540001 0.09177,0.294418 0.135666,0.601661 0.129998,0.910003 v 3 h 1.300002 v -3 c 0.003,-0.455505 -0.0545,-0.909385 -0.17,-1.349998 -0.11888,-0.400467 -0.360166,-0.753662 -0.690008,-1.01001 z"
   id="path9" />
		<polygon
   points=""
   id="polygon9" />
		<path
   d="m 126.72278,90.699364 v 1.660003 0 0.75 h -0.09 c -0.24257,-0.279953 -0.54739,-0.499153 -0.89,-0.639999 -0.39524,-0.166733 -0.82111,-0.248497 -1.25,-0.239998 -0.54134,-0.01955 -1.0766,0.119476 -1.54,0.400002 -0.41116,0.261543 -0.73768,0.636688 -0.94,1.080001 -0.42234,0.955407 -0.42234,2.044594 0,3 0.2049,0.435929 0.52687,0.806366 0.93,1.07 v 0 c 0.46232,0.284027 0.99766,0.426552 1.54,0.410004 0.43409,0.0046 0.8651,-0.07343 1.27,-0.230004 0.34095,-0.130447 0.64844,-0.335441 0.9,-0.599998 h 0.07 v 0.699997 h 1.28 v -5.669998 0 -1.69001 z m -0.49,5.800003 c -0.35756,0.374199 -0.86388,0.568657 -1.38,0.529999 -0.51696,0.04456 -1.02575,-0.150849 -1.37999,-0.529999 -0.61376,-0.761757 -0.61376,-1.848244 0,-2.610001 0.35938,-0.370529 0.86545,-0.561226 1.37999,-0.519996 0.51695,-0.0373 1.02447,0.152565 1.39,0.519996 0.32577,0.35672 0.49818,0.827248 0.48001,1.309998 0.0161,0.481262 -0.16025,0.949104 -0.49001,1.300003 z"
   id="path10" />
	</g>
	<path
   d="m 139.64001,12.98999 c -1.23004,0.01001 -2.23004,-0.970031 -2.23004,-2.200012 -0.01,-1.2299805 0.98004,-2.2199707 2.21003,-2.2299805 0.41003,0 0.79998,0.1099854 1.13,0.2999878 l 0.26001,-0.4299927 c -0.40002,-0.2299805 -0.87,-0.3599854 -1.37,-0.3599854 -1.40002,0 -2.55999,1.0700073 -2.69,2.4599608 h -0.01 -4.53003 C 132.27003,9.0299681 130.95002,7.9299925 129.45002,8.0700072 127.96003,8.2099608 126.86,9.5299681 126.99,11.029968 c 0.14001,1.5 1.47003,2.600037 2.96002,2.460022 1.31,-0.119995 2.33997,-1.160034 2.45996,-2.460022 h 4.53003 0.01 c 0.15998,1.48999 1.48999,2.559998 2.97998,2.400025 0.38001,-0.03998 0.72998,-0.160035 1.04999,-0.330018 l -0.23999,-0.409973 c -0.33002,0.190003 -0.70001,0.289979 -1.09998,0.299988 z M 129.70738,13 c -1.21997,0 -2.21998,-0.98999 -2.21998,-2.220032 0,-1.2299802 1.00001,-2.2199704 2.21998,-2.2199704 1.23004,0 2.22003,0.9899902 2.22003,2.2199704 0,1.230042 -0.98999,2.220032 -2.22003,2.220032 z"
   id="path11" />
	<path
   d="m 149.55179,8.0793695 c -1.39659,0.00435 -2.56117,1.0693541 -2.69,2.4599995 h -6.49001 c -0.10385,-0.321149 -0.40248,-0.539067 -0.74001,-0.5399995 -0.43626,-0.00552 -0.79441,0.3436635 -0.79994,0.7799335 -4e-5,0.0034 -6e-5,0.0067 -6e-5,0.01007 0,0.441828 0.35817,0.800001 0.80001,0.800001 v 0 c 0.3413,9.31e-4 0.64248,-0.222925 0.74,-0.550001 h 6.49001 c 0.16017,1.488098 1.49633,2.564599 2.98443,2.404436 1.4881,-0.160165 2.56461,-1.496346 2.40444,-2.984443 -0.14833,-1.3781767 -1.31273,-2.3822612 -2.69887,-2.3799925 z m 0,4.9200005 c -1.22606,0.0055 -2.22446,-0.973925 -2.22997,-2.199984 -0.006,-1.2260599 0.98392,-2.224452 2.20998,-2.2299709 1.22606,-0.00552 2.22446,0.9839239 2.22998,2.2099839 2e-5,0.0033 2e-5,0.0066 2e-5,0.01 -0.0109,1.216026 -0.99399,2.199145 -2.21001,2.21 z"
   id="path12" />
	<g
   id="Réteg_9_másolat_00000114756325506769906070000009918022602752317574_">
		<path
   class="st0"
   d="M 169.86179,0.2493692 V 169.82937 H 0.2817817 V 0.2493692 H 169.86179 m 0.25,-0.25 H 0.0317817 V 170.07937 H 170.11178 V -6.308e-4 Z"
   id="path13" />
	</g>
	<polygon
   points="89.364258,85.628906 90.071289,84.921875 87.746643,82.597412 90.071289,80.272949 89.364258,79.565918 87.039551,81.890442 84.714844,79.565918 84.007812,80.272949 86.332459,82.597412 84.007812,84.921875 84.714844,85.628906 87.039551,83.304382 "
   id="polygon13" />
	<g
   id="g24">
		<g
   id="Layer_2_00000166635417885257638860000011638732727993366925_">
			<g
   id="Layer_1-2_00000183962459687225675480000017882819133194793125_">
				<path
   d="m 93.401863,61.080536 -6.396057,6.396057 v 0 l -1.107391,1.10614 v 0 l -3.062584,3.063835 c -0.04453,0.04362 -0.11599,0.04289 -0.159622,-0.0016 -0.01664,-0.01699 -0.0275,-0.0388 -0.03101,-0.06233 l -0.974457,-6.940353 c -0.0083,-0.06108 0.03455,-0.11731 0.09563,-0.12558 0.03446,-0.0047 0.06911,0.007 0.09374,0.03153 l 3.403701,3.403701 c 0.04355,0.04364 0.11422,0.04372 0.157853,1.76e-4 5.3e-5,-6.1e-5 1.14e-4,-1.15e-4 1.67e-4,-1.76e-4 l 0.949379,-0.94812 c 0.04252,-0.04458 0.04252,-0.1147 0,-0.159271 L 80.602234,61.07552 c -0.218971,-0.217907 -0.57312,-0.217045 -0.791023,0.0019 -0.1241,0.124703 -0.182297,0.30053 -0.157105,0.474648 l 1.755776,12.469799 c 0.04319,0.305877 0.326171,0.518829 0.632057,0.475639 0.120147,-0.01696 0.231521,-0.07254 0.317322,-0.158348 l 4.655326,-4.659088 v 0 l 1.10614,-1.10614 v 0 l 1.206467,-1.207726 v 0 l 1.112412,-1.10614 v 0 l 1.716903,-1.718155 c 0.0447,-0.04345 0.116158,-0.04244 0.159615,0.0023 0.02397,0.02467 0.03539,0.05893 0.03101,0.09306 l -0.402572,2.876969 c -0.0092,0.06165 -0.06664,0.104171 -0.128304,0.09497 -0.02352,-0.0035 -0.04533,-0.01437 -0.06232,-0.03101 l -0.687264,-0.684761 c -0.04354,-0.04363 -0.114212,-0.04371 -0.157852,-1.67e-4 -5.3e-5,6.1e-5 -1.14e-4,1.14e-4 -1.68e-4,1.67e-4 l -0.949379,0.948128 c -0.04363,0.04354 -0.04371,0.114212 -1.67e-4,0.157845 6.1e-5,6.1e-5 1.14e-4,1.14e-4 1.67e-4,1.75e-4 l 1.642914,1.642906 c 0.02509,0.02441 0.03678,0.05948 0.03135,0.09405 l -0.250824,1.843575 c -0.0083,0.06107 -0.06462,0.103828 -0.125694,0.09548 -0.02409,-0.0033 -0.04645,-0.01436 -0.06368,-0.03153 l -2.439277,-2.436767 c -0.04354,-0.04364 -0.114212,-0.04372 -0.157845,-1.76e-4 -6.1e-5,6.1e-5 -1.14e-4,1.14e-4 -1.75e-4,1.76e-4 l -0.94812,0.94812 c -0.04363,0.04354 -0.04371,0.114212 -1.68e-4,0.157852 5.3e-5,5.3e-5 1.07e-4,1.07e-4 1.68e-4,1.68e-4 l 4.025749,4.025749 c 0.218513,0.218361 0.57267,0.218239 0.791031,-2.75e-4 0.08599,-0.08605 0.141579,-0.197784 0.158348,-0.318275 l 1.726936,-12.467289 c 0.04376,-0.3051 -0.168091,-0.58791 -0.47319,-0.631676 -0.174523,-0.02503 -0.350601,0.03387 -0.47493,0.158871 z"
   id="path14" />
				<path
   d="m 42.608406,72.165779 c -0.586883,0.0052 -1.16917,-0.103836 -1.714393,-0.32106 -1.039689,-0.417748 -1.867978,-1.235642 -2.298821,-2.269974 -0.220806,-0.532082 -0.33213,-1.10321 -0.327328,-1.679275 -0.0048,-0.575661 0.106522,-1.146378 0.327328,-1.678025 0.210987,-0.508331 0.52335,-0.968345 0.918022,-1.351951 0.3983,-0.383705 0.866646,-0.687279 1.379544,-0.894192 0.546859,-0.219265 1.131519,-0.328781 1.720665,-0.322311 0.597854,-0.01052 1.191921,0.09687 1.748252,0.31604 0.45636,0.185657 0.87724,0.448703 1.244095,0.777561 0.04987,0.04806 0.05134,0.127456 0.0033,0.17733 -0.0011,0.0011 -0.0022,0.0022 -0.0033,0.0033 l -1.057228,1.06852 c -0.04842,0.04952 -0.127827,0.05042 -0.177349,0.002 -6.71e-4,-6.56e-4 -0.0013,-0.0013 -0.002,-0.002 -0.200062,-0.193085 -0.433857,-0.347817 -0.68977,-0.456505 -0.339314,-0.138428 -0.703392,-0.205864 -1.069775,-0.198151 -0.336361,-0.0042 -0.67033,0.05711 -0.983234,0.180588 -0.290897,0.117897 -0.554012,0.295159 -0.772545,0.52047 -0.222504,0.235008 -0.393379,0.513962 -0.501652,0.818939 -0.234104,0.680656 -0.234104,1.420013 0,2.10067 0.110375,0.30397 0.281006,0.582519 0.501652,0.818947 0.216866,0.228515 0.480335,0.40773 0.772545,0.525474 0.312649,0.124512 0.646736,0.186302 0.983234,0.181854 0.37534,0.0084 0.748661,-0.0572 1.098618,-0.193138 0.263222,-0.107864 0.502697,-0.266372 0.704819,-0.466537 0.04842,-0.04952 0.127826,-0.05042 0.177349,-0.002 6.71e-4,6.56e-4 0.0013,0.0013 0.002,0.002 l 1.074791,1.067261 c 0.05022,0.04771 0.05225,0.12709 0.0045,0.177307 -0.0015,0.0016 -0.003,0.0031 -0.0045,0.0045 -0.368198,0.333336 -0.792889,0.598343 -1.254131,0.78257 -0.575959,0.218666 -1.188778,0.323852 -1.804688,0.309776 z"
   id="path15" />
				<path
   d="m 51.610538,63.90358 v 2.966011 c 0,0.06927 -0.05615,0.125412 -0.125412,0.125412 h -3.00991 c -0.06926,0 -0.125412,-0.05615 -0.125412,-0.125412 V 63.90358 c 0,-0.06926 -0.05615,-0.125412 -0.125412,-0.125412 h -1.600269 c -0.06926,0 -0.125412,0.05615 -0.125412,0.125412 v 8.007606 c 0,0.06927 0.05615,0.12542 0.125412,0.12542 h 1.596508 c 0.06926,0 0.125412,-0.05615 0.125412,-0.12542 v -3.187988 c 0,-0.06927 0.05615,-0.12542 0.125412,-0.12542 h 3.009906 c 0.06927,0 0.125416,0.05615 0.125416,0.12542 v 3.187988 c 0,0.06927 0.05615,0.12542 0.125412,0.12542 h 1.609047 c 0.06926,0 0.125412,-0.05615 0.125412,-0.12542 V 63.90358 c 0,-0.06926 -0.05615,-0.125412 -0.125412,-0.125412 h -1.605285 c -0.06926,0 -0.125413,0.05615 -0.125413,0.125412 z"
   id="path16" />
				<path
   d="m 60.615181,72.036606 h 1.681786 c 0.06926,-2.06e-4 0.125248,-0.05653 0.125042,-0.125786 -4.6e-5,-0.01531 -0.0029,-0.0305 -0.0084,-0.04478 l -3.141594,-8.008865 c -0.01902,-0.04775 -0.06524,-0.07906 -0.116631,-0.07901 h -1.504955 c -0.05139,-5e-5 -0.09762,0.03126 -0.116634,0.07901 l -3.161656,8.008865 c -0.02494,0.06461 0.0072,0.137215 0.07185,0.162148 0.01429,0.0055 0.02947,0.0084 0.04478,0.0084 h 1.630367 c 0.05203,-3.59e-4 0.09843,-0.03279 0.116635,-0.08152 l 0.489109,-1.321854 c 0.01821,-0.04874 0.06461,-0.08117 0.116634,-0.08152 h 3.057564 c 0.0528,2.3e-5 0.09994,0.03312 0.117889,0.08277 l 0.480332,1.315583 c 0.01667,0.05114 0.0641,0.08596 0.117889,0.08654 z m -3.240669,-3.151627 0.901722,-2.439285 c 0.02456,-0.06476 0.09698,-0.09734 0.161739,-0.07278 0.03356,0.01273 0.06005,0.03922 0.07278,0.07278 l 0.877891,2.439285 c 0.02355,0.06513 -0.01017,0.137032 -0.0753,0.160576 -0.01366,0.0049 -0.02807,0.0075 -0.04259,0.0075 h -1.780861 c -0.06925,-0.0014 -0.124245,-0.05869 -0.122837,-0.127937 2.78e-4,-0.01369 0.0028,-0.02724 0.0075,-0.04012 z"
   id="path17" />
				<path
   d="m 66.73658,72.177063 c -0.593231,0.0059 -1.181801,-0.105301 -1.731949,-0.327324 -0.518936,-0.210441 -0.991806,-0.520149 -1.392082,-0.911751 -0.396321,-0.387901 -0.710644,-0.851493 -0.924294,-1.363243 -0.22081,-0.532081 -0.332134,-1.10321 -0.327327,-1.679275 -0.0059,-0.57779 0.105453,-1.150772 0.327327,-1.684296 0.428444,-1.030876 1.255177,-1.844948 2.292549,-2.257431 0.550995,-0.218594 1.139206,-0.328056 1.731949,-0.322311 0.587006,-0.0053 1.169388,0.104198 1.714394,0.322311 0.515823,0.20771 0.986458,0.513512 1.385811,0.900467 0.396393,0.384102 0.708961,0.846123 0.918022,1.356964 0.218193,0.536659 0.327751,1.111275 0.322311,1.690567 0.0045,0.575752 -0.107246,1.146492 -0.328582,1.678024 -0.211281,0.512291 -0.522995,0.977089 -0.916764,1.366997 -0.393059,0.388008 -0.85775,0.695961 -1.368255,0.906738 -0.540551,0.220002 -1.119538,0.330002 -1.70311,0.323563 z m -0.02383,-1.684296 c 0.447808,0.009 0.889611,-0.104164 1.277954,-0.327324 0.366257,-0.218216 0.664238,-0.534446 0.860337,-0.913009 0.213348,-0.419937 0.319755,-0.88604 0.309768,-1.356964 0.0041,-0.356316 -0.05532,-0.710511 -0.175575,-1.045944 -0.109299,-0.30449 -0.280052,-0.583252 -0.501656,-0.818947 -0.219268,-0.231186 -0.48693,-0.411057 -0.783828,-0.526734 -0.316979,-0.12313 -0.65448,-0.184845 -0.994522,-0.181846 -0.452019,-0.0097 -0.898422,0.101585 -1.293007,0.322311 -0.367249,0.210976 -0.665604,0.523705 -0.859078,0.900467 -0.210662,0.41848 -0.315307,0.882301 -0.304756,1.350693 -0.0044,0.362472 0.05503,0.722885 0.175583,1.064758 0.10862,0.306671 0.279404,0.587608 0.501648,0.825211 0.218323,0.229416 0.483536,0.409073 0.777557,0.526733 0.320145,0.124176 0.661217,0.185494 1.004563,0.180595 h 0.005 z"
   id="path18" />
				<path
   d="m 74.386764,72.165779 c -0.601753,0.01541 -1.200004,-0.09611 -1.755783,-0.327331 -0.476547,-0.216248 -0.903457,-0.528321 -1.254127,-0.916764 -0.04698,-0.04861 -0.04698,-0.125717 0,-0.174324 L 72.3927,69.731514 c 0.04806,-0.04987 0.127465,-0.05133 0.17733,-0.0033 0.0011,0.0011 0.0022,0.0022 0.0033,0.0033 0.228447,0.247253 0.497329,0.453789 0.79512,0.610763 0.350578,0.173188 0.737778,0.259232 1.128715,0.250824 0.313218,0.01793 0.624749,-0.05712 0.895447,-0.215713 0.204682,-0.126167 0.326935,-0.35157 0.32106,-0.59195 0.0077,-0.196991 -0.06363,-0.388893 -0.198158,-0.533004 -0.160027,-0.155579 -0.348701,-0.278664 -0.55558,-0.362442 -0.23452,-0.100327 -0.487854,-0.1969 -0.761253,-0.285942 -0.280091,-0.09298 -0.555123,-0.20057 -0.823967,-0.322312 -0.271142,-0.120331 -0.526398,-0.273659 -0.760003,-0.456497 -0.235359,-0.184563 -0.425392,-0.420502 -0.555572,-0.689774 -0.150078,-0.32592 -0.222214,-0.682296 -0.210693,-1.040924 -0.04152,-0.94506 0.521766,-1.812164 1.402114,-2.158355 0.476868,-0.19719 0.988984,-0.294919 1.504952,-0.287198 0.5457,-0.0077 1.087234,0.09601 1.591492,0.304753 0.410217,0.168792 0.783119,0.416824 1.097358,0.729904 0.0478,0.04877 0.0478,0.126808 0,0.175575 l -1.029632,1.02964 c -0.04878,0.04918 -0.128182,0.04951 -0.177361,7.33e-4 -2.44e-4,-2.44e-4 -4.88e-4,-4.88e-4 -7.32e-4,-7.33e-4 -0.194885,-0.195678 -0.419678,-0.359085 -0.665939,-0.484092 -0.264061,-0.127968 -0.55439,-0.192391 -0.847794,-0.188118 -0.265503,-0.01326 -0.529251,0.04984 -0.760002,0.181846 -0.180992,0.109803 -0.28846,0.308899 -0.280922,0.520462 -0.0078,0.190216 0.06943,0.374031 0.210693,0.501656 0.163788,0.143478 0.351952,0.256462 0.55558,0.333595 0.2295,0.09406 0.484086,0.186867 0.760003,0.28093 0.275909,0.09405 0.554321,0.200661 0.831481,0.322311 0.273118,0.118981 0.52678,0.278366 0.75248,0.472801 0.231842,0.2025 0.420754,0.44941 0.55558,0.726143 0.155434,0.34079 0.229698,0.712983 0.216965,1.087326 0,0.787598 -0.280922,1.405884 -0.842774,1.854859 -0.561851,0.448982 -1.340248,0.671379 -2.33519,0.667198 z"
   id="path19" />
				<path
   d="m 101.72677,72.036606 h 1.68178 c 0.0693,-2.06e-4 0.12524,-0.05653 0.12503,-0.125786 -3e-5,-0.01531 -0.003,-0.0305 -0.008,-0.04478 l -3.13532,-8.008865 c -0.019,-0.04775 -0.0652,-0.07906 -0.11664,-0.07901 h -1.504948 c -0.05139,-5e-5 -0.09762,0.03126 -0.11663,0.07901 l -3.174195,8.008865 c -0.02494,0.06461 0.0072,0.137215 0.07185,0.162148 0.01428,0.0055 0.02947,0.0084 0.04478,0.0084 h 1.630363 c 0.05249,1.68e-4 0.09953,-0.03236 0.11789,-0.08152 l 0.496635,-1.321854 c 0.01836,-0.04916 0.06541,-0.08169 0.11789,-0.08152 h 3.056315 c 0.0528,2.3e-5 0.0999,0.03312 0.11789,0.08277 l 0.47029,1.315583 c 0.0175,0.05385 0.0689,0.0893 0.12542,0.08654 z m -3.245691,-3.151627 0.900467,-2.439285 c 0.02363,-0.0651 0.09557,-0.09873 0.160667,-0.0751 0.03493,0.01267 0.06243,0.04018 0.0751,0.0751 l 0.877897,2.439285 c 0.0236,0.06513 -0.0102,0.137032 -0.0753,0.160576 -0.0137,0.0049 -0.0281,0.0075 -0.0426,0.0075 h -1.780866 c -0.06925,-0.0014 -0.124244,-0.05869 -0.122833,-0.127945 2.82e-4,-0.01369 0.0028,-0.02724 0.0075,-0.04011 z"
   id="path20" />
				<path
   d="m 107.17345,72.165779 c -0.63121,0.01408 -1.25511,-0.137245 -1.80971,-0.43895 -0.50885,-0.281921 -0.92986,-0.69902 -1.21651,-1.205215 -0.29755,-0.5299 -0.44903,-1.129326 -0.43894,-1.736969 V 63.90358 c 0,-0.06926 0.0561,-0.125412 0.12541,-0.125412 h 1.59776 c 0.0693,0 0.12541,0.05615 0.12541,0.125412 v 4.975128 c -0.008,0.302726 0.0662,0.60199 0.21571,0.865349 0.13686,0.234871 0.33786,0.425857 0.5794,0.55056 0.25403,0.127113 0.53493,0.191208 0.81896,0.186866 0.27836,0.0039 0.55347,-0.0602 0.80138,-0.186866 0.23626,-0.123589 0.42986,-0.31543 0.55558,-0.55056 0.13802,-0.2631 0.20664,-0.557053 0.19941,-0.854065 V 63.90358 c 0,-0.06926 0.0561,-0.125412 0.12541,-0.125412 h 1.60905 c 0.0693,0 0.12542,0.05615 0.12542,0.125412 v 4.891098 c 0.0106,0.604934 -0.1386,1.20195 -0.43268,1.730697 -0.28439,0.502465 -0.70128,0.917191 -1.20521,1.198952 -0.54304,0.300224 -1.15545,0.452461 -1.77585,0.441452 z"
   id="path21" />
				<path
   d="m 119.13532,66.235001 c -0.21323,-0.494263 -0.52569,-0.939476 -0.91802,-1.308052 -0.39815,-0.374016 -0.86724,-0.664429 -1.37954,-0.854065 -0.55182,-0.203755 -1.13624,-0.304913 -1.72443,-0.298481 h -3.19802 c -0.0693,0 -0.12542,0.05615 -0.12542,0.125415 v 8.011368 c 0,0.06927 0.0562,0.12542 0.12542,0.12542 h 3.22059 c 0.58534,0.0059 1.16667,-0.09703 1.7144,-0.303505 0.51245,-0.19223 0.98144,-0.484711 1.37954,-0.860329 0.3871,-0.369392 0.69515,-0.813553 0.90548,-1.305549 0.22274,-0.523186 0.33461,-1.086861 0.32859,-1.655449 0.008,-0.575691 -0.10362,-1.14679 -0.32859,-1.676773 z m -1.88119,3.00991 c -0.20317,0.376236 -0.49036,0.79763 -0.86033,1.003304 -0.40185,0.210655 -0.85071,0.315529 -1.3043,0.304756 h -1.3231 c -0.0693,0 -0.12542,-0.05615 -0.12542,-0.125412 v -4.980148 c 0,-0.06926 0.0562,-0.125412 0.12542,-0.125412 h 1.32561 c 0.44911,-0.0095 0.89351,0.09308 1.29301,0.298484 0.37098,0.223908 0.67101,0.548279 0.86535,0.935578 0.21492,0.413071 0.32151,0.873924 0.30976,1.339409 0.0111,0.469139 -0.0945,0.933685 -0.30725,1.351951 z"
   id="path22" />
				<path
   d="M 120.35935,71.911186 V 63.90358 c 0,-0.06926 0.0561,-0.125412 0.12541,-0.125412 h 1.59651 c 0.0693,0 0.12541,0.05615 0.12541,0.125412 v 8.007606 c 0,0.06927 -0.0561,0.12542 -0.12541,0.12542 h -1.59651 c -0.0693,0 -0.12541,-0.05615 -0.12541,-0.12542 z"
   id="path23" />
				<path
   d="m 127.49033,72.177063 c -0.59324,0.0059 -1.1818,-0.105301 -1.73195,-0.327324 -0.51894,-0.210441 -0.9918,-0.520149 -1.39209,-0.911751 -0.39631,-0.387901 -0.71064,-0.851493 -0.92429,-1.363243 -0.2208,-0.532081 -0.33213,-1.10321 -0.32732,-1.679275 -0.006,-0.57779 0.10545,-1.150772 0.32732,-1.684296 0.42845,-1.030876 1.25518,-1.844948 2.29255,-2.257431 0.551,-0.218594 1.13921,-0.328056 1.73196,-0.322311 0.58661,-0.0054 1.16859,0.10408 1.71313,0.322311 0.51868,0.208656 0.99156,0.516678 1.39208,0.906738 0.39639,0.384102 0.70897,0.846123 0.91803,1.356964 0.21778,0.536736 0.32692,1.111351 0.32106,1.690567 0.005,0.575669 -0.10643,1.146409 -0.32734,1.678025 -0.21054,0.509628 -0.52047,0.972206 -0.91175,1.360725 -0.39652,0.38813 -0.86518,0.694885 -1.37954,0.902977 -0.53982,0.221352 -1.11843,0.332634 -1.70185,0.327324 z m -0.0238,-1.684296 c 0.45077,0.0106 0.89582,-0.102615 1.28673,-0.327324 0.36617,-0.217926 0.66382,-0.534263 0.85907,-0.913009 0.21438,-0.419609 0.32126,-0.885872 0.31102,-1.356964 0.004,-0.356316 -0.0553,-0.710511 -0.17558,-1.045944 -0.10989,-0.3042 -0.28058,-0.58284 -0.50165,-0.818947 -0.21927,-0.231186 -0.48692,-0.411057 -0.78383,-0.526734 -0.31697,-0.12313 -0.65448,-0.184845 -0.99452,-0.181846 -0.45204,-0.0099 -0.89849,0.10141 -1.293,0.322311 -0.36724,0.210976 -0.6656,0.523705 -0.85907,0.900467 -0.21067,0.41848 -0.31532,0.882301 -0.30476,1.350693 -0.004,0.362472 0.055,0.722885 0.17558,1.064758 0.10862,0.306671 0.2794,0.587608 0.50165,0.825211 0.21832,0.229416 0.48354,0.409073 0.77757,0.526733 0.31892,0.123825 0.65869,0.185135 1.00079,0.180595 z"
   id="path24" />
			</g>
		</g>
	</g>
	<path
   d="m 135.51962,122.99937 h -1.25 v 0.19999 h 1.25 z m -3.57,0.61 c -0.17595,0.0887 -0.32456,0.22352 -0.43,0.39 h 0.43 z m 6.49,1.87 -0.47,0.48 v 0.25 h 0.57001 v -0.73 z m -4.25,3.84 -2.42999,-2.57 0.39999,4.64 z m 0.48,0 2.33,2.44999 0.47999,-5.18 v 0 -0.08 z m -3,-3.12001 2.72,2.87001 1.61,-1.64 h -2.23 v -0.86 h 2.63001 v 0.5 l 1,-1.06 v -0.91 h 0.17999 l 0.06,-0.65001 h -6.12 z m 6.58,7.43 c 0.005,0.0699 0.005,0.14009 0,0.21001 3e-5,0.68095 -0.54907,1.23451 -1.23,1.24001 -0.45848,0.002 -0.87954,-0.25267 -1.08999,-0.66001 h -3 v 0.58 h -0.79 v -0.64 c -0.0964,-0.0248 -0.17016,-0.10246 -0.19,-0.19999 l -0.17,-2 -4.20999,4.28999 -0.25,-0.25 4.42,-4.5 -0.48,-5.54001 -4.19999,-4.44 v -0.49 l 4.16,4.38 -0.11,-1.27 h -0.52 v -0.33999 h 0.46 c -0.007,-0.0262 -0.007,-0.0538 0,-0.08 0.17569,-0.35725 0.47902,-0.63559 0.85001,-0.78 v -0.28 h 0.72999 v 0 c 0.38228,-0.0814 0.76998,-0.13483 1.16001,-0.16001 v -0.16999 h 2.11 v 1.05999 h -2.03003 v -0.44999 c -0.39034,0.0279 -0.77806,0.0847 -1.16,0.16999 v 0.69001 h 5 c -0.2,-0.46 -1,-0.68 -1.72001,-0.77 v -0.44 c 0.71416,0.0259 1.39827,0.29394 1.94001,0.76 0.10907,-0.13631 0.27546,-0.21397 0.44999,-0.21 0.31481,-1e-5 0.57001,0.25519 0.57001,0.56999 v 10e-6 c -0.005,0.31256 -0.25745,0.56466 -0.57001,0.57 -0.0725,0.016 -0.14753,0.016 -0.22,0 l -0.07,0.67 h 0.29 l 3.75999,-3.84 v 0.49 l -3.26997,3.27 v 0 1.48999 h -1 l -0.52001,5.6 3.86001,4.06002 -0.25,0.24 z m -2.46001,0.21001 c 0.005,-0.6248 0.47032,-1.15005 1.09,-1.23001 v -0.37999 l -2.53,-2.66 -2.23,2.28 0.18,2.13999 h 3.57002 c 0,-0.08 0,-0.12999 0,-0.17999 z m 0.60001,0 c 4.9e-4,0.35346 0.28741,0.6396 0.64088,0.63912 0.35277,-4.8e-4 0.63863,-0.28634 0.63912,-0.63912 0,-0.35345 -0.28655,-0.64 -0.64,-0.64 -0.32651,0.0201 -0.58528,0.28322 -0.59999,0.61 z m 0.22,0 c 0,-0.23196 0.18803,-0.42 0.42,-0.42 0.23196,6.9e-4 0.41945,0.18927 0.41876,0.42124 -6.9e-4,0.23098 -0.18778,0.41807 -0.41876,0.41876 -0.22824,-0.0212 -0.39734,-0.22144 -0.37999,-0.45 z m -8.36,5.74001 h 12.42 v 3 h -12.37999 z"
   id="path25" />
	<g
   id="Réteg_8_00000106832397791466767830000016734050564065500824_">
		<g
   id="g39_00000073686125036842783120000003539164564327151268_">
			<g
   id="g33_00000068640588301118549580000012660620298127425936_">
				<path
   id="path25_00000047761989866936687420000015418336820537711771_"
   d="m 60.069634,121.15937 v 9.34 h 20.25 v -9.34 H 79.51963 v 8.52001 H 60.869633 v -7.68001 h 15.850002 v -0.82 H 60.069634 Z" />
				<path
   id="path27_00000151508988794959863770000011608068351474231952_"
   d="m 64.869636,125.92937 c 0.03387,-0.51322 -0.0411,-1.0278 -0.220001,-1.51 -0.138229,-0.29736 -0.455658,-0.46828 -0.780002,-0.42 -0.308022,-0.005 -0.588433,0.17694 -0.709999,0.46 -0.276429,0.98089 -0.276429,2.0191 0,3 0.122474,0.28099 0.403614,0.45918 0.709999,0.44999 0.307949,0.015 0.592106,-0.16511 0.710003,-0.44999 0.178901,-0.48221 0.253875,-0.99679 0.220001,-1.51001 m 0.68,0 c 0.04608,0.64862 -0.0926,1.29701 -0.400001,1.87001 -0.259247,0.41278 -0.723526,0.65068 -1.210003,0.62001 -0.483563,0.0285 -0.945313,-0.20432 -1.209999,-0.61001 -0.298275,-0.57964 -0.433098,-1.22955 -0.39,-1.88 -0.0433,-0.64726 0.09158,-1.294 0.39,-1.87 0.259246,-0.41278 0.723526,-0.65068 1.209999,-0.62 0.487407,-0.0352 0.953884,0.20382 1.210003,0.62 0.307396,0.573 0.446083,1.22139 0.400001,1.87" />
				<path
   id="path29_00000119838640265805836740000014019933881567833780_"
   d="m 69.129639,123.68937 v 0.66 c -0.184021,-0.12051 -0.382172,-0.21791 -0.589997,-0.29 -0.194526,-0.0592 -0.396675,-0.0895 -0.599998,-0.09 -0.260094,-0.0147 -0.517479,0.0593 -0.730003,0.20999 -0.179604,0.13741 -0.28048,0.35411 -0.269997,0.58001 -0.01205,0.17847 0.05357,0.35346 0.18,0.48 0.18956,0.1467 0.413178,0.24302 0.650002,0.28 l 0.339996,0.08 c 0.376923,0.0595 0.726212,0.23418 1,0.5 0.215561,0.25665 0.326279,0.58523 0.309998,0.92 0.01402,0.38097 -0.143837,0.7481 -0.430001,1 -0.353607,0.26353 -0.790107,0.39128 -1.230003,0.36 -0.228539,0.001 -0.456558,-0.022 -0.68,-0.07 -0.236672,-0.0505 -0.467797,-0.12416 -0.690003,-0.22 v -0.69001 c 0.217583,0.14324 0.452896,0.25753 0.699997,0.33999 0.215027,0.0762 0.441902,0.11343 0.669998,0.11 0.271378,0.0189 0.540665,-0.0591 0.760002,-0.22 0.188195,-0.14474 0.292946,-0.37294 0.279999,-0.61 0.01214,-0.20128 -0.05621,-0.39913 -0.190002,-0.55 -0.18853,-0.15831 -0.416763,-0.26206 -0.660004,-0.30001 l -0.339996,-0.08 c -0.368752,-0.0539 -0.715103,-0.20976 -1,-0.44999 -0.212486,-0.21858 -0.324753,-0.51552 -0.309998,-0.82 -0.0059,-0.37941 0.150574,-0.74327 0.430001,-1 0.323883,-0.27122 0.738052,-0.41047 1.160003,-0.39 0.194794,0.002 0.388993,0.0218 0.580002,0.06 0.217697,0.0476 0.43161,0.11109 0.639999,0.19001" />
				<path
   id="path31_00000149352531188993285670000000118996949032904606_"
   d="m 70.27964,123.51936 h 0.650002 v 2 h 1.779999 v -2 h 0.650001 v 4.81 h -0.650001 v -2.32999 h -1.780007 v 2.29 h -0.650001 v -4.81" />
			</g>
			<path
   id="path35_00000156557054618539725900000010204064508153237124_"
   d="m 73.799637,123.51936 h 0.639999 l 0.459999,3.9 0.540001,-2.58 h 0.68 l 0.550004,2.59 1.559997,-7.42999 h 0.64 l -1.82,8.37 h -0.610001 l -0.660003,-2.86 -0.650002,2.86 H 74.51963 l -0.720001,-4.81" />
			<g
   id="text37-2_00000105428600583275909750000013163482885969913236_">
				<path
   id="path307_00000150823600617649134710000018004253120409562755_"
   d="m 60.089634,132.54938 h 0.43 v 1.28999 h 1.16 v -1.29001 h 0.43 v 3.14002 h -0.43 v -1.5 h -1.16 v 1.5 h -0.43 z" />
				<path
   id="path309_00000108306715782365688890000013146404542455416224_"
   d="m 62.709633,134.48938 v -1.94 h 0.43 v 2.13 c -0.0064,0.10991 -0.0064,0.2201 0,0.33 -0.007,0.0498 -0.007,0.10024 0,0.15 0.04834,0.0802 0.117443,0.14583 0.200001,0.19 0.09752,0.043 0.203476,0.0635 0.310001,0.06 0.106423,0.002 0.212098,-0.0182 0.310002,-0.06 0.07949,-0.0448 0.145199,-0.11052 0.190006,-0.19 0.0071,-0.0497 0.0071,-0.10025 0,-0.15 0.0066,-0.10989 0.0066,-0.2201 0,-0.33 v -2.13 h 0.43 v 1.94 c 0.01274,0.22894 -0.01089,0.45845 -0.07,0.67999 -0.02788,0.13208 -0.0981,0.25147 -0.199997,0.34 -0.09349,0.0809 -0.202324,0.1421 -0.320004,0.17999 -0.260635,0.0802 -0.539364,0.0802 -0.799999,0 -0.117676,-0.0379 -0.226509,-0.0991 -0.32,-0.17999 -0.101551,-0.0905 -0.174522,-0.20867 -0.209999,-0.34 -0.01161,-0.22786 0.0052,-0.45628 0.04999,-0.67999 z" />
				<path
   id="path311_00000023280158063460405520000004891944326822160018_"
   d="m 66.019638,134.10937 c -0.0055,-0.14901 0.110802,-0.27429 0.259819,-0.27981 0.0034,-1.2e-4 0.0068,-1.8e-4 0.01018,-1.8e-4 0.07467,-10e-4 0.146667,0.0277 0.199997,0.08 0.05595,0.0516 0.08844,0.12387 0.09,0.19999 0.0024,0.077 -0.0308,0.15076 -0.09,0.2 -0.05029,0.0568 -0.124436,0.0864 -0.199997,0.08 -0.0751,0.003 -0.148033,-0.0257 -0.199997,-0.08 -0.04961,-0.0543 -0.07489,-0.12657 -0.07,-0.2 z m 0.279999,-1.27999 c -0.203453,-0.002 -0.385079,0.12718 -0.449997,0.32 -0.116463,0.31978 -0.164169,0.66054 -0.139999,1 -0.02241,0.3394 0.02524,0.6798 0.139999,1 0.06989,0.18908 0.248451,0.31606 0.449997,0.32001 0.199776,-0.002 0.376259,-0.13066 0.440002,-0.32001 0.118996,-0.31927 0.170082,-0.65986 0.150002,-1 0.0219,-0.34021 -0.02925,-0.68118 -0.150002,-1 -0.0611,-0.19127 -0.239212,-0.3208 -0.440002,-0.32 z m 0,-0.34 c 0.309059,-0.0118 0.600128,0.14525 0.760002,0.41 0.193588,0.37632 0.28334,0.79746 0.260002,1.22 0.02582,0.42275 -0.06406,0.84453 -0.260002,1.22001 -0.1567,0.26806 -0.449921,0.42625 -0.760002,0.41 -0.310608,0.0186 -0.604981,-0.14021 -0.760002,-0.41 -0.200432,-0.37384 -0.290596,-0.79692 -0.260002,-1.22001 -0.02843,-0.42292 0.06161,-0.84541 0.260002,-1.22 0.15831,-0.2664 0.450431,-0.42399 0.760002,-0.41 z" />
				<path
   id="path313_00000005267813581436669030000009932712191701550260_"
   d="m 68.609634,134.10937 c 0.0028,-0.0739 0.03102,-0.14457 0.08,-0.19999 0.05447,-0.0505 0.125725,-0.079 0.199997,-0.08 0.07467,-10e-4 0.146668,0.0277 0.199997,0.08 0.05595,0.0516 0.08844,0.12387 0.09,0.19999 0.0024,0.077 -0.0308,0.15076 -0.09,0.2 -0.111999,0.10668 -0.288002,0.10668 -0.400001,0 -0.05227,-0.0533 -0.08106,-0.12533 -0.07999,-0.2 z m 0.279999,-1.27999 c -0.199775,0.002 -0.376259,0.13066 -0.440002,0.32 -0.120751,0.31882 -0.171898,0.65979 -0.150002,1 -0.02008,0.34014 0.03101,0.68073 0.150002,1 0.08353,0.24578 0.350479,0.37729 0.596245,0.29375 0.138229,-0.047 0.246772,-0.15552 0.293754,-0.29375 0.118996,-0.31927 0.170082,-0.65986 0.150002,-1 0.0219,-0.34021 -0.02925,-0.68118 -0.150002,-1 -0.06706,-0.20009 -0.259254,-0.33094 -0.469993,-0.32 z m 0,-0.34 c 0.309571,-0.014 0.601685,0.14362 0.760002,0.41 0.198387,0.37459 0.28843,0.79708 0.260002,1.22 0.03059,0.42309 -0.05957,0.84617 -0.260002,1.22001 -0.155021,0.26979 -0.449394,0.4286 -0.760002,0.41 -0.310081,0.0162 -0.603302,-0.14194 -0.760002,-0.41 -0.192001,-0.37662 -0.278396,-0.79822 -0.25,-1.22001 -0.02594,-0.42161 0.06032,-0.84257 0.25,-1.22 0.156304,-0.25843 0.438011,-0.41452 0.740006,-0.41002 z" />
				<path
   id="path315_00000004524814512414440740000007111863637791334039_"
   d="m 71.209633,134.10937 c 0.0028,-0.0739 0.03102,-0.14457 0.08,-0.19999 0.111999,-0.10668 0.288002,-0.10668 0.400001,0 0.05325,0.0527 0.08223,0.12512 0.08,0.19999 0.0023,0.15462 -0.121277,0.2818 -0.275902,0.28405 -0.07667,0.001 -0.150444,-0.0293 -0.204101,-0.084 -0.05227,-0.0533 -0.08107,-0.12533 -0.08,-0.2 z m 0.279999,-1.27999 c -0.200791,-8e-4 -0.378899,0.12873 -0.440003,0.32 -0.12075,0.31882 -0.171898,0.65979 -0.150001,1 -0.02008,0.34014 0.03101,0.68073 0.150001,1 0.06374,0.18935 0.240227,0.31771 0.440003,0.32001 0.201545,-0.004 0.380104,-0.13093 0.449997,-0.32001 0.109611,-0.32145 0.157119,-0.66081 0.139999,-1 0.01862,-0.33926 -0.02893,-0.67889 -0.139999,-1 -0.06492,-0.19282 -0.246537,-0.32199 -0.449997,-0.32 z m 0,-0.34 c 0.30957,-0.014 0.601684,0.14362 0.760002,0.41 0.198387,0.37459 0.288429,0.79708 0.260002,1.22 0.03059,0.42309 -0.05957,0.84617 -0.260002,1.22001 -0.155022,0.26979 -0.449394,0.4286 -0.760002,0.41 -0.310082,0.0162 -0.603302,-0.14194 -0.760002,-0.41 -0.195938,-0.37548 -0.285828,-0.79726 -0.260002,-1.22001 -0.02334,-0.42254 0.06641,-0.84368 0.260002,-1.22 0.159874,-0.26477 0.450942,-0.4218 0.760002,-0.41 z" />
				<path
   id="path317_00000002381763126908608230000009281736085075900820_"
   d="m 73.809639,134.10937 c 0.0028,-0.0739 0.03102,-0.14457 0.08,-0.19999 0.05333,-0.0523 0.125328,-0.0811 0.199997,-0.08 0.149009,-0.006 0.274368,0.11061 0.279999,0.25961 2.59e-4,0.007 2.59e-4,0.0136 0,0.0204 0.0011,0.0747 -0.02773,0.14667 -0.08,0.2 -0.05196,0.0543 -0.124901,0.0835 -0.199997,0.08 -0.07556,0.006 -0.149712,-0.0232 -0.199997,-0.08 -0.05227,-0.0533 -0.08107,-0.12533 -0.08,-0.2 z m 0.279999,-1.27999 c -0.201843,-0.004 -0.381722,0.12671 -0.440003,0.32 -0.12075,0.31882 -0.171897,0.65979 -0.150001,1 -0.02008,0.34014 0.03101,0.68073 0.150001,1 0.0741,0.24301 0.331162,0.37993 0.574166,0.30584 0.146499,-0.0447 0.261162,-0.15934 0.305832,-0.30584 0.118995,-0.31927 0.170082,-0.65986 0.150001,-1 0.0219,-0.34021 -0.02925,-0.68118 -0.150001,-1 -0.05828,-0.19329 -0.238152,-0.32411 -0.439995,-0.32 z m 0,-0.34 c 0.30957,-0.014 0.601684,0.14362 0.760002,0.41 0.193588,0.37632 0.28334,0.79746 0.260002,1.22 0.02583,0.42275 -0.06406,0.84453 -0.260002,1.22001 -0.276421,0.41973 -0.840767,0.53592 -1.260498,0.25949 -0.103226,-0.068 -0.191521,-0.15627 -0.259499,-0.25949 -0.195938,-0.37548 -0.285827,-0.79726 -0.260002,-1.22001 -0.02334,-0.42254 0.06641,-0.84368 0.260002,-1.22 0.15831,-0.26638 0.450432,-0.42399 0.759995,-0.41 z" />
				<path
   id="path319_00000167360728825913423420000008778820967584614585_"
   d="m 76.409638,134.10937 c -0.0055,-0.14901 0.110801,-0.27429 0.259818,-0.27981 0.0034,-1.2e-4 0.0068,-1.8e-4 0.01018,-1.8e-4 0.07737,3.9e-4 0.15197,0.0288 0.209999,0.08 0.04898,0.0554 0.07725,0.12608 0.08,0.19999 0.0059,0.14901 -0.110031,0.2746 -0.259026,0.28055 -0.01033,4.2e-4 -0.02067,2.3e-4 -0.03098,-5.5e-4 -0.07214,0.003 -0.141929,-0.0261 -0.190002,-0.08 -0.05676,-0.0503 -0.08643,-0.12443 -0.07999,-0.2 z m 0.279998,-1.27999 c -0.203453,-0.002 -0.385078,0.12718 -0.449997,0.32 -0.111068,0.32111 -0.158615,0.66074 -0.139999,1 -0.01712,0.33919 0.03039,0.67855 0.139999,1 0.06989,0.18908 0.248451,0.31606 0.449997,0.32001 0.200791,7.9e-4 0.378899,-0.12874 0.440003,-0.32001 0.118995,-0.31927 0.170082,-0.65986 0.150001,-1 0.0219,-0.34021 -0.02925,-0.68118 -0.150001,-1 -0.05828,-0.19329 -0.238159,-0.32412 -0.440003,-0.32 z m 0,-0.34 c 0.309059,-0.0118 0.600128,0.14525 0.760002,0.41 0.193589,0.37632 0.283341,0.79746 0.260002,1.22 0.02583,0.42275 -0.06406,0.84453 -0.260002,1.22001 -0.1567,0.26806 -0.44992,0.42625 -0.760002,0.41 -0.310608,0.0186 -0.60498,-0.14021 -0.760002,-0.41 -0.195938,-0.37548 -0.285828,-0.79726 -0.260002,-1.22001 -0.02334,-0.42254 0.06641,-0.84368 0.260002,-1.22 0.15831,-0.2664 0.450432,-0.42399 0.760002,-0.41 z" />
				<path
   id="path321_00000178905224577543408090000000838989121402738085_"
   d="m 80.079636,132.61937 v 0.38 c -0.09214,-0.0502 -0.189354,-0.0904 -0.290001,-0.12001 -0.102776,-0.0152 -0.207222,-0.0152 -0.309998,0 -0.241905,-0.014 -0.47345,0.0998 -0.610001,0.30001 -0.157005,0.27281 -0.230049,0.58587 -0.209999,0.89999 0.124665,-0.26855 0.393929,-0.44026 0.690003,-0.44 0.265609,-0.0113 0.523575,0.0905 0.709999,0.28 0.175285,0.22488 0.264,0.50522 0.25,0.78999 0.01794,0.28694 -0.07515,0.56979 -0.260002,0.78999 -0.186508,0.19564 -0.450325,0.29822 -0.720001,0.28 -0.320244,0.0238 -0.628914,-0.1248 -0.809998,-0.39 -0.196083,-0.38237 -0.282608,-0.81152 -0.25,-1.24 -0.02737,-0.42464 0.07743,-0.84734 0.300003,-1.21001 0.208626,-0.27896 0.54203,-0.43629 0.889999,-0.42 0.103074,-0.0104 0.206925,-0.0104 0.309998,0 0.106468,0.0227 0.210335,0.0562 0.309998,0.10004 z m -0.760003,1.38 c -0.165718,-0.0104 -0.326141,0.0604 -0.43,0.19001 -0.111732,0.15727 -0.168014,0.34723 -0.160004,0.53999 -0.0066,0.19569 0.0495,0.38837 0.160004,0.55 0.103859,0.12957 0.264282,0.20044 0.43,0.19001 0.161118,0.0129 0.318253,-0.0544 0.419999,-0.18 0.111099,-0.16469 0.163902,-0.36181 0.150001,-0.55999 0.01241,-0.19491 -0.04036,-0.3884 -0.150001,-0.55001 -0.101738,-0.12561 -0.258881,-0.19295 -0.419999,-0.18001 z" />
			</g>
		</g>
	</g>
	<g
   id="g28">
		<g
   id="g27">
			<path
   class="st1"
   d="m 91.508667,133.47539 v 2.11549 0 c -0.232017,0.0218 -0.466759,0.0355 -0.704239,0.0355 -3.933334,0 -7.137871,-3.20736 -7.137871,-7.13537 0,-3.928 3.204537,-7.13536 7.137871,-7.13536 0.23748,0 0.474953,0.0137 0.704239,0.0355 v 0 2.11549 0 c -0.232017,-0.0327 -0.466759,-0.0519 -0.704239,-0.0519 -2.773254,0 -5.038818,2.2629 -5.038818,5.03624 0,2.77336 2.262832,5.03625 5.038818,5.03625 0.23748,0 0.474953,-0.0191 0.704239,-0.0519 v 0 0 z"
   id="path26" />
			<path
   class="st1"
   d="m 98.14975,127.40186 h 4.12168 v 2.18101 h -4.12168 v 0 c 0.499511,2.25198 2.51395,3.94438 4.91598,3.94438 0.23748,0 0.47768,-0.0191 0.70697,-0.0519 v 0 2.11549 0 c -0.23474,0.0218 -0.46949,0.0355 -0.70697,0.0355 -3.930598,0 -7.135135,-3.20463 -7.135135,-7.13537 0,-3.93073 3.201806,-7.13536 7.135135,-7.13536 0.23749,0 0.47496,0.0137 0.70698,0.0355 v 0 2.11549 0 c -0.23475,-0.0327 -0.4695,-0.0519 -0.70698,-0.0519 -2.40203,0 -4.416461,1.6924 -4.91598,3.9471 v 0 0 z"
   id="path27" />
		</g>
	</g>
	<path
   d="m 123.30042,132.44583 c -1.00979,1.01337 -2.39683,1.63754 -3.93596,1.63754 -1.54048,0 -2.92706,-0.62417 -3.93685,-1.63754 -1.00875,-1.01439 -1.63045,-2.40817 -1.63045,-3.95447 0,-1.54718 0.6217,-2.93971 1.63045,-3.95465 1.00979,-1.01281 2.39637,-1.6379 3.93685,-1.6379 1.53913,0 2.92617,0.62509 3.93596,1.6379 0.2162,0.21804 0.41426,0.45449 0.59278,0.70493 l 1.23574,-0.9158 c -1.28944,-1.79798 -3.39064,-2.96913 -5.76448,-2.9702 -3.66659,0.001 -6.68206,2.79014 -7.06247,6.37212 h -2.69812 v -4.66783 h 3.36167 l 1.22024,-1.70429 h -6.01183 v 14.27073 l 1.42992,-1.05342 v -5.31781 h 2.69812 c 0.38041,3.58122 3.39588,6.37087 7.06247,6.37123 2.37384,0 4.47504,-1.17169 5.76448,-2.97003 l -1.23574,-0.91597 c -0.17852,0.25043 -0.37658,0.48725 -0.59278,0.70546 z"
   id="path28" />
	<path
   d="m 119.36446,125.92977 c 0.87104,0.002 1.63953,0.44223 2.09909,1.11265 l 1.23716,-0.91684 c -0.73925,-1.0512 -1.95823,-1.73776 -3.33625,-1.73826 -2.25669,5e-4 -4.08503,1.83705 -4.08503,4.10404 0,2.26647 1.82834,4.10265 4.08503,4.10332 1.37802,0 2.597,-0.68724 3.33625,-1.73807 l -1.23716,-0.91702 c -0.45956,0.67114 -1.22805,1.11038 -2.09909,1.11246 -1.40801,-0.003 -2.54734,-1.14679 -2.5494,-2.56069 0.002,-1.41444 1.14139,-2.55879 2.5494,-2.56159 z"
   id="path29" />
</g><g
     id="Layer_3">
	<g
   id="g34">
		<path
   d="m 131.28027,17.814453 c -0.42773,0 -0.6875,0.175781 -0.84375,0.355469 0.0361,-0.515625 0.2041,-1.011231 0.74805,-1.011231 0.23926,0 0.41895,0.107911 0.4834,0.287598 h 0.44726 c -0.0312,-0.227539 -0.20312,-0.6875 -0.93066,-0.6875 -1.02344,0 -1.20801,0.919434 -1.20801,1.515137 0,0.547851 0.14453,1.363281 1.16797,1.363281 0.73926,0 1.10742,-0.395508 1.10742,-0.911621 0,-0.511719 -0.33593,-0.911133 -0.97168,-0.911133 z m -0.1123,1.422852 c -0.41602,0 -0.66797,-0.227539 -0.66797,-0.523438 0,-0.332031 0.33594,-0.495605 0.7002,-0.495605 0.45996,0 0.5791,0.259765 0.5791,0.499511 0,0.315918 -0.21582,0.519532 -0.61133,0.519532 z"
   id="path30" />
		<rect
   x="132.90039"
   y="18.202148"
   width="1.3916016"
   height="0.41552731"
   id="rect30" />
		<path
   d="m 134.64453,17.342773 v 0.327637 h 0.73535 v 1.918945 h 0.47168 v -2.798339 h -0.39941 c -0.0439,0.271484 -0.31153,0.551757 -0.80762,0.551757 z"
   id="path31" />
		<path
   d="m 137.74414,17.726562 c -0.34766,0 -0.5957,0.123536 -0.75098,0.271485 l 0.0879,-0.779297 h 1.53516 v -0.427734 h -1.89551 l -0.17187,1.542968 h 0.51172 c 0.0879,-0.151855 0.28027,-0.235839 0.54004,-0.235839 0.48339,0 0.63574,0.291992 0.63574,0.595703 0,0.335937 -0.1836,0.55957 -0.61133,0.55957 -0.38379,0 -0.62012,-0.183594 -0.63184,-0.395508 h -0.49218 c 0.0205,0.319824 0.26367,0.779297 1.11523,0.779297 0.85547,0 1.10742,-0.463379 1.10742,-0.943359 0,-0.575684 -0.35547,-0.967286 -0.97949,-0.967286 z"
   id="path32" />
		<polygon
   points="140.55664,19.169434 139.65723,16.791016 139.15332,16.791016 140.24023,19.589355 140.95215,19.589355 142.04395,16.791016 141.54004,16.791016 140.63672,19.169434 "
   id="polygon32" />
		<path
   d="m 144.88867,16.791016 h -1.18359 v 2.798339 h 1.18359 c 1.19141,0 1.35547,-0.8833 1.35547,-1.399414 0,-0.519531 -0.16406,-1.398925 -1.35547,-1.398925 z m 0,2.350586 h -0.71191 v -1.935059 h 0.71191 c 0.64356,0 0.875,0.511719 0.875,0.983398 0,0.447754 -0.22754,0.951661 -0.875,0.951661 z"
   id="path33" />
		<path
   d="m 148.14355,19.217773 c -0.63574,0 -0.95507,-0.403808 -0.95507,-1.043457 0,-0.631836 0.31933,-1.015625 0.95507,-1.015625 0.43165,0 0.73145,0.215821 0.85157,0.543457 h 0.50781 c -0.084,-0.55957 -0.63965,-0.958984 -1.36328,-0.958984 -0.85938,0 -1.42285,0.527344 -1.42285,1.431152 0,0.92334 0.55078,1.458985 1.42285,1.458985 0.73144,0 1.26367,-0.383789 1.36328,-0.963379 h -0.50781 c -0.11621,0.32373 -0.42383,0.547851 -0.85157,0.547851 z"
   id="path34" />
	</g>
	<g
   id="g55">
		<path
   d="m 130.11621,26.629394 h 0.50781 l -1.0791,-2.798339 h -0.74023 l -1.08301,2.798339 h 0.50781 l 0.21582,-0.567871 h 1.45899 z m -1.51562,-0.983398 0.52832,-1.399414 h 0.0918 l 0.52344,1.399414 z"
   id="path35" />
		<path
   d="m 131.88086,26.677246 c 0.39258,0 0.67969,-0.111816 0.83984,-0.347656 h 0.0479 v 0.299805 h 0.44825 v -2.21875 h -0.44825 v 1.11914 c 0,0.388184 -0.13183,0.763672 -0.69921,0.763672 -0.4795,0 -0.66797,-0.227539 -0.66797,-0.691406 v -1.191406 h -0.44727 v 1.159179 c 0,0.476074 0.0762,1.107422 0.92676,1.107422 z"
   id="path36" />
		<path
   d="m 134.16504,25.85791 c 0,0.435547 0.0762,0.799317 0.68848,0.799317 0.18359,0 0.40332,-0.03174 0.57128,-0.07959 v -0.419922 c -0.15625,0.04004 -0.39941,0.07568 -0.54003,0.07568 -0.22754,0 -0.27149,-0.0957 -0.27149,-0.383789 v -1.019043 h 0.81152 v -0.419922 h -0.81152 v -0.66748 h -0.44824 v 0.66748 h -0.48731 v 0.419922 h 0.48731 z"
   id="path37" />
		<path
   d="m 137.03613,26.669434 c 0.77149,0 1.23926,-0.447754 1.23926,-1.163575 0,-0.835449 -0.63965,-1.143066 -1.23926,-1.143066 -0.60351,0 -1.23926,0.307617 -1.23926,1.143066 0,0.84375 0.63965,1.163575 1.23926,1.163575 z m 0,-1.918946 c 0.49219,0 0.78418,0.299805 0.78418,0.755371 0,0.447754 -0.2998,0.783692 -0.78418,0.783692 -0.49511,0 -0.78711,-0.315918 -0.78711,-0.783692 0,-0.459472 0.292,-0.755371 0.78711,-0.755371 z"
   id="path38" />
		<path
   d="m 139.18848,25.501953 c 0,-0.447754 0.23242,-0.751465 0.71191,-0.751465 0.44336,0 0.60352,0.259766 0.60352,0.715332 v 1.163574 h 0.44824 v -1.199218 c 0,-0.319825 0.17187,-0.679688 0.6709,-0.679688 0.41992,0 0.63965,0.247559 0.63965,0.715332 v 1.163574 h 0.44824 v -1.155273 c 0,-0.427734 -0.0723,-1.111328 -1.00781,-1.111328 -0.48731,0 -0.72754,0.203613 -0.88282,0.379394 -0.18066,-0.267578 -0.44824,-0.379394 -0.7959,-0.379394 -0.33984,0 -0.62402,0.10791 -0.79589,0.351562 h -0.04 v -0.303711 h -0.44727 v 2.21875 h 0.44727 v -1.127441 z"
   id="path39" />
		<path
   d="m 144.30566,26.677246 c 0.33985,0 0.69922,-0.119629 0.87891,-0.347656 h 0.0322 v 0.299805 h 0.44726 v -2.21875 h -0.44726 v 0.319824 h -0.04 c -0.17969,-0.23584 -0.52344,-0.367676 -0.86719,-0.367676 -0.74805,0 -1.13184,0.527344 -1.13184,1.15918 0,0.635742 0.38379,1.155273 1.12793,1.155273 z m 0.11524,-1.938965 c 0.56347,0 0.7959,0.37207 0.7959,0.779785 0,0.407715 -0.23243,0.783692 -0.7959,0.783692 -0.5752,0 -0.78711,-0.383789 -0.78711,-0.783692 0,-0.395996 0.21191,-0.779785 0.78711,-0.779785 z"
   id="path40" />
		<path
   d="m 146.6123,25.85791 c 0,0.435547 0.0762,0.799317 0.68848,0.799317 0.1836,0 0.40332,-0.03174 0.57129,-0.07959 v -0.419922 c -0.15625,0.04004 -0.39941,0.07568 -0.54004,0.07568 -0.22754,0 -0.27148,-0.0957 -0.27148,-0.383789 v -1.019043 h 0.81152 v -0.419922 h -0.81152 v -0.66748 h -0.44825 v 0.66748 h -0.4873 v 0.419922 h 0.4873 z"
   id="path41" />
		<rect
   x="148.39746"
   y="24.410645"
   width="0.4472656"
   height="2.21875"
   id="rect41" />
		<rect
   x="148.38086"
   y="23.699219"
   width="0.48046881"
   height="0.40771481"
   id="rect42" />
		<path
   d="m 150.48926,26.293457 c -0.43555,0 -0.72364,-0.311523 -0.72364,-0.775391 0,-0.45166 0.25586,-0.771484 0.72364,-0.771484 0.35156,0 0.53125,0.143555 0.64355,0.34375 h 0.5 c -0.0928,-0.45166 -0.52051,-0.727539 -1.14355,-0.727539 -0.71973,0 -1.17969,0.479492 -1.17969,1.155273 0,0.675781 0.45996,1.15918 1.17969,1.15918 0.62793,0 1.05957,-0.275879 1.14355,-0.727539 h -0.5 c -0.1123,0.187988 -0.29199,0.34375 -0.64355,0.34375 z"
   id="path42" />
		<path
   d="m 133.66602,29.806641 c 0,-0.775879 -0.51172,-0.975586 -1.17188,-0.975586 h -1.23926 v 2.79834 h 0.47168 v -0.84375 h 0.79199 c 0.63575,-10e-7 1.14747,-0.243653 1.14747,-0.979004 z m -1.93946,-0.563965 h 0.75196 c 0.43554,0 0.70703,0.10791 0.70703,0.563965 0,0.40332 -0.23535,0.567382 -0.667,0.567382 h -0.79199 z"
   id="path43" />
		<path
   d="m 135.28613,29.362793 c -0.60351,0 -1.23926,0.307617 -1.23926,1.143066 0,0.84375 0.63965,1.163575 1.23926,1.163575 0.77149,0 1.23926,-0.447754 1.23926,-1.163575 0,-0.835449 -0.63965,-1.143066 -1.23926,-1.143066 z m 0,1.926758 c -0.49511,0 -0.78711,-0.315918 -0.78711,-0.783692 0,-0.459472 0.292,-0.755371 0.78711,-0.755371 0.49219,0 0.78418,0.299805 0.78418,0.755371 0,0.447754 -0.2998,0.783692 -0.78418,0.783692 z"
   id="path44" />
		<rect
   x="136.99121"
   y="28.743164"
   width="0.4472656"
   height="2.8862305"
   id="rect44" />
		<path
   d="m 140.38867,31.629394 v -2.21875 h -0.44726 v 0.319825 h -0.04 c -0.17969,-0.23584 -0.52344,-0.367676 -0.86719,-0.367676 -0.74805,0 -1.13184,0.527344 -1.13184,1.15918 0,0.635742 0.38379,1.155273 1.12793,1.155273 0.33985,0 0.69922,-0.119629 0.87891,-0.347656 h 0.0322 v 0.299804 h 0.44726 z m -1.24316,-0.327636 c -0.5752,0 -0.78711,-0.383789 -0.78711,-0.783692 0,-0.395996 0.21191,-0.779785 0.78711,-0.779785 0.56347,0 0.7959,0.372071 0.7959,0.779785 0,0.407715 -0.23243,0.783692 -0.7959,0.783692 z"
   id="path45" />
		<path
   d="m 140.9668,29.410644 v 2.21875 h 0.44726 v -1.023437 c 0,-0.375977 0.18457,-0.779785 0.70801,-0.779785 0.14746,0 0.27539,0.01611 0.35938,0.03223 l 0.0723,-0.439941 c -0.0918,-0.02002 -0.20019,-0.04004 -0.32422,-0.04004 -0.39941,0 -0.61133,0.09619 -0.75488,0.348144 h -0.0606 v -0.315918 h -0.44726 z"
   id="path46" />
		<rect
   x="142.97949"
   y="29.410645"
   width="0.4472656"
   height="2.21875"
   id="rect46" />
		<rect
   x="142.96289"
   y="28.699219"
   width="0.48046881"
   height="0.40771481"
   id="rect47" />
		<path
   d="m 145.63379,31.157715 c -0.15625,0.04004 -0.39942,0.07568 -0.54004,0.07568 -0.22754,0 -0.27148,-0.0957 -0.27148,-0.383789 v -1.019043 h 0.81152 v -0.419922 h -0.81152 v -0.66748 h -0.44825 v 0.66748 h -0.4873 v 0.419922 h 0.4873 v 1.027344 c 0,0.435547 0.0762,0.799316 0.68848,0.799316 0.18359,0 0.40332,-0.03174 0.57129,-0.07959 z"
   id="path47" />
		<polygon
   points="147.05859,31.629395 146.71484,32.541016 147.19043,32.541016 148.38965,29.410645 147.91016,29.410645 147.16211,31.361328 146.41504,29.410645 145.93457,29.410645 146.80664,31.629395 "
   id="polygon47" />
		<path
   d="m 130.28418,33.831055 h -1.18359 v 2.79834 h 1.18359 c 1.19141,0 1.35449,-0.883301 1.35449,-1.399415 0,-0.519531 -0.16308,-1.398925 -1.35449,-1.398925 z m 0,2.350586 h -0.71191 v -1.935059 h 0.71191 c 0.64355,0 0.875,0.511719 0.875,0.983398 0,0.447754 -0.22754,0.951661 -0.875,0.951661 z"
   id="path48" />
		<path
   d="m 133.26465,34.362793 c -0.76758,0 -1.21192,0.423828 -1.21192,1.146973 0,0.731933 0.51563,1.16748 1.24707,1.16748 0.42774,0 0.9961,-0.163574 1.12403,-0.707519 h -0.47168 c -0.1084,0.195801 -0.32813,0.332031 -0.65625,0.332031 -0.5791,0 -0.7832,-0.379883 -0.7832,-0.679688 h 1.94726 c 0.0439,-0.763672 -0.43262,-1.259277 -1.19531,-1.259277 z m -0.74805,0.943359 c 0,-0.255859 0.23633,-0.567871 0.74805,-0.567871 0.49902,0 0.74316,0.299805 0.74316,0.567871 z"
   id="path49" />
		<path
   d="m 135.54785,33.743164 h -0.44824 v 0.667481 h -0.48731 v 0.419922 h 0.48731 v 1.027343 c 0,0.435547 0.0762,0.799317 0.68848,0.799317 0.18359,0 0.40332,-0.03174 0.57129,-0.07959 v -0.419922 c -0.15625,0.04004 -0.39942,0.07568 -0.54004,0.07568 -0.22754,0 -0.27149,-0.0957 -0.27149,-0.38379 v -1.019042 h 0.81152 v -0.419922 h -0.81152 z"
   id="path50" />
		<path
   d="m 137.94434,34.362793 c -0.76758,0 -1.21192,0.423828 -1.21192,1.146973 0,0.731933 0.51563,1.16748 1.24707,1.16748 0.42774,0 0.9961,-0.163574 1.12403,-0.707519 h -0.47168 c -0.1084,0.195801 -0.32813,0.332031 -0.65625,0.332031 -0.57911,0 -0.78321,-0.379883 -0.78321,-0.679688 h 1.94727 c 0.0439,-0.763672 -0.43262,-1.259277 -1.19531,-1.259277 z m -0.74805,0.943359 c 0,-0.255859 0.23633,-0.567871 0.74805,-0.567871 0.49902,0 0.74316,0.299805 0.74316,0.567871 z"
   id="path51" />
		<path
   d="m 140.67578,34.746582 c 0.35156,0 0.53125,0.143555 0.64356,0.34375 h 0.5 c -0.0928,-0.45166 -0.52051,-0.727539 -1.14356,-0.727539 -0.71973,0 -1.17969,0.479492 -1.17969,1.155273 0,0.675781 0.45996,1.15918 1.17969,1.15918 0.62695,0 1.05957,-0.275879 1.14356,-0.727539 h -0.5 c -0.11231,0.187988 -0.292,0.34375 -0.64356,0.34375 -0.43555,0 -0.72363,-0.311524 -0.72363,-0.775391 0,-0.45166 0.25586,-0.771484 0.72363,-0.771484 z"
   id="path52" />
		<path
   d="m 142.9043,33.743164 h -0.44825 v 0.667481 h -0.4873 v 0.419922 h 0.4873 v 1.027343 c 0,0.435547 0.0762,0.799317 0.68848,0.799317 0.1836,0 0.40332,-0.03174 0.57129,-0.07959 v -0.419922 c -0.15625,0.04004 -0.39941,0.07568 -0.54004,0.07568 -0.22754,0 -0.27148,-0.0957 -0.27148,-0.38379 v -1.019042 h 0.81152 V 34.410641 H 142.9043 V 33.74316 Z"
   id="path53" />
		<rect
   x="144.24121"
   y="34.410645"
   width="0.4472656"
   height="2.21875"
   id="rect53" />
		<rect
   x="144.22461"
   y="33.699219"
   width="0.48046881"
   height="0.40771481"
   id="rect54" />
		<path
   d="m 146.3916,34.362793 c -0.60351,0 -1.23926,0.307617 -1.23926,1.143066 0,0.84375 0.63965,1.163575 1.23926,1.163575 0.77149,0 1.23926,-0.447754 1.23926,-1.163575 0,-0.835449 -0.63965,-1.143066 -1.23926,-1.143066 z m 0,1.926758 c -0.49512,0 -0.78711,-0.315918 -0.78711,-0.783692 0,-0.459472 0.29199,-0.755371 0.78711,-0.755371 0.49219,0 0.78418,0.299805 0.78418,0.755371 0,0.447754 -0.2998,0.783692 -0.78418,0.783692 z"
   id="path54" />
		<path
   d="m 149.43164,34.362793 c -0.3916,0 -0.67969,0.111816 -0.83984,0.347656 h -0.0479 v -0.299804 h -0.44727 v 2.21875 h 0.44727 v -1.119629 c 0,-0.387696 0.13183,-0.763184 0.70019,-0.763184 0.47949,0 0.66699,0.227539 0.66699,0.691406 v 1.191406 h 0.44824 v -1.159179 c 0,-0.476074 -0.0762,-1.107422 -0.92773,-1.107422 z"
   id="path55" />
	</g>
	<g
   id="g79">
		<path
   d="m 39.081543,123.99707 c 0.731445,0 1.263672,-0.38379 1.363281,-0.96289 h -0.507812 c -0.116211,0.32324 -0.423828,0.54785 -0.851563,0.54785 -0.635742,0 -0.955078,-0.4043 -0.955078,-1.04394 0,-0.63184 0.319336,-1.01563 0.955078,-1.01563 0.431641,0 0.731446,0.21582 0.851563,0.54395 h 0.507812 c -0.08398,-0.55957 -0.639648,-0.95899 -1.363281,-0.95899 -0.859375,0 -1.422852,0.52735 -1.422852,1.43067 0,0.92382 0.550782,1.45898 1.422852,1.45898 z"
   id="path56" />
		<path
   d="m 43.116699,123.29395 h -0.47168 c -0.108398,0.19531 -0.328125,0.33203 -0.65625,0.33203 -0.579101,0 -0.783203,-0.37989 -0.783203,-0.67969 h 1.947266 c 0.04395,-0.76367 -0.432617,-1.25977 -1.195313,-1.25977 -0.767578,0 -1.211914,0.42383 -1.211914,1.14746 0,0.73145 0.515625,1.167 1.247071,1.167 0.427734,0 0.996093,-0.16309 1.124023,-0.70703 z m -1.15918,-1.23145 c 0.499024,0 0.743165,0.2998 0.743165,0.56738 h -1.491211 c 0,-0.25586 0.236328,-0.56738 0.748046,-0.56738 z"
   id="path57" />
		<path
   d="m 43.957519,122.92969 c 0,-0.37598 0.184571,-0.7793 0.708008,-0.7793 0.147461,0 0.275391,0.0156 0.359375,0.0322 l 0.07227,-0.44043 c -0.0918,-0.0195 -0.200195,-0.04 -0.324219,-0.04 -0.399414,0 -0.611328,0.0967 -0.754883,0.34863 h -0.06055 v -0.3164 h -0.447265 v 2.21875 h 0.447265 v -1.02344 z"
   id="path58" />
		<path
   d="m 45.781738,123.18164 c 0,0.43555 0.07617,0.79981 0.688477,0.79981 0.183594,0 0.40332,-0.0322 0.571289,-0.0801 v -0.41992 c -0.15625,0.04 -0.399414,0.0762 -0.540039,0.0762 -0.227539,0 -0.271484,-0.0957 -0.271484,-0.38379 v -1.01953 h 0.811523 v -0.41993 h -0.811523 v -0.66699 h -0.448243 v 0.66699 h -0.487304 v 0.41993 h 0.487304 z"
   id="path59" />
		<rect
   x="47.45459"
   y="121.73438"
   width="0.4472656"
   height="2.21875"
   id="rect59" />
		<rect
   x="47.437988"
   y="121.02344"
   width="0.48046881"
   height="0.40722659"
   id="rect60" />
		<path
   d="m 48.722168,123.95313 h 0.448242 v -1.8545 h 0.863281 v -0.36425 H 49.17041 v -0.13184 c 0,-0.25586 0.103516,-0.31543 0.391602,-0.31543 0.155273,0 0.351562,0.0156 0.511719,0.0361 v -0.37988 c -0.184571,-0.0283 -0.416016,-0.0527 -0.612305,-0.0527 -0.555664,0 -0.739258,0.22851 -0.739258,0.64453 v 0.19922 h -0.467773 v 0.36425 h 0.467773 z"
   id="path60" />
		<rect
   x="50.369629"
   y="121.02344"
   width="0.48046881"
   height="0.40722659"
   id="rect61" />
		<rect
   x="50.38623"
   y="121.73438"
   width="0.4472656"
   height="2.21875"
   id="rect62" />
		<path
   d="m 52.433106,124.00098 c 0.427734,0 0.996093,-0.16309 1.124023,-0.70703 h -0.47168 c -0.108398,0.19531 -0.328125,0.33203 -0.65625,0.33203 -0.579101,0 -0.783203,-0.37989 -0.783203,-0.67969 h 1.947266 c 0.04394,-0.76367 -0.432618,-1.25977 -1.195313,-1.25977 -0.767578,0 -1.211914,0.42383 -1.211914,1.14746 0,0.73145 0.515625,1.167 1.247071,1.167 z m -0.03516,-1.93848 c 0.499024,0 0.743164,0.2998 0.743164,0.56738 h -1.491211 c 0,-0.25586 0.236329,-0.56738 0.748047,-0.56738 z"
   id="path62" />
		<path
   d="m 54.965332,124.00098 c 0.339844,0 0.699219,-0.11914 0.878906,-0.34766 h 0.03223 v 0.29981 h 0.447265 v -2.88575 h -0.447265 v 0.98731 h -0.04004 c -0.179688,-0.23633 -0.523438,-0.36817 -0.867188,-0.36817 -0.748047,0 -1.131836,0.52735 -1.131836,1.15918 0,0.63575 0.383789,1.15528 1.12793,1.15528 z m 0.115234,-1.93848 c 0.564454,0 0.795899,0.37207 0.795899,0.7793 0,0.4082 -0.231445,0.78418 -0.795899,0.78418 -0.575195,0 -0.787109,-0.38379 -0.787109,-0.78418 0,-0.39551 0.211914,-0.7793 0.787109,-0.7793 z"
   id="path63" />
		<path
   d="m 29.365723,126.90723 c -0.875977,0 -1.462891,0.583 -1.462891,1.44238 0,0.87988 0.575195,1.44726 1.462891,1.44726 0.871093,0 1.451172,-0.5791 1.451172,-1.44726 -10e-7,-0.87109 -0.583985,-1.44238 -1.451172,-1.44238 z m 0.0039,2.47851 c -0.611328,0 -0.983399,-0.44433 -0.983399,-1.03613 0,-0.58301 0.372071,-1.03516 0.983399,-1.03516 0.607422,0 0.967773,0.45606 0.967773,1.03516 0,0.58398 -0.37207,1.03613 -0.967773,1.03613 z"
   id="path64" />
		<path
   d="m 32.590332,127.48633 c -0.339844,0 -0.700195,0.12012 -0.879883,0.34765 h -0.03223 v -0.2998 h -0.447266 v 3.13086 h 0.447266 v -1.23145 h 0.04004 c 0.179687,0.23536 0.523437,0.36719 0.868164,0.36719 0.74707,0 1.130859,-0.52734 1.130859,-1.15918 0,-0.63574 -0.383789,-1.15527 -1.126953,-1.15527 z m -0.116211,1.93945 c -0.563477,0 -0.795898,-0.37207 -0.795898,-0.78027 0,-0.40723 0.232422,-0.78321 0.795898,-0.78321 0.575195,0 0.787109,0.38379 0.787109,0.78321 1e-6,0.39648 -0.211914,0.78027 -0.787109,0.78027 z"
   id="path65" />
		<path
   d="m 36.32959,129.09375 h -0.47168 c -0.108398,0.19531 -0.328125,0.33203 -0.65625,0.33203 -0.579102,0 -0.783203,-0.37988 -0.783203,-0.67969 h 1.947266 c 0.04395,-0.76367 -0.432618,-1.25976 -1.195313,-1.25976 -0.767578,0 -1.211914,0.42383 -1.211914,1.14746 0,0.73144 0.515625,1.16699 1.24707,1.16699 0.427735,0 0.996094,-0.16308 1.124024,-0.70703 z m -1.15918,-1.23145 c 0.499024,0 0.743164,0.29981 0.743164,0.56739 h -1.491211 c 0,-0.25586 0.236328,-0.56739 0.748047,-0.56739 z"
   id="path66" />
		<path
   d="m 37.169434,128.63379 c 0,-0.3877 0.131835,-0.76367 0.700195,-0.76367 0.479492,0 0.666992,0.22754 0.666992,0.6914 v 1.19141 h 0.448242 v -1.15918 c 0,-0.47559 -0.07617,-1.10742 -0.927734,-1.10742 -0.391602,0 -0.679688,0.1123 -0.839844,0.34765 h -0.04785 v -0.2998 h -0.447266 v 2.21875 h 0.447266 v -1.11914 z"
   id="path67" />
		<rect
   x="39.502441"
   y="128.36621"
   width="1.3916016"
   height="0.41503909"
   id="rect67" />
		<path
   d="m 42.741699,129.38965 c -0.483398,0 -0.875976,-0.12403 -0.90332,-0.52442 h -0.479492 c 0.01953,0.7002 0.630859,0.93164 1.422851,0.93164 0.839844,0 1.203125,-0.32324 1.203125,-0.80371 0,-0.63964 -0.639648,-0.7832 -1.291015,-0.88671 -0.5,-0.0801 -0.763672,-0.22071 -0.763672,-0.44043 0,-0.1875 0.200195,-0.34766 0.667969,-0.34766 0.64746,0 0.783203,0.29199 0.798828,0.51562 h 0.484375 c -0.02832,-0.38378 -0.196289,-0.92675 -1.239258,-0.92675 -0.820313,0 -1.191406,0.33886 -1.191406,0.75879 0,0.57226 0.607422,0.75195 1.163086,0.84375 0.463867,0.0762 0.891601,0.16015 0.891601,0.48339 0,0.34864 -0.452148,0.39649 -0.763672,0.39649 z"
   id="path68" />
		<path
   d="m 46.76416,128.62988 c 0,-0.83593 -0.639648,-1.14355 -1.239258,-1.14355 -0.603515,0 -1.239257,0.30762 -1.239257,1.14355 0,0.84375 0.639648,1.16309 1.239257,1.16309 0.771485,0 1.239258,-0.44727 1.239258,-1.16309 z m -1.239258,0.78321 c -0.495117,0 -0.787109,-0.31543 -0.787109,-0.78321 0,-0.45996 0.291992,-0.75586 0.787109,-0.75586 0.492188,0 0.78418,0.29981 0.78418,0.75586 0,0.44727 -0.299805,0.78321 -0.78418,0.78321 z"
   id="path69" />
		<path
   d="m 48.04541,129.80078 c 0.392578,0 0.679688,-0.11133 0.839844,-0.34766 h 0.04785 v 0.29981 h 0.448242 v -2.21875 h -0.448242 v 1.11914 c 0,0.38867 -0.131836,0.76367 -0.699219,0.76367 -0.479492,0 -0.667969,-0.22754 -0.667969,-0.6914 v -1.19141 H 47.11865 v 1.15918 c 0,0.47656 0.07617,1.10742 0.926758,1.10742 z"
   id="path70" />
		<path
   d="m 49.846191,127.53418 v 2.21875 h 0.447266 v -1.02344 c 0,-0.37597 0.18457,-0.77929 0.708008,-0.77929 0.147461,0 0.27539,0.0156 0.359375,0.0322 l 0.07226,-0.44043 c -0.0918,-0.0195 -0.200195,-0.04 -0.324218,-0.04 -0.399414,0 -0.611328,0.0967 -0.754883,0.34864 h -0.06055 v -0.31641 h -0.447266 z"
   id="path71" />
		<path
   d="m 51.462402,128.6416 c 0,0.67578 0.459961,1.15918 1.179688,1.15918 0.62793,0 1.05957,-0.27539 1.143555,-0.72754 h -0.5 c -0.112305,0.18848 -0.291993,0.34375 -0.643555,0.34375 -0.435547,0 -0.723633,-0.31152 -0.723633,-0.77539 0,-0.45117 0.255859,-0.77148 0.723633,-0.77148 0.351562,0 0.53125,0.14355 0.643555,0.34375 h 0.5 c -0.09277,-0.45117 -0.520508,-0.72754 -1.143555,-0.72754 -0.719727,0 -1.179688,0.47949 -1.179688,1.15527 z"
   id="path72" />
		<path
   d="m 55.237793,127.48633 c -0.767578,0 -1.211914,0.42383 -1.211914,1.14746 0,0.73144 0.515625,1.16699 1.24707,1.16699 0.427735,0 0.996094,-0.16308 1.124024,-0.70703 h -0.47168 c -0.108398,0.19531 -0.328125,0.33203 -0.65625,0.33203 -0.579102,0 -0.783203,-0.37988 -0.783203,-0.67969 h 1.947266 c 0.04395,-0.76367 -0.432618,-1.25976 -1.195313,-1.25976 z m -0.748047,0.94336 c 0,-0.25586 0.236328,-0.56739 0.748047,-0.56739 0.499023,0 0.743164,0.29981 0.743164,0.56739 z"
   id="path73" />
		<polygon
   points="37.903809,135.55371 37.903809,132.75488 37.432129,132.75488 37.432129,133.94629 35.721191,133.94629 35.721191,132.75488 35.249512,132.75488 35.249512,135.55371 35.721191,135.55371 35.721191,134.3584 37.432129,134.3584 37.432129,135.55371 "
   id="polygon73" />
		<path
   d="m 40.348144,133.6543 h -0.04004 c -0.179687,-0.23535 -0.523437,-0.36719 -0.867187,-0.36719 -0.748047,0 -1.131836,0.52734 -1.131836,1.15918 0,0.63574 0.383789,1.15527 1.12793,1.15527 0.339843,0 0.699218,-0.12011 0.878906,-0.34765 h 0.03223 v 0.2998 h 0.447265 v -2.21875 h -0.447265 v 0.31934 z m -0.795898,1.57129 c -0.575195,0 -0.787109,-0.38379 -0.787109,-0.78321 0,-0.39648 0.211914,-0.78027 0.787109,-0.78027 0.563477,0 0.795898,0.37207 0.795898,0.78027 0,0.40723 -0.232421,0.78321 -0.795898,0.78321 z"
   id="path74" />
		<path
   d="m 41.769043,133.65039 h -0.06055 v -0.31543 h -0.447265 v 2.21875 h 0.447265 v -1.02344 c 0,-0.37597 0.18457,-0.78027 0.708008,-0.78027 0.147461,0 0.275391,0.0166 0.359375,0.0322 l 0.07227,-0.43946 c -0.0918,-0.0205 -0.200196,-0.04 -0.324219,-0.04 -0.399414,0 -0.611328,0.0957 -0.754883,0.34766 z"
   id="path75" />
		<path
   d="m 44.916504,133.6543 h -0.04004 c -0.179688,-0.23535 -0.523438,-0.36719 -0.867188,-0.36719 -0.748047,0 -1.131836,0.52734 -1.131836,1.15918 0,0.63574 0.38379,1.15527 1.12793,1.15527 0.339844,0 0.699219,-0.12011 0.878906,-0.34765 h 0.03223 v 0.2998 h 0.447266 v -2.88672 h -0.447266 v 0.98731 z m -0.795898,1.57129 c -0.575196,0 -0.78711,-0.38379 -0.78711,-0.78321 0,-0.39648 0.211914,-0.78027 0.78711,-0.78027 0.563476,0 0.795898,0.37207 0.795898,0.78027 0,0.40723 -0.232422,0.78321 -0.795898,0.78321 z"
   id="path76" />
		<polygon
   points="48.023926,135.55371 48.671387,135.55371 49.387207,133.33496 48.915527,133.33496 48.336426,135.18164 47.752441,133.33496 47.280762,133.33496 46.696777,135.18164 46.117676,133.33496 45.645019,133.33496 46.36084,135.55371 47.008301,135.55371 47.516113,133.93066 "
   id="polygon76" />
		<path
   d="m 51.496582,133.6543 h -0.04004 c -0.179687,-0.23535 -0.523437,-0.36719 -0.867187,-0.36719 -0.748047,0 -1.131836,0.52734 -1.131836,1.15918 0,0.63574 0.383789,1.15527 1.127929,1.15527 0.339844,0 0.699219,-0.12011 0.878907,-0.34765 h 0.03223 v 0.2998 h 0.447266 v -2.21875 h -0.447266 z m -0.795898,1.57129 c -0.575196,0 -0.78711,-0.38379 -0.78711,-0.78321 0,-0.39648 0.211914,-0.78027 0.78711,-0.78027 0.563476,0 0.795898,0.37207 0.795898,0.78027 0,0.40723 -0.232422,0.78321 -0.795898,0.78321 z"
   id="path77" />
		<path
   d="m 52.917481,133.65039 h -0.06055 v -0.31543 h -0.447266 v 2.21875 h 0.447266 v -1.02344 c 0,-0.37597 0.18457,-0.78027 0.708007,-0.78027 0.147461,0 0.275391,0.0166 0.359375,0.0322 l 0.07227,-0.43946 c -0.0918,-0.0205 -0.200195,-0.04 -0.324219,-0.04 -0.399414,0 -0.611328,0.0957 -0.754882,0.34766 z"
   id="path78" />
		<path
   d="m 55.236816,133.28711 c -0.767578,0 -1.211914,0.42383 -1.211914,1.14746 0,0.73145 0.515625,1.16699 1.247071,1.16699 0.427734,0 0.996093,-0.16406 1.124023,-0.70801 h -0.47168 c -0.108398,0.19629 -0.328125,0.33204 -0.65625,0.33204 -0.579101,0 -0.783203,-0.37989 -0.783203,-0.67969 h 1.947266 c 0.04394,-0.76367 -0.432617,-1.25879 -1.195313,-1.25879 z m -0.748047,0.94336 c 0,-0.25586 0.236329,-0.56836 0.748047,-0.56836 0.499024,0 0.743164,0.2998 0.743164,0.56836 z"
   id="path79" />
	</g>
	<g
   id="g98">
		<polygon
   points="59.296875,142.59082 59.932617,140.26367 59.99707,140.26367 59.99707,142.59082 60.46875,142.59082 60.46875,139.79199 59.636719,139.79199 58.985352,142.1709 58.90918,142.1709 58.282227,139.79199 57.446289,139.79199 57.446289,142.59082 57.917969,142.59082 57.917969,140.26367 57.986328,140.26367 58.59375,142.59082 "
   id="polygon79" />
		<path
   d="m 62.905273,140.69141 h -0.04004 c -0.179687,-0.23536 -0.523437,-0.36719 -0.867187,-0.36719 -0.748047,0 -1.131836,0.52734 -1.131836,1.15918 0,0.63574 0.383789,1.15527 1.12793,1.15527 0.339843,0 0.699218,-0.12012 0.878906,-0.34765 h 0.03223 v 0.2998 h 0.447266 v -2.21875 h -0.447266 v 0.31934 z m -0.795898,1.57129 c -0.575195,0 -0.787109,-0.38379 -0.787109,-0.78321 0,-0.39648 0.211914,-0.78027 0.787109,-0.78027 0.564453,0 0.795898,0.37207 0.795898,0.78027 0,0.40723 -0.231445,0.78321 -0.795898,0.78321 z"
   id="path80" />
		<path
   d="m 65.737305,140.69141 h -0.04004 c -0.179688,-0.23536 -0.523438,-0.36719 -0.867188,-0.36719 -0.748047,0 -1.131836,0.52734 -1.131836,1.15918 0,0.63574 0.383789,1.15527 1.12793,1.15527 0.339844,0 0.699219,-0.12012 0.878906,-0.34765 h 0.03223 v 0.2998 h 0.447265 v -2.88672 h -0.447265 z m -0.795899,1.57129 c -0.575195,0 -0.787109,-0.38379 -0.787109,-0.78321 0,-0.39648 0.211914,-0.78027 0.787109,-0.78027 0.564453,0 0.795899,0.37207 0.795899,0.78027 0,0.40723 -0.231446,0.78321 -0.795899,0.78321 z"
   id="path81" />
		<path
   d="m 67.742187,140.32422 c -0.767578,0 -1.211914,0.42383 -1.211914,1.14648 0,0.73243 0.515625,1.16797 1.247071,1.16797 0.427734,0 0.996093,-0.16406 1.124023,-0.70801 h -0.47168 c -0.108398,0.19629 -0.328125,0.33204 -0.65625,0.33204 -0.579101,0 -0.783203,-0.37989 -0.783203,-0.67969 H 68.9375 c 0.04394,-0.76367 -0.432617,-1.25879 -1.195313,-1.25879 z m -0.748046,0.94336 c 0,-0.25586 0.236328,-0.56836 0.748046,-0.56836 0.499024,0 0.743165,0.2998 0.743165,0.56836 z"
   id="path82" />
		<rect
   x="70.349609"
   y="139.66016"
   width="0.48046881"
   height="0.4082031"
   id="rect82" />
		<rect
   x="70.366211"
   y="140.37207"
   width="0.4472656"
   height="2.21875"
   id="rect83" />
		<path
   d="m 72.605469,140.32422 c -0.391602,0 -0.679688,0.11133 -0.839844,0.34765 h -0.04785 v -0.2998 H 71.27051 v 2.21875 h 0.447265 v -1.12012 c 0,-0.38769 0.131836,-0.76269 0.700196,-0.76269 0.479492,0 0.666992,0.22754 0.666992,0.6914 v 1.19141 h 0.448242 v -1.15918 c 0,-0.47656 -0.07617,-1.10742 -0.927734,-1.10742 z"
   id="path83" />
		<polygon
   points="77.376953,142.59082 77.376953,142.1709 75.59375,142.1709 75.59375,141.37891 77.256836,141.37891 77.256836,140.96777 75.59375,140.96777 75.59375,140.2041 77.360352,140.2041 77.360352,139.79199 75.12207,139.79199 75.12207,142.59082 "
   id="polygon83" />
		<path
   d="m 79.892578,141.32324 c 0,0.58789 -0.223633,0.90332 -0.775391,0.90332 -0.551757,0 -0.77539,-0.31543 -0.77539,-0.90332 v -1.53125 h -0.47168 v 1.53125 c 0,0.73145 0.248047,1.31543 1.247071,1.31543 1,0 1.24707,-0.58398 1.24707,-1.31543 v -1.53125 h -0.47168 z"
   id="path84" />
		<path
   d="m 83.30957,140.32422 c -0.344726,0 -0.688476,0.13183 -0.868164,0.36719 h -0.04004 v -0.98731 h -0.447265 v 2.88672 h 0.447265 v -0.2998 h 0.03223 c 0.179687,0.22753 0.540039,0.34765 0.879883,0.34765 0.743164,0 1.126953,-0.51953 1.126953,-1.15527 0,-0.63184 -0.383789,-1.15918 -1.13086,-1.15918 z m -0.112304,1.93848 c -0.563477,0 -0.795899,-0.37598 -0.795899,-0.78321 0,-0.4082 0.232422,-0.78027 0.795899,-0.78027 0.575195,0 0.787109,0.38379 0.787109,0.78027 0,0.39942 -0.211914,0.78321 -0.787109,0.78321 z"
   id="path85" />
		<polygon
   points="85.729492,142.32227 84.982422,140.37207 84.501953,140.37207 85.374023,142.59082 85.625977,142.59082 85.282227,143.50195 85.757812,143.50195 86.957031,140.37207 86.477539,140.37207 "
   id="polygon85" />
		<rect
   x="88.361328"
   y="139.79199"
   width="0.47167969"
   height="2.7988281"
   id="rect85" />
		<path
   d="m 90.676758,140.32422 c -0.391602,0 -0.679688,0.11133 -0.839844,0.34765 h -0.04785 v -0.2998 h -0.447265 v 2.21875 h 0.447265 v -1.12012 c 0,-0.38769 0.131836,-0.76269 0.700196,-0.76269 0.479492,0 0.666992,0.22754 0.666992,0.6914 v 1.19141 h 0.448242 v -1.15918 c 0,-0.47656 -0.07617,-1.10742 -0.927734,-1.10742 z"
   id="path86" />
		<path
   d="m 92.72168,139.7041 h -0.448243 v 0.66797 h -0.487304 v 0.41992 h 0.487304 v 1.02735 c 0,0.43554 0.07617,0.79882 0.688477,0.79882 0.183594,0 0.40332,-0.0312 0.571289,-0.0791 v -0.41992 c -0.15625,0.04 -0.399414,0.0752 -0.540039,0.0752 -0.227539,0 -0.271484,-0.0957 -0.271484,-0.38379 v -1.01856 h 0.811523 v -0.41992 H 92.72168 Z"
   id="path87" />
		<path
   d="m 94.998047,140.32422 c -0.767578,0 -1.211914,0.42383 -1.211914,1.14648 0,0.73243 0.515625,1.16797 1.24707,1.16797 0.427735,0 0.996094,-0.16406 1.124024,-0.70801 h -0.47168 c -0.108399,0.19629 -0.328125,0.33204 -0.65625,0.33204 -0.579102,0 -0.783203,-0.37989 -0.783203,-0.67969 h 1.947265 c 0.04395,-0.76367 -0.432617,-1.25879 -1.195312,-1.25879 z M 94.25,141.26758 c 0,-0.25586 0.236328,-0.56836 0.748047,-0.56836 0.499023,0 0.743164,0.2998 0.743164,0.56836 z"
   id="path88" />
		<path
   d="m 97.609375,140.70801 c 0.351562,0 0.53125,0.14355 0.643555,0.34375 h 0.5 c -0.09277,-0.45215 -0.520508,-0.72754 -1.143555,-0.72754 -0.719727,0 -1.179688,0.47949 -1.179688,1.15527 0,0.67578 0.459961,1.15918 1.179688,1.15918 0.626953,0 1.05957,-0.27637 1.143555,-0.72754 h -0.5 c -0.112305,0.1875 -0.291993,0.34375 -0.643555,0.34375 -0.435547,0 -0.723633,-0.31152 -0.723633,-0.77539 0,-0.45215 0.25586,-0.77148 0.723633,-0.77148 z"
   id="path89" />
		<path
   d="m 100.43262,140.32422 c -0.3916,0 -0.67969,0.11133 -0.839847,0.34765 h -0.04785 v -0.96777 h -0.447266 v 2.88672 h 0.447266 v -1.12012 c 0,-0.38769 0.131836,-0.76269 0.700197,-0.76269 0.47949,0 0.66699,0.22754 0.66699,0.6914 v 1.19141 h 0.44824 v -1.15918 c 0,-0.47656 -0.0762,-1.10742 -0.92773,-1.10742 z"
   id="path90" />
		<path
   d="m 104.18066,140.94336 c -0.5,-0.0801 -0.76367,-0.21973 -0.76367,-0.43945 0,-0.18848 0.2002,-0.34766 0.66797,-0.34766 0.64746,0 0.7832,0.29102 0.79883,0.51563 h 0.48437 c -0.0283,-0.38379 -0.19629,-0.92774 -1.23925,-0.92774 -0.82032,0 -1.19141,0.33984 -1.19141,0.75977 0,0.57129 0.60742,0.75097 1.16309,0.84375 0.46386,0.0752 0.8916,0.15918 0.8916,0.48339 0,0.34766 -0.45215,0.39551 -0.76367,0.39551 -0.4834,0 -0.87598,-0.12402 -0.90332,-0.52344 h -0.4795 c 0.0195,0.69922 0.63086,0.93165 1.42285,0.93165 0.83985,0 1.20313,-0.32422 1.20313,-0.80372 0,-0.63964 -0.63965,-0.7832 -1.29102,-0.88769 z"
   id="path91" />
		<path
   d="m 106.69727,139.7041 h -0.44825 v 0.66797 h -0.4873 v 0.41992 h 0.4873 v 1.02735 c 0,0.43554 0.0762,0.79882 0.68848,0.79882 0.18359,0 0.40332,-0.0312 0.57129,-0.0791 v -0.41992 c -0.15625,0.04 -0.39941,0.0752 -0.54004,0.0752 -0.22754,0 -0.27148,-0.0957 -0.27148,-0.38379 v -1.01856 h 0.81152 v -0.41992 h -0.81152 z"
   id="path92" />
		<path
   d="m 109.72852,141.49121 c 0,0.3877 -0.13184,0.76367 -0.69922,0.76367 -0.4795,0 -0.66797,-0.22754 -0.66797,-0.6914 v -1.19141 h -0.44727 v 1.15918 c 0,0.47559 0.0762,1.10742 0.92774,1.10742 0.3916,0 0.67871,-0.1123 0.83886,-0.34765 h 0.0479 v 0.2998 h 0.44824 v -2.21875 h -0.44824 v 1.11914 z"
   id="path93" />
		<path
   d="m 112.56055,140.69141 h -0.04 c -0.17969,-0.23536 -0.52344,-0.36719 -0.86719,-0.36719 -0.74805,0 -1.13184,0.52734 -1.13184,1.15918 0,0.63574 0.38379,1.15527 1.12793,1.15527 0.33985,0 0.69922,-0.12012 0.87891,-0.34765 h 0.0322 v 0.2998 h 0.44726 v -2.88672 h -0.44726 z m -0.7959,1.57129 c -0.5752,0 -0.78711,-0.38379 -0.78711,-0.78321 0,-0.39648 0.21191,-0.78027 0.78711,-0.78027 0.56348,0 0.7959,0.37207 0.7959,0.78027 0,0.40723 -0.23242,0.78321 -0.7959,0.78321 z"
   id="path94" />
		<rect
   x="113.46582"
   y="140.37207"
   width="0.4472656"
   height="2.21875"
   id="rect94" />
		<rect
   x="113.44922"
   y="139.66016"
   width="0.48046881"
   height="0.4082031"
   id="rect95" />
		<path
   d="m 115.49707,140.32422 c -0.60352,0 -1.23926,0.30762 -1.23926,1.14258 0,0.84375 0.63965,1.16406 1.23926,1.16406 0.77148,0 1.23926,-0.44824 1.23926,-1.16406 0,-0.83496 -0.63965,-1.14258 -1.23926,-1.14258 z m 0,1.92676 c -0.49512,0 -0.78711,-0.31641 -0.78711,-0.78418 0,-0.45899 0.29199,-0.75489 0.78711,-0.75489 0.49219,0 0.78418,0.29981 0.78418,0.75489 0,0.44824 -0.2998,0.78418 -0.78418,0.78418 z"
   id="path95" />
		<polygon
   points="120.3877,142.59082 120.3877,142.17871 118.68457,142.17871 118.68457,139.79199 118.21289,139.79199 118.21289,142.59082 "
   id="polygon95" />
		<path
   d="m 121.30859,139.7041 h -0.44824 v 0.66797 h -0.4873 v 0.41992 h 0.4873 v 1.02735 c 0,0.43554 0.0762,0.79882 0.68848,0.79882 0.18359,0 0.40332,-0.0312 0.57129,-0.0791 v -0.41992 c -0.15625,0.04 -0.39942,0.0752 -0.54004,0.0752 -0.22754,0 -0.27149,-0.0957 -0.27149,-0.38379 v -1.01856 h 0.81153 v -0.41992 h -0.81153 z"
   id="path96" />
		<path
   d="m 124.41211,140.69141 h -0.04 c -0.17969,-0.23536 -0.52344,-0.36719 -0.86719,-0.36719 -0.74804,0 -1.13183,0.52734 -1.13183,1.15918 0,0.63574 0.38379,1.15527 1.12793,1.15527 0.33984,0 0.69922,-0.12012 0.8789,-0.34765 h 0.0322 v 0.2998 h 0.44727 v -2.88672 h -0.44727 z m -0.7959,1.57129 c -0.57519,0 -0.78711,-0.38379 -0.78711,-0.78321 0,-0.39648 0.21192,-0.78027 0.78711,-0.78027 0.56348,0 0.7959,0.37207 0.7959,0.78027 0,0.40723 -0.23242,0.78321 -0.7959,0.78321 z"
   id="path97" />
		<path
   d="m 125.56543,142.03516 c -0.16016,0 -0.2998,0.13183 -0.2998,0.29589 0,0.15918 0.13964,0.29102 0.2998,0.29102 0.16309,0 0.2959,-0.13184 0.2959,-0.29102 0,-0.16406 -0.13281,-0.29589 -0.2959,-0.29589 z"
   id="path98" />
	</g>
</g></g>
</svg>
